ply
format ascii 1.0
comment Created by Open3D
element vertex 560
property double x
property double y
property double z
property uchar red
property uchar green
property uchar blue
element face 1121
property list uchar uint vertex_indices
end_header
-0.490803 1.97462 0.0790594 128 239 164
-0.663879 1.40386 0.529702 131 244 58
-0.518375 1.62896 0.472297 112 47 33
-0.958675 1.96763 0.308377 65 203 147
-0.876795 2.08486 0.0789839 71 204 136
-0.781949 2.0551 0.148101 175 2 117
-0.435527 1.89702 0.208985 44 237 9
-0.412043 1.76941 0.333581 21 243 229
-1.08104 1.444 0.520413 116 93 45
-1.45957 1.29982 0.384197 191 122 19
-1.56179 1.54804 0.30384 150 225 137
-1.42845 1.81226 0.273076 164 203 153
-1.26224 1.9757 0.226466 8 233 200
-1.6709 1.3369 0.136296 83 168 17
-1.68082 1.32652 0.0790607 55 210 30
-1.31937 0.77225 0.158217 223 77 214
-1.32781 0.759227 0.0788159 120 88 185
-1.62581 1.12785 0.0782695 49 18 66
-1.60979 1.7393 0.0837505 235 202 72
-1.47587 1.89716 0.11956 140 104 40
-1.28905 2.01989 0.128474 68 62 123
-0.991069 2.07894 0.151249 226 230 158
-1.58677 1.67987 0.212974 71 186 96
-1.6705 1.48246 0.150592 1 113 217
-1.24005 0.879566 0.363551 84 125 171
-0.959194 1.12796 0.545902 13 10 213
-1.08992 0.865843 0.381568 24 25 72
-1.16136 0.768848 0.237492 208 244 192
-1.18614 0.724854 0.076566 42 62 91
-0.518888 1.5237 -0.341245 133 200 189
-0.489572 1.95032 -0.00348027 51 162 65
-0.867719 2.05492 -0.0668106 42 172 162
-0.412724 1.76938 -0.175457 95 64 240
-0.457983 1.61895 -0.287029 70 223 223
-0.577114 1.81146 -0.219536 138 213 205
-1.03612 1.68926 -0.306725 232 157 83
-1.16097 1.19847 -0.348302 32 148 53
-1.45015 1.66654 -0.177011 138 59 107
-1.61662 1.51525 -0.0884335 137 119 176
-1.56526 1.30746 -0.145477 215 169 68
-1.49725 1.05964 -0.110153 72 74 88
-1.47534 1.89707 0.0395845 91 243 115
-0.977083 2.08751 0.0394638 19 78 232
-1.64845 1.61738 0.0249939 108 70 183
-1.59062 1.68779 -0.0462224 119 201 58
-1.4544 1.85567 -0.0590283 189 34 161
-1.36717 1.92314 -0.0649021 88 150 54
-1.17132 2.03804 -0.0224121 254 109 206
-1.2871 0.820163 -0.113247 11 37 28
-1.2401 0.879471 -0.205704 222 114 157
-1.04091 1.0556 -0.356464 92 144 80
-0.810676 1.16214 -0.389041 76 66 223
-1.08998 0.86535 -0.223437 96 4 112
-1.68253 1.49645 0.0792677 106 218 237
-1.04099 -0.137296 0.186138 59 95 28
-0.814312 -0.126825 0.334547 69 223 94
-0.408337 -0.137296 0.344895 85 165 211
-0.331408 -0.137296 0.296528 154 219 37
-0.218863 -0.137296 0.0536103 106 235 154
-0.330784 -0.137296 -0.199797 164 14 165
-0.407711 -0.137296 -0.249214 79 206 250
-0.555117 -0.137296 -0.253564 87 186 214
-0.845835 -0.137296 -0.174592 228 6 49
-1.04099 -0.137296 -0.137603 98 22 224
-1.04072 -0.137296 -0.292613 210 236 246
-0.187104 -0.137296 -0.292613 111 92 165
-0.187104 -0.137296 0.395087 185 251 211
-1.04072 -0.137296 0.395087 96 121 237
-0.187104 -0.137296 -0.0522256 245 177 234
-1.09809 -0.931649 -0.347814 40 199 55
-1.09809 -0.931649 0.445744 201 239 158
-0.123118 -0.931649 -0.347814 135 244 198
-0.123118 -0.931649 0.445744 240 209 166
-0.735131 0.16279 0.361447 232 190 57
-0.793108 0.159974 0.389536 189 227 230
-0.888864 0.107302 0.358516 161 97 107
-0.80682 0.277743 0.421756 4 149 228
-0.971727 0.191404 0.361176 224 7 30
-1.00323 -0.0083963 0.242476 159 94 237
-1.10542 0.0601002 0.114842 112 65 188
-1.1234 0.0705443 0.024574 248 139 153
-1.11773 -0.131172 0.013829 143 227 240
-1.00685 0.52423 0.126261 204 151 157
-0.873784 0.499087 0.410967 242 248 245
-1.00663 0.309555 0.348252 255 246 18
-1.05885 0.265067 0.238971 42 240 28
-1.11527 0.00858278 -0.0772007 10 179 193
-0.799366 -0.0788355 -0.16574 127 203 137
-0.709336 0.550713 -0.352178 155 86 84
-0.810447 0.425137 -0.328128 224 246 96
-0.855002 0.441938 -0.241629 192 72 50
-0.724723 0.379589 -0.319582 41 79 124
-0.800535 0.209327 -0.281606 155 155 241
-0.869949 0.329856 -0.245743 160 181 243
-0.797717 0.271645 -0.306039 51 163 30
-0.917234 0.23539 -0.213197 79 54 170
-0.889892 -0.00209286 -0.219107 11 144 250
-0.981292 -0.0362697 -0.186295 115 65 92
-1.00401 0.122518 -0.213291 225 150 153
-0.872779 0.546771 -0.214601 194 150 37
-0.985208 0.50235 -0.0656117 10 46 38
-1.00666 0.501582 0.00472035 199 42 161
-1.04844 0.383377 -0.0025668 81 75 61
-0.918424 0.349891 -0.20737 194 204 114
-0.953451 0.279846 -0.225609 65 45 27
-0.975853 0.372054 -0.155122 83 232 169
-1.03619 0.173199 -0.117003 189 138 175
0.0630236 0.6968 0.213534 147 87 195
0.0574012 0.678781 0.262299 30 147 110
0.0447886 0.68194 0.299118 144 96 166
0.0188796 0.702307 0.342158 134 242 128
0.0110584 0.677195 0.371408 48 237 97
0.0537702 0.762483 0.174012 12 89 82
0.0647262 0.787005 0.173453 180 193 119
0.0909292 0.801752 0.21176 17 136 40
0.087653 0.830547 0.207345 182 182 188
0.0988277 0.804303 0.262502 14 105 196
0.102205 0.843275 0.261581 103 34 28
0.0729187 0.797709 0.304364 123 176 88
-0.0358102 0.774868 0.390778 184 209 31
0.0771732 0.696327 0.187962 220 248 159
0.0916877 0.627284 0.211355 152 34 43
-0.0466944 0.775597 0.410464 89 0 32
0.118353 0.699437 0.153136 172 79 40
0.0979828 0.573928 0.201 238 208 169
0.0485277 0.481597 0.284646 93 224 223
-0.0920149 0.645485 0.442587 221 128 19
-0.0891982 0.765261 0.428824 239 234 216
-0.0115853 0.834214 0.414518 101 243 75
-0.00352875 0.814129 0.40141 36 152 83
0.014559 0.897115 0.39323 98 19 249
0.0558678 0.874742 0.377917 248 208 194
0.0385265 0.923366 0.374272 58 83 185
0.0931942 0.945388 0.306646 107 182 186
0.102148 0.90513 0.318849 0 4 72
0.102041 0.872507 0.319934 234 241 94
0.143453 0.47793 0.167669 173 62 124
0.148693 0.528386 0.176633 40 18 229
0.183472 0.824846 0.0790586 99 119 38
0.192754 0.79367 0.0790586 34 109 189
0.236787 0.674558 0.0598509 184 149 200
0.241708 0.675113 0.0790586 181 187 230
0.28699 0.562533 0.0793995 114 160 253
0.236709 0.673234 0.0981853 162 21 248
0.182743 0.791184 0.108079 170 212 249
0.159375 0.875852 0.188738 203 178 169
0.178709 0.823682 0.109829 58 40 21
0.196639 0.537565 0.148395 251 7 33
0.16328 0.572255 0.154525 4 3 4
0.159049 0.494484 0.166028 125 65 140
0.186135 0.503889 0.151733 109 54 204
0.278819 0.53888 0.118253 193 179 41
0.2325 0.509466 0.136875 223 248 35
0.274678 0.510209 0.119843 155 119 236
0.292262 0.531833 0.0885621 189 165 240
0.282854 0.506279 0.100668 36 134 223
0.2837 0.501452 0.0792322 177 22 129
0.273904 0.492465 0.107719 206 42 133
0.222132 0.495638 0.126023 87 240 121
0.0557501 0.842624 0.367457 220 119 243
0.108153 0.835202 0.20993 173 89 242
0.0669398 0.79554 0.208456 206 252 43
0.0648341 0.746805 0.208585 160 140 109
-0.00867078 0.589628 0.379937 54 149 248
-0.214992 0.489672 0.444632 113 59 4
-0.180534 0.60206 0.454526 163 81 122
0.0726642 0.341788 0.209599 224 203 130
0.135796 0.464821 0.140366 91 87 209
0.176823 0.465149 0.0873137 188 139 72
0.170023 0.488499 0.112242 248 90 122
0.144966 0.483488 0.147554 97 198 82
0.203411 0.487942 0.102132 99 177 6
0.194061 0.504633 0.109125 252 207 49
0.254818 0.479249 0.101048 108 89 6
0.243358 0.475826 0.0796257 144 96 76
0.199849 0.476903 0.079509 233 181 190
0.170755 0.398211 0.069974 76 144 173
0.18263 0.401514 0.120613 117 186 232
0.170225 0.397622 0.100575 235 35 11
0.130596 0.32483 0.143969 164 161 113
0.140612 0.360958 0.117176 80 2 123
0.142776 0.327829 0.111675 17 223 149
0.151361 0.357758 0.0654898 198 232 198
0.146482 0.328189 0.0694366 117 127 178
0.138863 0.299286 0.11032 113 170 12
0.132559 0.304165 0.144156 156 10 176
0.0996367 0.282233 0.173354 161 49 254
0.0859136 0.259353 0.187865 241 48 91
0.113876 0.267559 0.1273 201 188 105
0.130281 0.204385 0.0809204 209 67 13
0.105943 0.148223 0.149162 46 111 48
0.0771732 0.114269 0.162549 246 49 10
0.0469215 0.195643 0.227682 31 22 144
0.266422 0.480584 0.0794874 54 155 52
0.12419 0.167829 0.0809204 150 129 85
0.0146511 0.140018 0.227904 132 6 197
-0.152695 0.259616 0.363809 95 183 84
0.0607476 0.0810439 0.0864667 74 55 78
-0.170659 0.043777 0.0810716 103 7 77
-0.199283 0.0363732 0.0892985 108 61 150
-0.205648 0.0347185 0.0666571 175 57 68
-0.222247 0.0376372 0.134388 177 15 225
0.0518709 0.0876393 0.153771 217 222 219
-0.0460175 0.0740152 0.17466 213 216 198
-0.252712 0.0648687 0.202178 198 5 168
-0.00837311 0.101233 0.20637 116 113 153
-0.275126 0.0968501 0.25216 21 11 87
-0.298518 0.431387 0.433 131 250 110
-0.43809 0.360649 0.41542 224 128 152
-0.324078 0.232096 0.375431 58 132 240
-0.403452 0.243213 0.375555 50 45 112
-0.418498 0.211521 0.373531 220 250 190
-0.377307 0.206197 0.349905 132 81 224
-0.313473 0.126325 0.28677 238 210 73
-0.258514 0.124418 0.294055 218 79 62
-0.382099 0.0282901 0.348472 218 20 87
-0.557824 0.353598 0.394928 120 184 101
0.156577 1.04094 0.119882 137 241 224
0.118026 0.970425 0.279122 255 105 102
0.152778 1.12419 0.141964 83 51 73
0.06641 0.938926 0.345459 110 185 20
0.0638396 0.955836 0.394873 166 72 66
0.0904105 0.955736 0.360794 210 140 160
0.108919 0.966456 0.333633 198 119 33
0.00243915 0.873898 0.488265 178 232 67
-0.0598917 0.81523 0.521778 26 178 252
-0.126161 0.665173 0.537552 132 171 6
-0.340003 0.687155 0.61642 179 128 80
-0.239478 0.639607 0.613593 118 146 100
-0.260953 0.547636 0.500027 124 92 149
-0.217048 0.591803 0.580272 74 64 116
-0.432674 0.628251 0.618956 14 158 82
-0.31294 0.609925 0.638341 222 41 205
-0.280736 0.562314 0.564203 25 32 207
-0.325181 0.531985 0.603737 19 9 142
-0.343335 0.464712 0.543194 30 137 249
-0.599726 0.527539 0.596384 205 74 11
-0.703166 0.542318 0.512659 107 166 208
-0.653852 0.46789 0.543193 108 137 211
-0.576419 0.455812 0.565074 195 52 85
-0.561843 0.435159 0.528581 85 124 184
-0.542027 0.376147 0.497173 26 61 176
-0.43595 0.473071 0.606509 140 237 54
-0.323059 0.43476 0.537721 39 248 153
-0.390406 0.428439 0.573304 12 13 188
-0.575654 0.370318 0.448714 199 50 101
-0.0107762 1.2336 0.365601 132 230 34
0.0304746 1.28802 0.292908 144 224 237
-0.0282131 1.26496 0.375281 88 226 25
-0.00142895 1.32059 0.338615 48 3 212
0.0120587 1.33474 0.305606 239 250 167
0.0421467 1.25009 0.297407 48 117 75
-0.100439 1.43368 0.332297 100 82 31
-0.00851831 1.38278 0.224345 159 201 206
0.0189387 1.34398 0.203199 76 148 203
0.0253001 1.32798 0.242001 190 240 128
0.0604201 1.27349 0.252684 216 246 85
0.0425127 1.31436 0.226547 45 39 148
0.0251399 1.09989 0.407312 212 109 191
0.0202474 1.0374 0.419212 106 103 3
0.0114224 1.0609 0.426903 62 148 123
-0.00822687 1.02967 0.438618 253 204 194
-0.0078714 1.00836 0.42932 8 60 69
0.322712 0.997495 0.205025 117 78 54
0.31377 1.05628 0.205199 85 26 138
0.338708 1.02433 0.172677 187 136 204
0.325059 1.06968 0.152952 66 207 219
0.323735 1.05611 0.136209 225 101 21
0.311303 1.0959 0.134902 246 230 90
0.305401 1.08386 0.11954 63 198 192
0.211642 1.19139 0.131309 109 23 221
0.123998 1.27154 0.151699 12 205 37
0.113731 1.26759 0.132984 139 166 167
0.0141144 1.34204 0.174744 37 116 179
-0.0299153 1.37768 0.19555 40 236 79
-0.0223004 1.25271 0.401151 97 204 212
0.0215161 1.14389 0.382171 8 40 196
0.0144414 1.19885 0.397346 104 209 191
0.0239338 1.15492 0.402621 28 234 161
-0.144315 0.980124 0.493698 125 215 62
-0.114659 0.997581 0.494214 203 14 38
-0.222365 0.987366 0.509804 57 59 103
-0.201427 1.00306 0.514398 182 161 4
-0.288656 1.02388 0.510589 188 22 97
-0.265531 1.03448 0.522597 69 197 177
0.0219868 1.11853 0.417295 64 167 148
-0.0548061 1.26448 0.386199 168 59 2
-0.044102 1.24934 0.405608 6 225 40
-0.0640577 1.22728 0.401281 121 78 250
-0.0958169 1.38256 0.375023 232 243 20
-0.116923 1.26441 0.425514 211 124 176
-0.221004 1.43585 0.355425 189 21 11
-0.258202 1.35717 0.446971 148 176 50
-0.265203 1.40106 0.424448 42 35 67
-0.294657 1.40494 0.408276 207 82 138
-0.352601 1.31339 0.467195 178 83 101
-0.163931 1.26692 0.439667 152 47 60
-0.117137 1.23912 0.421165 123 190 236
-0.050195 1.17263 0.415579 222 60 232
-0.345791 1.14456 0.51242 235 13 199
0.345243 0.97513 0.18581 76 54 255
0.286129 0.972186 0.252121 233 24 115
-0.169701 0.954755 0.510622 100 26 68
-0.342268 0.968564 0.540092 250 125 252
0.388253 0.976468 0.104296 96 125 65
0.345717 1.05805 0.0919644 195 50 10
0.0908366 1.31582 0.0790644 63 31 184
-0.147326 1.59926 0.106679 163 222 37
-0.168465 1.56223 0.117742 66 150 147
-0.157842 1.45517 0.276977 25 236 204
-0.225722 1.45226 0.325261 181 199 96
-0.246419 1.45774 0.345491 249 231 201
-0.181238 1.64533 0.0790594 62 112 234
-0.243714 1.46109 0.323371 25 239 136
-0.250581 1.48003 0.32617 100 236 2
-0.25811 1.57229 0.324093 129 168 76
-0.245711 1.60697 0.293947 247 136 179
-0.225982 1.64292 0.222563 188 255 216
-0.240739 1.59053 0.232046 155 218 137
-0.229778 1.49211 0.304196 188 82 77
-0.321941 1.77139 0.167618 127 91 59
-0.36126 1.68526 0.320612 195 235 205
-1.07241 0.690086 0.221745 91 31 246
-0.942903 0.833442 0.432179 52 254 177
-0.722588 1.05211 0.519002 61 24 93
-0.50473 1.05931 0.536133 150 53 247
-0.804419 0.648751 0.440572 146 117 153
-0.912673 0.578618 0.336337 194 65 121
-0.475917 0.913617 0.561175 129 212 98
-0.622681 0.75073 0.543289 245 72 87
-0.614963 0.634187 0.628557 174 211 91
-0.358348 0.864482 0.594713 225 51 2
-0.411053 0.723465 0.658234 151 220 173
-0.536004 0.604682 0.649238 114 69 177
-0.108882 0.872147 0.60114 50 93 242
0.0525907 1.15138 0.280781 195 47 182
0.168486 0.503454 0.133204 72 152 160
0.0630848 0.703865 -0.0429481 82 244 26
0.0574743 0.683042 -0.0878109 247 108 229
0.0448592 0.684013 -0.123363 32 153 142
0.0189357 0.701741 -0.166731 237 199 250
0.0314005 0.653641 -0.170562 244 70 35
0.0111309 0.67598 -0.199028 239 231 159
-0.00875061 0.722853 -0.193473 75 168 198
-0.00434674 0.763568 -0.195919 140 76 127
0.0537864 0.771679 -0.010402 106 115 200
0.0647255 0.796193 -0.0114196 228 70 189
0.0909179 0.808737 -0.0478174 131 253 58
0.0876219 0.837728 -0.0454946 143 150 24
0.0988141 0.808342 -0.0957664 62 145 181
0.102165 0.847295 -0.0973007 23 172 224
0.072909 0.799269 -0.135576 160 188 54
0.00559534 0.794264 -0.205176 218 30 53
-0.0358047 0.771153 -0.219859 188 168 146
0.0960537 0.627587 -0.0370482 35 72 75
-0.00146899 0.641366 -0.222668 68 234 201
-0.0194018 0.709773 -0.221408 117 71 211
-0.04669 0.773997 -0.239591 153 40 26
0.138889 0.575268 -0.00424364 217 81 129
0.0800428 0.495374 -0.0995616 72 67 95
0.0201669 0.541108 -0.194346 36 64 246
-0.091921 0.643578 -0.271914 95 90 157
-0.089187 0.763472 -0.25849 162 115 65
-0.0116216 0.8326 -0.244246 177 138 96
-0.00355096 0.812636 -0.230627 225 99 205
0.0558037 0.873494 -0.207285 103 76 24
0.038429 0.922135 -0.204032 45 156 57
0.0930824 0.944783 -0.137393 38 190 64
0.102064 0.904427 -0.148917 247 118 5
0.10198 0.871796 -0.149683 245 111 94
0.133842 0.906106 -0.0892118 135 62 178
0.119163 0.975428 -0.0716808 217 28 95
0.143666 0.478591 -0.00153723 81 18 148
0.148871 0.528972 -0.010321 32 231 222
0.125773 0.505175 -0.00914186 215 51 149
0.130248 0.464861 0.0157433 55 27 156
0.18274 0.79238 0.0496733 131 179 201
0.169095 0.84895 0.0245191 65 170 125
0.130379 0.874129 -0.0924617 41 70 190
0.19681 0.538428 0.0155713 27 235 214
0.162296 0.495439 0.00358445 99 69 221
0.186329 0.504718 0.0128517 107 59 84
0.27899 0.540064 0.043057 145 62 1
0.227512 0.503586 0.0314153 11 212 239
0.274869 0.511377 0.0419079 142 145 12
0.290223 0.533189 0.0614289 113 73 164
0.283048 0.507625 0.05934 248 209 114
0.274108 0.493739 0.0530949 244 247 192
0.108118 0.842239 -0.0481922 184 12 245
0.0669329 0.80271 -0.0443505 166 230 9
0.0648608 0.75406 -0.0414407 51 27 116
-0.0273636 0.588038 -0.23935 68 55 42
-0.214791 0.487669 -0.272842 111 203 100
-0.154934 0.64011 -0.276842 183 176 153
0.176369 0.468099 0.0645191 152 128 149
0.170667 0.493534 0.0520945 227 48 108
0.146321 0.486769 0.0194208 231 153 201
0.203618 0.489216 0.0582054 223 225 50
0.193433 0.505643 0.0509489 164 168 77
0.255031 0.480569 0.0592771 208 147 183
0.0446589 0.337443 -0.136507 128 106 67
0.182914 0.40418 0.0424079 200 38 90
0.070761 0.338757 -0.037775 66 60 56
0.130914 0.325351 0.0213449 31 171 90
0.140906 0.363104 0.0457374 253 157 72
0.140922 0.328224 0.0420573 92 186 54
0.139199 0.29926 0.0519941 233 184 199
0.132892 0.303684 0.0212173 226 32 247
0.0999842 0.280976 -0.00598893 68 42 14
0.0862768 0.258052 -0.0196641 19 246 18
0.114234 0.265864 0.0364203 11 64 31
0.115958 0.258114 0.0620141 251 44 187
0.114799 0.243568 0.03265 74 9 192
0.106383 0.149033 0.0188284 143 133 24
0.0776368 0.114944 0.00685193 18 51 4
0.0150963 0.140078 -0.0543706 220 168 77
-0.212245 0.0430803 0.0320546 249 150 114
0.0523532 0.0883738 0.015207 64 153 40
-0.0455262 0.0745003 -0.0039355 195 128 224
-0.252214 0.0649713 -0.0294538 106 150 135
-0.00790094 0.101466 -0.0337454 246 211 200
-0.182616 0.145449 -0.128217 126 101 45
-0.383941 0.375739 -0.251917 166 234 178
-0.486217 0.3607 -0.233565 131 208 253
-0.43537 0.286901 -0.216368 11 234 8
-0.483743 0.240759 -0.251053 186 104 96
-0.403079 0.241692 -0.1995 42 166 204
-0.407606 0.220603 -0.225626 171 78 167
-0.313019 0.125645 -0.110529 246 136 36
-0.258059 0.123712 -0.117584 165 31 221
-0.575342 0.329517 -0.290597 99 228 189
0.0637198 0.956139 -0.236755 17 206 93
0.107052 0.960458 -0.174914 228 45 207
0.0047677 0.854436 -0.308766 226 0 204
-0.0111457 0.889551 -0.341309 46 196 35
-0.0854422 0.846758 -0.373999 241 131 226
-0.0647652 0.836216 -0.324627 27 78 2
-0.091305 0.837958 -0.393483 75 222 115
-0.059916 0.815447 -0.363658 248 148 46
-0.0509992 0.805759 -0.330923 39 154 173
-0.099123 0.738152 -0.350063 33 222 1
-0.101532 0.764722 -0.360174 232 236 115
-0.126082 0.665345 -0.379432 193 214 45
-0.260792 0.547715 -0.341906 188 43 172
-0.312824 0.609967 -0.480219 0 142 159
-0.4866 0.535292 -0.440895 131 62 95
-0.280586 0.562378 -0.406081 208 248 14
-0.229586 0.545172 -0.364246 126 139 172
-0.56358 0.561598 -0.455869 5 22 134
-0.350495 0.424698 -0.392062 20 247 90
-0.561573 0.389197 -0.370464 120 87 170
-0.597328 0.444215 -0.421275 109 47 230
-0.702967 0.491629 -0.354542 167 196 230
-0.623763 0.461269 -0.38169 74 192 173
-0.653244 0.532498 -0.391517 86 241 106
-0.322821 0.434795 -0.379598 207 181 78
-0.390163 0.428428 -0.415182 140 132 224
-0.624368 0.284391 -0.305665 52 8 132
-0.0110876 1.23385 -0.207482 120 247 251
0.0301265 1.2883 -0.13479 190 174 85
-0.0285463 1.2652 -0.217162 18 123 246
-0.00180011 1.32085 -0.180495 142 176 222
0.0116781 1.33501 -0.147487 39 243 164
0.0418246 1.25037 -0.139288 227 172 157
0.170234 1.19407 -0.0660957 23 206 23
-0.100888 1.43387 -0.174177 39 240 43
-0.00893115 1.38303 -0.0662259 209 71 174
0.0185529 1.34425 -0.0450801 249 54 71
0.0249249 1.32826 -0.0838822 87 246 15
0.0600825 1.27379 -0.094566 14 92 187
0.0421471 1.31465 -0.0684288 58 13 235
0.0249204 1.10017 -0.249193 79 163 82
0.0200709 1.03767 -0.261093 5 181 249
0.0112296 1.06117 -0.268784 155 68 207
-0.00839831 1.02992 -0.280499 54 82 177
-0.0522651 0.999594 -0.295078 38 212 57
-0.00802801 1.00861 -0.271201 13 193 49
0.322566 0.997976 -0.0469092 164 11 17
0.337021 1.02309 -0.0178161 198 75 213
0.313582 1.05676 -0.0470832 76 18 175
0.324961 1.0701 0.00515979 89 35 242
0.323548 1.0566 0.021906 51 223 6
0.289946 1.11592 -0.0018886 77 12 149
0.311089 1.09637 0.0232131 147 100 241
0.305196 1.08432 0.0385755 190 102 207
0.206341 1.18438 0.0389128 111 45 5
0.0137303 1.34231 -0.0166253 42 49 18
-0.0303243 1.37792 -0.0374304 20 85 158
-0.0226253 1.25295 -0.243032 55 136 191
0.0212665 1.14417 -0.224052 91 190 192
0.0173133 1.19768 -0.235778 156 202 183
0.0291256 1.15299 -0.240363 103 169 102
-0.144452 0.980283 -0.335578 157 233 247
-0.114808 0.99776 -0.336093 142 76 130
-0.222508 0.987471 -0.351683 209 173 229
-0.201581 1.00317 -0.356277 184 41 38
-0.288824 1.02394 -0.352466 226 161 95
-0.265706 1.03455 -0.364475 248 66 179
0.0217542 1.1188 -0.259176 10 132 46
-0.0551391 1.2647 -0.228079 177 39 55
-0.0444247 1.24956 -0.247489 134 59 191
-0.0643651 1.22749 -0.243161 25 124 221
-0.0962313 1.38275 -0.216903 17 72 132
-0.117256 1.26459 -0.267394 135 245 160
-0.221455 1.43596 -0.197303 6 39 77
-0.2586 1.35725 -0.288849 47 50 33
-0.265631 1.40113 -0.266326 83 82 231
-0.295087 1.405 -0.250153 1 24 246
-0.352968 1.3134 -0.309072 190 232 35
-0.164266 1.26706 -0.281546 211 111 145
-0.117453 1.2393 -0.263045 247 232 59
-0.0504648 1.17285 -0.25746 235 232 112
-0.376586 1.14678 -0.340017 71 246 116
0.345112 0.975626 -0.0276945 46 67 31
0.285999 0.972641 -0.0940055 177 101 148
0.00573907 0.976569 -0.277428 227 76 174
-0.112171 0.964561 -0.33224 244 97 10
-0.169822 0.954896 -0.352501 74 138 199
-0.342399 0.968587 -0.381969 105 230 137
0.388122 0.976995 0.053819 111 68 22
0.0432645 1.39022 0.0953485 48 248 85
0.000944947 1.38886 0.0711874 176 131 66
-0.147886 1.59941 0.0514419 218 33 3
-0.169001 1.56237 0.0403792 72 209 30
-0.158306 1.45532 -0.118856 149 42 143
-0.211705 1.62639 -0.0699818 243 27 30
-0.245484 1.46166 -0.172257 134 74 174
-0.251062 1.48012 -0.168048 227 215 230
-0.268172 1.50894 -0.199007 141 247 77
-0.246279 1.60706 -0.135825 90 11 12
-0.24427 1.55869 -0.146065 241 2 101
-0.249729 1.54199 -0.132444 252 222 199
-0.241274 1.58127 -0.0779079 99 156 141
-0.230267 1.49221 -0.146074 129 166 78
-0.343853 1.7222 -0.117592 197 11 36
-0.320246 1.77708 0.0107773 151 197 99
-1.09551 0.653736 0.00334367 142 163 8
-0.722776 1.05187 -0.360874 242 249 158
-0.595736 1.18043 -0.366364 66 216 114
-0.641448 0.773595 -0.366762 194 97 198
-0.476009 0.913547 -0.403051 188 221 42
-0.701767 0.639652 -0.338129 76 237 193
-0.526054 0.784133 -0.418403 212 4 47
-0.659631 0.617856 -0.390122 98 230 212
-0.564717 0.663593 -0.485424 31 157 66
-0.614834 0.591202 -0.470439 67 32 120
-0.358407 0.864494 -0.43659 96 148 112
-0.411015 0.72344 -0.500111 5 20 80
-0.430396 0.694564 -0.506072 226 40 11
-0.604977 0.518345 -0.461354 28 44 152
-0.535885 0.604571 -0.491113 223 182 160
-0.437359 0.655471 -0.491494 69 46 106
-0.108946 0.872331 -0.44302 180 71 150
-0.109875 0.917879 -0.418817 84 138 75
0.052337 1.15168 -0.122663 190 173 98
0.144277 1.22056 0.0590417 11 240 70
0.163113 0.500945 0.0311262 142 226 151
0.175918 0.820665 0.0370962 226 252 28
0.0477246 0.33862 0.294363 72 159 24
-0.613911 -0.137296 0.395087 4 10 192
3 6 535 0
3 1 2 3
3 6 0 5
3 3 2 7
3 6 5 7
3 7 5 3
3 8 3 11
3 11 10 8
3 9 8 10
3 12 11 3
3 21 12 3
3 11 22 10
3 9 10 13
3 17 16 15
3 9 17 24
3 17 15 24
3 13 14 17
3 21 42 20
3 4 21 5
3 42 21 4
3 21 20 12
3 21 3 5
3 23 10 22
3 23 53 13
3 14 13 53
3 23 13 10
3 17 9 13
3 43 23 18
3 22 18 23
3 22 11 18
3 19 18 11
3 11 12 19
3 20 19 12
3 9 24 25
3 25 1 8
3 25 8 9
3 3 8 1
3 24 26 25
3 26 24 15
3 15 27 26
3 28 27 16
3 15 16 27
3 535 30 0
3 0 30 5
3 5 30 4
3 30 31 4
3 32 33 34
3 29 34 33
3 32 34 30
3 30 34 31
3 35 31 34
3 34 29 35
3 35 36 37
3 46 35 37
3 46 31 35
3 31 46 47
3 38 44 37
3 36 39 37
3 40 17 39
3 16 40 48
3 38 37 39
3 41 18 19
3 20 47 41
3 41 19 20
3 47 20 42
3 42 4 31
3 42 31 47
3 38 43 44
3 37 45 46
3 53 43 38
3 53 38 39
3 39 14 53
3 40 16 17
3 17 14 39
3 37 44 45
3 18 44 43
3 44 18 41
3 41 45 44
3 41 46 45
3 46 41 47
3 39 49 40
3 40 49 48
3 51 36 29
3 49 39 36
3 36 50 49
3 36 51 50
3 36 35 29
3 49 50 52
3 49 52 48
3 48 52 28
3 28 16 48
3 53 23 43
3 63 62 64
3 64 62 61
3 61 65 64
3 59 65 60
3 67 559 55
3 58 66 68
3 68 65 59
3 58 57 66
3 57 56 66
3 60 65 61
3 68 59 58
3 559 66 56
3 54 67 55
3 63 64 69
3 64 65 71
3 559 67 70
3 70 72 66
3 68 66 72
3 71 69 64
3 65 68 72
3 72 71 65
3 72 70 69
3 71 72 69
3 75 55 73
3 73 245 74
3 75 73 74
3 76 83 84
3 77 75 76
3 76 75 245
3 74 245 75
3 55 75 54
3 54 75 78
3 85 78 75
3 78 85 79
3 75 77 85
3 84 85 77
3 78 81 54
3 80 79 85
3 79 81 78
3 83 327 82
3 85 84 82
3 83 82 84
3 82 85 83
3 84 83 85
3 87 62 63
3 453 450 89
3 90 88 89
3 89 88 452
3 452 453 89
3 90 89 91
3 91 89 450
3 93 90 91
3 91 430 94
3 98 94 92
3 92 96 98
3 93 91 95
3 95 91 98
3 98 91 94
3 98 92 96
3 457 96 92
3 97 87 63
3 87 97 96
3 96 457 87
3 96 97 98
3 97 86 98
3 106 95 98
3 63 86 97
3 81 86 63
3 81 63 54
3 100 99 102
3 100 102 101
3 82 101 102
3 99 105 102
3 99 90 105
3 90 93 103
3 104 103 93
3 104 93 95
3 105 103 104
3 105 90 103
3 104 106 102
3 102 105 104
3 95 106 104
3 102 106 85
3 106 102 105
3 105 104 106
3 82 102 85
3 79 86 81
3 98 80 106
3 80 85 106
3 86 80 98
3 86 79 80
3 120 107 121
3 108 121 107
3 109 121 108
3 111 109 110
3 108 118 109
3 118 108 162
3 107 162 108
3 162 107 112
3 114 113 115
3 114 115 116
3 117 116 115
3 116 117 118
3 112 107 120
3 123 112 120
3 123 120 148
3 121 148 120
3 111 110 119
3 119 122 111
3 121 124 148
3 123 144 112
3 123 148 144
3 137 124 125
3 121 125 124
3 125 121 109
3 136 149 137
3 163 125 111
3 125 109 111
3 126 122 127
3 128 127 122
3 129 128 122
3 130 128 131
3 130 131 132
3 134 131 135
3 133 134 145
3 145 217 133
3 124 137 148
3 151 142 143
3 141 143 142
3 141 139 143
3 144 143 139
3 141 140 139
3 146 217 145
3 134 135 145
3 112 146 113
3 146 112 144
3 217 146 138
3 143 144 148
3 147 151 148
3 149 150 137
3 137 150 147
3 137 147 148
3 144 139 146
3 138 146 139
3 148 151 143
3 147 150 151
3 152 151 150
3 153 151 152
3 151 153 154
3 155 154 153
3 142 151 154
3 155 156 154
3 157 156 155
3 155 153 157
3 158 157 152
3 153 152 157
3 122 119 129
3 159 129 119
3 128 129 159
3 128 159 131
3 131 159 135
3 145 135 117
3 118 117 135
3 135 159 118
3 117 160 145
3 160 117 115
3 115 113 160
3 160 113 145
3 146 145 113
3 116 118 114
3 161 114 118
3 114 161 113
3 112 113 162
3 161 162 113
3 110 159 119
3 159 110 118
3 109 118 110
3 162 161 118
3 126 164 163
3 164 165 207
3 165 164 126
3 126 127 165
3 126 163 122
3 163 111 122
3 169 167 168
3 170 136 167
3 136 170 149
3 166 167 125
3 168 171 169
3 172 169 171
3 150 158 152
3 157 158 173
3 174 173 171
3 158 171 173
3 175 174 171
3 175 171 168
3 558 166 125
3 125 167 136
3 167 177 168
3 196 192 558
3 166 177 167
3 177 178 168
3 168 178 176
3 166 179 180
3 181 180 179
3 180 181 182
3 183 182 181
3 181 184 183
3 184 181 185
3 179 185 181
3 185 179 166
3 185 166 186
3 166 187 186
3 187 188 186
3 188 185 186
3 184 185 188
3 192 166 558
3 184 188 411
3 188 189 411
3 188 187 190
3 192 190 187
3 192 187 166
3 190 192 191
3 173 174 193
3 173 193 157
3 156 157 193
3 190 194 188
3 189 188 194
3 190 197 194
3 197 190 191
3 202 191 195
3 192 195 191
3 192 196 195
3 163 196 558
3 199 200 198
3 201 198 202
3 197 202 198
3 198 201 199
3 202 203 201
3 204 201 203
3 205 203 202
3 203 205 204
3 191 202 197
3 195 205 202
3 196 214 195
3 205 195 214
3 214 204 205
3 215 211 559
3 196 163 164
3 196 164 207
3 209 196 207
3 209 207 208
3 209 214 196
3 209 208 210
3 210 208 211
3 211 212 210
3 209 210 212
3 212 213 209
3 213 206 214
3 204 214 206
3 214 209 213
3 200 199 58
3 199 201 58
3 58 201 204
3 204 206 58
3 206 57 58
3 57 206 215
3 57 215 56
3 215 212 211
3 212 215 213
3 206 213 215
3 216 211 208
3 216 55 211
3 216 73 55
3 56 215 559
3 217 219 218
3 217 218 133
3 134 133 220
3 134 220 131
3 132 131 220
3 221 132 220
3 222 221 220
3 222 223 221
3 223 222 133
3 220 133 222
3 133 218 223
3 132 221 130
3 221 224 128
3 128 224 334
3 225 128 334
3 127 128 225
3 334 228 225
3 226 127 225
3 165 127 226
3 227 228 334
3 225 228 226
3 165 226 228
3 227 231 232
3 231 333 234
3 227 232 228
3 228 232 230
3 234 232 231
3 233 232 234
3 229 230 233
3 233 230 232
3 333 236 239
3 333 242 234
3 233 243 229
3 230 229 165
3 228 230 165
3 235 234 242
3 234 235 233
3 236 238 239
3 239 238 240
3 238 237 83
3 237 238 236
3 83 245 238
3 241 238 245
3 241 240 238
3 240 241 244
3 239 242 333
3 243 233 235
3 242 239 240
3 243 235 244
3 242 244 235
3 240 244 242
3 207 243 208
3 244 208 243
3 216 208 245
3 241 208 244
3 207 165 243
3 165 229 243
3 245 208 241
3 245 73 216
3 245 83 76
3 251 256 247
3 250 249 247
3 248 246 249
3 247 249 251
3 251 249 246
3 250 252 249
3 250 253 252
3 252 289 249
3 255 254 253
3 255 253 250
3 255 250 247
3 255 247 256
3 251 264 256
3 257 254 255
3 255 256 257
3 251 246 276
3 276 264 251
3 276 258 264
3 264 258 259
3 260 259 258
3 259 260 261
3 261 262 259
3 264 301 265
3 264 259 262
3 265 266 264
3 266 265 267
3 264 266 268
3 268 266 269
3 267 269 266
3 268 270 264
3 270 271 264
3 264 271 254
3 254 257 264
3 256 264 257
3 270 268 269
3 272 271 270
3 271 272 254
3 273 254 272
3 254 273 253
3 274 253 273
3 248 275 246
3 275 277 246
3 246 277 276
3 278 276 277
3 278 258 276
3 261 280 262
3 279 262 280
3 282 279 280
3 279 282 281
3 281 282 283
3 284 283 282
3 285 258 278
3 258 285 260
3 260 285 261
3 248 286 275
3 287 275 286
3 288 287 286
3 288 286 289
3 248 289 286
3 249 289 248
3 253 274 309
3 252 291 289
3 309 252 253
3 290 288 289
3 296 290 289
3 289 291 292
3 289 292 296
3 293 292 291
3 295 292 293
3 294 295 293
3 293 291 294
3 290 296 297
3 288 290 297
3 287 288 298
3 296 282 298
3 285 298 282
3 297 296 298
3 298 288 297
3 277 275 278
3 287 278 275
3 278 287 285
3 298 285 287
3 282 261 285
3 296 292 282
3 280 261 282
3 284 282 295
3 299 284 295
3 292 295 282
3 299 283 284
3 265 263 304
3 300 304 263
3 301 300 263
3 265 301 263
3 301 264 221
3 262 221 264
3 221 262 224
3 224 262 302
3 279 302 262
3 303 302 281
3 279 281 302
3 283 303 281
3 265 304 267
3 305 267 304
3 267 305 269
3 305 484 270
3 305 270 269
3 306 273 272
3 273 520 274
3 520 309 274
3 318 309 520
3 310 291 309
3 309 291 252
3 310 311 291
3 311 294 291
3 294 315 295
3 307 320 317
3 320 307 312
3 311 310 313
3 313 314 311
3 294 311 315
3 314 315 311
3 318 308 317
3 317 308 307
3 317 316 318
3 318 316 314
3 315 314 316
3 314 319 318
3 319 314 313
3 310 319 313
3 319 310 309
3 520 308 318
3 309 318 319
3 306 272 270
3 283 299 303
3 325 299 295
3 299 325 303
3 535 6 320
3 321 317 320
3 7 321 6
3 320 6 321
3 317 321 316
3 316 321 315
3 2 315 321
3 321 7 2
3 315 2 295
3 324 325 295
3 2 1 295
3 27 28 322
3 322 323 27
3 26 323 25
3 324 25 323
3 25 324 1
3 1 324 295
3 326 324 323
3 326 323 327
3 323 322 327
3 82 327 322
3 329 325 324
3 329 324 326
3 27 323 26
3 82 322 101
3 329 328 325
3 326 327 83
3 326 83 329
3 329 83 237
3 237 330 329
3 329 330 331
3 332 331 330
3 334 331 332
3 329 331 328
3 331 303 328
3 325 328 303
3 303 331 334
3 332 330 333
3 236 330 237
3 330 236 333
3 231 332 333
3 332 231 227
3 332 227 334
3 303 334 302
3 224 302 334
3 172 171 158
3 172 158 150
3 180 177 166
3 128 130 221
3 180 182 178
3 178 177 180
3 182 176 178
3 304 300 301
3 335 555 301
3 301 221 335
3 304 301 555
3 218 219 335
3 555 335 219
3 219 217 555
3 221 223 335
3 223 218 335
3 150 149 336
3 167 169 336
3 169 172 336
3 170 167 336
3 149 170 336
3 172 150 336
3 359 338 337
3 359 339 338
3 339 359 341
3 341 340 339
3 341 342 343
3 343 340 341
3 340 343 344
3 351 338 339
3 338 351 390
3 390 337 338
3 337 390 345
3 346 347 348
3 348 347 349
3 349 350 348
3 350 349 351
3 344 352 365
3 344 353 352
3 354 359 337
3 337 345 354
3 342 341 355
3 355 356 342
3 343 342 356
3 343 356 353
3 344 343 353
3 357 353 356
3 376 354 345
3 345 346 377
3 376 358 354
3 359 354 358
3 359 360 341
3 360 391 355
3 341 360 355
3 361 362 356
3 357 356 362
3 362 363 364
3 364 357 362
3 363 366 365
3 365 368 369
3 368 367 370
3 217 377 370
3 217 370 371
3 371 370 367
3 374 359 373
3 373 359 358
3 372 359 374
3 138 377 217
3 140 141 142
3 376 139 140
3 378 370 377
3 370 378 369
3 369 368 370
3 557 345 377
3 138 557 377
3 376 140 358
3 382 379 358
3 381 380 373
3 381 373 379
3 379 373 358
3 376 138 139
3 358 140 382
3 381 379 382
3 382 383 381
3 382 384 383
3 384 382 385
3 385 386 384
3 385 382 140
3 140 142 385
3 154 385 142
3 385 154 156
3 156 386 385
3 156 387 386
3 384 386 387
3 383 384 387
3 353 357 364
3 364 352 353
3 352 364 365
3 364 363 365
3 369 378 350
3 350 351 369
3 365 369 351
3 378 377 388
3 388 350 378
3 350 388 348
3 346 348 388
3 346 388 377
3 389 351 347
3 389 347 346
3 346 345 390
3 390 389 346
3 365 340 344
3 340 365 351
3 351 339 340
3 349 347 351
3 389 390 351
3 391 392 361
3 392 393 361
3 393 362 361
3 391 361 356
3 355 391 356
3 391 360 400
3 375 359 372
3 375 395 394
3 372 396 375
3 396 372 380
3 380 372 374
3 374 373 380
3 397 394 395
3 395 398 397
3 383 387 399
3 399 174 397
3 397 383 399
3 174 175 397
3 397 175 168
3 168 394 397
3 394 168 176
3 402 400 359
3 402 359 375
3 400 360 359
3 402 375 401
3 401 394 176
3 402 409 400
3 404 403 402
3 404 405 403
3 405 404 182
3 182 183 405
3 183 184 406
3 406 405 183
3 405 406 407
3 407 403 405
3 403 407 402
3 402 407 408
3 409 402 408
3 410 409 408
3 407 410 408
3 407 406 410
3 411 412 410
3 409 410 412
3 410 406 411
3 411 406 184
3 189 412 411
3 413 412 194
3 413 409 412
3 409 413 414
3 409 414 400
3 174 399 193
3 193 399 387
3 387 156 193
3 194 412 189
3 197 413 194
3 413 197 414
3 414 417 415
3 415 400 414
3 400 415 421
3 421 391 400
3 198 416 197
3 416 198 200
3 197 418 417
3 418 197 416
3 416 419 418
3 418 420 417
3 418 419 420
3 414 197 417
3 420 415 417
3 415 420 421
3 419 421 420
3 393 392 422
3 422 424 423
3 425 423 424
3 425 59 60
3 392 391 421
3 392 426 422
3 426 392 421
3 426 424 422
3 424 426 427
3 427 425 424
3 428 427 426
3 419 428 429
3 426 429 428
3 58 419 416
3 416 200 58
3 58 59 419
3 425 427 59
3 59 427 428
3 59 428 419
3 421 419 429
3 429 426 421
3 423 425 430
3 457 430 61
3 62 87 61
3 60 61 425
3 425 61 430
3 61 87 457
3 555 217 371
3 367 368 365
3 365 366 367
3 366 431 367
3 431 432 367
3 371 367 432
3 366 363 433
3 431 366 433
3 434 431 433
3 431 434 516
3 436 435 434
3 436 434 433
3 435 438 437
3 438 435 436
3 436 439 438
3 436 363 439
3 436 433 363
3 362 393 440
3 363 362 441
3 441 439 363
3 439 441 438
3 444 437 438
3 441 362 440
3 441 444 438
3 440 393 442
3 440 442 441
3 444 551 437
3 444 441 442
3 442 447 444
3 447 442 393
3 448 551 445
3 450 448 445
3 444 445 551
3 444 446 449
3 447 446 444
3 443 447 393
3 447 443 446
3 455 446 443
3 448 450 451
3 453 451 450
3 452 88 454
3 453 452 454
3 453 454 451
3 91 450 430
3 450 445 444
3 446 455 449
3 456 444 449
3 456 450 444
3 422 449 455
3 422 456 449
3 393 422 455
3 443 393 455
3 430 457 94
3 457 92 94
3 469 463 459
3 461 462 459
3 458 460 461
3 461 459 463
3 461 463 458
3 464 479 463
3 465 462 461
3 466 462 465
3 502 465 461
3 467 468 466
3 466 468 462
3 462 468 459
3 459 468 469
3 464 463 469
3 467 470 468
3 469 468 470
3 469 470 464
3 458 463 489
3 479 489 463
3 471 489 479
3 471 479 472
3 472 473 471
3 473 472 474
3 475 474 476
3 476 474 472
3 472 479 476
3 480 478 479
3 478 480 481
3 482 483 480
3 480 479 464
3 480 483 484
3 484 481 480
3 482 464 485
3 483 482 485
3 485 464 467
3 470 467 464
3 483 485 484
3 467 486 485
3 486 467 466
3 466 487 486
3 488 460 458
3 490 488 458
3 490 458 489
3 489 491 490
3 471 491 489
3 493 474 475
3 475 492 493
3 492 495 493
3 495 492 494
3 495 494 496
3 496 497 495
3 490 491 471
3 471 498 490
3 498 471 473
3 498 473 474
3 499 460 488
3 488 500 499
3 500 501 499
3 499 501 502
3 502 460 499
3 502 461 460
3 487 466 524
3 504 465 502
3 465 524 466
3 501 503 502
3 503 509 502
3 504 502 505
3 505 502 509
3 505 506 504
3 505 508 506
3 508 507 506
3 504 506 507
3 498 497 511
3 500 488 490
3 509 503 510
3 503 501 510
3 501 500 511
3 497 509 511
3 509 510 511
3 501 511 510
3 500 490 498
3 498 511 500
3 474 497 498
3 505 509 497
3 474 493 495
3 474 495 497
3 497 512 508
3 508 505 497
3 496 512 497
3 477 478 519
3 519 513 477
3 513 514 477
3 514 478 477
3 514 479 478
3 514 476 479
3 476 514 515
3 515 475 476
3 475 515 516
3 475 516 517
3 517 492 475
3 517 518 494
3 494 492 517
3 518 496 494
3 496 518 512
3 515 514 431
3 431 516 515
3 305 304 519
3 519 478 481
3 481 305 519
3 305 481 484
3 484 485 270
3 306 270 485
3 486 306 485
3 487 521 486
3 521 487 524
3 520 521 307
3 522 521 523
3 521 524 523
3 312 307 522
3 504 526 524
3 504 524 465
3 507 526 504
3 528 507 508
3 525 535 312
3 312 522 525
3 526 507 528
3 528 527 526
3 530 531 527
3 531 530 532
3 523 532 525
3 523 525 522
3 525 532 530
3 530 529 525
3 529 530 527
3 527 528 529
3 531 532 533
3 533 527 531
3 527 533 526
3 526 533 524
3 532 524 533
3 524 532 523
3 482 480 464
3 512 538 508
3 538 512 518
3 312 535 320
3 534 32 30
3 525 534 535
3 30 535 534
3 534 525 529
3 534 529 528
3 528 33 534
3 32 534 33
3 33 528 508
3 508 29 33
3 29 508 538
3 536 322 28
3 536 28 52
3 50 539 52
3 51 537 50
3 51 29 538
3 538 537 51
3 539 99 52
3 52 99 536
3 538 542 537
3 537 542 539
3 536 99 100
3 536 100 101
3 101 322 536
3 540 542 538
3 539 541 90
3 90 99 539
3 541 88 90
3 88 541 454
3 454 541 543
3 543 541 539
3 537 539 50
3 545 543 539
3 544 539 542
3 539 544 545
3 544 542 546
3 546 547 544
3 546 552 547
3 546 542 540
3 518 546 540
3 540 538 518
3 546 518 552
3 544 547 548
3 544 548 550
3 544 550 549
3 549 545 544
3 454 545 549
3 454 543 545
3 451 454 549
3 549 448 451
3 448 549 550
3 548 551 550
3 550 551 448
3 548 547 551
3 551 547 552
3 437 551 552
3 553 552 518
3 435 437 552
3 552 434 435
3 434 552 553
3 553 518 517
3 517 516 553
3 553 516 434
3 397 398 383
3 383 398 381
3 404 402 401
3 394 401 375
3 404 401 182
3 176 182 401
3 513 519 514
3 304 514 519
3 514 304 554
3 554 431 514
3 555 554 304
3 555 371 554
3 432 431 554
3 371 432 554
3 556 395 375
3 375 396 556
3 380 381 556
3 398 395 556
3 396 380 556
3 381 398 556
3 521 520 306
3 486 521 306
3 520 273 306
3 308 520 307
3 521 522 307
3 69 70 54
3 54 63 69
3 54 70 67
3 345 557 376
3 557 138 376
3 422 423 456
3 456 423 430
3 430 450 456
3 76 84 77
3 558 125 163
3 125 136 137
3 55 559 211
3 559 70 66
