ply
format ascii 1.0
comment Created by Open3D
element vertex 623
property double x
property double y
property double z
property uchar red
property uchar green
property uchar blue
element face 1148
property list uchar uint vertex_indices
end_header
0.195981 1.45104 1.45803 186 132 27
0.204035 1.48594 1.504 20 117 17
0.151956 1.46148 1.49476 48 51 139
0.143902 1.42657 1.44879 165 18 10
0.187927 1.41613 1.41207 165 156 185
0.240006 1.44059 1.42131 224 209 98
0.24806 1.4755 1.46727 15 147 97
0.258521 1.34863 1.62448 99 75 154
0.212986 1.32133 1.62063 104 197 56
0.209703 1.27953 1.58783 135 68 114
0.251955 1.26503 1.55888 91 253 29
0.29749 1.29233 1.56273 172 223 116
0.300773 1.33413 1.59553 57 136 149
0.311962 1.2547 1.76343 201 180 102
0.273554 1.22776 1.76465 50 232 231
0.274133 1.18517 1.74495 215 35 164
0.313119 1.16952 1.72403 85 74 169
0.351527 1.19646 1.72282 173 214 155
0.350948 1.23905 1.74251 241 182 133
0.361009 1.20065 1.90736 121 133 164
0.329752 1.1765 1.91238 169 25 179
0.332897 1.13779 1.90363 73 197 174
0.3673 1.12322 1.88987 173 105 233
0.398558 1.14737 1.88485 153 223 54
0.395413 1.18608 1.8936 91 85 152
0.40367 1.18004 2.04602 166 139 248
0.379233 1.16017 2.05314 205 26 228
0.383615 1.12819 2.05215 145 221 159
0.412433 1.11609 2.04404 75 79 222
0.43687 1.13596 2.03692 52 161 113
0.432488 1.16794 2.03791 221 115 250
0.439085 1.18505 2.1724 63 208 132
0.420942 1.17004 2.17995 8 23 241
0.425431 1.14597 2.18337 18 51 38
0.448065 1.13691 2.17925 192 175 156
0.466209 1.15192 2.1717 143 208 186
0.461719 1.17599 2.16828 158 65 159
0.467263 1.20761 2.28243 77 6 66
0.454776 1.19736 2.289 98 63 218
0.458561 1.18107 2.29393 18 45 81
0.474833 1.17502 2.29228 149 49 44
0.48732 1.18526 2.2857 44 42 56
0.483534 1.20156 2.28078 71 105 225
0.493529 1.23602 2.38876 52 186 73
-0.195981 1.45104 1.45803 13 253 252
-0.204035 1.48594 1.504 133 202 76
-0.151956 1.46148 1.49476 29 24 245
-0.143902 1.42657 1.44879 73 171 56
-0.187927 1.41613 1.41207 147 202 248
-0.240006 1.44059 1.42131 112 240 182
-0.24806 1.4755 1.46727 100 107 113
-0.258521 1.34863 1.62448 21 104 141
-0.212986 1.32133 1.62063 62 93 244
-0.209703 1.27953 1.58783 117 14 155
-0.251955 1.26503 1.55888 0 243 185
-0.29749 1.29233 1.56273 201 173 229
-0.300773 1.33413 1.59553 166 180 216
-0.311962 1.2547 1.76343 102 114 175
-0.273554 1.22776 1.76465 189 196 81
-0.274133 1.18517 1.74495 8 237 65
-0.313119 1.16952 1.72403 251 145 9
-0.351527 1.19646 1.72282 124 127 123
-0.350948 1.23905 1.74251 112 233 233
-0.361009 1.20065 1.90736 88 107 226
-0.329752 1.1765 1.91238 16 22 5
-0.332897 1.13779 1.90363 99 131 62
-0.3673 1.12322 1.88987 194 125 54
-0.398558 1.14737 1.88485 75 228 105
-0.395413 1.18608 1.8936 216 124 191
-0.40367 1.18004 2.04602 26 227 55
-0.379233 1.16017 2.05314 220 120 128
-0.383615 1.12819 2.05215 177 24 117
-0.412433 1.11609 2.04404 179 6 116
-0.43687 1.13596 2.03692 105 250 213
-0.432488 1.16794 2.03791 137 111 103
-0.439085 1.18505 2.1724 87 145 94
-0.420942 1.17004 2.17995 82 217 80
-0.425431 1.14597 2.18337 196 240 35
-0.448065 1.13691 2.17925 169 34 160
-0.466209 1.15192 2.1717 237 79 244
-0.461719 1.17599 2.16828 183 155 43
-0.467263 1.20761 2.28243 45 13 58
-0.454776 1.19736 2.289 217 37 197
-0.458561 1.18107 2.29393 39 34 116
-0.474833 1.17502 2.29228 94 106 178
-0.48732 1.18526 2.2857 245 143 194
-0.483534 1.20156 2.28078 4 39 141
-0.493529 1.23602 2.38876 170 213 192
0 2.24677 0.480141 48 191 84
0 2.19594 0.0716602 144 177 103
0 2.26605 -0.382622 162 154 26
0 2.25637 -0.697115 188 144 250
0 2.20596 -0.844987 124 211 91
0 2.06436 -1.02432 108 225 70
0 1.02129 -1.18456 18 231 30
0 0.942319 -1.11883 194 69 22
0 1.28755 -1.27189 9 99 82
0 1.50559 -1.24229 93 32 134
0 1.54725 -1.25053 125 154 38
0 1.82539 -1.21639 35 20 133
0 1.72699 -1.33154 48 221 132
0 1.62471 -1.38415 227 81 152
0 1.56835 -1.39103 245 22 197
0 1.37405 -1.38708 81 190 12
0 1.40066 -1.33279 247 124 213
0 1.56071 -1.29556 61 34 12
0 1.56633 -1.2851 90 191 236
0 1.33416 0.773691 3 90 89
0 1.15568 0.68694 87 191 119
0 1.08309 0.595735 206 107 92
0 1.04498 0.392716 53 82 145
0 1.04841 0.458722 216 243 11
0 1.0629 0.531551 9 217 182
0 0.898699 -0.198258 28 250 236
0 0.939948 -0.0200948 11 52 125
0 0.99167 0.170269 221 149 3
0 0.867174 -0.760349 206 96 249
0 1.19246 -1.39093 117 123 104
0 1.1947 -1.35556 38 141 25
0 1.06743 -1.38813 12 61 25
0 1.06802 -1.35928 171 197 200
0 0.88138 -1.34184 161 0 206
0 0.881302 -1.36624 26 21 243
0 0.742056 -1.31333 61 23 123
0 0.735053 -1.34009 112 56 82
0 0.648049 -1.31674 26 71 16
0 0.652164 -1.29784 239 106 62
0 1.96697 1.52199 249 136 75
0 2.13122 1.43131 111 16 16
0 2.264 1.15971 206 76 224
0 2.22583 0.635064 38 167 248
0 2.17257 0.777421 47 178 238
0 2.17051 0.84568 92 242 21
0 2.26494 1.09674 89 228 144
0 1.42579 1.07616 117 153 195
0 1.33233 1.51433 12 194 138
0 1.35203 0.855273 171 217 85
0 1.40385 0.898727 64 22 144
0 2.2097 0.950789 68 101 78
0 0.63799 -1.30937 110 35 56
0 0.639838 -1.29777 155 132 146
0 0.634451 -1.30386 85 110 16
0 1.36603 1.26491 245 228 126
0 1.21745 1.42091 15 119 25
0 1.28027 1.38027 73 16 175
0.0116531 1.20745 1.44956 4 190 146
0 1.20117 1.45697 213 176 190
0 1.19262 1.44511 87 97 55
0 1.19556 1.43656 230 57 200
0 1.19594 1.45401 162 200 236
0 1.24164 1.40935 44 147 122
0 1.36028 1.44609 1 39 92
0.0951094 2.26716 0.508721 236 94 201
0.296863 2.05558 0.0266537 204 234 166
0.321096 2.10084 -0.751139 20 216 161
0.388358 1.87796 0.629787 226 217 236
0.450392 1.65958 -0.682928 226 72 71
0.340607 1.26135 0.160094 171 244 243
0.228555 0.557481 -1.05651 113 26 225
0.320832 1.69154 -1.15461 98 201 227
0.105512 1.6382 -1.29828 22 66 254
0.0350953 1.4992 -1.37253 173 77 149
0.0494194 1.56795 -1.30759 146 125 154
0.0325365 1.57246 -1.28599 145 64 99
0.388018 0.593315 0.514553 28 62 212
0.339005 0.576747 0.376743 231 105 16
0.183518 1.53751 0.761113 43 204 52
0.0972274 1.38559 0.77315 226 87 82
0.180235 1.13701 0.682262 50 22 50
0.0760984 1.07737 0.561324 226 52 244
0.282678 0.898374 -0.642663 93 216 144
0.157589 0.668642 -1.02248 53 92 250
0.0994983 0.867068 -1.05324 114 45 41
0.0696259 0.853218 -0.813443 11 157 29
0.207005 0.52016 -0.843285 80 48 107
0.207005 0.589366 0.578889 52 62 48
0.189687 0.565332 0.404975 159 186 45
0.14472 1.03491 0.192716 198 30 173
0.278272 0.00936532 0.291663 31 46 203
0.398157 0.17915 0.510644 180 57 238
0.40235 0.0919832 0.630159 144 131 109
0.441801 0.108285 0.57394 126 197 141
0.334134 0.189969 0.561522 150 6 128
0.116624 0.0119751 0.381664 52 22 139
0.16554 0.172106 0.539726 63 176 132
0.163103 0.0453313 0.641538 124 57 219
0.268843 0.0864449 0.680714 86 50 95
0.420879 0.00936532 0.34005 238 208 234
0.430749 0.00936532 0.61145 143 80 245
0.268714 0.00936532 0.689782 85 234 86
0.364121 0.00936532 0.671464 33 29 52
0.181488 0.00936532 0.656094 26 85 145
0.12642 0.00936532 0.520383 163 206 222
0.464535 0.00936532 0.487168 14 208 22
0.0120918 1.1942 -1.36218 102 132 71
0.192334 1.4235 1.62045 32 27 165
0.220798 1.49881 1.53411 251 163 151
0.241195 1.53235 1.48803 42 116 170
0.157875 2.15655 0.919393 83 174 206
0.122224 1.84003 1.55909 221 13 117
0.276944 1.53971 0.940783 24 137 194
0.325657 1.82636 1.42509 40 48 228
0.240403 1.78962 1.50256 68 34 151
0.227683 1.41959 1.03287 174 114 70
0.259502 1.63632 1.3023 71 13 95
0.25652 1.72197 1.3884 92 117 113
0.317597 1.71732 1.30624 201 130 224
0.350359 1.73387 1.22494 244 62 214
0.292151 1.74338 1.33085 62 49 245
0.280501 1.74621 1.35285 4 105 222
0.282283 1.4359 1.5373 10 125 160
0.192391 1.37867 1.63381 205 152 199
0.248029 1.54068 1.29137 106 176 142
0.279599 1.46492 1.46953 187 171 88
0.185618 1.35576 1.63316 230 109 40
0.160887 1.30415 1.60579 242 164 128
0.132392 1.31571 1.60287 26 72 12
0.339419 1.74669 0.963865 30 248 23
0.27367 1.97904 0.791301 159 1 61
0.23877 2.23481 1.23847 33 250 67
0.398756 2.10083 1.045 103 107 151
0.32771 1.88347 1.02797 108 20 68
0.264911 2.19005 1.06503 56 224 112
0.325686 2.2053 1.23062 172 28 57
0.349919 2.15181 1.22402 25 205 243
0.392916 2.11046 1.1992 101 139 114
0.263143 2.21907 1.25433 243 135 168
0.414419 0.998375 0.287792 2 33 169
0.311578 0.957204 0.230907 243 122 213
0.262112 0.571726 0.320789 98 160 156
0.291948 1.71661 1.34563 94 139 235
0.473277 1.62235 0.252287 203 122 179
0.181071 1.29183 1.47975 35 186 205
0.285332 1.36264 1.59742 89 201 124
0.249962 1.32044 1.47899 25 74 73
0.239975 1.34294 1.61888 173 166 232
0.18373 1.2861 1.56931 213 154 45
0.307564 1.99294 1.19292 42 91 77
0.291339 1.35389 1.54479 188 57 14
0.273186 1.35218 1.58199 254 20 240
0.283033 1.3401 1.51527 253 138 56
0.247619 1.32253 1.49731 106 83 52
0.210105 1.30223 1.51123 81 29 13
0.240277 1.33894 1.59717 140 205 160
0.214192 1.31335 1.58889 23 39 156
0.201018 1.29529 1.55261 106 157 120
0.00501075 0.642591 -1.30438 80 139 17
0.0894768 1.32957 1.42327 127 144 199
0.0262431 1.24902 1.43182 226 164 47
0 1.73072 1.66942 252 83 147
0.217888 1.57093 1.5096 82 229 16
0.198778 1.6216 1.56194 66 99 111
0.163512 1.67624 1.61614 214 10 153
0 1.31351 1.57651 146 159 148
0 0.904703 -0.425111 71 6 118
0 0.918349 -0.59975 105 59 170
0 0.897848 -0.67881 94 210 95
0 0.863371 -0.812785 59 150 247
0 0.876673 -0.942456 106 135 234
0 0.898853 -1.05803 154 187 207
0.364597 0.177379 0.371393 79 88 183
0.281654 0.169009 0.316264 98 189 114
0.168228 0.167837 0.379695 77 13 51
0.448066 1.22777 0.591183 60 92 20
0.339131 0.185176 -0.887625 153 192 106
0.328957 0.00936542 -1.07067 4 252 145
0.30557 0.177379 -1.03933 114 136 204
0.275108 0.189969 -0.813371 226 82 142
0.30609 0.54874 -0.889676 134 92 236
0.303156 0.552458 -1.01314 161 192 133
0.173812 0.173513 -1.09446 19 151 142
0.219246 0.00936542 -1.11906 123 195 204
0.382775 0.108285 -0.836785 145 193 78
0.405509 0.00936542 -0.923557 235 205 130
0.371723 0.00936542 -0.799275 237 95 184
0.343324 0.0919833 -0.780566 114 8 86
0.305095 0.00936542 -0.739261 88 244 224
0.209817 0.086445 -0.730011 225 11 154
0.0673938 0.00936542 -0.890342 73 190 195
0.106514 0.172106 -0.844437 118 37 26
0.0887601 0.00936542 -1.02906 80 213 168
0.104077 0.0453314 -0.769187 54 26 181
0.122461 0.00936542 -0.754631 24 149 38
0.209687 0.00936542 -0.720943 41 5 218
0.106689 0.173921 -1.03103 104 188 39
0.41986 1.23766 -0.531828 103 49 194
0.463972 1.21269 -0.934459 200 22 15
0.431219 1.19138 -0.720432 235 10 80
0.594604 1.73603 -0.417288 185 49 145
0.16897 1.26442 -1.23161 249 18 157
0.419909 1.63612 -0.995888 28 6 84
0.0855806 0.285051 -1.02676 237 91 20
0.132455 2.24411 1.10297 112 232 159
0.25757 1.92516 1.46337 45 17 202
0 1.29634 1.61868 58 50 223
0.177148 1.39054 1.67952 192 213 27
0 1.1019 1.90214 160 178 225
0 1.31884 1.87066 211 87 102
0 1.49306 1.81019 40 173 118
0 1.06934 1.6853 17 232 62
0 1.22071 1.64278 11 199 254
0 1.26735 1.6239 181 137 168
0 0.889919 1.90672 210 152 82
0 0.881238 1.71347 23 73 100
0 0.704452 1.88749 232 204 90
0 0.712759 1.71652 130 64 96
0 0.543917 1.85299 112 164 218
0 0.562372 1.70397 113 190 51
0 0.411074 1.81116 119 8 81
0 0.429123 1.679 242 201 9
0 0.295611 1.76402 131 243 204
0 0.316366 1.64534 193 62 253
0 0.201239 1.70558 225 92 211
0 0.255632 1.61403 64 135 164
0 0.149656 1.61682 165 186 236
0 0.22534 1.56551 238 5 29
0 0.137133 1.53375 140 80 131
0 0.219881 1.51968 11 39 88
0 0.153679 1.46126 163 46 176
0 0.22616 1.48805 45 234 217
0 0.169 1.41787 230 230 213
0 0.236822 1.46495 240 51 167
0 0.176789 1.4074 63 60 32
0 0.236461 1.45334 160 227 253
0 0.184813 1.41256 5 18 70
0 0.231571 1.45345 60 37 41
0.13426 1.076 1.71275 71 194 212
0.149553 1.2468 1.69021 155 61 69
0.119756 1.09927 1.82186 126 215 141
0.130757 1.29812 1.79769 0 17 237
0.130942 1.45253 1.75197 21 75 205
0.14178 1.26504 1.61563 242 32 7
0.118794 1.21337 1.63475 214 206 227
0.107924 1.0677 1.67545 69 17 33
0.10366 0.875173 1.7201 56 112 138
0.103632 0.890432 1.83469 248 174 91
0.0869276 0.706538 1.72127 158 171 175
0.0873053 0.715055 1.82352 6 77 33
0.0718812 0.554996 1.70835 173 90 191
0.0724464 0.549491 1.79946 15 212 253
0.0593133 0.427337 1.68294 181 77 13
0.0600393 0.423299 1.7655 37 104 216
0.0495671 0.316755 1.64704 239 159 27
0.0503538 0.30683 1.72127 166 52 9
0.0456921 0.25512 1.61416 216 87 2
0.0464913 0.224177 1.67311 91 180 104
0.041637 0.225662 1.56502 144 8 174
0.0424446 0.179963 1.59996 112 111 12
0.0389093 0.220836 1.5191 164 93 190
0.039724 0.169393 1.53105 151 33 34
0.0374226 0.229882 1.4862 176 153 228
0.038237 0.181242 1.47419 199 121 170
0.0384018 0.239571 1.46432 212 1 130
0.03919 0.19008 1.45152 16 191 116
0.0358204 0.238857 1.45502 193 1 132
0.0366633 0.194088 1.44353 23 36 158
0.0301012 0.233079 1.45559 164 237 85
0.0318309 0.196429 1.44721 177 11 168
0.375891 1.23594 -1.18485 170 85 15
-0.0116531 1.20745 1.44956 156 47 227
-0.0951094 2.26716 0.508721 115 210 132
-0.296863 2.05558 0.0266537 157 185 116
-0.321096 2.10084 -0.751139 172 32 249
-0.388358 1.87796 0.629787 189 65 2
-0.450392 1.65958 -0.682928 101 222 241
-0.340607 1.26135 0.160094 230 88 48
-0.228555 0.557481 -1.05651 247 226 59
-0.320832 1.69154 -1.15461 199 83 243
-0.105512 1.6382 -1.29828 198 0 250
-0.0350953 1.4992 -1.37253 147 110 184
-0.0494194 1.56795 -1.30759 7 188 253
-0.0325365 1.57246 -1.28599 231 26 191
-0.388018 0.593315 0.514553 107 116 73
-0.339005 0.576747 0.376743 154 16 141
-0.183518 1.53751 0.761113 175 11 223
-0.0972274 1.38559 0.77315 8 22 26
-0.180235 1.13701 0.682262 115 152 119
-0.0760984 1.07737 0.561324 175 25 224
-0.282678 0.898374 -0.642663 80 88 171
-0.157589 0.668642 -1.02248 35 208 209
-0.0994983 0.867068 -1.05324 105 201 238
-0.0696259 0.853218 -0.813443 161 6 208
-0.207005 0.52016 -0.843285 247 63 70
-0.207005 0.589366 0.578889 51 18 203
-0.189687 0.565332 0.404975 2 224 233
-0.14472 1.03491 0.192716 224 92 151
-0.278272 0.00936532 0.291663 144 147 32
-0.398157 0.17915 0.510644 140 56 197
-0.40235 0.0919832 0.630159 103 159 249
-0.441801 0.108285 0.57394 174 32 173
-0.334134 0.189969 0.561522 34 16 220
-0.116624 0.0119751 0.381664 25 218 222
-0.16554 0.172106 0.539726 192 111 127
-0.163103 0.0453313 0.641538 99 132 91
-0.268843 0.0864449 0.680714 27 197 158
-0.420879 0.00936532 0.34005 81 31 186
-0.430749 0.00936532 0.61145 214 55 142
-0.268714 0.00936532 0.689782 209 252 192
-0.364121 0.00936532 0.671464 215 181 253
-0.181488 0.00936532 0.656094 15 34 142
-0.12642 0.00936532 0.520383 57 98 94
-0.464535 0.00936532 0.487168 197 210 25
-0.0120918 1.1942 -1.36218 242 113 65
-0.192334 1.4235 1.62045 61 140 140
-0.220798 1.49881 1.53411 124 117 114
-0.241195 1.53235 1.48803 58 202 201
-0.157875 2.15655 0.919393 152 9 253
-0.122224 1.84003 1.55909 201 88 61
-0.276944 1.53971 0.940783 107 222 110
-0.325656 1.82636 1.42509 130 211 233
-0.240403 1.78962 1.50256 244 250 91
-0.227683 1.41959 1.03287 42 169 33
-0.259502 1.63632 1.3023 168 218 77
-0.25652 1.72197 1.3884 177 131 166
-0.317597 1.71732 1.30624 193 49 55
-0.350359 1.73387 1.22494 102 208 179
-0.292151 1.74338 1.33085 62 253 103
-0.280501 1.74621 1.35285 19 73 26
-0.282283 1.4359 1.5373 31 70 248
-0.192391 1.37867 1.63381 188 56 210
-0.248029 1.54068 1.29137 74 23 196
-0.279599 1.46492 1.46953 181 194 58
-0.185618 1.35576 1.63316 125 128 99
-0.160887 1.30415 1.60579 188 237 64
-0.132392 1.31571 1.60287 168 188 171
-0.339419 1.74669 0.963865 21 201 134
-0.27367 1.97904 0.791301 24 251 184
-0.23877 2.23481 1.23847 9 59 186
-0.398756 2.10083 1.045 11 224 237
-0.32771 1.88347 1.02797 87 220 222
-0.264911 2.19005 1.06503 232 153 94
-0.325686 2.2053 1.23062 125 35 36
-0.349919 2.15181 1.22402 234 249 173
-0.392916 2.11046 1.1992 32 172 64
-0.263143 2.21907 1.25433 126 178 214
-0.414419 0.998375 0.287792 32 25 73
-0.311578 0.957204 0.230907 250 207 106
-0.262112 0.571726 0.320789 193 124 177
-0.291948 1.71661 1.34563 15 81 226
-0.473277 1.62235 0.252287 248 89 252
-0.181071 1.29183 1.47975 158 254 2
-0.285332 1.36264 1.59742 167 154 159
-0.249962 1.32044 1.47899 184 153 36
-0.239975 1.34294 1.61888 122 215 28
-0.18373 1.2861 1.56931 123 239 154
-0.307564 1.99294 1.19292 29 113 142
-0.291339 1.35389 1.54479 122 177 89
-0.273186 1.35218 1.58199 45 69 55
-0.283033 1.3401 1.51527 24 238 86
-0.247619 1.32253 1.49731 218 202 7
-0.210105 1.30223 1.51123 240 47 13
-0.240277 1.33894 1.59717 137 15 62
-0.214192 1.31335 1.58889 37 6 188
-0.201018 1.29529 1.55261 221 130 23
-0.00501075 0.642591 -1.30438 170 204 118
-0.0894768 1.32957 1.42327 192 222 111
-0.0262431 1.24902 1.43182 194 28 209
-0.217888 1.57093 1.5096 159 166 152
-0.198778 1.6216 1.56194 199 145 204
-0.163512 1.67624 1.61614 40 209 63
-0.364596 0.177379 0.371393 41 73 2
-0.281654 0.169009 0.316264 185 67 133
-0.168228 0.167837 0.379695 144 135 192
-0.448066 1.22777 0.591183 42 122 125
-0.339131 0.185176 -0.887625 36 30 100
-0.328957 0.00936542 -1.07067 150 69 75
-0.30557 0.177379 -1.03933 78 224 205
-0.275108 0.189969 -0.813371 110 17 50
-0.30609 0.54874 -0.889676 45 76 122
-0.303156 0.552458 -1.01314 131 4 129
-0.173812 0.173513 -1.09446 175 224 162
-0.219246 0.00936542 -1.11906 223 106 48
-0.382775 0.108285 -0.836785 10 199 213
-0.405509 0.00936542 -0.923557 150 46 29
-0.371723 0.00936542 -0.799275 2 183 174
-0.343324 0.0919833 -0.780566 73 53 175
-0.305095 0.00936542 -0.739261 166 97 144
-0.209817 0.086445 -0.730011 235 72 18
-0.0673938 0.00936542 -0.890342 145 162 112
-0.106514 0.172106 -0.844437 200 219 248
-0.0887601 0.00936542 -1.02906 179 11 190
-0.104077 0.0453314 -0.769187 182 129 200
-0.122461 0.00936542 -0.754631 0 101 78
-0.209687 0.00936542 -0.720943 1 78 157
-0.106689 0.173921 -1.03103 184 3 22
-0.41986 1.23766 -0.531828 41 81 195
-0.463972 1.21269 -0.934459 188 247 111
-0.431219 1.19138 -0.720432 21 79 148
-0.594604 1.73603 -0.417288 127 86 236
-0.16897 1.26442 -1.23161 235 68 112
-0.419909 1.63612 -0.995888 105 89 249
-0.0855806 0.285051 -1.02676 48 2 30
-0.132455 2.24411 1.10297 221 45 189
-0.25757 1.92516 1.46337 129 124 9
-0.177148 1.39054 1.67952 56 75 165
-0.13426 1.076 1.71275 221 51 115
-0.149553 1.2468 1.69021 43 129 134
-0.119756 1.09927 1.82186 144 221 65
-0.130757 1.29812 1.79769 169 236 241
-0.130942 1.45253 1.75197 57 149 174
-0.14178 1.26504 1.61563 25 79 105
-0.118794 1.21337 1.63475 148 172 235
-0.107924 1.0677 1.67545 173 58 173
-0.10366 0.875173 1.7201 220 56 106
-0.103632 0.890432 1.83469 11 142 134
-0.0869276 0.706538 1.72127 8 40 34
-0.0873053 0.715055 1.82352 89 120 47
-0.0718812 0.554996 1.70835 101 214 125
-0.0724464 0.549491 1.79946 240 121 36
-0.0593133 0.427337 1.68294 9 158 233
-0.0600393 0.423299 1.7655 28 13 95
-0.0495671 0.316755 1.64704 30 72 254
-0.0503538 0.30683 1.72127 21 244 36
-0.0456921 0.25512 1.61416 181 26 240
-0.0464913 0.224177 1.67311 144 11 4
-0.041637 0.225662 1.56502 197 71 84
-0.0424446 0.179963 1.59996 233 58 164
-0.0389093 0.220836 1.5191 21 182 28
-0.039724 0.169393 1.53105 99 213 188
-0.0374226 0.229882 1.4862 137 34 35
-0.038237 0.181242 1.47419 233 105 100
-0.0384018 0.239571 1.46432 186 228 114
-0.03919 0.19008 1.45152 25 177 176
-0.0358204 0.238857 1.45502 46 217 206
-0.0366633 0.194088 1.44353 242 166 39
-0.0301012 0.233079 1.45559 110 28 152
-0.0318309 0.196429 1.44721 51 231 229
-0.375891 1.23594 -1.18485 113 117 106
0.276944 1.53971 0.940783 79 55 76
0.325686 2.2053 1.23062 142 170 166
0.263143 2.21907 1.25433 140 164 14
0.23877 2.23481 1.23847 215 67 21
0.287631 2.29282 1.16887 201 11 170
0.236569 2.25852 1.21247 216 219 151
0.299585 1.99067 1.05335 164 106 68
0.32771 1.88347 1.02797 244 247 231
0.339419 1.74669 0.963865 208 33 163
0.745073 2.05533 0.841255 65 235 208
0.878384 2.00984 0.3704 135 74 188
0.835335 1.88476 0.391649 205 229 51
0.833013 2.30703 0.769755 224 36 89
0.398756 2.0819 1.07243 209 193 140
0.349919 2.15181 1.22402 39 195 34
0.516101 2.19306 1.10726 69 108 37
0.667157 2.32557 0.984453 89 91 55
0.765682 2.34104 0.849862 24 90 106
0.582106 2.37952 1.00241 29 71 141
0.415574 2.29936 1.11816 230 134 30
0.392406 2.32049 1.09846 216 57 6
0.317524 1.5237 0.917759 58 64 245
0.322952 1.48127 0.898656 179 9 143
0.782389 1.80537 0.408911 67 254 122
0.313482 1.42536 0.881971 62 85 202
0.33625 1.33691 0.808994 176 48 116
0.45414 1.49243 0.834185 95 73 26
0.549493 1.76089 0.824832 84 116 228
0.705898 1.74303 0.439463 145 64 31
0.392916 2.11046 1.1992 175 185 152
0.910367 2.17463 0.441573 159 255 231
0.888892 2.09311 0.394995 80 138 96
0.820123 2.32823 0.736881 23 225 226
0.694605 2.36475 0.86772 222 200 49
0.603395 2.3728 0.907167 137 167 21
0.539979 2.37044 0.941422 244 210 25
0.496769 2.36876 0.98817 219 73 159
0.442449 2.34109 1.0303 237 79 211
0.330099 1.2486 0.7673 242 99 210
0.421749 1.28037 0.733283 32 137 111
0.480256 1.31672 0.691646 73 69 26
0.577376 1.49353 0.579267 90 235 110
0.634547 1.54651 0.558685 169 73 174
0.647695 1.62651 0.504201 14 101 162
-0.276944 1.53971 0.940783 141 24 247
-0.325686 2.2053 1.23062 196 8 14
-0.263143 2.21907 1.25433 241 62 192
-0.23877 2.23481 1.23847 57 57 190
-0.287631 2.29282 1.16887 82 240 107
-0.236569 2.25852 1.21247 19 9 107
-0.299585 1.99067 1.05335 77 87 144
-0.32771 1.88347 1.02797 208 18 169
-0.339419 1.74669 0.963865 128 250 152
-0.745073 2.05533 0.841255 90 23 187
-0.878384 2.00984 0.3704 253 150 195
-0.835335 1.88476 0.391649 91 224 193
-0.833013 2.30703 0.769755 53 238 204
-0.398756 2.0819 1.07243 152 128 161
-0.349919 2.15181 1.22402 5 8 157
-0.516101 2.19306 1.10726 233 16 244
-0.667157 2.32557 0.984453 176 0 136
-0.765682 2.34104 0.849862 58 87 214
-0.582106 2.37952 1.00241 2 170 117
-0.415574 2.29936 1.11816 252 252 166
-0.392406 2.32049 1.09846 185 174 40
-0.317524 1.5237 0.917759 75 189 248
-0.322952 1.48127 0.898656 95 187 9
-0.782389 1.80537 0.408911 93 167 180
-0.313482 1.42536 0.881971 140 227 165
-0.33625 1.33691 0.808994 169 43 154
-0.45414 1.49243 0.834185 49 131 237
-0.549493 1.76089 0.824832 29 214 95
-0.705898 1.74303 0.439463 193 221 204
-0.392916 2.11046 1.1992 55 164 9
-0.910367 2.17463 0.441573 50 180 134
-0.888892 2.09311 0.394995 113 207 96
-0.820123 2.32823 0.736881 165 174 222
-0.694605 2.36475 0.86772 253 6 81
-0.603395 2.3728 0.907167 146 243 254
-0.539979 2.37044 0.941422 232 209 236
-0.496769 2.36876 0.98817 134 153 164
-0.442449 2.34109 1.0303 224 189 184
-0.330099 1.2486 0.7673 122 122 174
-0.421749 1.28037 0.733283 103 202 65
-0.480256 1.31672 0.691646 177 163 171
-0.577376 1.49353 0.579267 179 129 75
-0.634547 1.54651 0.558685 22 205 56
-0.647695 1.62651 0.504201 7 62 239
0 0.18217 1.49308 81 181 63
0.476122 1.43897 0.179635 156 192 150
0.473724 1.44443 -0.628203 127 244 28
0.573172 1.43455 -0.366452 222 143 212
-0.476122 1.43897 0.179635 66 144 178
-0.573172 1.43455 -0.366452 97 147 171
-0.479403 1.43297 -0.614792 95 8 176
3 0 2 1
3 0 3 2
3 0 4 3
3 0 5 4
3 0 6 5
3 0 1 6
3 1 8 7
3 1 2 8
3 2 9 8
3 2 3 9
3 3 10 9
3 3 4 10
3 4 11 10
3 4 5 11
3 5 12 11
3 5 6 12
3 6 7 12
3 6 1 7
3 7 14 13
3 7 8 14
3 8 15 14
3 8 9 15
3 9 16 15
3 9 10 16
3 10 17 16
3 10 11 17
3 11 18 17
3 11 12 18
3 12 13 18
3 12 7 13
3 13 20 19
3 13 14 20
3 14 21 20
3 14 15 21
3 15 22 21
3 15 16 22
3 16 23 22
3 16 17 23
3 17 24 23
3 17 18 24
3 18 19 24
3 18 13 19
3 19 26 25
3 19 20 26
3 20 27 26
3 20 21 27
3 21 28 27
3 21 22 28
3 22 29 28
3 22 23 29
3 23 30 29
3 23 24 30
3 24 25 30
3 24 19 25
3 25 32 31
3 25 26 32
3 26 33 32
3 26 27 33
3 27 34 33
3 27 28 34
3 28 35 34
3 28 29 35
3 29 36 35
3 29 30 36
3 30 31 36
3 30 25 31
3 31 38 37
3 31 32 38
3 32 39 38
3 32 33 39
3 33 40 39
3 33 34 40
3 34 41 40
3 34 35 41
3 35 42 41
3 35 36 42
3 36 37 42
3 36 31 37
3 43 37 38
3 43 38 39
3 43 39 40
3 43 40 41
3 43 41 42
3 43 42 37
3 46 44 45
3 47 44 46
3 48 44 47
3 49 44 48
3 50 44 49
3 45 44 50
3 52 45 51
3 46 45 52
3 53 46 52
3 47 46 53
3 54 47 53
3 48 47 54
3 55 48 54
3 49 48 55
3 56 49 55
3 50 49 56
3 51 50 56
3 45 50 51
3 58 51 57
3 52 51 58
3 59 52 58
3 53 52 59
3 60 53 59
3 54 53 60
3 61 54 60
3 55 54 61
3 62 55 61
3 56 55 62
3 57 56 62
3 51 56 57
3 64 57 63
3 58 57 64
3 65 58 64
3 59 58 65
3 66 59 65
3 60 59 66
3 67 60 66
3 61 60 67
3 68 61 67
3 62 61 68
3 63 62 68
3 57 62 63
3 70 63 69
3 64 63 70
3 71 64 70
3 65 64 71
3 72 65 71
3 66 65 72
3 73 66 72
3 67 66 73
3 74 67 73
3 68 67 74
3 69 68 74
3 63 68 69
3 76 69 75
3 70 69 76
3 77 70 76
3 71 70 77
3 78 71 77
3 72 71 78
3 79 72 78
3 73 72 79
3 80 73 79
3 74 73 80
3 75 74 80
3 69 74 75
3 82 75 81
3 76 75 82
3 83 76 82
3 77 76 83
3 84 77 83
3 78 77 84
3 85 78 84
3 79 78 85
3 86 79 85
3 80 79 86
3 81 80 86
3 75 80 81
3 81 87 82
3 82 87 83
3 83 87 84
3 84 87 85
3 85 87 86
3 86 87 81
3 148 145 147
3 145 149 147
3 145 146 149
3 148 143 145
3 150 248 143
3 153 89 152
3 89 153 90
3 154 92 91
3 154 93 92
3 231 153 155
3 88 152 89
3 90 153 154
3 154 91 90
3 154 159 93
3 164 227 263
3 285 157 170
3 288 153 231
3 288 156 154
3 170 174 268
3 154 290 159
3 358 286 269
3 285 170 287
3 97 159 96
3 358 158 289
3 159 358 289
3 289 171 172
3 160 97 163
3 97 160 159
3 100 99 160
3 101 161 102
3 161 103 102
3 99 159 160
3 159 99 93
3 100 161 101
3 160 161 100
3 103 161 194
3 117 103 194
3 162 194 161
3 163 162 160
3 161 160 162
3 194 162 104
3 105 104 162
3 106 105 163
3 162 163 105
3 106 163 98
3 227 164 165
3 179 187 260
3 228 227 229
3 227 228 617
3 177 157 228
3 107 168 167
3 168 107 108
3 169 168 109
3 108 109 168
3 175 164 168
3 110 177 176
3 111 176 175
3 169 112 111
3 254 255 170
3 170 113 254
3 170 114 113
3 109 112 169
3 115 177 110
3 114 177 115
3 170 177 114
3 256 170 255
3 173 171 174
3 172 171 173
3 170 173 174
3 173 256 116
3 257 173 116
3 258 173 257
3 172 173 258
3 172 258 259
3 172 259 95
3 170 256 173
3 175 182 164
3 176 177 229
3 165 260 261
3 110 176 111
3 175 169 111
3 178 261 260
3 177 228 229
3 169 175 168
3 167 168 166
3 97 98 163
3 178 260 187
3 179 181 193
3 188 193 181
3 182 180 181
3 180 190 188
3 180 188 181
3 180 182 186
3 192 184 183
3 186 184 185
3 191 185 192
3 186 182 184
3 189 186 185
3 185 191 189
3 192 185 184
3 180 186 190
3 190 186 189
3 188 190 193
3 189 191 192
3 192 190 189
3 193 190 192
3 183 178 187
3 192 183 187
3 192 187 193
3 179 193 187
3 181 179 182
3 164 179 260
3 182 179 164
3 261 178 183
3 262 183 184
3 183 262 261
3 184 182 175
3 117 194 120
3 194 104 118
3 120 119 117
3 194 118 120
3 120 122 119
3 121 122 120
3 122 121 123
3 123 124 122
3 124 123 246
3 246 125 124
3 126 246 123
3 166 168 263
3 218 166 155
3 230 205 251
3 293 127 199
3 88 130 152
3 131 152 130
3 218 132 198
3 132 138 198
3 249 199 127
3 202 199 252
3 201 199 202
3 212 203 200
3 202 205 201
3 204 207 206
3 201 209 208
3 205 230 209
3 206 208 230
3 210 213 196
3 210 233 238
3 213 197 196
3 212 197 213
3 195 210 196
3 204 197 212
3 212 213 234
3 210 195 233
3 235 233 195
3 214 235 211
3 195 211 235
3 203 137 200
3 137 203 134
3 253 135 216
3 132 218 131
3 200 218 217
3 218 200 166
3 167 166 200
3 200 137 167
3 167 137 136
3 136 107 167
3 152 218 155
3 218 152 131
3 263 168 164
3 128 219 129
3 198 138 292
3 218 220 221
3 221 217 218
3 219 223 222
3 223 224 222
3 198 292 222
3 292 219 222
3 292 129 219
3 220 224 225
3 220 198 222
3 198 220 218
3 293 224 128
3 223 226 128
3 226 219 128
3 293 201 225
3 231 227 617
3 227 165 229
3 251 205 202
3 230 204 206
3 230 251 250
3 209 201 205
3 227 231 263
3 170 157 177
3 216 135 236
3 232 236 151
3 236 215 216
3 214 215 235
3 236 244 215
3 235 215 244
3 221 220 237
3 237 207 221
3 217 221 207
3 207 237 201
3 217 207 200
3 200 207 204
3 225 201 237
3 237 220 225
3 293 225 224
3 224 223 128
3 207 201 208
3 208 206 207
3 239 238 233
3 238 240 210
3 240 213 210
3 240 241 213
3 234 213 241
3 232 234 241
3 241 242 232
3 233 235 243
3 243 239 233
3 242 245 232
3 236 232 245
3 244 236 245
3 235 244 243
3 246 139 125
3 246 126 140
3 139 246 141
3 246 140 141
3 155 153 152
3 288 617 619
3 203 212 247
3 134 203 142
3 203 247 142
3 142 247 144
3 145 248 247
3 144 247 248
3 145 247 151
3 248 145 143
3 248 150 144
3 135 151 236
3 232 212 234
3 247 212 232
3 208 209 230
3 212 200 204
3 95 289 172
3 289 95 94
3 250 197 204
3 230 250 204
3 251 202 252
3 199 249 252
3 247 232 151
3 260 165 164
3 165 261 229
3 229 261 262
3 175 262 184
3 262 176 229
3 262 175 176
3 155 263 231
3 166 263 155
3 264 265 266
3 174 267 268
3 269 266 270
3 271 270 266
3 271 266 265
3 264 272 273
3 274 273 272
3 267 275 272
3 275 276 274
3 275 274 272
3 275 267 277
3 278 279 280
3 277 279 281
3 282 281 278
3 277 267 279
3 283 277 281
3 281 282 283
3 278 281 279
3 275 277 276
3 276 277 283
3 274 276 273
3 283 282 278
3 278 276 283
3 273 276 278
3 280 271 265
3 278 280 265
3 278 265 273
3 264 273 265
3 272 264 267
3 269 268 264
3 267 264 268
3 270 271 280
3 284 280 279
3 280 284 270
3 279 267 174
3 264 266 269
3 269 270 158
3 270 284 291
3 279 291 284
3 291 158 270
3 291 279 174
3 220 222 224
3 219 226 223
3 286 287 268
3 268 269 286
3 287 170 268
3 288 231 617
3 269 158 358
3 286 358 290
3 618 286 290
3 285 287 618
3 154 153 288
3 619 618 156
3 159 289 96
3 94 96 289
3 156 290 154
3 287 286 618
3 158 291 171
3 291 174 171
3 133 292 138
3 129 292 133
3 201 293 199
3 128 127 293
3 211 295 214
3 195 295 211
3 253 216 294
3 215 294 216
3 251 295 195
3 195 196 251
3 250 251 196
3 196 197 250
3 329 328 327
3 326 327 328
3 295 330 329
3 329 327 295
3 295 327 214
3 252 330 251
3 295 251 330
3 328 329 296
3 297 296 329
3 297 330 298
3 330 297 329
3 330 252 298
3 249 298 252
3 332 331 327
3 214 327 331
3 326 332 327
3 333 332 326
3 300 332 299
3 333 299 332
3 301 331 300
3 332 300 331
3 214 331 215
3 294 215 301
3 215 331 301
3 326 328 335
3 335 334 326
3 328 296 302
3 302 335 328
3 333 326 334
3 299 333 334
3 334 303 299
3 334 335 337
3 337 336 334
3 335 302 304
3 304 337 335
3 303 334 336
3 336 305 303
3 336 337 339
3 339 338 336
3 337 304 306
3 306 339 337
3 305 336 338
3 338 307 305
3 338 339 341
3 341 340 338
3 339 306 308
3 308 341 339
3 307 338 340
3 340 309 307
3 340 341 343
3 343 342 340
3 341 308 310
3 310 343 341
3 309 340 342
3 342 311 309
3 342 343 345
3 345 344 342
3 343 310 312
3 312 345 343
3 311 342 344
3 344 313 311
3 344 345 347
3 347 346 344
3 345 312 314
3 314 347 345
3 313 344 346
3 346 315 313
3 346 347 349
3 349 348 346
3 347 314 316
3 316 349 347
3 315 346 348
3 348 317 315
3 348 349 351
3 351 350 348
3 349 316 318
3 318 351 349
3 317 348 350
3 350 319 317
3 350 351 353
3 353 352 350
3 351 318 320
3 320 353 351
3 319 350 352
3 352 321 319
3 352 353 355
3 355 354 352
3 353 320 322
3 322 355 353
3 321 352 354
3 354 323 321
3 354 355 357
3 357 356 354
3 324 357 355
3 355 322 324
3 323 354 356
3 356 325 323
3 146 145 151
3 171 289 158
3 159 290 358
3 359 148 147
3 149 359 147
3 146 359 149
3 143 148 359
3 456 150 143
3 89 361 360
3 361 89 90
3 92 362 91
3 93 362 92
3 361 439 363
3 360 88 89
3 361 90 362
3 91 362 90
3 367 362 93
3 435 372 463
3 365 485 378
3 361 488 439
3 364 488 362
3 382 378 468
3 490 362 367
3 486 527 469
3 378 485 487
3 367 97 96
3 366 527 489
3 527 367 489
3 379 489 380
3 97 368 371
3 368 97 367
3 99 100 368
3 369 101 102
3 103 369 102
3 367 99 368
3 99 367 93
3 369 100 101
3 369 368 100
3 369 103 402
3 103 117 402
3 402 370 369
3 370 371 368
3 368 369 370
3 370 402 104
3 104 105 370
3 105 106 371
3 371 370 105
3 371 106 98
3 372 435 373
3 395 387 460
3 435 436 437
3 436 435 620
3 365 385 436
3 376 107 375
3 107 376 108
3 376 377 109
3 109 108 376
3 372 383 376
3 385 110 384
3 384 111 383
3 112 377 111
3 255 254 378
3 113 378 254
3 114 378 113
3 112 109 377
3 385 115 110
3 385 114 115
3 385 378 114
3 378 256 255
3 379 381 382
3 379 380 381
3 381 378 382
3 256 381 116
3 381 257 116
3 381 258 257
3 381 380 258
3 258 380 259
3 259 380 95
3 256 378 381
3 390 383 372
3 385 384 437
3 460 373 461
3 384 110 111
3 377 383 111
3 461 386 460
3 436 385 437
3 383 377 376
3 376 375 374
3 98 97 371
3 460 386 395
3 389 387 401
3 401 396 389
3 388 390 389
3 398 388 396
3 396 388 389
3 390 388 394
3 392 400 391
3 392 394 393
3 393 399 400
3 390 394 392
3 394 397 393
3 399 393 397
3 393 400 392
3 394 388 398
3 394 398 397
3 398 396 401
3 399 397 400
3 398 400 397
3 398 401 400
3 386 391 395
3 391 400 395
3 395 400 401
3 401 387 395
3 387 389 390
3 387 372 460
3 387 390 372
3 386 461 391
3 391 462 392
3 462 391 461
3 390 392 383
3 402 117 120
3 104 402 118
3 119 120 117
3 118 402 120
3 122 120 119
3 122 121 120
3 121 122 123
3 124 123 122
3 123 124 454
3 125 454 124
3 454 126 123
3 376 374 463
3 374 426 363
3 413 438 458
3 127 493 407
3 130 88 360
3 360 131 130
3 132 426 406
3 138 132 406
3 407 249 127
3 407 410 459
3 407 409 410
3 411 420 408
3 413 410 409
3 415 412 414
3 417 409 416
3 438 413 417
3 416 414 438
3 421 418 404
3 441 418 446
3 405 421 404
3 405 420 421
3 418 403 404
3 405 412 420
3 421 420 442
3 403 418 441
3 441 443 403
3 443 422 419
3 419 403 443
3 137 411 408
3 411 137 134
3 135 253 424
3 426 132 131
3 426 408 425
3 408 426 374
3 374 375 408
3 137 408 375
3 137 375 136
3 107 136 375
3 426 360 363
3 360 426 131
3 376 463 372
3 427 128 129
3 138 406 492
3 428 426 429
3 425 429 426
3 431 427 430
3 432 431 430
3 492 406 430
3 427 492 430
3 129 492 427
3 432 428 433
3 406 428 430
3 428 406 426
3 432 493 128
3 434 431 128
3 427 434 128
3 409 493 433
3 435 439 620
3 373 435 437
3 413 458 410
3 412 438 414
3 458 438 457
3 409 417 413
3 439 435 463
3 365 378 385
3 135 424 444
3 444 440 151
3 423 444 424
3 423 422 443
3 452 444 423
3 423 443 452
3 428 429 445
3 415 445 429
3 429 425 415
3 445 415 409
3 415 425 408
3 415 408 412
3 409 433 445
3 428 445 433
3 433 493 432
3 431 432 128
3 409 415 416
3 414 416 415
3 446 447 441
3 448 446 418
3 421 448 418
3 449 448 421
3 421 442 449
3 442 440 449
3 450 449 440
3 443 441 451
3 447 451 441
3 453 450 440
3 440 444 453
3 444 452 453
3 452 443 451
3 139 454 125
3 126 454 140
3 454 139 141
3 140 454 141
3 361 363 360
3 620 488 621
3 420 411 455
3 411 134 142
3 455 411 142
3 455 142 144
3 456 359 455
3 455 144 456
3 455 359 151
3 359 456 143
3 150 456 144
3 151 135 444
3 420 440 442
3 420 455 440
3 417 416 438
3 408 420 412
3 489 95 380
3 95 489 94
3 405 457 412
3 457 438 412
3 410 458 459
3 249 407 459
3 440 455 151
3 373 460 372
3 461 373 437
3 461 437 462
3 462 383 392
3 384 462 437
3 383 462 384
3 463 363 439
3 463 374 363
3 465 464 466
3 467 382 468
3 466 469 470
3 470 471 466
3 466 471 465
3 472 464 473
3 473 474 472
3 475 467 472
3 476 475 474
3 474 475 472
3 467 475 477
3 479 478 480
3 479 477 481
3 481 482 478
3 467 477 479
3 477 483 481
3 482 481 483
3 481 478 479
3 477 475 476
3 477 476 483
3 476 474 473
3 482 483 478
3 476 478 483
3 476 473 478
3 471 480 465
3 480 478 465
3 465 478 473
3 473 464 465
3 464 472 467
3 468 469 464
3 464 467 468
3 471 470 480
3 480 484 479
3 484 480 470
3 467 479 382
3 466 464 469
3 470 469 366
3 484 470 491
3 491 479 484
3 366 491 470
3 479 491 382
3 430 428 432
3 434 427 431
3 487 486 468
3 469 468 486
3 378 487 468
3 439 488 620
3 366 469 527
3 527 486 490
3 486 622 490
3 621 622 485
3 361 362 488
3 621 488 364
3 489 367 96
3 96 94 489
3 490 364 362
3 622 486 487
3 491 366 379
3 382 491 379
3 492 133 138
3 492 129 133
3 493 409 407
3 127 128 493
3 494 419 422
3 494 403 419
3 424 253 294
3 294 423 424
3 494 458 403
3 404 403 458
3 458 457 404
3 405 404 457
3 497 498 496
3 496 495 497
3 499 494 498
3 496 498 494
3 496 494 422
3 499 459 458
3 458 494 499
3 498 497 296
3 296 297 498
3 499 297 298
3 297 499 498
3 459 499 298
3 298 249 459
3 500 501 496
3 496 422 500
3 501 495 496
3 501 502 495
3 501 300 299
3 299 502 501
3 500 301 300
3 300 501 500
3 500 422 423
3 423 294 301
3 500 423 301
3 497 495 504
3 503 504 495
3 296 497 302
3 504 302 497
3 495 502 503
3 502 299 503
3 303 503 299
3 504 503 506
3 505 506 503
3 302 504 304
3 506 304 504
3 503 303 505
3 305 505 303
3 506 505 508
3 507 508 505
3 304 506 306
3 508 306 506
3 505 305 507
3 307 507 305
3 508 507 510
3 509 510 507
3 306 508 308
3 510 308 508
3 507 307 509
3 309 509 307
3 510 509 512
3 511 512 509
3 308 510 310
3 512 310 510
3 509 309 511
3 311 511 309
3 512 511 514
3 513 514 511
3 310 512 312
3 514 312 512
3 511 311 513
3 313 513 311
3 514 513 516
3 515 516 513
3 312 514 314
3 516 314 514
3 513 313 515
3 315 515 313
3 516 515 518
3 517 518 515
3 314 516 316
3 518 316 516
3 515 315 517
3 317 517 315
3 518 517 520
3 519 520 517
3 316 518 318
3 520 318 518
3 517 317 519
3 319 519 317
3 520 519 522
3 521 522 519
3 318 520 320
3 522 320 520
3 519 319 521
3 321 521 319
3 522 521 524
3 523 524 521
3 320 522 322
3 524 322 522
3 521 321 523
3 323 523 321
3 524 523 526
3 525 526 523
3 526 324 524
3 322 524 324
3 523 323 525
3 325 525 323
3 359 146 151
3 489 379 366
3 490 367 527
3 532 533 530
3 531 530 533
3 548 532 530
3 539 538 537
3 540 559 558
3 559 540 538
3 537 538 540
3 560 540 558
3 534 535 541
3 535 544 541
3 544 535 537
3 545 544 540
3 537 540 544
3 560 545 540
3 546 544 545
3 545 561 546
3 562 546 561
3 563 546 562
3 544 547 543
3 547 542 557
3 542 547 529
3 543 547 557
3 544 546 547
3 564 546 563
3 564 565 546
3 547 546 565
3 548 547 565
3 548 530 547
3 547 530 529
3 536 528 549
3 537 551 539
3 567 553 566
3 567 554 553
3 552 553 554
3 554 567 568
3 536 555 535
3 549 554 536
3 552 554 550
3 549 550 554
3 554 568 569
3 536 554 555
3 570 555 569
3 555 554 569
3 537 556 551
3 555 556 537
3 535 555 537
3 571 556 555
3 570 571 555
3 543 541 544
3 557 541 543
3 561 545 560
3 577 576 574
3 574 575 577
3 576 592 574
3 582 583 581
3 603 584 602
3 584 603 582
3 582 581 584
3 584 604 602
3 579 578 585
3 588 579 585
3 579 588 581
3 588 589 584
3 584 581 588
3 589 604 584
3 588 590 589
3 605 589 590
3 590 606 605
3 590 607 606
3 591 588 587
3 586 591 601
3 591 586 573
3 591 587 601
3 590 588 591
3 590 608 607
3 609 608 590
3 590 591 609
3 591 592 609
3 574 592 591
3 574 591 573
3 572 580 593
3 595 581 583
3 597 611 610
3 598 611 597
3 597 596 598
3 611 598 612
3 599 580 579
3 598 593 580
3 598 596 594
3 594 593 598
3 612 598 613
3 598 580 599
3 599 614 613
3 598 599 613
3 600 581 595
3 600 599 581
3 599 579 581
3 600 615 599
3 615 614 599
3 585 587 588
3 585 601 587
3 589 605 604
3 356 357 616
3 357 324 616
3 325 356 616
3 526 525 616
3 324 526 616
3 525 325 616
3 157 617 228
3 617 157 619
3 156 618 290
3 619 156 288
3 619 157 285
3 618 619 285
3 620 365 436
3 365 620 621
3 365 621 485
3 487 485 622
3 490 622 364
3 622 621 364
