ply
format ascii 1.0
comment Created by Open3D
element vertex 1494
property double x
property double y
property double z
property uchar red
property uchar green
property uchar blue
element face 2915
property list uchar uint vertex_indices
end_header
0.039414 0.524831 0.217946 195 9 25
1.09763 -1.20769 1.42167 39 199 90
1.72493 -0.432211 0.719434 59 153 162
0.484103 0.455117 -0.148108 235 150 63
-0.559791 -1.75369 -0.334709 37 208 191
0.037694 0.479571 0.742014 241 188 221
-1.96217 -0.0137931 0.252778 81 119 8
-1.95482 0.0417069 1.27984 173 131 209
-1.19854 -1.77891 0.0753414 32 231 248
-1.68318 1.06848 1.24342 183 1 170
0.872297 0.371974 0.981617 73 49 76
0.206032 -0.874594 1.70907 120 192 233
1.78277 -0.502817 0.233055 235 55 114
-1.57887 1.04795 -0.627763 68 126 64
-0.814609 -0.554334 1.27609 223 222 202
2.01586 -1.52425 0.855937 99 187 172
-1.01192 0.471677 -0.108364 206 154 160
-1.41175 0.977151 -0.394923 192 191 123
-1.52615 0.931537 1.3407 212 205 18
-1.21992 -2.1598 1.31313 220 243 247
2.08839 -1.70336 0.207183 151 234 65
-0.377414 -1.54455 1.08628 199 78 158
-0.87596 -1.90766 1.28977 222 126 88
-1.27055 -0.501489 1.34371 244 215 177
-1.44405 1.31911 0.483954 63 1 212
-0.928571 -1.81303 1.20891 100 69 75
1.09275 0.154649 -0.317214 243 202 205
-1.14477 -1.51095 0.0677526 28 87 133
-0.728791 1.74652 -0.192069 233 51 90
-0.0074956 1.78412 -0.62334 213 112 185
0.7994 -2.15928 0.643754 151 88 174
-1.23033 0.320991 -0.207051 134 6 127
0.897026 -0.536206 1.54428 188 240 209
1.31936 -2.14486 0.210259 51 154 4
-1.2796 0.871451 -0.128617 247 58 52
-0.775557 0.454583 -0.176005 5 18 137
-0.678066 -0.279446 -0.566254 36 33 38
-1.52211 -0.7625 -0.448797 240 186 212
0.511454 -0.245544 1.30921 132 58 234
-1.15292 -1.48495 0.564234 251 176 27
0.0797769 2.06408 -0.611149 166 242 200
-1.57016 1.32593 -1.07053 242 66 163
-1.62008 0.539789 1.53751 241 237 15
-1.52517 1.34623 -0.0193287 248 126 105
-1.85565 -1.04891 0.209351 173 1 254
0.0385111 -2.03511 -0.33588 8 38 225
-1.28051 -1.28248 0.969643 218 133 96
-1.21339 0.885334 0.998223 55 6 205
-0.0284141 2.03362 -0.485643 3 173 235
-0.647354 -2.15879 1.17563 113 19 49
-0.211477 -2.13957 -0.779246 70 141 235
0.309766 -0.765577 1.67056 134 34 208
0.849343 -1.89564 -0.666663 155 136 163
-0.0785823 0.46818 0.114024 94 95 7
-0.14237 1.78117 -0.55798 221 137 14
0.5418 -2.02411 -0.172919 151 55 249
0.0780434 -0.384271 -0.838126 87 18 97
-0.890123 -1.21648 1.15975 111 17 30
-0.99054 -1.26453 -0.276559 116 126 197
-0.127875 -0.518694 -0.97306 207 54 175
-0.616126 -1.08623 -0.446426 145 166 154
1.59265 -0.812377 -0.342263 142 2 130
1.7213 -0.293014 0.388503 242 202 188
-1.24345 -0.831503 1.27806 119 26 213
0.692566 -1.83833 -0.686274 85 44 140
-1.41907 0.209954 -0.209571 230 218 140
-1.45249 1.17285 1.11796 59 201 36
-1.5563 0.151811 -0.178258 167 205 87
0.0606586 -0.807354 1.67191 104 246 34
-1.98236 -0.0251627 0.409986 10 26 202
-0.986734 -1.73505 0.45048 2 22 194
-0.303309 -1.70534 1.3026 104 62 180
1.30657 -1.12935 1.24439 214 77 143
-1.13994 -1.20048 1.11249 231 46 184
-1.318 -0.219045 -0.481406 37 251 197
-1.42343 -1.38586 0.64298 17 32 227
-1.21795 0.96366 -0.0278275 34 217 84
-1.14355 -1.54151 0.220618 169 10 217
-1.76434 0.503551 1.57525 173 15 108
-1.45637 -1.29135 0.792994 118 44 243
1.49864 -0.982971 1.15758 27 244 89
-1.30123 0.795283 1.05904 171 54 159
0.114761 0.559711 0.485571 106 201 117
-1.08043 -1.75151 0.90004 137 242 135
0.701009 -2.02547 0.894006 141 121 230
-1.61751 0.243564 1.58472 143 187 134
1.68679 -1.46374 -0.0875031 94 198 219
-1.17474 1.24596 0.910917 237 55 105
-0.697894 1.4343 0.135793 178 120 93
-1.5281 -0.38866 1.24541 223 253 198
1.63378 -1.36567 0.89974 237 188 254
-1.92038 1.25446 0.42556 116 231 38
2.04373 -1.21073 0.787497 148 218 201
0.97154 -0.212601 1.35882 132 17 21
-0.484517 -2.13917 -0.842871 60 40 117
1.13411 -1.86625 -0.423043 87 6 53
-1.39177 0.446446 1.44802 219 37 34
1.08028 -1.92954 -0.493583 215 222 22
0.546406 -1.15575 1.64127 181 35 199
-1.81283 0.196344 1.44693 102 128 71
1.61377 -2.03011 0.13236 128 201 202
-0.859386 -0.273293 1.25094 88 17 82
-0.356109 -0.604574 -0.850051 57 30 138
1.74033 -1.93331 0.106008 127 30 11
-1.98969 -0.742163 0.596806 184 11 176
-0.83372 0.223308 -0.388886 15 15 1
0.0152161 1.52967 -0.439837 71 20 66
-1.75229 -1.10074 0.68536 87 52 197
-0.277281 2.04197 -0.376414 178 248 191
1.43982 -1.69012 0.980943 141 178 82
-0.643346 -0.862806 1.27567 212 254 104
-0.110582 -0.776414 -1.07538 208 62 238
0.937683 -1.17241 1.53048 137 85 200
-0.929611 0.774566 0.589029 200 88 196
-2.13723 1.09044 0.699109 91 233 6
2.18623 -1.26892 0.642891 227 240 223
-1.67215 -0.0452443 1.14615 22 113 7
1.23026 -1.10809 1.30047 211 242 67
-0.412137 -0.351191 1.32318 196 38 97
-1.48955 1.05629 -0.758491 20 62 106
-0.0640934 -0.958069 1.6237 238 195 125
1.50145 -0.990957 -0.345794 209 89 162
0.503397 0.443431 0.963977 47 37 196
-0.07073 -1.62121 -0.857926 21 179 215
-0.692611 -0.924497 1.28482 30 62 42
-1.21713 -1.02935 1.23537 240 101 86
-2.03723 -0.6152 0.702786 65 91 49
0.184491 1.97957 -0.817783 56 25 146
-0.569694 -0.963874 1.2473 193 35 2
-0.0455443 0.0889814 -0.487023 97 227 157
-1.00894 -0.865963 1.30111 234 102 74
2.14101 -1.66371 0.393963 255 242 192
0.146313 -1.71555 -0.851471 204 118 183
-1.29061 -0.822671 -0.508494 87 80 94
0.453954 -0.166126 -0.596671 34 197 147
0.646586 -2.17805 0.498369 243 249 200
0.691074 -1.49403 1.56253 112 160 212
1.16189 0.0776526 1.06532 198 186 189
-1.84955 -0.404363 0.995183 125 126 35
-0.903026 -2.18917 -0.331531 100 133 53
-0.436357 1.24683 -0.138969 147 73 164
0.197152 -1.46023 -0.934091 222 159 181
-1.42598 1.31372 0.780809 57 194 76
1.41845 -1.84945 0.903349 135 191 182
-0.763749 -2.0345 -0.625266 120 15 74
1.25757 -0.762426 1.36919 8 252 27
-0.400154 1.84398 -0.0697203 53 127 92
-1.93439 -0.789977 0.691831 238 12 224
-1.6207 -0.115152 1.1069 253 41 45
0.196652 1.79238 -0.771274 204 38 40
1.78901 -1.70525 0.942191 172 73 243
-0.49704 -2.17474 0.758511 226 45 234
0.682969 0.477914 -0.141585 110 173 89
-0.168465 0.170725 -0.378106 76 191 20
-0.749969 -1.25464 1.21913 238 60 164
0.14564 -2.00091 -0.710806 127 167 188
1.66323 -1.71167 -0.149115 68 133 98
1.34659 -1.69821 1.08628 11 233 118
-0.808977 -0.183582 -0.562117 57 131 223
-2.05707 0.155413 1.34017 172 132 164
-1.5015 1.49836 -1.40752 90 77 211
0.768617 -2.15564 -0.326131 86 53 243
-0.67232 -2.17817 -0.342083 115 2 5
-1.16481 -1.81415 -0.053382 149 109 91
-0.433246 1.23149 -0.0394314 238 249 133
-0.356311 0.443583 0.393229 228 45 170
1.80274 -1.77919 -0.0754243 34 4 243
1.66491 -1.85428 -0.0618234 74 89 195
-1.13595 1.11853 -0.00138607 16 100 153
-2.11676 0.91182 0.816477 77 191 228
1.51635 -1.52775 1.00597 118 200 13
-0.00435331 1.47697 -0.158632 14 109 198
-0.818591 0.545683 0.127532 65 48 7
0.769674 -0.910863 -0.880811 78 40 247
-1.18267 -1.44531 0.668051 32 63 21
-0.385374 -1.97595 1.52764 154 202 199
1.48317 -0.78714 -0.473663 176 181 83
-0.27018 -0.479351 1.3347 21 60 84
-0.803409 0.0587831 -0.432054 113 78 47
-0.913706 -0.968957 1.29332 25 244 71
-1.12343 0.386334 1.1852 126 249 99
1.65001 -0.692909 -0.264997 143 104 190
2.17906 -1.16488 0.29692 235 146 118
-1.88589 -0.06493 0.819843 219 191 166
-0.423231 -2.06134 0.960143 231 145 123
-1.03177 -2.19233 0.643974 19 98 42
1.81214 -0.974806 0.402617 38 254 198
-1.94186 0.116167 1.38852 232 156 106
-0.584754 1.45315 0.055772 251 175 204
0.0470434 -1.34461 1.57201 7 34 146
-2.04365 -0.597957 0.182479 30 236 179
-1.95123 -0.191127 0.805854 173 166 34
1.11218 -0.0538706 -0.395029 141 226 195
-2.16202 0.381971 0.283342 247 135 63
1.66782 -1.78949 0.966751 230 196 158
0.456534 -1.68591 1.57639 1 28 119
0.527011 -0.425811 1.6025 45 168 30
-0.152271 -2.14197 -0.517157 92 66 20
0.0877169 0.400709 0.934137 102 198 175
-0.944431 1.15582 0.384517 204 230 207
-1.66506 -0.39 -0.346114 60 146 205
2.17087 -1.49513 0.646831 242 184 198
1.07663 -2.03045 1.22743 38 179 2
-1.65183 1.90243 -1.20982 35 118 226
0.48466 -2.1712 -0.480034 96 79 208
0.144468 -0.92236 -1.04414 144 195 185
1.06165 -2.12671 0.239788 89 92 88
-1.55634 1.25243 0.959909 54 115 79
1.26224 -1.37811 1.30424 67 127 177
-0.20414 -0.470983 -0.876397 225 215 56
-1.92804 0.752271 1.38824 38 53 243
0.786671 -2.13996 0.149808 215 45 126
0.706023 -2.17366 0.0874471 65 237 145
-2.01099 0.0035744 0.549263 9 56 22
0.471769 -2.04345 0.683823 203 58 201
-1.16575 -1.50169 0.489937 86 54 20
0.0479137 -2.15313 1.29609 183 53 171
0.048306 -2.01941 1.18181 13 162 159
2.07306 -1.75537 0.418434 22 180 80
1.76228 -1.97664 0.255845 142 170 10
0.86968 -1.55368 -0.79292 140 52 183
-1.5709 -1.00679 -0.310557 188 97 14
0.798754 0.5646 0.0801606 158 50 227
-0.868586 -1.31143 -0.344129 193 76 38
0.194308 0.51664 0.00415614 127 6 151
-1.92416 -0.547826 -0.107885 133 162 44
0.748297 -0.10843 -0.533514 163 234 129
-0.287694 1.72714 -0.252337 43 204 45
-1.24034 -0.419677 -0.49996 48 184 126
0.0371297 0.432817 -0.0715986 140 63 230
0.0474097 2.18413 -0.65474 68 189 233
1.34305 -0.80008 -0.527957 40 233 49
-2.14598 0.496077 0.957314 30 110 24
-1.10325 1.26044 0.723609 217 226 74
-1.38808 1.64332 -0.834126 31 216 236
-2.07546 0.0799389 1.20355 117 105 248
1.25499 -2.14705 0.574383 131 210 139
-2.0013 -0.739551 0.397383 244 82 25
-0.854734 0.114635 1.02398 31 235 14
-0.336223 -1.73864 -0.618631 229 197 8
-1.73219 -1.16489 0.232327 215 207 18
0.8025 -1.38546 1.53073 37 14 136
-0.313863 -2.06133 0.267095 28 34 233
-0.99856 0.515489 -0.077724 62 152 153
-1.17808 0.653443 -0.140734 92 52 145
-1.51614 0.588666 1.46838 106 57 52
0.513669 -1.71657 1.53359 206 120 89
-0.140333 -1.42803 -0.923103 188 36 0
-1.39746 1.91729 -1.68893 5 219 69
-1.28754 1.27357 0.149541 109 22 37
-1.4317 1.74588 -1.10265 127 237 94
-0.647197 0.359469 -0.27001 105 5 220
-1.38303 1.80701 -1.33582 203 28 86
0.256691 0.565906 0.161625 234 66 33
-0.445397 -2.0407 -0.408034 148 13 106
-0.260172 -0.410286 1.29134 77 103 180
-2.07807 1.03915 0.34156 230 23 167
0.153075 1.53467 -0.342754 152 254 190
1.25001 -1.86764 1.10611 200 176 162
1.06217 0.45882 0.107828 151 217 27
-1.71324 1.22223 -0.188394 79 35 42
-1.37284 1.25229 -1.12773 38 232 86
-0.235374 -1.61263 -0.754774 231 77 16
-0.0293583 2.12833 -0.64596 204 149 126
-0.342726 -1.04135 -0.944991 230 27 207
-0.439166 -1.17997 -0.588274 85 120 40
-0.020505 0.264761 1.0478 219 98 36
1.14537 -0.380883 1.37095 118 223 5
-0.0491489 -0.782874 1.70296 181 19 92
-0.526791 -1.03927 -0.503694 220 128 209
0.316194 0.120534 -0.466097 126 183 59
-0.458457 -1.75301 -0.506103 130 193 224
-0.54498 -2.13578 0.553691 3 195 210
-1.73054 1.42694 -0.688189 135 210 40
-1.40379 -1.91719 -0.0246946 57 192 136
1.84309 -1.05107 0.465074 207 165 9
-2.07537 0.838077 1.07893 61 50 138
-1.62904 0.0216531 -0.199538 95 214 39
-1.42805 1.27027 0.113329 204 143 90
-2.07857 0.914449 0.929314 21 12 147
-0.223409 0.465294 0.385934 155 68 110
1.28695 -1.97347 0.921483 228 247 126
1.27056 -1.76432 -0.457943 25 142 94
-2.18899 0.288957 1.14062 221 214 60
-1.70218 -0.348766 1.10467 33 163 121
-1.21051 -0.313537 -0.502114 2 217 138
1.85078 -1.28407 0.86594 176 24 246
-1.62112 -1.3005 0.325709 138 173 187
-1.06536 0.890714 0.855969 14 157 97
-2.18898 0.586774 0.617831 28 226 206
-1.70179 0.6373 1.55139 28 250 229
-0.713177 -0.707986 1.25541 154 230 219
-1.07517 1.18672 0.82044 112 31 172
0.227695 0.310677 -0.318251 176 140 126
0.423246 -0.742911 -1.02208 162 5 148
0.29422 -1.83659 -0.800811 248 31 206
-0.162877 -1.93955 1.58818 214 67 49
-0.293206 -1.96548 1.5838 251 150 38
-0.612089 -2.18593 0.112289 120 133 22
-0.151267 1.4853 -0.384449 44 166 15
-0.938106 -0.532689 1.31118 220 89 243
1.77083 -0.479591 0.408577 142 55 11
-1.03471 -0.32756 -0.595906 70 86 238
0.632209 -0.476109 -0.864149 78 93 51
2.0497 -1.06499 0.280031 212 159 252
-1.56873 -2.16114 0.0302709 188 132 241
1.18261 -2.04235 0.97172 183 149 212
-1.41047 -2.12596 1.13749 88 28 143
2.03379 -1.77887 0.578766 208 184 122
1.51015 -1.60932 -0.139316 185 234 222
1.89739 -1.85973 0.130306 7 239 25
2.12796 -1.21002 0.128162 168 81 27
-0.520386 -2.16266 1.03545 107 67 186
0.295854 -1.56531 1.57329 91 66 132
1.32407 -0.276532 1.19468 172 78 245
-0.6187 -2.12863 0.342929 131 16 125
-1.60028 -1.2321 0.693651 127 76 240
0.187706 0.0299597 1.25327 205 69 40
2.02286 -1.03437 0.475749 43 13 246
-1.13258 -0.441714 -0.580457 248 207 62
0.920883 0.271503 1.0424 9 26 175
0.867849 -1.13437 -0.85606 105 63 55
1.79489 -0.900269 0.635206 5 103 140
-0.433834 1.56251 -0.0996514 190 99 82
1.18122 -2.15482 0.534666 117 217 138
0.123831 -0.216605 -0.645277 75 253 250
1.26963 0.249028 -0.0471897 47 59 58
0.898554 -0.0434663 1.20816 252 4 63
0.0109853 -0.402397 1.53829 100 54 32
-1.40399 1.09525 -0.840097 51 145 241
-1.03529 0.798851 0.0208958 116 204 147
-0.810171 -0.882957 1.24733 103 53 209
-0.332014 -2.06742 0.702757 30 1 72
0.107488 -1.21023 1.58241 114 10 23
0.929869 0.0676809 -0.434423 47 225 79
-0.708749 0.497851 0.520863 179 159 95
-0.584991 -2.18631 0.174471 71 228 115
1.49734 -2.06333 0.62818 32 34 111
0.0846071 1.6866 -0.425606 88 213 149
-1.14559 -0.4755 1.34147 224 184 55
-1.0141 -1.56987 0.777514 161 146 21
1.12287 -1.93143 -0.270629 214 4 220
-1.95862 1.08396 1.02058 159 188 233
-2.16917 0.212234 0.995063 222 109 236
-1.09548 -0.103117 1.20084 250 21 149
-1.42428 1.19959 -1.2469 147 204 139
-1.99661 -0.153309 0.24339 211 76 196
0.870917 -0.612271 -0.823869 203 5 5
-1.30166 1.63481 -1.29814 51 240 187
0.949697 -2.17122 0.103433 182 44 232
-1.25928 1.79314 -1.73445 32 119 139
-1.71005 1.01807 -0.0929071 186 153 203
-0.557457 -1.33228 1.22786 215 176 30
1.0847 -1.28978 1.3931 201 228 33
-1.98552 0.412866 1.42505 170 32 64
-1.19065 -2.19565 -0.146078 225 99 210
-1.3149 1.44297 -1.30192 210 110 36
-1.76016 -0.985983 0.874066 157 168 227
0.667391 -0.566071 1.6114 4 164 146
0.961451 -0.687446 1.49527 231 2 121
-0.161883 -2.07625 -0.48202 95 84 180
-0.448563 -0.798834 -0.801886 99 12 115
1.32179 -0.719149 1.2776 18 171 33
1.04333 -0.732566 -0.73726 207 94 58
-1.91458 -0.0143732 0.136173 127 224 182
-0.929609 0.898949 0.33574 192 161 231
-0.443329 0.336669 -0.163181 38 137 76
-0.803606 -0.421583 1.27636 96 248 119
-0.773783 1.49673 -0.239617 224 214 131
0.383329 -1.68119 -0.850734 28 191 240
-2.05125 -0.198925 0.381209 207 94 245
-1.80932 -0.528146 1.02839 76 49 136
-1.20489 -1.76869 0.192319 79 161 210
-1.97677 -0.871814 0.299183 21 11 203
-0.819049 -2.18081 0.838571 255 27 215
-1.85945 -0.998126 0.539223 193 72 168
0.645643 -2.04881 -0.301469 81 15 40
-1.74564 1.76651 -1.06041 14 150 180
-0.334503 0.419591 0.560609 80 245 248
-1.59662 1.53941 -0.374511 143 31 68
-0.410209 -2.15613 -0.535777 121 64 206
0.327617 -1.37223 -0.972237 230 53 237
0.528891 -1.57638 1.58065 154 87 80
0.626066 0.300797 1.07244 129 229 40
0.55334 -1.76647 -0.812423 246 209 44
-0.0350334 2.20208 -0.450063 165 81 1
0.304554 0.0187586 -0.591569 140 28 21
-0.732246 0.544523 0.305831 201 255 79
-0.689891 -0.667946 -0.567363 178 17 224
-1.69009 1.08079 -0.247419 102 26 44
-1.29148 1.23843 -0.370023 190 16 191
-0.595877 -2.18573 0.296066 116 158 111
0.606877 -1.5973 -0.826397 46 9 200
1.67681 -0.553383 -0.193334 252 207 67
-0.862051 -1.02279 -0.438229 43 221 141
1.11331 -2.01188 -0.140042 4 217 95
-0.91194 -0.517686 -0.574097 232 146 194
0.645371 -1.80491 1.47024 65 187 251
0.856889 -2.03322 -0.599774 210 182 116
-2.16213 0.114124 0.433089 227 84 8
-1.54908 -0.865446 1.18132 245 253 70
0.657571 -1.20778 -0.883986 51 15 189
1.3864 -1.21453 1.21227 92 89 161
0.741426 0.45522 0.932591 159 61 53
-1.26614 1.30983 0.646577 208 120 143
-1.86369 0.438257 1.52992 251 168 235
0.18826 -0.10177 -0.602714 217 87 192
1.60643 -0.0838369 0.596726 144 5 188
-0.14532 -1.27203 -0.985514 157 133 249
-1.27299 -0.591183 1.35183 229 189 223
-1.13933 -1.82934 1.28268 156 226 151
-0.100372 -2.11179 1.57503 81 14 146
-1.42115 -2.04479 1.0818 178 64 71
-1.97927 0.0180058 1.12911 24 115 40
-0.919346 0.996606 0.306029 14 126 134
2.22815 -1.25561 0.468077 166 179 37
-0.552143 0.5085 0.262115 253 128 191
0.691697 0.239576 -0.401226 69 27 96
-0.483306 -0.208817 -0.581657 216 230 10
-1.00782 1.1784 0.467349 128 199 50
2.20649 -1.46336 0.5056 143 111 185
-0.858037 -1.05801 1.23826 160 123 71
-0.7866 1.04329 0.0340549 1 233 159
1.007 -1.12194 -0.791734 40 3 145
1.43753 0.16729 0.124619 18 84 154
-0.46728 1.39839 0.1274 59 107 66
-1.46512 -1.42377 0.426009 70 121 117
0.873243 0.5686 0.319331 134 75 9
-0.561106 0.0193046 1.07451 234 63 203
1.40979 -2.02753 -0.0081802 236 181 244
-1.72555 1.2151 1.00755 212 166 204
-1.36243 -1.89833 1.00671 197 216 13
2.03691 -1.70235 0.101849 2 142 215
0.790766 -0.23902 1.4106 44 38 210
-0.966083 -0.017916 -0.498986 215 149 207
1.02645 -0.981354 1.535 17 110 114
0.582989 -2.09898 -0.655291 80 186 1
-1.33407 1.6792 -1.71102 96 95 200
0.972471 -1.40079 1.45052 233 248 124
-0.891037 -0.672291 1.35281 39 252 52
0.754617 -0.727766 1.63271 37 24 42
-0.0381077 1.8999 -0.645334 129 198 102
-1.8448 -0.0784851 -0.0482869 27 88 220
-1.27405 1.38944 -0.659366 5 68 164
-1.49608 0.80092 1.38665 11 150 28
-0.225959 -1.78791 -0.713709 198 9 42
0.704171 -0.844726 1.62723 118 141 190
-1.16374 1.32967 0.311769 114 207 66
1.26114 -0.92576 1.35577 126 5 85
-1.74665 1.38526 -0.440997 219 159 214
-0.0503254 1.63565 -0.51434 147 132 50
-2.15019 0.900629 0.52248 73 23 141
1.61217 -0.330417 0.875057 81 63 79
-1.02521 -2.1668 0.835249 34 161 193
-0.199046 -1.76884 1.47789 161 112 160
0.874723 -2.15179 -0.521037 200 4 179
-1.83606 1.26333 0.762949 181 245 171
0.189757 -1.63141 -0.916037 125 112 36
0.589057 -0.999994 -0.952757 250 217 19
0.828691 -0.996866 -0.839526 51 29 20
-1.64676 -1.07752 -0.174128 219 119 122
-1.44819 -0.479586 1.25721 53 60 71
-0.433583 -2.11836 1.49507 59 241 101
-2.16295 0.344054 0.885366 1 136 160
-1.64077 1.30409 0.7646 10 159 153
-0.422057 1.91382 -0.0705143 244 52 160
-0.981123 -1.55303 0.477969 214 32 77
0.0792326 -1.89565 -0.721006 229 109 223
1.43401 0.0392237 -0.12245 227 152 177
-1.56966 -1.34234 0.55606 77 137 216
-1.4532 -0.209021 -0.391006 20 152 239
-1.03927 1.31317 0.363837 20 87 235
-1.05995 -0.402443 1.28527 192 91 248
-0.942689 -1.16007 -0.366563 147 179 240
1.80052 -1.04663 0.598026 3 22 103
0.596109 0.616691 0.528371 112 110 117
-1.97525 1.11129 0.239868 2 116 252
-0.457631 -1.68317 -0.245757 121 140 5
-1.85249 0.587697 1.53877 116 226 62
-1.94649 -0.725217 -0.0337329 79 186 97
-1.62259 -0.421354 1.20003 198 151 227
-1.17366 -0.656923 -0.561857 194 4 238
-1.30973 1.18313 -0.782474 12 84 218
-1.97829 0.259742 1.43979 91 9 15
-1.14935 0.840674 -0.0932023 142 152 96
-2.12687 0.637829 0.283136 70 187 65
0.3652 -1.57307 -0.876646 135 135 134
-1.10995 -0.864369 1.32207 128 96 107
-1.44275 -1.86739 0.256118 189 116 141
0.222614 -0.714389 -1.04483 34 119 193
0.247694 0.543871 0.7594 4 238 248
-1.60637 1.45359 -1.014 234 153 79
-2.07198 0.764034 0.380294 112 211 50
-1.41251 1.26387 -0.031648 25 243 185
-1.16221 -0.661623 1.30997 99 151 188
-0.083526 -1.70983 1.35849 78 140 227
-1.12428 0.13707 1.06852 210 157 116
0.854437 -1.42265 -0.789643 253 244 70
1.81291 -1.10812 0.623391 191 198 76
-2.10525 0.171389 0.831057 198 26 209
-0.657049 -1.65158 -0.266984 156 190 200
0.689414 -0.335929 1.44244 51 97 242
-0.376871 -1.67119 -0.439991 40 173 57
-0.870371 -1.98247 -0.297746 224 29 113
1.67575 -0.214883 0.0939546 68 5 204
0.395083 -0.62584 -0.983457 84 81 6
-1.43487 -2.19388 0.0407451 10 88 43
0.0134192 1.76508 -0.439203 79 204 252
-2.08709 0.653046 1.0023 9 42 194
0.395846 -0.531391 -0.962989 139 223 29
-0.0507746 -2.15328 1.33343 29 198 8
0.221803 1.65497 -0.526251 70 104 219
-0.745183 -1.67043 1.1613 183 201 81
0.790183 -2.11111 -0.604934 186 56 98
-1.32989 -0.967751 1.22357 220 134 182
-0.187382 -0.408534 1.32864 243 109 52
-1.68255 1.17135 -0.222639 93 153 211
-1.36015 -2.14157 0.723434 16 86 82
-0.455617 -1.29387 -0.463289 251 97 249
-0.526594 -0.92408 -0.515351 170 163 229
-0.928006 0.946189 0.181769 94 32 146
1.41753 -1.09612 -0.469563 189 166 121
-0.322349 -0.860843 1.38295 29 229 160
-0.173305 0.273197 -0.28471 102 65 148
-1.09176 -1.16595 -0.373434 188 103 88
-1.98299 0.817574 0.131127 220 201 93
-1.15665 0.658754 1.08257 163 209 170
-1.66473 1.27872 0.101507 52 58 160
1.29435 -0.0832251 -0.337983 109 132 176
-1.66669 1.63897 -0.646666 82 87 217
-1.52621 -1.32651 0.120973 254 149 215
-1.71246 -0.44674 -0.327463 26 220 164
-0.933523 0.445009 0.96274 2 203 90
1.38963 -1.37732 -0.48918 235 26 204
0.525557 -2.05191 -0.348754 98 155 103
-0.888077 1.30402 -0.156355 181 172 25
1.60791 -1.27075 1.00491 197 242 106
-2.04788 -0.353097 0.224365 89 81 207
-1.40148 0.101267 -0.284131 134 20 205
1.31198 -0.452386 1.27743 108 201 28
-0.748723 -1.88275 -0.4342 216 200 150
-1.79729 0.85882 -0.0783903 208 78 143
-0.634631 -1.94937 1.23101 122 98 165
-0.69918 -2.17079 -0.0492389 54 154 61
-1.29581 -2.12165 0.599509 254 38 186
0.0444566 -0.157125 -0.605386 65 144 163
-0.303071 -0.84924 -1.00531 171 242 194
-1.17305 1.09296 0.98308 236 37 0
0.649026 -1.73174 -0.775711 57 227 179
-1.27196 -0.0118521 1.12056 246 37 190
-0.816526 1.71716 -0.0458806 191 112 99
0.800677 0.585326 0.574957 134 58 137
-0.847357 1.23686 0.307906 123 136 70
-0.827831 -2.16063 0.941109 15 21 32
-1.04106 0.994791 0.0173449 37 64 101
-0.974723 0.955069 0.0703137 103 216 214
-0.663677 0.188723 -0.375857 243 56 58
0.0215635 -1.90964 1.52506 108 25 253
1.17441 -1.66247 1.21204 85 55 123
-0.528471 -1.03559 1.24604 94 71 61
-1.11873 -0.825183 -0.570937 55 215 156
-0.443017 1.85811 -0.371074 123 246 233
-2.0173 0.483843 0.0213189 49 115 50
-1.90469 -0.83738 0.868086 14 149 146
-0.754926 -1.39285 -0.319417 83 121 246
-0.0378709 1.38772 -0.203321 145 192 182
0.509051 0.224678 1.17033 169 116 99
-0.873006 -2.10207 1.34891 123 155 10
1.4004 -1.65787 -0.23037 235 24 238
-1.08785 0.884566 -0.0168725 168 3 254
1.34225 0.0431106 -0.227508 198 59 206
-0.86864 1.09653 -0.0599177 151 99 210
-1.12511 -0.262548 1.27544 116 150 244
-0.458566 -2.1831 -0.59814 140 147 232
-0.937246 -1.62733 0.485109 20 92 75
-2.06904 0.523574 1.31291 38 67 177
-0.8453 -1.57832 1.12476 167 221 69
-0.755143 -1.10606 -0.471311 27 188 4
-0.82566 1.39255 0.257753 132 186 222
-1.25152 -2.18983 0.162889 56 112 26
-0.517857 -1.90221 1.36886 97 21 158
-1.07453 -2.12219 1.38069 32 101 98
-0.6928 -0.50248 -0.6189 154 91 39
-1.86022 -0.93954 0.031738 88 110 89
-1.82876 -1.09472 0.503271 183 141 54
0.806443 -1.86654 1.31476 76 225 1
-0.764149 0.519263 0.517677 186 75 95
-1.88453 -0.965706 0.378703 211 172 2
2.13967 -1.14638 0.617731 124 21 166
-0.70614 1.66577 0.131216 77 196 52
0.996354 0.434591 0.803911 23 249 60
-1.01094 -0.701463 -0.571626 67 82 252
0.809703 0.263716 -0.370917 254 93 208
-1.76779 1.30218 0.543791 217 147 60
1.01008 -0.556017 1.41718 112 184 50
-1.7563 1.11432 -0.0253911 230 6 233
0.0671111 -0.837309 -1.08138 118 132 249
-0.220977 -0.409497 -0.671654 147 148 11
-0.315443 -2.0818 1.59959 153 61 37
-1.41191 -0.325783 -0.423617 178 128 62
0.385631 -2.15398 1.21827 55 143 38
-0.409503 -0.953583 -0.896357 8 34 168
1.33476 -1.22606 -0.516434 141 83 161
-2.06216 0.440503 0.13744 71 210 185
0.158922 -2.15038 1.27064 58 136 173
-1.23091 1.0115 1.09795 156 40 75
0.263645 -1.40799 1.6541 130 53 197
0.341683 -0.363954 -0.816889 110 242 181
-0.567006 -1.85273 -0.692566 27 102 89
-1.29391 0.0810677 1.08492 9 50 249
-0.235886 -1.29539 -0.896106 187 45 12
-1.76781 1.73641 -1.19374 52 7 27
0.750337 -2.15213 0.557369 1 29 163
-1.08275 0.0700803 1.06411 18 137 242
-1.48673 -2.17962 -0.119097 179 111 39
-1.56213 1.12411 -1.14227 129 111 173
-1.31779 1.16773 -0.0412646 92 9 71
0.198141 -2.15007 -0.667346 79 16 73
1.5577 -1.97215 -0.0318606 233 173 71
-1.69689 1.15112 -0.47566 209 223 174
-0.718586 1.27673 0.241379 144 250 251
-0.954063 -1.05693 -0.412637 114 157 126
0.661111 -1.89929 1.34391 0 141 83
-1.96037 0.0622034 0.879377 200 37 51
2.22861 -1.40585 0.333626 235 165 142
-0.99226 0.240088 -0.358394 228 33 197
-1.84057 0.330249 1.45721 40 197 188
-1.32845 1.63018 -1.11153 184 251 246
-1.29858 1.22332 1.01881 196 251 252
-1.41071 -2.15508 0.945949 25 94 228
-0.928374 0.574506 0.915803 172 204 202
-0.986991 1.0803 0.487646 82 92 13
1.66021 -1.28635 -0.0854891 187 168 147
-0.174923 0.0375166 1.16734 37 114 176
-2.03096 0.876934 1.16669 151 149 189
-0.442089 -2.05388 0.0277065 51 85 218
-0.571143 -2.0544 -0.285424 91 218 126
1.81785 -1.57153 0.963663 242 243 188
-1.49646 2.03583 -1.51389 34 215 123
0.0226908 -2.05547 0.479369 107 222 8
-1.19983 0.1945 -0.326437 177 156 237
1.23107 -1.01518 -0.658786 113 45 1
0.263344 0.397631 1.00239 48 53 59
-0.948386 -1.66987 -0.19317 185 8 102
1.61606 -1.97823 0.740491 61 191 126
-0.380866 -2.18963 -0.797003 160 197 72
0.487657 -0.879926 -0.972337 19 4 5
-1.27072 0.358486 1.26406 23 237 143
-1.27529 -1.88414 1.24775 14 82 185
0.962214 -1.78218 1.27116 146 225 232
-0.117754 1.3608 -0.12766 132 7 119
-2.16092 0.35132 1.27247 58 130 102
0.428534 -0.285333 -0.623354 203 188 40
1.05104 -0.104719 -0.432706 156 141 235
-1.65305 -0.727986 -0.391457 23 171 199
-0.975837 -1.38748 0.972626 7 140 174
-1.11585 -0.980846 -0.500163 151 29 62
-1.62983 -1.23933 0.0984997 134 30 230
-0.565629 1.4311 -0.328046 100 109 225
-1.43719 1.43058 -1.59373 184 134 242
-0.28199 -2.19205 -0.70392 187 102 81
-1.71301 1.25013 -0.000285766 69 152 250
0.49102 -0.970086 1.70911 123 199 196
-1.5751 0.03178 1.36636 133 255 1
0.930697 0.0884886 1.13401 25 224 65
-0.257585 -1.43337 -0.8344 109 192 197
-1.53916 -2.17839 0.217243 128 113 118
-0.793423 -2.18918 -0.623394 87 126 55
-1.69648 1.32009 -0.135919 218 75 183
-0.664189 -1.72941 -0.279865 13 64 35
-0.0655803 1.86259 -0.426469 114 131 193
1.16863 -0.189147 1.23288 168 190 113
-0.0136225 -0.342937 -0.659134 149 83 117
-1.0804 -0.115915 -0.49026 97 104 92
-1.05229 -1.90759 0.591649 229 220 243
1.22409 0.244666 0.8903 117 223 145
0.245099 1.83996 -0.745203 159 128 45
-0.653351 0.257942 0.918363 152 103 96
0.657889 0.138246 1.18807 89 198 29
-0.494674 -0.102958 -0.526686 145 139 36
-2.20725 0.278496 0.74196 58 68 81
1.26096 -0.398909 -0.518957 134 143 250
1.17666 -0.628643 1.41607 176 53 109
-1.25431 -2.17596 0.597643 32 132 31
-1.37386 -1.99443 0.812131 40 1 102
0.932089 -0.397243 1.41971 77 193 14
0.37426 -1.91355 -0.683457 133 14 5
0.415329 -1.17883 1.66384 171 24 217
1.89577 -1.84874 0.701429 22 110 109
-0.760846 -1.15485 1.23955 96 63 60
1.65153 -0.129284 0.237007 217 138 244
0.0330123 -1.03366 -1.06981 205 128 120
0.221404 -1.31213 -0.980657 250 53 125
1.5793 -0.110283 0.78728 35 249 39
-0.286843 -1.76774 1.45178 169 167 75
0.0688037 -0.297231 -0.631674 203 41 115
-1.0538 -0.71472 1.34558 249 183 16
0.246434 -1.1936 1.6381 145 109 168
1.5759 -0.537397 1.04601 125 14 205
0.988983 -1.92075 1.3075 119 81 21
1.32092 0.0959171 0.973494 122 200 199
0.371446 0.210563 -0.394771 52 49 229
1.35628 -0.979291 1.28576 29 218 144
-1.03274 -2.18344 0.756863 60 104 135
0.091616 1.47281 -0.30874 159 151 83
-1.48787 1.86886 -1.57737 88 220 58
-0.967171 -1.61565 0.975671 232 204 143
-1.62264 -1.03061 1.03308 255 248 158
1.08828 -2.14944 0.016167 174 122 204
0.39966 -0.013498 1.27981 215 80 140
-1.14327 -1.70112 0.00760466 172 169 207
0.567583 0.17256 -0.490709 189 219 80
-2.05343 -0.234386 0.585854 100 13 243
-1.60115 -2.12735 0.270707 35 42 33
-1.67952 0.768574 -0.137835 5 217 179
-0.217521 0.256141 0.947577 183 83 103
-0.597491 -0.785477 1.30887 255 123 54
-0.222432 -0.873046 1.58917 201 11 196
0.447417 0.0988574 1.24484 131 186 44
1.57599 -1.39604 -0.231927 231 86 96
-0.078198 2.18611 -0.529071 113 188 228
0.503534 -1.48467 1.60684 34 188 75
-1.73033 -0.0582 1.04265 249 230 182
-1.6072 1.89136 -1.48247 212 5 52
-0.765926 0.365226 0.75448 38 146 246
0.109298 0.280271 1.08752 19 228 79
-0.343029 1.50087 -0.0725669 143 22 111
-0.640066 -2.11776 1.26074 253 64 193
-0.396963 0.391903 -0.00706617 164 178 119
0.605029 -0.70386 1.68782 200 144 131
1.03944 -1.90195 -0.584723 40 23 174
-1.11133 0.791477 0.946677 88 220 129
-1.48002 0.833691 -0.1863 97 191 25
-1.57537 -0.63034 1.23139 215 72 108
-0.59254 1.67353 0.101918 119 215 221
-0.37704 1.42745 -0.351934 129 12 80
0.359206 -1.03601 1.74137 89 92 61
-1.3295 1.23786 -0.21589 59 139 112
-1.02111 0.788474 0.803951 76 134 40
-1.43839 -2.09365 0.939329 216 227 101
-0.851563 -0.713454 -0.581289 110 167 246
-1.85753 -0.952646 0.711483 98 216 117
-2.08347 0.0732571 1.04001 86 32 50
-1.56978 1.20558 -1.22105 183 67 175
0.435686 -2.14732 1.17231 129 110 174
1.0903 -1.21982 -0.75128 47 40 99
0.371629 -0.253466 1.29773 54 208 113
-1.75879 0.171211 1.48661 166 95 58
0.843646 -2.15233 0.939017 233 245 103
-0.376657 -0.679203 1.29581 141 149 243
-0.0167544 -1.36508 1.53498 173 214 124
-1.64077 1.23705 -0.693709 94 65 175
-1.38825 1.09637 1.14726 73 143 90
-0.664911 0.0543951 1.0779 186 185 251
-1.34412 -2.10398 1.26177 126 46 215
-0.598186 0.377689 0.808197 119 178 131
-1.89835 1.07005 0.141857 86 141 101
0.580509 0.61464 0.233188 86 210 46
-0.84468 -0.026905 1.15585 149 83 113
2.11249 -1.44993 0.0800843 91 224 164
0.813491 -1.25057 1.592 149 235 3
-1.05286 -2.17433 -0.312214 93 247 130
0.464131 -1.16865 -0.929909 189 176 134
1.79905 -0.965049 0.154523 254 89 130
1.06025 -1.79626 -0.563109 9 239 151
1.12088 -2.1076 0.456646 175 184 138
-1.02827 -1.87989 1.32597 205 206 253
1.6258 -0.270881 -0.0923263 213 44 9
-0.841826 -0.878066 -0.514691 180 134 106
1.7495 -1.23483 0.0610446 243 245 42
-1.2835 -2.04109 0.721543 191 50 74
1.69214 -1.33775 -0.0218544 188 8 226
-1.35631 1.9969 -1.60792 222 144 212
-0.952826 0.804109 0.125808 4 194 180
1.9847 -1.61899 0.832829 40 187 169
2.13114 -1.63481 0.648817 34 210 126
1.80877 -1.46094 0.95846 140 229 246
-0.115073 -2.02736 1.15677 146 155 31
0.75154 0.340834 -0.31856 165 45 34
0.48804 -2.15401 0.516074 152 18 70
-1.3256 -1.89326 0.872326 67 117 203
-0.15779 -1.15255 -1.03888 42 165 36
1.41169 -1.8802 -0.113307 171 34 240
-0.320457 -1.08751 1.20333 199 47 118
-0.590137 -0.00779217 -0.510634 237 236 187
-0.428971 -2.16038 1.20682 126 115 14
1.72124 -1.14307 0.796394 243 11 203
-0.911889 0.591026 0.0312671 52 238 79
-1.35054 1.03552 -0.458411 209 156 246
1.71083 -0.817811 -0.0940217 96 104 84
-0.829497 -0.0454683 -0.494757 228 20 233
-1.77444 1.58804 -0.953331 104 221 110
1.75707 -0.601 0.692451 169 122 219
-1.28616 1.19191 0.0479863 176 79 210
-1.42089 -1.99331 -0.124345 51 153 129
0.518271 -0.596069 1.64985 235 63 226
0.58052 -1.37241 1.67095 69 206 253
-1.4905 1.86431 -1.27654 248 127 229
-1.85398 0.0304154 0.045084 227 138 243
-0.13518 1.4141 -0.306003 160 63 96
-1.79296 -0.791931 1.02976 170 211 46
-1.01683 0.983214 0.558834 74 76 184
0.67328 -2.17317 -0.546951 39 33 113
-0.810986 -2.18952 -0.474874 232 219 207
-1.6509 0.0945571 1.48079 68 160 5
0.815851 -1.76809 -0.733743 96 101 18
1.09083 0.323811 0.94698 2 219 152
-0.400654 -2.17307 0.357786 38 144 101
-1.68093 -1.14359 0.0483374 143 161 101
-0.219569 0.424714 0.593509 243 246 110
-1.21801 -1.46919 0.210695 249 118 220
-0.150439 2.16215 -0.38356 30 21 60
1.67756 -1.64238 0.978209 180 244 157
-0.194067 -0.725669 1.62408 156 112 50
-1.59639 -0.237756 1.14058 165 236 47
1.54997 -0.691446 -0.413654 228 119 234
-1.1287 -1.74095 0.317786 22 131 167
0.346714 -0.0830597 1.31019 195 162 155
0.419163 -2.02432 1.05168 6 141 94
-2.13117 1.02845 0.508583 188 146 252
0.374626 -2.05299 0.448966 48 146 236
1.71017 -0.999846 -0.0820546 147 58 251
-0.397934 0.252198 0.882597 180 45 156
0.829403 -0.802786 1.57758 143 168 231
-2.21773 0.290446 0.513166 35 208 82
-1.46158 1.68652 -0.76942 245 29 209
-1.68307 -0.918586 1.04043 70 252 26
-1.74575 -0.224834 -0.218942 41 234 128
-1.98506 -0.0826337 0.553786 27 85 225
-0.790957 -2.18568 -0.00878786 216 219 147
1.1829 -1.4887 1.31797 39 206 226
-1.29388 1.51536 -1.12219 182 143 189
1.12325 -0.57456 -0.64072 35 210 34
-1.63319 1.79086 -0.99394 202 182 164
-1.75796 -0.83628 -0.200501 212 110 50
1.6356 -1.08415 0.963263 42 11 91
0.767591 -1.19658 -0.838891 0 30 199
-0.552823 -2.14355 0.688657 179 212 68
-2.14184 0.111985 0.596063 43 32 174
-0.376194 -0.231467 1.26568 158 55 1
-0.440214 -1.67356 1.11221 116 132 188
0.869411 -0.228309 -0.592343 137 156 189
-1.18445 -1.80939 0.3344 56 228 152
1.12437 -1.69571 -0.634206 40 146 2
-1.26935 -0.106363 -0.451671 226 139 66
0.52476 -1.31124 -0.939094 152 255 154
-0.370217 -1.29735 -0.74518 88 191 86
0.570306 -2.01473 1.03795 91 215 146
-2.12026 0.812314 0.597829 56 208 34
-0.85296 -2.19081 0.193973 156 96 37
-1.13252 0.23768 1.14369 71 148 88
1.68716 -1.60503 -0.155062 240 96 31
0.313546 -0.429071 1.61697 164 64 34
1.10193 -0.650083 1.44563 11 201 226
-1.78612 0.82164 1.4397 71 188 4
0.286211 -1.82799 1.39277 87 42 69
-0.553174 1.88069 -0.104011 120 151 19
-0.678763 -0.757826 -0.558429 167 232 120
-0.287391 -0.160814 -0.623203 81 80 214
-0.27014 -0.593157 -0.947137 142 50 250
-0.385929 -1.12226 1.17585 209 129 231
-1.97412 0.583746 1.44713 169 186 101
-1.34001 0.941226 1.14771 200 204 234
-1.37311 0.519383 -0.207616 139 111 86
1.19009 -2.02198 -0.0757723 153 223 104
0.734329 -1.70401 1.50814 251 128 74
0.847357 -0.392789 -0.665063 146 17 138
-0.678691 -0.420797 1.25231 60 84 46
-0.354951 -2.15614 1.26862 240 43 30
-1.6199 0.928331 -0.159113 69 237 105
1.95123 -1.39873 0.90324 155 111 146
-1.54684 1.60895 -0.503449 187 171 58
-1.40812 -1.00469 -0.428671 232 168 182
1.45894 -2.1305 0.36226 253 124 72
0.785611 -2.16125 -0.189081 209 10 197
0.427637 -0.437309 -0.897391 200 208 68
-0.834654 0.337717 0.789683 83 233 201
-0.193249 -2.152 1.29709 192 147 60
-1.18947 -1.99723 0.608866 123 29 254
0.703871 -1.11421 -0.914174 1 114 151
0.569343 -2.12892 1.36088 109 185 123
-1.50276 0.912003 -0.220794 216 136 250
1.39677 -0.158726 1.04767 44 233 8
-1.44502 0.636229 1.3562 174 83 24
1.26426 0.335051 0.22768 174 139 126
-0.911023 0.694706 0.155932 73 240 41
-1.48658 -0.0149011 1.11966 73 237 230
0.43378 0.0578411 -0.51976 108 28 115
-1.30412 1.44542 -0.582606 105 203 65
1.28068 -1.67513 -0.520806 62 128 113
-2.02443 -0.704671 0.173477 186 42 27
-1.67739 0.46802 1.56106 224 17 134
0.616369 -1.66149 1.57177 192 219 137
-1.97975 0.929274 0.275561 61 177 48
-1.60395 1.35653 -0.0555297 103 217 94
-0.336854 0.347071 0.702914 251 220 215
-1.70213 0.273497 -0.163934 146 110 155
0.0830306 -0.278676 1.29719 100 153 108
1.49356 -1.46013 -0.309997 20 92 240
-1.54342 1.29569 0.180623 6 43 238
1.81804 -1.94487 0.543769 23 100 134
0.4508 -1.62188 1.61713 72 196 196
1.48419 -1.71845 0.941794 189 189 243
-0.176606 1.38786 -0.0266698 129 157 52
-1.43511 0.0928663 1.38655 47 102 142
-2.01899 0.587289 0.0828571 97 206 230
-0.467326 1.649 -0.0936971 71 93 177
-0.993749 -1.30073 1.041 34 212 125
-0.489643 -2.18631 0.425597 114 116 254
-0.451389 0.198297 0.957749 236 215 10
-1.73021 1.2918 -0.439326 153 223 109
0.316294 -0.915114 -1.03199 236 223 226
1.98462 -1.6105 -0.021622 164 152 215
-0.408811 -1.44632 -0.478106 90 70 149
0.711383 -1.59204 -0.832354 205 103 16
-0.312811 -1.32462 1.118 35 74 169
-1.33932 0.101851 1.17497 223 114 243
-0.231123 -0.282556 1.31797 9 218 112
-0.339891 -0.473694 -0.658637 133 103 142
1.43063 0.172876 0.678557 170 84 214
-1.62443 1.32222 0.531474 111 141 231
1.09273 -1.59148 -0.730954 64 109 20
-0.27102 0.43084 0.125144 207 159 148
-1.46593 -1.87406 0.138577 50 98 19
1.48026 0.00875803 0.830277 88 219 211
-1.33574 0.684394 1.15201 131 46 215
-1.78398 -0.753691 -0.235724 46 88 108
-2.13145 0.971546 0.682734 183 114 68
-0.394551 -1.93903 -0.810803 12 138 125
-0.758843 -2.07905 -0.706249 248 232 134
-0.975426 1.22417 -0.0869497 8 215 13
0.281834 -0.91794 1.69868 89 203 1
1.16081 0.419957 0.588029 13 201 108
-0.778146 -1.78904 1.19139 108 111 11
-1.27057 1.34381 -0.812269 51 98 230
-0.755117 -0.940771 -0.502074 14 244 134
-0.673674 -1.42419 -0.296894 76 148 250
-1.15375 -1.65741 0.143545 81 253 225
-0.93434 -1.52021 1.01917 245 132 167
-1.52005 -2.13946 0.371494 182 37 210
1.47323 -0.558974 -0.44846 158 9 232
1.38627 -1.57456 -0.351874 68 121 110
-0.0198101 0.176873 -0.412789 210 57 47
1.13959 0.407703 0.73142 15 164 66
1.10689 -2.06931 1.14643 180 6 112
0.10319 -1.68663 1.47743 52 135 144
0.804854 -1.56379 1.54487 161 85 219
-0.521311 0.238762 -0.295694 81 154 65
1.00791 -0.591949 -0.711183 114 26 166
-1.01739 -1.68704 0.903734 152 156 98
1.43933 -1.6951 -0.152468 244 46 174
1.21309 -1.44494 -0.641486 135 4 11
-0.491163 0.486223 0.445389 143 157 249
-1.64786 1.27676 -0.550891 46 218 105
0.616706 -0.154671 1.2525 148 236 83
-0.611177 0.474894 0.601726 122 69 228
-1.10043 1.45125 0.15651 249 179 169
-1.94803 1.24743 0.611086 90 61 230
-1.27402 0.231443 1.21037 64 133 137
-0.856803 1.6309 0.112365 79 189 13
-2.08448 -0.573237 0.401606 197 38 100
1.93065 -1.8829 0.383843 37 198 19
-1.7345 1.95565 -1.37935 131 155 138
-1.75158 5.00211e-06 1.31029 159 155 136
-0.53248 -1.93109 -0.786811 125 199 92
-2.22739 0.445 0.663806 199 152 77
-0.729397 -1.93009 1.27004 186 33 88
-1.97925 -0.503543 0.103444 199 88 96
1.59495 -1.5069 0.931969 19 47 58
0.21446 -1.18189 -0.990209 44 68 87
0.58384 0.0684849 -0.53798 5 174 86
-1.25363 1.6936 -1.6893 90 59 176
-0.602251 -2.05181 -0.168711 78 127 102
0.57256 -0.736049 -0.93732 238 98 56
-1.49776 0.395634 1.55896 234 45 145
0.718417 -2.15891 1.09141 187 162 113
1.58475 -1.49347 -0.109557 159 149 231
-0.767903 1.61321 -0.224276 102 96 60
-1.55398 1.38239 -1.17019 234 185 73
-0.290986 -2.14885 1.53767 155 76 59
-0.90374 -1.85451 -0.243677 175 222 172
0.144468 -1.07511 1.64496 250 150 33
-1.01568 0.181736 0.99676 163 63 98
-0.513817 1.32056 0.127477 208 181 56
1.4794 -0.4297 1.13783 119 251 18
0.60704 -2.16215 0.66546 19 45 42
0.0890011 -1.56322 -0.9245 210 109 215
-1.18076 1.30091 0.427483 220 195 144
-0.544911 -0.728909 -0.599849 1 2 135
-1.8342 0.714889 -0.0486869 45 129 244
-1.7679 -1.16895 0.460043 125 144 206
1.21402 -2.13659 0.0860434 24 127 1
-1.04653 -1.79417 0.747623 132 95 182
1.19594 -0.779297 -0.659597 13 180 188
1.06055 -1.6356 1.36554 65 21 1
-1.95719 1.16203 0.901191 53 38 245
0.531917 -2.15494 0.140796 85 97 236
1.43568 -0.626531 1.25227 59 172 117
-0.66668 -1.84433 -0.590997 19 165 5
-0.45796 1.65443 -0.410186 241 220 46
-1.35341 -0.451666 -0.489926 218 34 230
0.709309 0.613266 0.382623 28 15 97
-1.76101 1.23407 0.12324 204 89 47
1.11727 -1.76282 1.19418 59 146 244
-0.234592 -0.636406 1.52725 161 197 77
0.908289 -2.11212 1.30161 167 207 187
-0.714729 -2.17559 -0.116775 125 151 206
-0.15776 -1.04226 -1.06897 30 157 154
-1.31436 -1.8586 1.13443 89 9 135
-0.58628 0.496423 0.0523371 143 103 121
0.805557 -2.14756 0.851154 227 17 102
-0.960931 0.9935 0.382914 26 204 217
1.42177 -0.76634 1.24493 6 155 132
0.646989 -1.42771 -0.834834 253 206 18
-1.4631 1.4925 -0.334129 24 10 213
0.937394 -1.67583 -0.716369 191 64 185
-1.88476 -0.978309 0.103107 123 158 38
0.990851 0.511711 0.54098 227 249 130
-1.14372 1.27443 0.0259996 177 213 32
-1.45793 0.217869 1.54173 18 188 212
1.76593 -0.898537 0.015144 199 89 21
0.574114 -2.14552 -0.620337 103 170 19
-0.262894 1.83262 -0.499806 157 193 83
-2.12317 1.15212 0.462711 47 133 120
-1.05903 -1.54437 0.368466 24 167 134
-1.40077 -1.91391 0.349483 64 146 249
0.491157 -1.95529 1.3704 153 98 177
-1.38656 -0.751577 -0.500626 222 225 97
-0.520469 -0.84278 -0.604689 192 143 69
-0.777586 -0.15151 1.23157 7 136 223
-1.04678 -2.01525 1.39658 70 113 36
1.27953 -0.163664 1.13643 197 6 145
-1.3981 0.888691 -0.175999 71 148 8
-1.7028 0.0978511 -0.0997314 154 14 134
-1.92479 -0.289211 -0.0593689 19 48 192
-1.11098 -1.51688 0.362551 189 204 199
-0.373897 -2.17279 0.513529 224 178 195
0.662817 -0.594131 -0.894437 182 173 255
0.58572 0.0219277 1.25138 192 124 128
1.50731 -0.758451 1.13292 113 109 10
1.75627 -1.22244 0.782903 123 156 246
1.47613 -0.424526 -0.33046 177 216 219
0.885034 -1.33234 -0.811011 161 47 56
-1.47054 -2.0981 -0.136698 125 208 222
-1.28484 0.489414 1.24137 46 220 241
1.11966 0.453126 0.363871 180 186 198
-0.306383 -1.62807 1.08548 27 7 185
-1.51331 -1.18655 -0.107347 182 116 139
-1.62345 1.66973 -1.22033 132 130 170
-1.28973 1.55949 -1.48156 160 80 20
-0.492843 1.7542 -0.381183 172 175 232
-0.272917 1.61477 -0.456257 106 240 104
-1.52638 0.0957534 1.47464 146 40 197
0.0363183 -1.29263 -1.03465 194 101 47
1.40296 -0.90968 -0.515426 221 225 197
-0.435137 -1.74067 1.25674 164 5 113
-1.33258 -1.27586 -0.160625 58 30 41
-1.01126 -0.218146 1.22775 20 37 44
-2.15039 0.228838 0.28724 173 91 90
-0.444769 -1.487 -0.299834 179 198 76
1.0274 -2.14614 0.999771 70 161 229
-1.47228 -0.437189 -0.421729 57 165 87
-1.30974 0.0372189 -0.374157 50 24 89
0.782549 0.0548171 -0.497366 37 6 2
-1.07567 -2.19076 0.32726 92 79 223
-0.706134 -1.79779 -0.322974 85 137 166
-1.85813 -0.704003 -0.131757 209 51 130
0.113892 0.0702451 -0.479749 123 1 7
-0.547129 -0.510306 1.3203 102 119 3
0.884266 0.425549 -0.107948 139 2 155
0.731849 0.357626 1.04612 14 45 214
-1.68792 1.47133 -0.351054 22 235 165
-1.77189 0.361289 1.51575 235 103 22
-1.61848 2.00054 -1.3922 133 181 84
-1.07521 -1.30305 -0.21186 49 59 110
-1.37276 -0.0931711 -0.371477 207 42 57
-0.0200635 -0.00303226 1.21999 54 52 192
0.104965 1.96106 -0.780331 153 76 83
0.0996306 1.49454 -0.389214 73 176 29
0.26713 0.225793 1.15205 210 171 72
1.58476 -1.18871 -0.311031 181 23 111
-2.03337 1.04443 0.933154 112 6 115
1.68336 -1.11108 -0.143334 124 97 250
-1.2494 -1.15985 -0.36978 89 55 151
-1.31303 1.38063 -1.12512 230 81 91
-2.04441 -0.493143 0.256086 102 80 173
1.34916 -1.37271 1.22233 75 103 67
-1.52589 -1.9953 0.0383146 123 237 72
-2.16392 0.193747 1.20769 243 56 226
0.551031 -0.064998 -0.533377 213 64 254
-0.292197 -1.52068 -0.727466 162 61 173
0.48154 -2.05201 0.088706 192 252 102
-2.09934 0.609497 1.16274 107 145 114
-0.637777 -1.44828 1.20866 200 20 58
0.864669 -0.5383 -0.795829 197 247 171
-1.6774 -1.22768 0.498057 22 108 45
-0.47938 0.095964 -0.448923 79 119 149
-1.43799 -2.06407 0.454094 246 168 130
-0.474 -0.731809 -0.689977 147 63 140
-0.823986 0.590786 0.645383 27 24 161
-1.51131 1.2741 -1.40836 227 31 93
0.429534 0.338174 1.08399 25 117 121
-1.26396 -1.41804 0.0125226 229 33 129
-0.548511 -2.1578 -0.4616 104 109 229
-1.30135 1.04485 -0.145933 253 224 23
-0.514389 -0.304646 1.26569 109 194 45
-0.508423 -1.53312 -0.255254 123 245 117
0.611069 -0.390497 -0.783163 126 81 209
0.0594206 0.342237 -0.181004 40 165 49
-2.04311 1.19752 0.666349 91 227 38
0.214069 -0.301566 1.45474 88 140 3
-0.192359 1.99179 -0.527169 13 2 149
0.0802486 1.56219 -0.310014 101 163 165
-0.32608 0.199991 -0.350114 37 236 105
-0.119824 -1.83637 -0.743226 15 14 92
2.02449 -1.43783 -0.0330083 131 132 232
1.16839 -1.90961 1.18727 137 144 7
-1.87481 -0.396777 -0.128687 111 174 207
-0.198265 -1.35789 1.25977 148 248 112
0.178662 -2.05186 0.686634 104 60 66
1.08084 -2.10925 0.548683 161 0 237
-0.152861 -1.06405 1.51566 143 102 239
-2.16505 0.437097 1.17815 130 216 92
-1.14109 -2.17229 0.809077 206 121 157
2.18554 -1.41299 0.184362 182 148 237
-0.553394 -1.81855 1.20144 144 220 8
0.682923 -1.29833 -0.883231 85 109 26
-1.55169 1.75721 -1.4256 17 215 72
0.350531 0.599263 0.356709 84 148 5
-1.2962 1.72293 -1.44012 139 250 50
1.25918 -0.0500477 1.12123 42 182 64
-0.934851 0.321957 0.97386 15 1 141
1.92332 -1.4195 -0.0827583 127 117 103
0.383411 -2.04598 0.265423 126 20 199
0.204352 1.62936 -0.608546 173 38 220
-1.2816 -2.18346 -0.227867 178 38 101
-2.12094 0.699657 0.58688 254 114 58
0.904223 -0.899723 -0.824443 221 217 136
-1.5955 -2.13068 0.0762194 41 222 174
-1.78068 0.491483 -0.131928 54 11 25
-0.46962 -0.424303 1.3173 76 191 176
-0.473283 -2.14494 0.90812 92 92 24
1.58041 -0.0186089 0.36494 221 14 169
-1.41517 1.25706 -1.40068 233 19 38
0.181004 -2.1577 1.39541 199 183 128
-1.02597 0.6649 -0.0634731 163 78 11
-0.219507 0.351649 -0.142782 163 138 106
1.18443 -1.29932 -0.632203 9 10 208
-2.08888 -0.349811 0.453477 224 217 62
-0.882417 -1.32416 1.09809 249 230 138
-1.9911 -0.866277 0.523943 194 93 186
0.927954 -2.15204 1.22052 83 82 96
-1.14873 0.54492 1.13868 81 89 33
0.0131388 -1.60489 1.48668 156 39 61
-0.615551 -1.63349 1.16465 122 198 132
0.152155 2.08263 -0.734551 12 136 109
-0.244159 0.138762 1.02771 246 179 77
-2.05332 0.7721 0.806763 131 143 181
1.64298 -0.738597 0.978663 184 40 114
-0.597711 -1.83162 -0.617994 66 192 153
0.8557 -0.938509 1.61041 3 10 13
-1.46132 1.14482 -1.1071 215 249 213
1.19585 -0.217535 -0.473589 148 124 122
0.70742 -1.97909 1.34233 57 48 83
-0.33216 -2.0515 -0.463671 182 171 119
-2.09554 0.308234 1.3576 120 125 182
-0.682851 -2.1787 0.815689 169 186 40
-0.242764 0.32102 0.834637 68 253 144
-1.0829 -1.56749 -0.0910026 76 129 252
0.545377 0.569526 0.757603 46 54 2
-1.69488 1.28991 0.267392 190 88 222
0.0769314 1.64825 -0.578117 90 126 72
-0.901129 -2.14953 1.30715 240 161 167
-1.79672 1.07558 1.18749 199 166 153
-0.369746 -1.193 -0.786049 8 229 230
1.26651 -1.51769 -0.528223 188 143 129
-0.756306 1.35475 0.188478 47 152 108
1.29282 0.328103 0.393266 170 240 86
0.838114 0.108929 1.13478 167 166 125
1.61042 -1.91465 0.854714 192 239 110
-2.07688 0.675274 0.173119 83 1 79
0.47098 -1.04571 -0.971149 111 41 5
-1.26857 1.30251 0.313997 159 67 146
-0.038982 -0.888474 -1.06261 65 211 140
-0.0853466 -0.0671174 -0.59162 132 140 99
0.970323 -2.14797 -0.398754 249 166 107
-0.148496 1.96457 -0.355543 58 113 38
-0.522686 1.26721 -0.210694 42 57 219
-1.26652 -2.09811 -0.212244 78 130 223
0.243397 -2.11022 1.45069 26 111 172
-0.0814597 -1.22516 1.53481 110 249 220
0.506603 0.578349 0.0700874 198 101 124
0.458837 -0.827929 1.69092 250 43 49
1.29326 -1.14077 -0.601943 77 185 44
1.46622 -1.4501 1.14019 39 61 246
1.32105 -1.39398 -0.527557 143 77 31
-1.78839 1.69275 -1.04092 215 211 124
0.65962 0.372269 -0.270964 82 175 11
-1.37336 -0.767423 1.31013 164 163 110
-1.3344 -2.16272 1.16797 216 175 191
0.73118 0.558931 0.761934 101 34 69
-0.294649 -2.05205 -0.190852 23 73 184
1.91294 -1.14517 0.744094 195 220 174
0.933143 -2.11347 0.153341 9 50 127
-1.58123 0.980151 -0.392523 147 174 109
1.47896 -0.117425 -0.209241 136 93 100
-0.489614 -1.48712 1.14674 6 176 49
-0.220023 -0.681849 -1.0266 224 95 192
-1.28717 1.5408 -1.65992 109 236 119
-0.125491 -0.477123 1.52945 227 176 94
-0.521674 1.56182 -0.381434 79 222 120
-0.97036 -2.14791 0.344809 116 50 12
-0.475731 -1.95825 1.4813 121 112 246
-0.855397 -0.794951 1.29969 248 198 190
-0.9021 -1.40712 -0.305806 28 179 185
1.08305 -2.14245 0.801031 50 207 99
1.49324 -0.269462 -0.299789 36 246 239
-1.1546 -1.95397 1.36425 153 125 6
-1.64353 2.00232 -1.50436 5 106 11
0.795226 -0.98728 1.61515 45 232 226
-1.32995 1.43479 -1.58551 54 109 162
-0.808631 -0.378137 -0.581089 141 213 61
-0.513886 -1.28765 -0.371689 143 10 132
-1.44529 -0.628903 1.30531 110 176 148
0.0994891 -1.41904 -0.990109 109 129 167
-0.602677 1.1599 0.0995577 73 76 84
-1.94781 -0.648417 0.839723 22 90 87
-1.28056 1.93349 -1.68603 64 42 98
0.683637 -1.01025 1.66829 183 74 103
1.36377 0.227951 0.744543 203 222 124
1.79788 -0.679697 0.253214 235 87 130
0.435031 -1.36435 1.66727 170 182 233
-1.08909 0.989231 0.908426 89 255 245
-0.837466 -2.06849 -0.475534 44 28 18
-2.09862 0.832463 0.473854 150 177 49
-0.626129 -1.77312 1.18234 143 119 241
1.03613 -0.253843 -0.590903 55 42 154
1.04687 -0.0608414 1.1854 110 178 127
-0.0479471 0.499791 0.570066 152 122 174
-0.137778 -1.8145 1.54437 111 103 137
0.151601 -2.04534 0.0776846 169 105 66
-0.551643 1.8819 -0.237219 172 148 147
0.032868 -0.968491 1.65014 128 16 53
-1.08881 -1.04613 1.2243 56 224 219
0.077932 -0.107259 1.27529 101 44 100
1.13508 0.225687 -0.217639 214 157 217
-0.776463 -1.61815 -0.268879 158 161 49
-1.01545 1.47714 -0.0293834 140 74 225
0.550497 -2.14952 -0.408626 177 18 64
-1.0707 -1.75974 -0.12355 215 4 35
1.59645 -0.0831457 0.109567 150 6 207
0.62104 -2.18031 0.19826 112 12 110
0.587237 -1.89307 -0.664529 20 221 131
-1.20683 -2.06682 1.37763 122 239 252
0.700083 -2.02786 0.967309 1 227 21
1.10072 -1.3897 -0.704643 89 24 246
-1.0266 -2.18924 0.407017 232 209 62
-1.07822 1.26321 0.454557 13 16 98
-1.97079 1.20443 0.319286 196 72 52
-0.652271 -2.11371 -0.1658 135 165 4
-1.08044 -1.74463 1.09144 208 30 179
0.110598 -1.37727 1.60896 60 88 153
-1.12649 -1.37963 -0.108735 97 27 211
1.48075 -1.32103 1.16209 240 192 195
-1.58355 -2.04041 0.260809 59 1 207
-1.29287 -0.33722 1.26577 83 107 155
-0.772951 1.09853 0.214631 251 41 170
-2.08849 -0.578117 0.56584 30 17 55
-1.52549 -0.389886 -0.412291 158 27 175
0.925529 -1.51495 1.45009 249 104 150
1.02638 0.227412 1.0492 254 236 116
-1.05278 -0.593349 1.3299 213 74 92
-1.76954 -1.05138 -0.0795017 216 85 20
1.62929 -0.91086 -0.207802 220 202 252
0.369986 -1.34095 1.65068 239 128 184
-1.01998 -1.98987 -0.268448 156 235 208
-1.68281 -1.12546 0.841271 150 43 137
-0.777643 -2.11927 0.284648 4 173 153
-1.46251 2.03026 -1.6434 92 89 147
-0.52052 -2.05197 -0.0409066 192 226 219
1.88768 -1.57102 -0.104353 60 63 221
0.658843 -2.14343 0.231029 153 69 25
0.706357 -2.10934 0.209686 35 238 9
-1.65577 1.51601 -0.964 178 18 45
1.17194 -1.32072 1.33757 93 108 144
1.08131 -0.782583 1.49806 117 77 233
-0.331143 -0.728037 -0.971406 80 222 215
-0.495617 -2.05337 0.0199893 82 69 209
-0.958126 -1.13398 1.15084 193 191 71
-2.05417 -0.388803 0.695411 32 186 213
1.74883 -0.710714 0.762214 51 195 247
0.219509 -0.351243 1.53448 158 24 243
-1.89311 0.128513 0.00230034 167 2 72
0.136059 1.84324 -0.568806 218 195 238
0.257577 -0.539446 1.66838 132 233 15
1.42396 0.196661 0.272593 210 217 99
0.0838506 -1.17789 -1.04783 249 78 200
0.479214 -2.15677 0.321511 73 100 98
0.848811 -0.795951 -0.830117 100 133 174
-1.02036 -1.45801 0.833886 166 76 238
2.1681 -1.10729 0.449946 157 100 17
-0.905383 -1.68057 1.10273 252 59 197
0.620509 -2.17778 0.31136 220 81 68
-0.282724 -0.295374 -0.636586 68 153 133
-0.00122357 -2.04295 0.946637 191 33 167
-2.07446 -0.431749 0.460171 121 39 164
-0.525443 -2.18368 0.184319 123 134 30
-1.07181 -0.580531 -0.596369 212 151 61
1.84074 -1.06143 0.326369 17 49 179
-0.162617 2.08223 -0.272302 8 141 120
-1.59136 1.72199 -0.756717 160 68 126
1.10521 -2.12294 0.327066 9 247 11
-0.309891 -0.0579954 1.17127 118 3 218
-0.442877 -2.18257 0.347477 187 55 206
-1.61677 -0.27422 -0.333166 43 226 176
0.245569 -0.296626 -0.658046 138 169 83
-0.265543 -2.03352 1.12384 131 8 48
0.160471 -0.425591 -0.909794 16 169 161
-0.790291 0.583489 0.3473 6 32 74
-0.395583 -0.900546 1.21723 30 113 197
-1.38112 0.00470271 1.11396 128 121 126
1.02524 -2.14074 -0.140013 111 145 56
-0.581294 0.432869 -0.133782 59 223 172
1.02287 -2.11509 0.592086 64 220 188
-0.864671 -2.13157 0.274771 211 131 163
-1.84337 1.16185 0.0940617 217 98 43
-1.98095 -0.775434 0.240149 200 118 155
-1.97354 -0.4105 0.026281 14 50 44
-0.830171 -2.13889 -0.558514 49 83 149
1.28272 -0.307969 -0.45474 56 131 133
1.34423 -0.596834 -0.5316 63 5 224
-1.42367 1.69886 -1.61507 47 177 116
-0.55012 0.127553 0.989894 134 230 15
0.893866 0.497563 0.807691 210 116 244
-1.10881 -1.61254 0.291329 51 209 77
1.47029 -1.19612 -0.420383 81 210 242
1.24358 -0.57304 -0.597166 93 184 161
0.974349 0.380743 -0.129655 58 233 65
1.36941 -0.169654 -0.356594 33 188 164
0.08015 -1.8183 -0.797363 86 36 77
-0.540871 -2.11446 0.462809 85 177 204
-1.11326 0.034198 -0.452063 69 24 114
-0.661306 -0.238089 1.20544 74 72 5
-0.571517 -0.604803 -0.640454 214 151 108
0.748469 -0.415026 1.49846 133 224 218
1.7431 -0.35856 0.204688 203 188 255
0.0907194 2.1074 -0.759763 228 154 123
-0.939086 1.59955 -0.0118553 92 102 14
-1.50957 0.317794 -0.21417 251 165 40
-1.52701 -1.08031 1.06345 134 58 92
-0.343471 -2.13591 0.539629 178 8 87
0.874563 -0.132372 -0.505709 68 140 104
-1.52013 -1.38104 0.274966 4 10 170
-0.434634 -0.736211 1.23696 130 203 41
-1.54395 0.521726 -0.212392 179 55 102
1.20732 -2.05483 0.868883 174 64 176
-0.871169 0.711914 0.420937 17 113 193
0.293646 0.455631 -0.197898 20 0 5
-1.75639 1.89482 -1.3813 14 79 64
-0.277368 -2.06761 0.492289 223 94 21
1.38233 -2.03827 0.778797 76 213 13
-1.05699 -2.20477 0.5568 39 89 101
-1.0133 -1.69418 0.738023 149 25 155
-0.933406 0.695671 0.769129 20 105 153
-1.07053 -1.42619 0.776063 155 229 8
-2.0037 0.327749 -0.0134032 70 226 236
-0.799263 -0.55626 -0.589346 8 220 246
0.133477 -1.59404 1.50651 78 126 3
-2.1841 0.491994 0.413251 250 202 66
0.22836 -0.241933 1.30345 198 100 69
-1.23696 -1.92575 0.739794 228 129 25
1.18832 -2.16987 0.341874 121 117 8
1.29336 -0.582011 1.30095 207 81 199
-0.807743 0.433183 0.709463 131 190 146
0.405357 0.323034 -0.287451 60 169 185
-0.300171 -1.72458 -0.666111 15 29 81
-0.612557 -2.135 0.740514 127 210 85
-1.41838 -1.19011 1.01889 34 167 203
-1.99377 -0.446471 0.822063 212 9 100
1.03393 -2.16299 0.126487 100 46 234
-1.6201 -1.01691 -0.239933 218 243 143
0.0504246 -0.513217 1.64731 53 193 83
-1.10229 -1.85249 -0.145155 139 112 19
-1.89171 0.93246 0.103502 210 89 50
-0.771357 -2.1806 0.797914 254 247 82
1.54018 -1.11229 1.08406 70 145 27
-1.5366 1.62523 -1.3595 165 71 120
-1.74828 -0.646194 1.12207 252 168 100
0.737757 -2.07186 1.01251 84 45 208
1.06724 -1.50719 1.43363 126 119 74
-2.05599 0.934737 0.400291 178 123 72
0.719934 -0.953766 -0.927477 204 128 254
-1.06215 -2.19549 0.496246 209 138 104
-1.3127 1.11966 -0.479166 41 220 158
-0.106299 -1.95862 -0.77914 221 20 39
0.285903 0.580377 0.612411 17 70 20
0.673271 -2.15663 1.12643 138 75 44
-0.581837 -2.18194 -0.830894 37 143 222
-1.20126 1.16229 1.03781 53 17 68
0.618863 -2.1499 1.10931 23 171 118
-0.806429 -2.01959 -0.576149 246 93 103
-1.93495 0.942031 1.21615 204 228 76
-0.0737789 -0.34806 1.32681 241 30 110
0.65484 -0.279983 -0.57564 185 91 52
0.0133157 -2.12672 1.51968 118 123 37
2.02948 -1.14758 0.125013 214 49 52
0.471583 -1.35833 -0.934977 232 223 103
0.491357 -2.15423 1.18966 48 37 30
-0.10508 -2.05607 0.297774 190 33 130
-0.911657 0.367994 -0.265053 161 183 45
0.107327 -1.78496 1.40779 43 201 139
0.3311 -2.147 1.20157 104 232 186
-0.97808 -0.0198638 1.12879 111 194 252
-0.181365 -1.67221 1.26677 74 129 143
1.0244 -0.406746 -0.615491 68 187 45
-0.416906 -2.04924 -0.0880077 31 157 62
1.66103 -0.268158 0.69308 158 154 107
0.662417 -2.03902 -0.166479 212 63 73
-1.20768 -1.78711 1.13841 198 158 39
1.766 -0.6093 0.0129311 67 11 169
-0.350763 -2.04593 1.07267 7 212 22
-1.53637 1.79328 -1.05304 228 114 81
0.367811 -2.01918 1.09728 179 31 240
0.386826 -1.46434 1.57955 169 162 215
1.64379 -0.408386 -0.12627 224 148 57
-1.36567 1.51071 -0.536831 75 39 102
-0.417997 -1.83716 -0.735631 93 125 132
2.02838 -1.31521 0.0314343 30 211 233
-1.70092 -0.169138 1.05224 164 232 165
0.207666 -2.02049 1.11603 153 64 57
-1.64023 0.944917 1.35913 166 16 102
1.31259 -1.81544 -0.160518 113 90 81
-1.76209 1.47433 -0.671743 126 61 142
-1.04524 -1.64118 -0.12753 49 236 238
-0.298246 0.0384483 -0.465243 237 244 17
-1.37453 0.256753 1.48264 240 102 122
-0.370671 -2.16183 1.21874 44 46 255
2.0128 -1.06587 0.634334 110 238 25
-1.00591 -1.54381 0.575814 102 202 160
1.90591 -1.31801 -0.0259229 155 62 21
1.21207 0.0647894 -0.28502 190 165 73
-1.06132 1.05167 0.77092 52 79 254
0.0952843 -0.529291 -0.999403 155 210 45
-1.70261 0.501123 -0.183856 45 113 205
-0.375157 0.430411 0.158431 103 35 203
-0.487157 1.20388 0.0158299 136 243 210
-0.900137 1.4556 0.254913 240 122 127
1.03296 -0.960569 -0.741454 16 53 38
-0.903597 0.516871 -0.037836 80 177 119
-0.980771 -1.73971 1.10821 137 252 121
-1.23103 1.32326 0.153115 113 186 234
-0.601246 -0.536306 1.28902 48 62 94
-1.32803 0.934586 -0.173191 54 190 163
-1.40101 -1.35201 -0.0416783 29 86 97
0.361409 0.490323 0.89646 49 35 87
0.574383 -0.912226 1.64862 13 145 139
-0.489034 -0.965183 -0.699123 106 161 114
-0.252984 1.42874 0.0132684 240 131 243
-1.24967 1.05705 -0.0242345 2 107 87
0.939489 0.315757 -0.242895 106 5 98
-0.923217 -0.389411 1.32671 19 191 205
-0.956166 -1.80643 0.536471 241 11 195
-2.09408 0.143913 0.224318 109 176 60
0.0553629 -0.655106 -1.06699 47 98 193
0.73922 -1.33226 1.62103 140 103 209
-1.91515 0.497494 -0.0794286 59 36 188
0.410737 -2.02875 -0.330637 60 89 124
-1.19704 -1.42589 0.00983871 51 21 145
-0.769489 -1.81987 -0.268953 2 63 44
0.875471 -0.36992 -0.625437 129 220 230
0.0309931 -1.50896 -0.957194 95 197 41
0.849129 -2.16728 -0.341103 168 171 248
0.896629 -1.79872 -0.670743 135 153 232
2.09777 -1.35305 0.79504 220 19 33
-0.222561 -0.05815 -0.575157 0 212 253
-0.914369 0.234045 0.922677 98 117 40
-1.34083 -0.215706 1.23807 101 28 245
0.792171 -0.0435194 1.19171 126 189 77
-1.64511 1.14089 -0.862569 108 243 182
-0.334863 -0.5394 1.30167 121 39 131
1.28297 -1.54632 1.21702 197 115 151
0.35272 -0.686666 1.67878 49 220 120
0.927066 -1.65562 1.39109 243 175 158
0.464377 -0.306857 1.49159 96 67 99
-1.25395 0.521357 -0.17908 62 113 77
-1.94333 0.0199028 0.775369 214 101 6
-0.71762 -2.17529 -0.762937 214 133 220
-1.83668 -0.8621 -0.0877863 171 176 36
-0.219889 2.10497 -0.264969 227 125 197
1.86938 -1.79125 0.801906 17 244 185
1.20114 -0.887657 1.43053 187 213 193
0.984871 -2.15768 0.673789 121 89 156
1.81869 -1.11215 0.177519 70 239 212
-1.28399 -1.82471 1.01209 26 2 69
3 562 905 1465
3 547 292 605
3 453 1199 1123
3 1192 729 1481
3 433 685 93
3 380 1164 254
3 970 711 1063
3 603 905 562
3 310 961 219
3 248 705 1218
3 116 886 663
3 998 144 1400
3 350 248 1227
3 974 891 85
3 1175 941 889
3 200 531 1117
3 938 576 1149
3 331 124 110
3 1148 1289 712
3 736 687 98
3 671 1031 1237
3 252 627 348
3 18 444 752
3 893 1383 525
3 1222 1106 936
3 1354 732 863
3 156 950 309
3 1124 432 759
3 121 1335 521
3 692 969 1181
3 1349 125 514
3 913 1375 239
3 641 745 993
3 1160 435 1285
3 1103 380 254
3 456 430 464
3 1033 277 798
3 133 872 1027
3 14 439 291
3 1100 659 1143
3 1390 256 893
3 712 828 69
3 938 706 576
3 326 424 468
3 78 891 290
3 459 1391 173
3 375 741 1150
3 965 508 289
3 679 1096 1434
3 1431 309 950
3 19 553 49
3 1173 854 9
3 209 102 918
3 1102 1262 1467
3 552 414 620
3 613 982 496
3 269 60 519
3 685 501 1344
3 607 875 1317
3 1168 1433 710
3 1387 371 1226
3 601 361 1286
3 678 1038 1178
3 573 380 1103
3 1210 658 535
3 973 505 509
3 1197 1069 778
3 101 1460 367
3 422 140 164
3 443 831 627
3 556 251 947
3 211 212 349
3 999 54 1051
3 195 945 1410
3 577 936 564
3 867 14 291
3 1014 871 43
3 426 469 1095
3 1114 123 1470
3 741 375 107
3 84 1254 847
3 211 1251 212
3 1347 550 28
3 1057 101 1412
3 75 469 426
3 27 1467 1262
3 470 844 74
3 1462 399 1058
3 1179 1360 644
3 1104 34 1452
3 1105 1140 118
3 1064 1392 683
3 20 310 432
3 271 4 477
3 620 983 425
3 854 1430 9
3 1163 1026 880
3 1148 370 537
3 276 508 1092
3 594 93 685
3 569 554 555
3 1349 1377 125
3 368 977 1050
3 1097 878 1025
3 959 465 856
3 1458 168 76
3 893 256 476
3 1255 921 497
3 983 1445 903
3 794 1275 1188
3 1009 172 416
3 837 272 908
3 1241 561 28
3 1119 820 214
3 1395 1169 475
3 275 186 474
3 1247 28 977
3 1122 1092 232
3 453 185 703
3 227 1186 906
3 927 1157 169
3 742 722 413
3 1137 363 1447
3 975 748 1060
3 578 734 589
3 65 277 67
3 31 640 538
3 947 1096 556
3 456 995 430
3 213 838 399
3 1059 477 1106
3 846 1174 665
3 285 228 599
3 1117 827 200
3 648 410 1418
3 1331 160 1386
3 1217 1253 1030
3 46 75 1364
3 1390 819 256
3 869 541 351
3 944 1060 306
3 1174 846 265
3 1045 427 1017
3 316 79 1276
3 643 1074 1214
3 48 40 385
3 1253 19 581
3 1176 88 578
3 1048 723 1127
3 911 294 646
3 394 768 935
3 1104 1452 1393
3 1146 523 1113
3 113 738 1363
3 331 110 291
3 1112 323 726
3 211 349 1203
3 69 370 712
3 943 806 675
3 1226 563 1387
3 484 34 76
3 446 1455 1228
3 1441 738 801
3 1213 130 179
3 389 869 351
3 113 365 1011
3 658 571 535
3 1286 102 859
3 445 1426 239
3 648 1253 1217
3 1352 810 426
3 346 1034 1327
3 672 1303 858
3 151 1376 837
3 530 1453 1102
3 707 1349 400
3 358 196 795
3 98 687 1231
3 1252 398 686
3 1322 947 251
3 1194 1480 157
3 343 283 463
3 188 1176 425
3 1299 706 938
3 1190 1118 750
3 1056 58 1074
3 780 1370 684
3 179 421 1213
3 98 1228 1455
3 823 1285 359
3 696 487 130
3 905 603 485
3 1310 833 377
3 220 497 921
3 160 1100 978
3 1025 878 488
3 727 1172 49
3 429 991 864
3 108 561 1241
3 1236 1351 653
3 959 956 447
3 1401 342 634
3 311 182 1124
3 139 803 829
3 132 295 1339
3 268 1242 68
3 71 694 1413
3 430 995 1173
3 1198 1223 733
3 442 827 1034
3 1446 578 589
3 891 974 42
3 794 305 274
3 1043 614 305
3 602 1193 1054
3 147 104 1150
3 33 1379 708
3 1120 324 1323
3 1331 437 659
3 241 1269 438
3 763 1230 186
3 1191 253 757
3 1110 1483 746
3 1437 588 1300
3 1330 176 231
3 552 1176 578
3 1487 583 1326
3 756 476 1325
3 982 1131 180
3 1383 893 756
3 757 253 1128
3 502 1059 913
3 0 922 280
3 26 334 592
3 1011 801 113
3 268 717 120
3 422 520 555
3 253 224 0
3 459 423 321
3 1008 1418 1493
3 24 987 1182
3 1328 139 1233
3 59 1442 1463
3 724 335 586
3 1380 834 654
3 384 369 486
3 224 1357 229
3 698 2 452
3 873 1371 33
3 1221 396 302
3 753 1029 1342
3 954 1178 1038
3 479 1066 1487
3 479 1487 1326
3 937 816 1334
3 322 1290 786
3 747 963 804
3 696 439 1271
3 495 1239 1410
3 1087 1138 1264
3 1417 874 996
3 928 50 94
3 979 1404 411
3 657 240 808
3 1200 1333 551
3 789 61 181
3 1115 759 912
3 828 183 213
3 454 1239 495
3 852 1483 1291
3 1216 1424 1041
3 370 1148 712
3 1029 753 758
3 418 858 1303
3 131 420 775
3 603 562 1365
3 1450 1018 249
3 993 363 948
3 112 1219 1228
3 1347 1450 956
3 84 214 1010
3 518 913 1059
3 1063 653 1351
3 1210 999 1051
3 155 467 686
3 162 803 667
3 41 743 1478
3 908 1036 151
3 1018 930 168
3 275 1308 186
3 392 1013 914
3 551 427 1001
3 290 1430 854
3 613 549 344
3 1447 459 1137
3 304 1492 1308
3 840 21 1154
3 763 821 1020
3 749 1140 1068
3 241 946 1269
3 182 304 1300
3 941 1195 533
3 1332 677 753
3 863 244 1484
3 652 1315 406
3 73 46 907
3 648 1008 412
3 1185 455 730
3 914 220 805
3 291 716 867
3 318 1437 1300
3 307 754 412
3 1285 1490 145
3 906 1186 146
3 452 693 984
3 1486 667 929
3 1349 1276 1377
3 904 1435 1019
3 1239 454 297
3 1078 565 799
3 879 459 321
3 82 280 1238
3 1320 148 814
3 1076 1402 897
3 531 654 926
3 180 647 958
3 400 1198 733
3 284 138 371
3 1260 83 1493
3 663 1052 804
3 53 229 922
3 599 1268 1314
3 1147 951 1255
3 237 104 960
3 27 1168 710
3 11 1294 1381
3 1451 867 716
3 1010 214 985
3 977 368 1018
3 1146 728 1444
3 274 923 8
3 1348 896 1354
3 598 296 297
3 1351 841 1403
3 387 952 416
3 436 513 802
3 976 309 719
3 500 1106 477
3 196 501 1483
3 348 627 831
3 875 1107 303
3 874 349 212
3 483 159 187
3 1450 447 956
3 848 451 1234
3 1437 498 1202
3 1152 180 532
3 949 706 340
3 656 133 560
3 417 778 592
3 1431 568 309
3 59 111 1207
3 144 667 1328
3 860 352 1206
3 337 644 1360
3 8 710 163
3 512 154 576
3 968 286 1040
3 449 910 260
3 666 614 506
3 148 116 722
3 1237 93 671
3 332 1420 184
3 90 170 968
3 158 790 784
3 11 981 931
3 485 1136 492
3 1480 208 830
3 319 133 228
3 1335 121 1080
3 1049 971 1129
3 499 343 463
3 860 1206 915
3 443 934 831
3 222 152 1191
3 281 109 258
3 1084 831 934
3 1165 651 1088
3 1462 6 399
3 518 1059 1222
3 1138 305 1264
3 1349 514 400
3 1377 73 125
3 735 299 1187
3 65 538 277
3 566 383 1101
3 680 824 399
3 330 569 773
3 1278 772 1227
3 596 489 205
3 407 1416 62
3 655 938 1149
3 933 1301 1449
3 6 69 399
3 1067 129 942
3 324 1215 1491
3 1045 884 259
3 580 1055 1125
3 1121 783 1118
3 360 197 534
3 340 574 1461
3 866 303 1107
3 975 1388 748
3 27 937 77
3 780 431 1493
3 1041 1329 1216
3 1475 876 532
3 1356 1318 885
3 398 52 730
3 508 276 279
3 259 884 326
3 1463 111 59
3 1042 423 745
3 3 152 1197
3 59 209 56
3 431 780 412
3 1383 989 525
3 1027 37 1061
3 48 1186 670
3 1123 683 1392
3 1393 788 482
3 1131 1475 532
3 810 1467 77
3 690 62 1345
3 1064 1211 1256
3 652 1403 866
3 1196 611 791
3 372 488 842
3 926 834 1066
3 740 396 1366
3 581 19 1172
3 938 655 1299
3 894 43 379
3 486 141 381
3 641 1147 745
3 621 473 524
3 401 762 879
3 621 656 394
3 917 1312 839
3 634 342 1081
3 1371 324 765
3 1440 528 1162
3 978 1100 743
3 1221 582 1366
3 1108 229 1357
3 1389 830 1284
3 74 285 599
3 1440 1245 326
3 1405 1439 769
3 1203 1379 206
3 407 919 693
3 509 875 1037
3 1305 1085 960
3 857 935 768
3 23 409 494
3 1051 54 450
3 1164 45 254
3 1111 561 108
3 817 1244 746
3 286 92 1202
3 242 635 1415
3 1339 1470 132
3 939 713 666
3 1261 606 697
3 1373 724 586
3 1367 750 1153
3 19 1253 754
3 18 1430 290
3 1052 1019 85
3 465 1488 856
3 227 906 323
3 979 877 510
3 540 1233 503
3 345 1161 615
3 267 853 682
3 1210 368 1050
3 445 1114 928
3 333 1242 189
3 1433 1249 710
3 24 249 899
3 1460 472 300
3 499 463 680
3 1097 1025 939
3 1056 524 58
3 379 529 1071
3 628 142 207
3 1163 1005 699
3 1487 1272 583
3 658 735 571
3 233 987 404
3 917 839 255
3 257 1293 338
3 43 894 899
3 930 571 554
3 411 1404 557
3 540 1468 1065
3 908 391 1313
3 819 451 927
3 467 155 1394
3 1421 797 203
3 564 936 500
3 636 972 1259
3 800 563 826
3 516 389 595
3 1114 1339 467
3 808 1272 1047
3 886 148 1320
3 143 281 1360
3 134 386 1089
3 1090 846 665
3 1442 509 505
3 989 1383 541
3 1387 563 800
3 947 1113 1096
3 1288 73 907
3 1285 853 594
3 816 937 372
3 416 172 387
3 1334 70 574
3 680 463 965
3 149 1077 127
3 558 994 649
3 1303 918 418
3 343 742 1088
3 314 1031 671
3 1351 1236 841
3 603 1058 193
3 1248 573 204
3 487 63 514
3 963 116 663
3 762 1406 692
3 644 337 900
3 580 71 1055
3 969 911 1181
3 1359 1408 332
3 1309 465 146
3 780 684 739
3 339 1265 23
3 1157 1136 508
3 284 814 1428
3 390 934 443
3 1072 405 626
3 1298 363 1137
3 871 1014 825
3 278 249 793
3 841 1414 1469
3 122 1101 383
3 1116 944 258
3 470 1075 844
3 5 809 198
3 206 1379 1371
3 327 664 1178
3 822 755 909
3 1047 460 1380
3 1476 572 344
3 186 1308 1492
3 882 700 1130
3 126 1378 1289
3 1241 856 1488
3 843 1015 921
3 872 37 1027
3 699 649 585
3 1221 1366 396
3 265 1090 913
3 480 1387 733
3 934 482 1084
3 383 678 1070
3 1434 1096 1113
3 1263 1086 1194
3 814 284 480
3 978 491 1386
3 382 136 721
3 278 493 43
3 1037 1137 173
3 502 913 239
3 240 657 287
3 959 589 465
3 1212 462 175
3 981 333 697
3 22 567 966
3 819 114 1023
3 369 132 457
3 613 238 982
3 1492 304 1405
3 630 1373 586
3 1399 1396 975
3 1380 654 221
3 250 1421 825
3 1303 672 597
3 1414 1236 681
3 998 540 1065
3 553 703 374
3 714 732 1354
3 727 49 462
3 365 520 414
3 36 158 784
3 293 701 942
3 322 301 792
3 759 432 912
3 60 1222 936
3 967 1327 479
3 581 567 1030
3 523 229 1108
3 373 587 375
3 1198 514 63
3 292 419 233
3 384 295 369
3 1483 38 746
3 216 604 1144
3 761 1275 139
3 353 1284 72
3 1096 679 784
3 854 478 290
3 289 485 1368
3 1063 417 334
3 399 69 213
3 322 1230 301
3 1050 977 28
3 408 610 264
3 1328 1400 144
3 352 689 1093
3 533 1335 898
3 692 1224 1053
3 1294 1481 795
3 937 27 710
3 1148 1085 1305
3 109 281 143
3 268 813 717
3 47 288 1232
3 71 1413 1046
3 1408 1359 242
3 190 960 1085
3 974 1019 1435
3 1200 403 1333
3 435 1490 1285
3 885 172 787
3 1109 995 456
3 862 605 752
3 13 615 119
3 1067 942 701
3 865 946 136
3 896 1033 1292
3 1126 1042 497
3 840 1235 1125
3 1273 1080 121
3 990 44 240
3 366 728 1146
3 911 969 1296
3 448 1 117
3 421 179 1243
3 1367 945 313
3 330 773 1145
3 61 789 1273
3 88 734 578
3 500 936 1106
3 596 1463 489
3 840 71 1046
3 232 965 463
3 146 734 88
3 888 737 390
3 1374 701 293
3 1114 467 1394
3 188 88 1176
3 91 1023 957
3 372 8 923
3 896 1139 1443
3 553 374 1384
3 1267 960 104
3 565 140 799
3 267 682 539
3 786 835 90
3 311 759 1427
3 809 378 895
3 616 793 1458
3 1300 304 318
3 686 384 1252
3 430 1173 9
3 25 766 22
3 516 619 389
3 468 424 1250
3 198 809 1167
3 1417 55 376
3 1098 102 361
3 434 673 844
3 548 486 392
3 543 829 1006
3 861 478 210
3 928 1114 1394
3 1475 238 876
3 355 829 579
3 1251 1282 1281
3 1283 953 273
3 113 586 1356
3 1188 1275 1135
3 487 1243 130
3 296 557 1239
3 692 141 1224
3 273 953 910
3 843 764 1015
3 420 201 775
3 1444 728 1009
3 711 1197 417
3 709 317 817
3 826 707 400
3 299 735 1051
3 327 1477 433
3 993 745 1447
3 1169 122 403
3 626 483 99
3 1058 824 193
3 379 871 1310
3 979 598 462
3 1339 295 467
3 1197 778 417
3 1301 933 512
3 315 391 908
3 23 461 1223
3 1248 376 534
3 1056 1047 221
3 178 105 556
3 1387 800 400
3 151 1036 1141
3 223 564 1214
3 205 1183 596
3 940 393 815
3 1153 945 1367
3 273 1432 791
3 1397 964 94
3 474 498 275
3 105 251 556
3 246 382 901
3 545 1067 386
3 1413 694 454
3 21 1046 915
3 1448 787 172
3 187 7 963
3 510 216 979
3 579 1064 683
3 985 214 779
3 730 455 398
3 620 1266 1225
3 484 1032 34
3 500 1246 564
3 82 1238 490
3 944 306 258
3 1312 1156 428
3 1381 268 68
3 1454 198 642
3 966 933 22
3 356 345 1143
3 761 1135 1275
3 953 1283 491
3 905 485 1180
3 738 1441 288
3 1476 472 572
3 458 973 1037
3 256 819 1023
3 903 565 171
3 1104 616 1458
3 1292 798 1462
3 305 666 713
3 1425 825 1014
3 1214 1074 58
3 1267 1305 960
3 221 872 1056
3 1280 1115 912
3 1172 19 49
3 1010 748 84
3 909 1156 822
3 64 805 1472
3 965 289 1368
3 1113 947 366
3 725 317 1079
3 325 406 1315
3 1086 402 208
3 695 545 325
3 515 917 255
3 1182 249 24
3 7 413 722
3 657 1047 1453
3 1117 225 1327
3 667 1397 645
3 1017 590 943
3 1389 353 438
3 560 133 481
3 752 605 1398
3 78 1072 891
3 244 1032 484
3 251 1409 35
3 1410 1239 557
3 494 487 696
3 49 553 312
3 638 203 797
3 47 731 288
3 944 1151 1060
3 875 1442 1317
3 1103 254 636
3 108 811 720
3 15 774 775
3 617 660 50
3 421 57 689
3 497 1042 1255
3 1299 655 1364
3 752 66 18
3 1335 719 898
3 1084 356 831
3 1350 1359 1141
3 292 1441 631
3 586 335 1318
3 153 1108 293
3 1313 807 908
3 746 1369 1110
3 488 878 674
3 616 737 493
3 160 1331 659
3 545 129 1067
3 966 727 542
3 1472 52 64
3 585 865 397
3 567 1172 727
3 1489 775 774
3 1445 164 903
3 231 641 993
3 1002 1325 1258
3 1134 1171 149
3 296 598 411
3 663 804 963
3 1032 244 863
3 1389 1482 994
3 1083 872 656
3 327 1237 664
3 717 813 749
3 789 821 1273
3 1415 1279 254
3 60 269 1222
3 447 987 1257
3 777 1316 332
3 663 886 904
3 1310 1421 833
3 862 752 444
3 1367 189 750
3 1252 384 64
3 519 1028 1456
3 1304 332 639
3 1110 1291 1483
3 1386 1048 1127
3 840 1046 21
3 138 1378 371
3 284 1387 480
3 89 461 1476
3 1365 896 1292
3 1299 340 706
3 1431 395 341
3 48 1293 40
3 219 900 873
3 161 1248 1471
3 1124 759 311
3 517 770 544
3 128 124 689
3 851 309 86
3 1159 998 271
3 813 1209 1004
3 944 1116 202
3 1151 975 1060
3 683 1199 629
3 919 924 693
3 493 793 616
3 536 1263 1194
3 896 67 1033
3 62 1416 2
3 1469 866 1403
3 937 710 8
3 1183 691 1007
3 190 890 960
3 60 857 519
3 959 856 550
3 681 1336 832
3 719 632 976
3 353 117 1
3 749 1353 1319
3 1437 318 275
3 140 1187 799
3 1185 730 97
3 246 855 397
3 549 1320 1476
3 194 812 902
3 18 66 1430
3 293 942 153
3 187 159 7
3 624 20 1124
3 849 829 298
3 79 46 1377
3 1130 700 137
3 323 338 507
3 634 276 1092
3 5 1238 809
3 1493 431 1008
3 781 1053 408
3 1324 1211 849
3 990 316 1276
3 1276 357 741
3 1399 975 1407
3 681 1330 1336
3 196 852 1294
3 1169 403 1200
3 213 1485 499
3 680 838 499
3 1024 1035 77
3 32 359 594
3 475 1128 1395
3 609 916 1320
3 1132 1280 851
3 1234 1390 492
3 1397 94 645
3 220 914 497
3 1205 528 570
3 781 264 1007
3 1149 576 154
3 394 935 577
3 887 1089 386
3 1231 721 796
3 331 291 1213
3 636 1006 162
3 1194 109 170
3 339 1271 472
3 183 722 1485
3 440 1455 446
3 255 118 177
3 656 524 1083
3 1125 542 580
3 760 1464 241
3 416 1444 1009
3 555 571 1187
3 770 517 684
3 868 979 49
3 1341 1062 640
3 1199 307 629
3 988 1343 1098
3 265 1456 1174
3 404 87 233
3 535 571 930
3 791 1432 1196
3 134 1089 226
3 246 397 892
3 1166 1376 151
3 575 1165 354
3 25 933 1449
3 1370 992 878
3 1169 1395 490
3 764 1472 1015
3 917 515 1402
3 505 489 1442
3 114 819 927
3 264 610 1174
3 849 1277 1324
3 564 223 577
3 1165 1088 159
3 667 1486 1397
3 1156 909 1332
3 1187 299 799
3 127 1346 1155
3 991 429 618
3 1276 1349 707
3 788 329 482
3 181 61 815
3 659 1208 1220
3 52 398 1252
3 309 976 86
3 639 1201 1240
3 617 1021 660
3 225 479 1327
3 1258 476 1023
3 667 645 660
3 86 769 1439
3 79 469 75
3 849 298 391
3 200 827 1314
3 1187 571 735
3 252 1227 772
3 1100 615 743
3 1401 1173 342
3 793 493 278
3 618 782 156
3 120 1190 189
3 240 287 1095
3 1206 21 915
3 1115 1427 759
3 379 1071 894
3 1296 969 1053
3 306 1060 1355
3 294 973 646
3 92 1473 115
3 1290 792 698
3 1012 362 448
3 600 744 1144
3 821 1082 1273
3 189 1242 120
3 958 647 1435
3 990 1276 741
3 899 278 43
3 95 730 764
3 1230 763 1020
3 810 1352 1102
3 1170 527 1002
3 567 581 1172
3 1009 1322 35
3 705 1386 1127
3 895 378 755
3 827 1117 1034
3 906 88 323
3 1435 904 916
3 554 76 168
3 249 278 899
3 478 854 210
3 176 1330 815
3 1381 1294 852
3 199 1011 552
3 151 1141 312
3 28 1247 1347
3 421 689 124
3 865 585 649
3 1355 1360 281
3 304 182 311
3 843 1175 889
3 247 610 408
3 1348 65 67
3 1271 439 300
3 881 17 1032
3 1092 1122 575
3 649 1482 865
3 939 683 544
3 531 225 1117
3 488 674 842
3 520 1266 414
3 897 1369 1244
3 1237 1130 137
3 130 1243 179
3 577 60 936
3 1338 1162 528
3 794 163 1382
3 665 1174 610
3 266 198 715
3 1162 192 1440
3 857 768 740
3 861 210 634
3 666 683 939
3 164 140 650
3 46 79 75
3 1278 638 772
3 250 234 627
3 134 652 386
3 894 1071 668
3 991 33 708
3 1077 29 441
3 883 444 245
3 683 666 506
3 437 1208 659
3 1326 373 1150
3 230 40 1155
3 1066 834 1487
3 951 1175 843
3 820 1133 1297
3 795 196 1294
3 458 1037 1391
3 8 163 274
3 398 455 513
3 1295 424 884
3 471 1257 199
3 1337 1459 778
3 445 1375 262
3 625 434 1341
3 1364 174 1438
3 60 935 857
3 1218 1278 248
3 309 898 719
3 128 559 1319
3 1189 1144 880
3 1175 1195 941
3 1079 709 718
3 1257 233 419
3 504 424 690
3 1132 1405 1427
3 26 1459 1337
3 1218 1073 638
3 833 203 377
3 594 685 32
3 1148 537 1085
3 1076 897 1244
3 550 1241 28
3 269 518 1222
3 1426 608 239
3 387 335 955
3 590 320 806
3 1209 1381 328
3 439 696 1213
3 1446 959 447
3 335 724 955
3 366 1322 728
3 628 87 142
3 601 1286 546
3 261 356 1084
3 155 686 436
3 105 625 1409
3 1390 893 492
3 1093 154 512
3 527 894 668
3 821 763 1082
3 1482 1389 1269
3 176 1054 231
3 974 96 245
3 235 413 7
3 595 1325 661
3 58 473 223
3 512 1154 1093
3 1001 757 475
3 1491 1323 324
3 194 150 637
3 911 1296 691
3 464 920 593
3 1215 236 1355
3 396 319 302
3 16 31 1484
3 1095 990 240
3 224 253 1191
3 1435 916 958
3 1250 504 767
3 45 1201 254
3 948 363 347
3 651 283 1088
3 1273 1082 1080
3 105 1409 251
3 1280 166 156
3 234 888 627
3 391 298 336
3 45 1164 1466
3 1479 177 1140
3 672 209 597
3 596 111 1463
3 1452 1032 17
3 1342 867 1068
3 103 310 100
3 1165 159 483
3 1381 68 11
3 369 295 132
3 915 1046 1118
3 957 593 91
3 1196 962 1358
3 1133 55 1091
3 444 883 862
3 1034 6 364
3 183 828 191
3 85 1019 974
3 440 823 32
3 1058 603 1365
3 771 769 86
3 1255 745 1147
3 1326 237 890
3 297 175 598
3 711 887 701
3 332 1408 639
3 1428 722 183
3 1139 896 1365
3 1449 410 25
3 969 692 1053
3 1263 402 1086
3 1410 1153 495
3 631 1441 801
3 480 89 814
3 239 271 502
3 1054 1193 641
3 755 378 955
3 1105 428 1342
3 1221 36 582
3 267 671 93
3 952 955 378
3 1147 641 1193
3 22 1030 567
3 884 1045 1177
3 301 62 2
3 1118 1046 1413
3 764 843 282
3 35 1322 251
3 1218 638 1278
3 1228 98 760
3 683 506 579
3 59 56 1317
3 680 399 838
3 92 870 1473
3 103 100 618
3 652 1107 607
3 923 1087 1264
3 1455 729 1192
3 545 695 672
3 830 1389 994
3 540 998 1400
3 1241 1488 108
3 589 959 1446
3 404 142 87
3 228 285 319
3 1373 876 724
3 566 678 383
3 1119 818 1304
3 170 90 536
3 1099 630 586
3 1050 999 1210
3 143 1360 194
3 1229 932 943
3 1162 653 192
3 415 420 624
3 499 742 343
3 414 1011 365
3 659 1220 1143
3 642 1101 122
3 94 50 645
3 970 1063 226
3 261 329 1161
3 492 1180 485
3 775 201 1473
3 1411 600 1144
3 1369 897 1110
3 1478 619 751
3 1029 867 1342
3 377 962 1196
3 986 1224 141
3 1457 188 425
3 832 1336 993
3 1233 1400 1328
3 779 135 985
3 1290 1158 835
3 1150 741 147
3 160 659 1100
3 731 738 288
3 867 1451 1068
3 1140 177 118
3 37 872 654
3 1472 764 730
3 1356 885 365
3 1415 254 1201
3 61 176 815
3 797 1421 252
3 249 1018 793
3 1043 1188 614
3 1126 762 401
3 1272 808 583
3 478 861 405
3 232 508 965
3 522 1121 717
3 714 989 541
3 311 1427 1405
3 92 588 1437
3 81 605 862
3 457 141 486
3 636 162 1103
3 1114 1470 1339
3 557 1404 1189
3 483 626 354
3 1003 649 699
3 764 282 95
3 941 898 568
3 991 100 33
3 1276 707 357
3 1240 45 1466
3 72 1284 208
3 133 1027 1000
3 106 299 450
3 23 1265 461
3 140 555 1187
3 1165 483 354
3 183 1485 213
3 584 375 44
3 783 1319 860
3 576 706 1301
3 175 454 694
3 519 857 1028
3 1382 1275 794
3 775 688 308
3 370 69 346
3 591 560 481
3 17 329 788
3 1319 783 522
3 246 195 855
3 1394 50 928
3 1294 931 51
3 1156 1312 633
3 1262 1168 27
3 721 136 796
3 720 811 385
3 252 250 627
3 24 404 987
3 1419 1424 504
3 1104 1393 390
3 941 533 898
3 812 776 968
3 396 1307 319
3 1105 1342 1068
3 1012 448 702
3 753 1342 428
3 992 1461 674
3 147 126 104
3 0 53 922
3 1369 746 1244
3 472 1476 1265
3 1120 765 324
3 975 1151 1144
3 218 20 131
3 1269 1389 438
3 369 457 486
3 1414 948 1469
3 566 718 1038
3 373 1016 44
3 1473 201 115
3 782 429 864
3 1132 1439 1405
3 853 267 93
3 670 1293 48
3 26 592 1459
3 41 751 953
3 1301 949 1449
3 707 826 357
3 506 355 579
3 990 1095 316
3 908 272 1340
3 519 1456 269
3 729 440 32
3 848 1234 1136
3 1 448 1490
3 1081 114 279
3 1295 884 1177
3 1439 1132 86
3 1285 594 359
3 760 112 1228
3 1142 919 407
3 58 524 473
3 114 169 279
3 282 568 1431
3 971 1049 1208
3 388 1366 1343
3 186 1230 322
3 1057 472 1460
3 814 148 1428
3 643 1468 980
3 357 826 563
3 152 3 1191
3 993 1330 231
3 802 513 455
3 870 15 1473
3 427 551 1017
3 1064 579 829
3 207 464 430
3 584 107 375
3 825 234 250
3 973 509 1037
3 1146 229 523
3 1134 106 1171
3 601 546 1007
3 883 245 96
3 1180 525 905
3 1076 633 917
3 95 341 1185
3 686 295 384
3 75 215 39
3 1458 34 1104
3 1306 391 336
3 1262 1453 1056
3 538 1075 470
3 740 1366 388
3 861 575 354
3 488 923 1264
3 225 1066 479
3 773 520 365
3 208 1284 830
3 20 961 310
3 57 154 689
3 1398 628 66
3 1184 545 1474
3 953 491 41
3 77 1334 1024
3 1112 257 338
3 1320 814 89
3 1471 1248 204
3 471 578 1446
3 934 1393 482
3 1168 1074 1433
3 1112 338 323
3 733 1223 461
3 36 679 418
3 951 1195 1175
3 1224 986 1470
3 595 260 516
3 595 389 351
3 688 775 1489
3 860 915 783
3 1213 291 439
3 1190 1121 1118
3 80 402 1385
3 709 1038 718
3 31 863 1484
3 556 1096 784
3 987 447 1182
3 1371 1379 33
3 102 1098 918
3 1327 537 346
3 802 1021 436
3 756 1325 595
3 1329 1236 1162
3 1054 521 602
3 750 1118 1413
3 235 1088 742
3 421 1288 57
3 569 555 773
3 334 26 192
3 782 1431 950
3 264 781 408
3 1288 907 57
3 139 355 761
3 1007 546 111
3 990 584 44
3 93 1237 327
3 1015 1472 805
3 989 1465 525
3 141 457 986
3 194 688 1489
3 1428 191 138
3 246 892 382
3 948 347 1094
3 445 928 1426
3 829 849 1064
3 685 1344 32
3 1336 1330 993
3 640 1062 538
3 817 746 38
3 921 1255 951
3 957 456 593
3 1005 944 202
3 1085 537 967
3 347 1298 1037
3 461 89 733
3 266 725 198
3 1413 454 495
3 1401 854 1173
3 737 888 493
3 415 624 182
3 1424 393 1041
3 1455 1192 662
3 787 243 1145
3 377 203 962
3 1071 1432 449
3 1480 1194 1086
3 1465 1365 562
3 503 980 1468
3 128 1353 716
3 797 252 772
3 1283 791 611
3 217 1304 1429
3 832 948 1414
3 347 1037 1094
3 75 426 215
3 1230 1020 789
3 186 1492 763
3 1157 279 169
3 1209 1402 515
3 90 835 536
3 627 888 443
3 919 1177 1229
3 747 626 99
3 1409 16 35
3 386 652 406
3 68 1242 11
3 1101 642 725
3 623 499 1485
3 162 1006 829
3 875 509 1442
3 660 204 667
3 752 1398 66
3 480 733 89
3 694 1212 175
3 384 548 64
3 376 1248 161
3 1489 774 150
3 866 948 1094
3 741 107 990
3 750 495 1153
3 1314 470 599
3 1460 101 1057
3 1321 1471 1185
3 973 458 646
3 1094 1037 303
3 437 350 971
3 648 412 754
3 771 86 976
3 634 1092 575
3 615 1143 345
3 1235 840 1154
3 170 536 1194
3 1018 168 793
3 400 514 1198
3 605 81 47
3 766 25 410
3 399 824 1058
3 1056 1453 1047
3 544 878 1097
3 1423 1231 1274
3 1216 767 1424
3 1260 1449 83
3 845 762 1126
3 840 1055 71
3 464 593 456
3 889 282 843
3 0 82 1128
3 69 828 213
3 283 651 1122
3 1254 748 1388
3 1436 49 785
3 655 57 907
3 137 675 806
3 1236 1329 681
3 485 603 193
3 194 1179 688
3 137 664 1237
3 234 1425 888
3 59 1207 859
3 978 743 41
3 453 1392 185
3 320 1270 806
3 1013 1126 497
3 1110 328 1381
3 517 629 739
3 660 802 204
3 333 981 1242
3 865 892 397
3 36 784 679
3 563 741 357
3 1017 932 1045
3 331 1213 421
3 1428 183 191
3 1155 40 1293
3 411 598 979
3 1022 1111 441
3 1264 939 1025
3 985 30 1010
3 1353 1068 1451
3 763 632 1082
3 566 1038 678
3 496 609 613
3 1125 1235 542
3 1146 1113 366
3 163 1249 1382
3 1211 1064 849
3 104 126 1267
3 539 671 267
3 486 548 384
3 992 949 1362
3 358 1344 196
3 1416 407 693
3 1000 228 133
3 1402 1076 917
3 1126 401 1042
3 1469 1403 841
3 1117 1327 1034
3 263 1111 720
3 1178 1070 678
3 909 677 1332
3 1040 90 968
3 402 1263 1385
3 395 864 991
3 247 123 262
3 1479 1140 749
3 736 697 687
3 1097 939 544
3 640 1409 625
3 351 541 595
3 92 115 588
3 844 1341 434
3 355 1135 761
3 153 523 1108
3 945 901 313
3 355 506 614
3 494 696 1271
3 291 110 716
3 518 269 265
3 1040 786 90
3 992 674 878
3 1041 681 1329
3 1311 206 1371
3 297 454 175
3 704 565 1078
3 595 661 668
3 832 1414 681
3 1429 1304 818
3 412 780 739
3 96 1435 647
3 1221 302 158
3 1063 1351 226
3 729 358 795
3 991 708 395
3 595 541 756
3 114 1081 342
3 6 1462 364
3 1039 1012 80
3 496 958 609
3 284 1428 138
3 773 555 520
3 427 222 1001
3 217 777 1304
3 634 210 1401
3 538 470 1314
3 641 231 1054
3 286 1202 1040
3 106 1078 799
3 904 1019 1052
3 1299 1364 1438
3 657 530 1352
3 998 1159 144
3 1066 531 926
3 1419 12 1230
3 620 1225 983
3 1090 265 846
3 147 1226 126
3 1479 749 1004
3 999 1050 1022
3 324 236 1215
3 1136 1157 848
3 679 1434 1474
3 951 843 921
3 1260 1493 1418
3 235 742 413
3 394 560 768
3 1139 714 1443
3 1217 1030 766
3 1246 1214 564
3 350 437 248
3 913 518 265
3 997 539 1372
3 1314 1268 200
3 700 924 1229
3 481 1307 591
3 749 813 1004
3 495 750 1413
3 1474 1434 129
3 177 1209 515
3 1362 340 1461
3 899 527 1170
3 745 1255 1042
3 951 1147 1195
3 1438 466 574
3 808 240 44
3 1456 601 1174
3 300 439 14
3 1256 1392 1064
3 790 158 673
3 650 565 903
3 1214 1246 643
3 1000 1061 599
3 1006 636 1259
3 866 1107 652
3 1407 975 1144
3 1290 835 786
3 178 790 625
3 633 1312 917
3 372 923 488
3 734 465 589
3 1212 580 727
3 1018 368 535
3 236 1360 1355
3 259 427 1045
3 136 1464 796
3 820 1297 779
3 93 594 853
3 1403 652 226
3 203 833 1421
3 1087 923 274
3 1181 762 692
3 334 192 653
3 570 468 1205
3 1484 244 243
3 1488 1309 811
3 1261 313 606
3 550 1347 959
3 371 1378 1226
3 323 188 726
3 1412 101 1029
3 929 144 608
3 502 477 1059
3 146 88 906
3 557 1026 855
3 630 738 731
3 941 282 889
3 845 1406 762
3 364 798 442
3 350 1227 971
3 1419 181 393
3 919 1142 1295
3 830 558 1480
3 851 156 309
3 1029 758 1412
3 1271 300 472
3 1357 293 1108
3 1290 322 792
3 995 342 1173
3 145 682 853
3 197 360 1164
3 512 933 1235
3 1038 709 954
3 1423 1274 606
3 1152 532 630
3 698 452 984
3 920 142 24
3 1304 777 332
3 864 1431 782
3 810 1035 426
3 1231 697 1274
3 385 811 1309
3 696 130 1213
3 1315 695 325
3 428 1156 1332
3 1379 1203 349
3 1453 530 657
3 494 63 487
3 961 308 900
3 1009 1448 172
3 545 1184 129
3 730 52 1472
3 301 1230 12
3 1306 1313 391
3 701 1197 711
3 757 222 1191
3 1066 225 531
3 164 650 903
3 198 1167 715
3 585 622 1163
3 286 776 870
3 261 1161 345
3 332 1316 1420
3 222 757 1001
3 1042 321 423
3 1191 3 1357
3 1260 1418 410
3 1346 263 230
3 491 1283 1386
3 691 1183 205
3 1074 643 1433
3 81 862 883
3 85 804 1052
3 1402 328 1110
3 539 997 984
3 983 903 425
3 612 985 135
3 786 498 474
3 424 326 884
3 1113 153 1434
3 414 1266 620
3 1065 271 998
3 711 417 1063
3 1251 874 212
3 676 127 1155
3 205 911 691
3 757 1128 475
3 763 771 632
3 675 137 700
3 748 1215 1060
3 165 280 1444
3 347 363 1298
3 1210 1051 735
3 1286 859 1207
3 528 1205 1338
3 570 1440 326
3 800 826 400
3 616 1104 737
3 1039 80 1158
3 1318 1356 586
3 1092 508 232
3 111 596 1183
3 824 680 965
3 835 1158 1385
3 258 1003 1116
3 963 7 722
3 1204 619 13
3 120 717 1121
3 377 529 1310
3 630 1363 738
3 997 1012 1039
3 128 352 559
3 283 232 463
3 1016 583 808
3 449 260 668
3 959 1347 956
3 222 259 1337
3 85 747 804
3 388 1343 988
3 949 992 83
3 1030 1253 581
3 33 100 873
3 1128 253 0
3 837 908 151
3 1348 67 896
3 339 23 1271
3 1321 708 1379
3 560 591 740
3 1054 121 521
3 349 1471 1321
3 1146 1444 229
3 189 697 333
3 96 974 1435
3 268 120 1242
3 789 1020 821
3 910 953 516
3 1462 798 364
3 1188 1135 614
3 476 756 893
3 314 984 1031
3 236 337 1360
3 582 36 418
3 967 190 1085
3 305 713 1264
3 888 1425 1014
3 378 165 952
3 313 721 1423
3 1402 1110 897
3 985 612 30
3 505 294 489
3 1240 1466 55
3 810 77 1035
3 1291 1381 852
3 377 1196 1071
3 961 218 308
3 307 739 629
3 193 824 1368
3 710 1249 163
3 1412 344 1057
3 1026 1189 880
3 817 317 1244
3 1302 1251 1281
3 1289 1378 191
3 319 481 133
3 355 614 1135
3 1299 1438 340
3 32 823 359
3 508 279 1157
3 812 968 902
3 191 828 712
3 1049 348 356
3 592 334 417
3 277 442 798
3 70 1461 574
3 1239 297 296
3 829 803 162
3 1326 1150 237
3 925 731 81
3 845 1126 1013
3 1274 697 606
3 557 855 1410
3 1151 880 1144
3 141 692 381
3 1043 794 1188
3 754 307 1199
3 1347 1247 1450
3 1193 602 1147
3 422 1225 520
3 974 245 42
3 54 1171 450
3 802 660 1021
3 32 1344 358
3 1448 1009 35
3 171 1457 903
3 887 386 270
3 59 1317 1442
3 715 1167 822
3 546 1286 1207
3 1428 148 722
3 1460 300 367
3 1346 1111 263
3 805 220 1015
3 122 383 1070
3 558 157 1480
3 573 162 667
3 491 978 41
3 816 842 1461
3 38 501 954
3 1452 34 1032
3 597 209 918
3 1011 199 631
3 1250 767 1205
3 760 241 438
3 1034 364 442
3 154 57 1149
3 158 36 1221
3 221 1047 1380
3 577 223 394
3 996 874 1251
3 276 634 1081
3 503 139 980
3 142 404 24
3 943 590 806
3 961 900 219
3 932 1229 1177
3 657 1352 287
3 467 295 686
3 25 22 933
3 227 323 507
3 489 294 205
3 662 98 1455
3 668 260 595
3 465 1309 1488
3 812 194 637
3 836 1042 401
3 705 1127 723
3 563 147 741
3 1478 751 41
3 1141 1359 332
3 790 673 434
3 91 1170 1002
3 416 952 165
3 1074 1262 1056
3 640 16 1409
3 527 661 1002
3 97 95 1185
3 691 1296 1007
3 31 1348 863
3 842 816 372
3 1451 716 1353
3 1044 883 96
3 1240 1133 639
3 582 1343 1366
3 982 180 850
3 561 1022 1050
3 1129 348 1049
3 1209 328 1402
3 53 0 224
3 613 344 1412
3 544 770 878
3 859 209 59
3 611 1358 723
3 822 895 755
3 807 1036 908
3 1404 1144 1189
3 1026 1163 622
3 152 1069 1197
3 1285 823 1160
3 588 415 1300
3 673 74 844
3 329 881 119
3 425 1176 620
3 1055 840 1125
3 1426 964 608
3 14 367 300
3 1358 962 1218
3 415 182 1300
3 948 866 1469
3 1077 441 1111
3 1474 858 679
3 738 113 801
3 721 901 382
3 849 391 1277
3 880 1151 1005
3 769 771 763
3 1464 760 98
3 578 471 199
3 368 1210 535
3 128 689 352
3 788 1452 17
3 244 330 1145
3 1264 713 939
3 1481 729 795
3 1080 1082 719
3 1440 26 1245
3 1391 879 458
3 1179 644 688
3 1475 1131 982
3 1091 1417 996
3 1291 1110 1381
3 946 865 1482
3 1012 997 1372
3 132 1470 986
3 266 715 633
3 870 92 286
3 366 947 1322
3 1479 1209 177
3 698 792 2
3 109 902 968
3 1419 789 181
3 1419 1230 789
3 202 1116 699
3 145 362 1372
3 1395 1128 82
3 776 15 870
3 62 12 1345
3 1448 35 16
3 508 1136 289
3 45 1240 1201
3 1041 940 681
3 569 484 76
3 865 136 892
3 874 161 1471
3 1069 222 1337
3 259 222 427
3 1204 119 881
3 625 790 434
3 487 125 1243
3 863 732 1032
3 571 555 554
3 539 314 671
3 1373 630 532
3 277 538 1314
3 875 607 1107
3 1101 1079 566
3 1133 820 1119
3 1232 288 1441
3 1430 66 9
3 532 876 1373
3 504 690 1345
3 247 665 610
3 676 1134 149
3 1028 388 988
3 305 794 1043
3 121 61 1273
3 778 1069 1337
3 380 573 197
3 459 173 1137
3 803 1328 667
3 199 419 631
3 1111 108 720
3 1210 735 658
3 1168 1262 1074
3 290 478 78
3 1162 1236 653
3 1257 987 233
3 618 167 103
3 1234 451 1390
3 784 178 556
3 1023 476 256
3 10 1070 320
3 1287 1279 1415
3 1115 1280 1132
3 219 873 100
3 602 1195 1147
3 171 704 1112
3 239 1375 445
3 1265 1476 461
3 1238 5 490
3 701 887 270
3 126 1226 1378
3 1134 511 257
3 1171 29 149
3 668 1071 449
3 1365 1462 1058
3 722 742 623
3 459 879 1391
3 167 156 166
3 379 43 871
3 593 1170 91
3 502 271 477
3 154 1093 689
3 654 872 221
3 572 472 1057
3 774 15 637
3 190 967 479
3 838 213 499
3 7 159 235
3 963 99 187
3 827 277 1314
3 39 174 75
3 1465 905 525
3 835 1385 536
3 303 866 1094
3 979 868 877
3 4 1065 669
3 1155 1346 230
3 19 1199 453
3 257 1112 704
3 585 397 622
3 970 1089 887
3 984 924 882
3 1248 534 197
3 1141 184 312
3 1204 13 119
3 227 670 1186
3 1029 101 367
3 255 839 118
3 301 12 62
3 836 879 321
3 1482 1269 946
3 749 522 717
3 742 499 623
3 625 105 178
3 1017 551 1333
3 433 954 501
3 1007 1296 781
3 690 424 1142
3 438 353 1
3 1008 648 1418
3 1391 1037 173
3 1090 1375 913
3 42 245 290
3 302 673 158
3 266 1076 725
3 918 582 418
3 1091 55 1417
3 637 150 774
3 999 1022 54
3 636 1279 972
3 1212 727 462
3 87 628 1398
3 848 1157 927
3 552 620 1176
3 219 100 310
3 262 1090 665
3 587 373 44
3 545 386 406
3 42 290 891
3 787 1448 243
3 902 109 143
3 107 584 990
3 1216 1329 1338
3 415 115 420
3 249 1182 1450
3 907 1364 655
3 294 505 973
3 907 46 1364
3 719 1335 1080
3 686 398 436
3 426 1095 287
3 1101 725 1079
3 868 49 1436
3 739 684 517
3 1123 1199 683
3 243 16 1484
3 1023 91 1258
3 534 376 1466
3 731 526 630
3 1181 646 458
3 1476 1320 89
3 823 446 1228
3 188 1457 726
3 475 551 1001
3 1028 988 1098
3 462 49 979
3 1017 1333 590
3 1447 423 459
3 1312 428 839
3 900 688 644
3 1244 317 1076
3 940 1330 681
3 1386 705 1331
3 116 148 886
3 873 337 236
3 754 1199 19
3 490 198 1454
3 608 144 1159
3 2 1416 452
3 11 931 1294
3 498 1437 275
3 784 790 178
3 1374 1357 3
3 326 1245 1337
3 723 1358 1218
3 1296 1053 781
3 560 740 768
3 1200 551 475
3 1286 361 102
3 390 737 1104
3 1012 1372 362
3 715 1156 633
3 930 1018 535
3 1077 1346 127
3 1414 841 1236
3 677 724 876
3 1491 1215 748
3 709 817 954
3 767 1216 1205
3 452 1416 693
3 836 321 1042
3 1056 1083 524
3 109 1194 157
3 149 127 676
3 180 1044 647
3 652 607 1315
3 1002 661 1325
3 335 387 1318
3 908 1340 315
3 1282 1251 211
3 1270 320 664
3 1289 1267 126
3 786 474 322
3 780 1493 83
3 1459 592 778
3 270 386 1067
3 1258 91 1002
3 962 203 1073
3 819 1390 451
3 1385 1263 536
3 1134 1078 106
3 1470 408 1224
3 257 1078 1134
3 1380 1272 834
3 1368 485 193
3 980 1249 643
3 320 1070 1178
3 916 609 958
3 1474 545 858
3 920 899 1170
3 867 367 14
3 982 238 1475
3 1280 156 851
3 703 553 453
3 1197 701 1374
3 1129 971 1227
3 776 637 15
3 490 5 198
3 996 1297 1133
3 1250 1205 468
3 813 268 1381
3 73 1377 46
3 1486 964 1397
3 474 186 322
3 23 1223 409
3 1154 512 1235
3 534 1466 360
3 824 965 1368
3 1166 553 1384
3 864 395 1431
3 172 1318 387
3 132 986 457
3 605 47 547
3 1032 732 881
3 56 209 672
3 358 729 32
3 1102 1352 530
3 661 527 668
3 1454 122 1169
3 514 125 487
3 285 673 319
3 1355 1060 1215
3 654 1268 37
3 1307 481 319
3 648 1217 410
3 727 580 542
3 1000 599 228
3 1105 118 839
3 1243 125 73
3 1389 1284 353
3 805 64 548
3 10 403 1070
3 1109 957 1023
3 876 238 677
3 758 238 613
3 1156 715 822
3 476 1258 1325
3 378 809 280
3 683 629 517
3 257 704 1078
3 856 1241 550
3 1445 983 1225
3 753 428 1332
3 549 609 1320
3 234 825 1425
3 1155 511 676
3 1171 54 29
3 1009 728 1322
3 1270 137 806
3 1177 919 1295
3 157 258 109
3 863 1348 1354
3 879 836 401
3 608 964 929
3 500 669 1246
3 175 462 598
3 860 559 352
3 618 156 167
3 329 119 615
3 194 1360 1179
3 1098 601 1456
3 1382 1249 980
3 980 1275 1382
3 993 948 832
3 660 645 50
3 650 140 565
3 1068 1140 1105
3 1453 1262 1102
3 622 855 1026
3 676 511 1134
3 1327 967 537
3 1013 497 914
3 669 1468 1246
3 51 931 1192
3 172 885 1318
3 286 968 776
3 48 385 1309
3 544 683 517
3 711 970 887
3 729 1455 440
3 647 1044 96
3 449 1432 910
3 1144 1404 979
3 782 950 156
3 639 1119 1304
3 131 624 420
3 540 1400 1233
3 490 1395 82
3 656 560 394
3 1343 582 918
3 1143 615 1100
3 1204 389 619
3 694 71 580
3 138 191 1378
3 1178 664 320
3 161 874 1417
3 763 1492 769
3 1227 252 1129
3 117 353 72
3 114 342 995
3 1139 989 714
3 432 310 166
3 568 282 941
3 1393 1452 788
3 435 1 1490
3 76 554 569
3 426 1035 215
3 82 0 280
3 1145 773 787
3 199 1257 419
3 1235 966 542
3 920 464 142
3 1242 981 11
3 63 494 1198
3 1283 273 791
3 979 216 1144
3 97 730 95
3 611 723 1048
3 1192 1481 51
3 1374 293 1357
3 207 142 464
3 1321 395 708
3 779 1297 135
3 1457 425 903
3 1415 1408 242
3 943 675 1229
3 356 261 345
3 472 1265 339
3 773 885 787
3 758 613 1412
3 992 1362 1461
3 525 492 893
3 248 1278 1227
3 124 331 421
3 1476 344 549
3 874 1471 349
3 1003 699 1116
3 283 1122 232
3 1363 1099 113
3 485 289 1136
3 447 471 1446
3 702 72 80
3 226 652 134
3 873 900 337
3 540 503 1468
3 940 1041 393
3 66 207 430
3 412 1008 431
3 1293 511 1155
3 453 553 19
3 654 834 926
3 1102 1467 810
3 900 308 688
3 131 20 624
3 604 1411 1144
3 758 753 238
3 558 649 1003
3 441 29 54
3 1489 150 194
3 261 1084 482
3 964 928 94
3 391 315 1277
3 80 1385 1158
3 260 910 516
3 466 1024 574
3 129 1184 1474
3 1238 280 809
3 677 755 724
3 783 915 1118
3 1367 1261 189
3 916 886 1320
3 258 157 1003
3 1088 235 159
3 151 312 553
3 1190 120 1121
3 26 1337 1245
3 493 888 1014
3 771 976 632
3 630 526 1152
3 424 1295 1142
3 992 1370 83
3 739 307 412
3 1098 1343 918
3 672 1315 56
3 57 655 1149
3 1433 643 1249
3 1182 447 1450
3 1089 970 226
3 725 642 198
3 1447 363 993
3 102 209 859
3 609 549 613
3 1130 1031 882
3 894 527 899
3 422 164 1445
3 403 10 1333
3 93 327 433
3 1297 1251 1302
3 1217 766 410
3 1072 747 85
3 597 918 1303
3 317 725 1076
3 243 244 1145
3 558 1003 157
3 305 614 666
3 792 301 2
3 1065 4 271
3 1279 636 254
3 1251 1297 996
3 1442 489 1463
3 455 1471 802
3 895 822 1167
3 378 280 165
3 287 1352 426
3 1109 114 995
3 422 1445 1225
3 1113 523 153
3 607 1317 56
3 1123 1392 453
3 634 575 861
3 885 773 365
3 656 872 133
3 223 1214 58
3 1174 601 264
3 1034 346 6
3 423 1447 745
3 326 468 570
3 500 477 669
3 367 867 1029
3 1119 639 1133
3 48 1309 1186
3 29 1077 149
3 545 406 325
3 1189 1026 557
3 813 1381 1209
3 1131 532 180
3 927 169 114
3 780 83 1370
3 1429 818 1422
3 909 755 677
3 313 1423 606
3 891 1072 85
3 1160 823 1219
3 779 214 820
3 1470 247 408
3 1310 871 825
3 61 121 176
3 1165 575 651
3 568 898 309
3 850 180 958
3 1086 208 1480
3 1 1160 112
3 124 128 110
3 798 1292 1033
3 895 1167 809
3 892 136 382
3 515 255 177
3 1093 1154 1206
3 305 1087 274
3 1441 292 547
3 547 47 1232
3 66 430 9
3 567 727 966
3 205 294 911
3 601 1098 361
3 279 276 1081
3 1090 262 1375
3 1319 522 749
3 605 292 1398
3 1220 1208 1049
3 953 751 516
3 1461 842 674
3 1143 1220 356
3 332 184 1141
3 113 1356 365
3 162 573 1103
3 1068 1353 749
3 538 65 31
3 214 84 818
3 1220 1049 356
3 635 1287 1415
3 1082 632 719
3 1075 1062 844
3 1272 1487 834
3 1012 702 80
3 136 946 241
3 252 348 1129
3 1254 84 748
3 1171 106 450
3 381 692 1406
3 168 1458 793
3 393 1424 1419
3 524 656 621
3 84 847 818
3 43 493 1014
3 455 1185 1471
3 98 662 736
3 937 8 372
3 340 1362 949
3 1464 98 796
3 1357 224 1191
3 145 1372 682
3 34 1458 76
3 1144 744 1407
3 1044 180 1152
3 1477 327 1178
3 1328 803 139
3 1268 654 200
3 706 949 1301
3 1091 996 1133
3 1365 1292 1462
3 237 960 890
3 1271 23 494
3 247 262 665
3 702 448 117
3 1492 1405 769
3 1346 1077 1111
3 720 385 230
3 129 1434 153
3 78 405 1072
3 352 1093 1206
3 700 1229 675
3 377 1071 529
3 511 1293 257
3 963 722 116
3 1341 844 1062
3 1387 284 371
3 317 709 1079
3 601 1007 264
3 882 1031 984
3 204 802 1471
3 667 204 573
3 861 354 405
3 129 153 942
3 15 775 1473
3 111 1183 1007
3 323 88 188
3 816 1461 70
3 704 171 565
3 203 638 1073
3 667 144 929
3 393 181 815
3 721 1231 1423
3 785 49 312
3 624 1124 182
3 690 407 62
3 67 277 1033
3 860 1319 559
3 924 984 693
3 81 883 925
3 1288 1243 73
3 1341 640 625
3 924 919 1229
3 1293 507 338
3 314 539 984
3 55 1133 1240
3 222 1069 152
3 194 902 143
3 772 638 797
3 1044 925 883
3 1224 408 1053
3 1158 698 1039
3 626 747 1072
3 420 115 201
3 392 845 1013
3 442 277 827
3 247 1470 123
3 966 1235 933
3 1005 1151 944
3 80 72 402
3 390 443 888
3 1280 912 166
3 1025 488 1264
3 577 935 60
3 1153 1410 945
3 925 1152 526
3 302 319 673
3 316 1095 469
3 920 24 899
3 507 1293 670
3 1331 248 437
3 496 850 958
3 447 1257 471
3 1037 875 303
3 943 932 1017
3 195 901 945
3 498 1040 1202
3 415 588 115
3 30 748 1010
3 1419 1345 12
3 1334 574 1024
3 1163 880 1005
3 1212 694 580
3 1491 748 30
3 561 1111 1022
3 702 117 72
3 994 1482 649
3 543 298 829
3 1441 547 1232
3 207 66 628
3 615 13 1478
3 697 1231 687
3 128 1319 1353
3 1403 226 1351
3 1440 570 528
3 230 385 40
3 432 1124 20
3 233 87 292
3 1326 583 1016
3 436 1021 617
3 139 829 355
3 318 304 1308
3 341 395 1321
3 81 731 47
3 611 1196 1358
3 1405 304 311
3 1364 75 174
3 17 881 329
3 639 1408 1201
3 805 548 914
3 679 858 418
3 736 981 697
3 65 1348 31
3 1219 112 1160
3 1138 1087 305
3 123 1114 445
3 1197 1374 3
3 721 313 901
3 672 695 1315
3 1481 1294 51
3 1456 265 269
3 492 1136 1234
3 775 308 131
3 494 409 1198
3 356 348 831
3 389 1204 869
3 539 682 1372
3 1272 1380 460
3 1456 1028 1098
3 618 100 991
3 1083 1056 872
3 1226 147 563
3 1115 1132 1427
3 1073 1218 962
3 189 1261 697
3 796 98 1231
3 245 444 290
3 405 78 478
3 1099 586 113
3 1310 825 1421
3 484 330 244
3 479 1326 890
3 558 830 994
3 108 1488 811
3 122 1070 403
3 1431 341 282
3 99 483 187
3 662 1192 736
3 1027 1061 1000
3 1160 1 435
3 1479 1004 1209
3 1037 1298 1137
3 546 1207 111
3 557 296 411
3 1016 373 1326
3 1039 698 997
3 1321 1185 341
3 731 925 526
3 1394 155 50
3 475 1169 1200
3 1047 657 808
3 460 1047 1272
3 755 955 724
3 845 392 1406
3 1387 400 733
3 292 631 419
3 1201 1408 1415
3 537 370 346
3 1465 989 1139
3 166 310 103
3 131 308 218
3 38 954 817
3 776 812 637
3 1192 931 736
3 1067 701 270
3 504 1250 424
3 1344 501 196
3 1419 504 1345
3 816 70 1334
3 882 924 700
3 330 484 569
3 815 1330 940
3 1334 77 937
3 1011 631 801
3 1237 1031 1130
3 747 99 963
3 699 1005 202
3 669 1065 1468
3 1406 392 486
3 69 6 346
3 375 1150 373
3 910 1432 273
3 881 732 869
3 220 921 1015
3 1163 699 585
3 642 122 1454
3 458 879 1181
3 1285 145 853
3 343 1088 283
3 1196 1432 1071
3 1421 250 252
3 26 1440 192
3 677 238 753
3 955 952 387
3 1225 1266 520
3 1297 1302 135
3 734 146 465
3 712 1289 191
3 451 848 927
3 139 503 1233
3 433 1477 954
3 507 670 227
3 1204 881 869
3 555 140 422
3 1052 663 904
3 223 473 394
3 104 237 1150
3 684 878 770
3 533 602 1335
3 1109 1023 114
3 698 984 997
3 1367 313 1261
3 1464 136 241
3 1216 1338 1205
3 1050 28 561
3 306 281 258
3 922 1444 280
3 477 4 669
3 1121 522 783
3 720 230 263
3 229 53 224
3 705 723 1218
3 44 1016 808
3 566 1079 718
3 1186 1309 146
3 732 714 869
3 593 920 1170
3 968 170 109
3 390 1393 934
3 189 1190 750
3 1392 1361 185
3 379 1310 529
3 299 106 799
3 1159 271 239
3 282 341 95
3 855 195 1410
3 879 762 1181
3 410 1449 1260
3 626 405 354
3 857 388 1028
3 246 901 195
3 52 1252 64
3 1457 171 726
3 1371 873 236
3 1048 1386 1283
3 1054 176 121
3 79 316 469
3 496 982 850
3 857 740 388
3 928 964 1426
3 608 1159 239
3 50 155 617
3 490 1454 1169
3 1437 1202 92
3 981 736 931
3 912 432 166
3 87 1398 292
3 236 324 1371
3 1161 329 615
3 855 622 397
3 978 1386 160
3 925 1044 1152
3 438 1 112
3 360 1466 1164
3 197 1164 380
3 554 168 930
3 139 1275 980
3 55 1466 376
3 961 20 218
3 531 200 654
3 751 619 516
3 74 673 285
3 1105 839 428
3 1040 498 786
3 684 1370 878
3 954 1477 1178
3 1106 1222 1059
3 376 161 1417
3 437 971 1208
3 754 1253 648
3 574 340 1438
3 1424 767 504
3 513 436 398
3 852 196 1483
3 1465 1139 1365
3 1267 1289 1305
3 440 446 823
3 479 890 190
3 643 1246 1468
3 521 1335 602
3 329 261 482
3 450 299 1051
3 512 576 1301
3 1030 22 766
3 306 1355 281
3 1057 344 572
3 630 1099 1363
3 171 1112 726
3 444 18 290
3 640 31 16
3 617 155 436
3 685 433 501
3 438 112 760
3 545 672 858
3 714 1354 1443
3 869 714 541
3 38 1483 501
3 486 381 1406
3 1045 932 1177
3 441 54 1022
3 110 128 716
3 1337 259 326
3 197 573 1248
3 10 590 1333
3 1379 349 1321
3 633 1076 266
3 375 587 44
3 470 74 599
3 575 1122 651
3 621 394 473
3 1228 1219 823
3 409 1223 1198
3 1315 607 56
3 262 123 445
3 602 533 1195
3 552 1011 414
3 1401 210 854
3 362 145 448
3 1371 765 1311
3 1268 1061 37
3 977 1018 1247
3 248 1331 705
3 964 1486 929
3 1166 151 553
3 1354 896 1443
3 208 402 72
3 1467 27 77
3 914 548 392
3 1444 416 165
3 578 199 552
3 1450 1247 1018
3 86 1132 851
3 243 1448 16
3 396 740 591
3 137 1270 664
3 922 229 1444
3 1268 599 1061
3 1206 1154 21
3 1383 756 541
3 456 957 1109
3 421 1243 1288
3 653 1063 334
3 611 1048 1283
3 396 591 1307
3 1142 407 690
3 1478 743 615
3 166 103 167
3 794 274 163
3 275 318 1308
3 949 83 1449
3 646 1181 911
3 1036 1350 1141
3 10 320 590
3 214 818 1119
3 623 1485 722
3 1162 1338 1329
3 1276 79 1377
3 145 1490 448
3 618 429 782
3 1062 1075 538
3 1148 1305 1289
3 1158 1290 698
3 525 1180 492
3 904 886 916
3 619 1478 13
