ply
format ascii 1.0
comment Created by Open3D
element vertex 1257
property double x
property double y
property double z
property uchar red
property uchar green
property uchar blue
element face 2730
property list uchar uint vertex_indices
end_header
0.0751147 1.47452 -0.326691 20 239 235
-1.36373 2.40502 -0.0576666 236 112 145
-0.302058 0.9276 0.1298 232 137 38
-0.301528 0.9108 0.1354 203 83 173
-0.299568 0.9332 0.130838 167 140 120
0.617406 1.47461 0.201541 118 159 2
0.314587 0.978042 0.103183 95 158 178
0.616728 1.47236 0.200898 137 254 182
0.721773 0.890453 -0.0573296 224 139 0
-0.451826 2.84715 -0.349504 249 120 61
0.568702 0.891203 0.0734848 202 87 200
-0.446363 2.85115 -0.350846 185 167 69
1.03059 1.91354 -0.194475 148 219 21
0.579198 1.08096 0.252242 206 142 110
0.073239 1.47177 -0.328117 40 110 252
0.683493 1.27506 0.291939 112 128 101
0.195435 1.23042 -0.203931 42 218 131
-0.266467 0.899565 0.152079 142 48 180
0.611216 1.47056 0.198126 44 124 135
-0.547894 0.913803 -0.104101 109 132 81
0.232784 0.966766 0.0241453 225 67 162
0.614344 1.47355 0.200659 233 43 154
-0.552918 0.914317 -0.124764 204 245 129
0.252738 1.19884 -0.0689642 137 233 69
0.677398 1.31871 0.234298 3 174 9
0.661174 1.30604 0.216845 129 115 185
0.654272 1.19828 0.257843 255 69 223
0.585944 0.975222 -0.0503963 87 116 136
0.654296 1.19886 0.255587 41 192 104
0.653224 1.25745 0.188122 185 69 19
-1.0074 2.47702 -0.136326 74 181 165
0.289731 1.91365 -0.328931 220 223 3
0.70137 1.27634 0.322141 170 140 156
0.653598 1.2641 0.183597 79 229 167
0.6786 1.32366 0.257304 10 252 16
-0.54667 0.91237 -0.0996178 245 80 85
1.03243 1.93227 -0.202232 128 170 139
-0.547781 0.913419 -0.114374 221 246 119
-1.36448 2.4048 -0.0569826 19 117 176
0.662963 1.31292 0.215573 120 232 110
0.700029 1.30131 0.290763 100 15 237
0.288837 1.91238 -0.326878 153 150 38
0.681006 1.26824 0.291803 19 77 232
0.696371 1.34508 0.25817 103 247 46
-1.00089 2.55349 -0.272685 158 86 35
0.652878 1.19922 0.254224 163 77 24
0.691683 1.28836 0.290822 33 52 255
-1.00067 2.5661 -0.253523 98 116 208
-0.299194 0.911659 0.137532 157 214 89
0.526218 0.902789 0.0110229 172 25 233
-1.00635 2.47675 -0.135657 252 152 116
0.675155 1.31309 0.232874 24 231 109
-1.00254 2.47686 -0.142949 140 21 161
0.700462 1.27671 0.326546 149 35 99
0.686947 1.32695 0.259994 138 107 68
0.606216 1.00232 -0.0544907 209 209 113
-0.295352 0.92703 0.135453 146 221 67
-0.272899 0.918547 0.138615 63 195 213
-1.00536 2.55224 -0.271901 140 88 34
-0.504978 2.38165 -0.523778 31 166 252
0.248638 1.2029 -0.0672422 39 204 43
-1.36684 2.40621 -0.0588963 52 150 104
0.717149 0.891694 -0.0645838 17 199 31
1.02975 1.92461 -0.199314 102 69 3
0.294064 1.9201 -0.32539 2 112 112
-1.36232 2.40654 -0.0564699 240 158 70
0.612206 1.43865 0.198656 162 189 51
0.689653 1.33016 0.257563 118 141 150
0.658752 1.29981 0.216154 24 202 131
-0.993762 2.55746 -0.266038 183 17 44
1.03069 1.92534 -0.200925 253 197 25
-1.009 2.56202 -0.258139 251 54 108
0.719541 0.897363 -0.045417 251 104 89
-0.290288 0.888654 0.141776 66 200 209
-0.290195 0.932467 0.127853 53 8 2
0.19292 1.21042 -0.211659 233 158 180
-1.00867 2.47822 -0.139887 157 179 179
-0.299387 0.909027 0.13141 135 166 149
0.195376 1.22867 -0.205579 201 114 117
-0.286109 0.91756 0.136972 131 238 131
-0.556853 0.915254 -0.12915 62 71 172
0.684208 1.32807 0.253536 239 70 222
1.03248 1.94229 -0.205088 92 51 201
-0.954971 2.24696 -0.353845 131 114 110
0.690707 1.33487 0.25943 206 146 30
-0.320211 0.926291 0.129629 217 228 89
0.24988 1.18554 -0.0734422 16 135 162
-0.894483 2.30186 -0.229214 62 34 105
-0.294691 0.896037 0.139043 3 24 138
-0.95168 2.2453 -0.343766 232 76 42
-1.35498 2.4032 -0.0621157 42 7 6
0.251979 1.21189 -0.063688 106 106 218
-0.98832 2.55979 -0.262442 170 78 78
0.653282 1.26559 0.182227 135 165 137
0.685422 1.32265 0.24628 39 145 227
0.624966 1.23517 0.238165 27 247 110
0.60651 1.43618 0.19725 88 6 213
-0.903054 2.30491 -0.21143 244 174 133
-0.26611 0.912429 0.133681 121 251 236
0.663938 1.31186 0.233022 6 1 143
0.599797 1.1959 0.238405 185 88 209
0.678453 1.31361 0.23503 101 180 40
-0.278621 0.892443 0.149201 11 106 235
-0.951597 2.24038 -0.356653 198 87 229
0.587699 0.980843 -0.044745 59 75 233
-1.01944 2.5653 -0.260051 107 172 202
0.60783 1.00505 -0.062599 26 110 217
-0.270344 0.908845 0.144682 153 247 106
0.293274 0.994232 0.0932998 225 159 221
0.536462 0.892966 0.0403435 90 44 136
-0.277912 0.905064 0.136291 47 2 54
0.636197 1.26438 0.211586 119 97 72
-0.994584 2.56226 -0.267355 197 28 151
-0.297128 0.918936 0.13278 44 163 195
0.0735096 1.4908 -0.356558 228 80 185
0.235843 0.964848 0.0223533 130 25 141
-1.35539 2.41562 -0.0857629 107 141 173
0.687784 1.29218 0.302853 138 58 219
0.651827 1.32132 0.237803 118 106 30
0.293408 1.90843 -0.301298 251 169 4
-0.546806 0.914387 -0.121567 37 54 253
-1.00554 2.55074 -0.272853 2 153 110
0.674442 1.32163 0.222714 221 124 9
-0.754018 0.888632 -0.0167069 156 169 198
-0.325243 0.906778 0.139329 94 110 237
0.529179 0.935259 -0.00413731 143 106 190
-0.968813 2.85579 0.00733885 252 82 234
0.255315 1.22424 -0.101254 228 204 191
0.691072 1.31469 0.260235 117 214 14
-0.749597 2.62906 0.0589325 70 114 173
0.677045 1.30025 0.197446 82 30 208
-0.299586 1.09633 -0.529392 194 60 137
-0.313574 2.64712 -0.0805488 194 174 30
0.62143 1.23458 0.22487 196 93 64
-0.495291 2.57701 -0.625568 243 130 68
-0.555869 1.84042 -0.236702 248 222 72
0.665293 1.29413 0.233789 128 173 79
0.551702 1.35781 -0.545957 130 108 40
0.60277 1.70262 0.26657 135 15 255
-0.290341 0.873819 0.156012 171 21 44
0.736046 1.2587 -0.267067 84 155 108
0.58155 0.95867 -0.077821 44 39 122
1.21234 2.33416 -0.176227 192 150 232
0.713725 1.32654 0.292214 219 130 125
-1.31684 2.39278 -0.122974 220 146 221
0.543923 1.56696 0.354826 202 17 142
0.58912 1.4761 0.200499 9 18 68
-1.40116 2.75048 0.0255077 96 239 251
0.19873 1.79712 -0.391296 7 241 44
0.603728 1.44053 0.192678 246 50 79
1.01388 1.28856 0.0583798 198 187 52
-0.903288 0.882026 -0.0465424 102 1 214
0.582581 0.892398 0.076389 203 243 153
0.283037 0.968893 0.0917192 170 78 237
0.605578 1.68778 0.125767 126 219 98
-0.568789 2.64061 -0.0209458 175 33 0
0.588963 1.0249 0.269795 212 77 21
0.707622 1.22672 0.14094 45 89 188
-0.655235 2.79197 -0.529064 172 47 252
-0.575982 2.29366 -0.0097576 40 178 171
0.79851 1.17639 -0.210682 126 27 145
-0.605128 2.8521 -0.218384 252 195 11
0.168986 1.82662 -0.456283 151 249 232
-0.480352 2.66093 -0.661685 225 246 98
-0.541792 3.15773 -0.329534 36 31 203
-1.46149 2.62246 -0.187853 53 212 176
0.639376 1.49463 0.50125 211 149 7
0.670771 1.23319 0.237267 110 75 35
0.899306 0.879096 0.190622 84 127 128
1.0613 1.97747 -0.290923 179 95 45
0.599667 1.16409 0.419147 95 243 145
-0.539792 2.70995 -0.633278 22 176 134
0.801302 1.21887 -0.0270502 233 110 217
1.09646 0.901635 0.00374061 222 29 66
1.26923 1.39922 -0.031397 135 24 50
-1.54444 2.4717 -0.00280949 168 89 167
1.43462 2.24517 -0.141375 209 105 21
1.04151 1.05643 -0.178462 114 1 14
0.574704 0.890818 0.385115 206 169 251
-1.42135 2.90957 0.00163792 105 149 156
0.226672 2.47237 -0.192414 177 93 225
0.673134 1.24332 0.265366 41 214 58
-1.4023 2.76243 -0.106236 169 111 151
1.3474 1.42 0.148171 61 200 15
0.443267 1.00656 -0.689486 208 197 63
-0.254549 0.959502 0.406691 111 3 247
-0.682002 1.74717 -0.141896 219 218 5
-0.695256 1.09881 0.516464 248 47 103
0.14587 1.05132 0.349802 4 145 118
-0.972342 2.36242 0.167523 50 9 146
0.736651 0.844843 -0.172883 102 218 60
1.1773 2.10158 -0.152608 212 210 151
-0.594192 2.56096 -0.0157454 126 234 56
-1.59071 2.44981 0.0769978 164 155 50
0.609389 1.38725 0.194178 64 216 226
-1.31372 2.61739 -0.10722 231 175 38
-0.183485 2.40925 -0.164994 180 21 153
0.715573 1.3726 0.274701 197 34 18
-0.642902 2.83221 -0.378026 147 27 1
-1.04423 2.06051 -0.12242 132 75 184
-0.849114 0.908458 -0.518962 238 68 112
0.565664 1.33749 0.487525 185 238 150
0.912274 1.9257 -0.484859 236 195 198
0.457048 1.13838 0.315442 33 11 136
-1.40044 2.24349 -0.0869493 25 144 2
-0.725734 2.66534 -0.569677 129 61 64
0.541902 1.10359 -0.69123 192 78 80
1.23891 2.06816 -0.320542 133 169 157
1.41031 2.13787 -0.139493 137 17 57
1.03645 1.453 0.236814 229 97 111
1.08858 2.2059 -0.200266 196 213 10
-1.27491 2.47653 0.190389 170 96 241
-0.121201 3.0328 -0.514528 6 68 95
-1.29538 1.01011 -0.126157 124 238 84
0.606594 0.88609 -0.741835 76 52 206
-0.364323 2.26104 -0.311459 88 111 73
0.427838 1.0437 0.165827 72 94 189
-0.457243 0.844904 -0.550347 83 24 241
1.41802 2.24997 -0.211171 114 152 192
-0.331653 2.00987 -0.276347 16 185 165
-0.967378 1.38917 0.297774 164 0 18
-0.609757 2.82955 -0.131652 30 233 82
-1.31847 1.57699 0.106685 100 220 115
-0.646944 2.70371 -0.566827 63 53 238
1.20438 0.990597 -0.058511 106 98 140
0.473454 1.13708 -0.760624 161 125 160
0.974998 0.862666 0.280387 228 16 201
-0.131781 2.33125 -0.32549 30 26 34
0.187658 1.07542 0.0977554 9 101 123
-1.67587 2.28171 0.0299709 178 196 31
-0.843606 0.898878 0.55992 181 145 172
-0.475586 2.55301 -0.479432 152 226 184
-0.317706 2.50278 -0.0924301 233 69 126
0.785474 1.09762 -0.51976 64 2 194
-0.176954 1.32904 0.0982614 193 124 49
-1.54759 2.65091 -0.143915 159 88 80
-0.799566 2.46154 0.0714475 29 244 125
-1.25412 0.941573 -0.635864 104 100 133
-0.505806 2.80533 -0.0774605 148 26 11
0.1826 0.942664 0.0406678 50 27 197
0.0351014 2.39923 -0.379069 133 251 142
-0.510067 2.96253 -0.381766 174 69 165
-0.844083 2.28536 -0.279686 42 177 27
-1.07948 2.72048 0.151458 248 93 215
-0.593762 0.891355 -0.397154 61 7 243
-0.809474 2.81405 -0.581565 87 36 128
0.963342 1.04737 -0.29905 214 207 190
1.29046 1.53388 0.216427 239 185 192
-0.814371 2.25846 -0.36715 54 190 146
1.25804 1.19743 0.321939 170 124 246
0.710157 1.36832 0.304198 95 60 129
0.959733 1.73394 -0.284374 125 129 91
-0.961158 2.67074 0.131511 31 245 115
0.498803 1.0838 -0.769312 208 121 51
-0.497763 3.14205 -0.369542 217 188 122
-0.215027 0.97949 0.140475 65 15 72
-0.364619 1.57434 0.0235264 13 221 72
1.52334 2.38898 -0.110652 218 141 176
-0.901312 2.1296 -0.339029 134 49 243
-0.357162 1.44538 -0.570621 157 253 250
1.01116 0.866341 -0.0306533 116 79 219
0.66765 1.23777 0.30921 181 52 8
-1.56216 2.80098 -0.117666 141 194 137
1.52784 2.40107 -0.0681389 190 88 16
0.254979 1.01811 0.0490069 20 182 243
1.25944 2.01778 -0.262974 59 213 84
-0.549942 1.34401 0.247458 126 161 161
-0.832106 2.86075 0.0109434 84 23 226
0.625622 1.18162 0.219843 246 209 159
0.741595 1.49283 0.457445 220 149 106
-0.505517 2.78165 -0.569768 166 79 95
-0.750101 2.58768 -0.529597 155 96 135
-0.768205 2.88741 -0.597731 182 167 212
-0.685973 2.26506 -0.523616 95 110 242
1.05432 1.53435 0.138241 80 188 231
0.649966 1.02927 -0.454982 173 129 230
-0.941742 2.64384 0.163104 115 68 136
0.0612634 1.44292 -0.329848 187 48 13
-0.47799 2.38778 -0.528328 195 127 27
-0.495946 1.56166 -0.274579 139 196 174
0.242824 1.18328 -0.11063 115 191 2
0.386419 2.36354 -0.062377 34 162 11
-0.200032 1.26709 0.20157 250 175 188
-1.06876 1.8108 0.131607 154 240 11
-0.0992446 1.60702 0.0500786 47 208 236
0.414958 1.01473 0.133822 243 203 205
1.24041 1.08621 0.258061 162 187 37
-0.559736 1.50181 -0.105513 30 33 4
-0.92937 2.50822 -0.342587 212 81 159
-1.10963 2.61366 -0.0989122 51 104 48
0.628635 1.32789 -0.0543458 121 111 34
0.497408 2.06304 -0.465102 66 211 231
1.2729 1.24965 0.0511632 130 253 198
-0.34312 1.26513 0.158946 16 140 208
-0.192664 1.03805 0.344829 100 250 132
0.458749 1.78294 -0.196907 182 215 158
-0.934338 1.07493 0.603451 48 181 149
0.355203 1.18404 -0.529101 190 240 165
0.229038 1.16101 0.00984346 237 13 190
-0.553659 2.37683 -0.015717 72 135 176
0.423859 2.02077 -0.419317 111 63 90
0.48443 0.982542 0.365936 208 44 12
0.519168 1.01464 0.35317 172 29 192
0.49503 1.98317 -0.189035 68 221 187
1.10553 1.45866 -0.00858739 208 129 44
0.678277 0.928622 0.0819091 125 155 61
-0.811006 1.38168 -0.412395 47 249 72
-1.38018 2.7433 0.0893864 60 132 213
0.703134 0.908549 -0.0159914 93 201 8
0.154352 1.00849 0.285235 175 231 66
-1.39956 2.43814 -0.116471 216 60 69
-1.23257 1.63584 0.151397 71 159 158
-0.46504 2.93939 -0.286069 64 70 227
1.16103 1.53336 -0.092548 234 224 4
-0.982838 2.55675 0.11221 176 186 57
-0.643101 0.850742 -0.441486 156 218 34
-0.54725 2.47107 -0.618886 148 160 35
-0.555416 0.854494 0.108779 63 120 161
0.730496 0.884949 -0.0845587 175 182 168
-0.600437 2.82603 -0.041648 134 82 253
-0.319526 1.61973 -0.486805 223 154 196
-0.269666 1.42923 0.155093 105 240 56
-0.196061 1.07177 0.307133 193 61 121
1.15172 2.21584 -0.156652 255 213 141
-0.976405 2.24104 -0.401338 117 77 220
-1.62886 2.52445 0.101632 169 137 26
0.828477 1.24106 0.181533 73 235 204
-1.3514 0.963592 -0.38979 101 145 188
0.143093 1.04664 0.138978 250 207 74
-1.53597 2.73664 -0.043191 252 248 81
0.685891 1.18034 0.249371 87 24 61
-1.33048 2.29864 0.30537 130 188 68
-1.40304 2.40251 0.171701 95 63 209
-0.0856987 2.29592 -0.265312 207 122 163
0.562328 1.64952 0.21953 109 3 26
-0.71327 1.76155 -0.328251 136 108 98
0.319368 1.50376 -0.152145 207 56 48
-1.16164 1.53324 -0.35828 186 62 49
-1.30537 1.0314 -0.63649 143 17 153
1.33719 2.33158 -0.118963 131 111 12
1.2373 2.31038 -0.245334 44 223 240
-1.43253 2.76147 0.210962 219 117 208
0.596574 1.51641 0.376786 103 245 143
0.234382 0.92423 0.396608 98 167 208
-0.591981 0.857288 -0.283792 149 51 11
-1.22257 1.0774 -0.571051 151 116 116
-1.06865 2.49008 -0.302978 69 142 86
0.73427 1.25894 -0.519021 219 136 174
-1.04708 1.00273 -0.444318 251 142 4
-0.359046 2.67474 -0.0935387 197 123 87
-1.28946 2.77416 0.153951 62 137 221
-0.220878 3.04018 -0.41032 122 6 36
-0.835678 1.9192 0.0879715 25 84 56
-0.391718 1.14339 -0.577976 77 35 251
-0.483648 2.69331 -0.396218 22 238 66
-1.33751 1.09746 0.0581589 194 2 121
-0.0459475 1.60282 -0.530544 190 108 183
0.678182 1.37627 0.491083 205 123 89
0.927086 0.874518 0.0973792 1 42 28
1.29338 1.68736 0.095437 200 125 192
-0.332686 2.56894 -0.0894525 12 28 198
0.585211 0.962226 -0.641442 235 168 29
-0.215154 1.88507 -0.0305211 39 86 193
-0.0288843 1.26167 -0.321987 247 244 71
-0.968382 1.37593 -0.562952 236 135 43
0.530011 2.13778 -0.0591222 130 230 13
-0.458118 2.97779 -0.321306 87 110 49
-0.700322 1.46839 -0.223674 109 53 137
-0.326485 2.30522 -0.371845 8 252 68
0.353418 2.43573 -0.510738 27 250 194
0.632517 0.964395 -0.669157 172 19 5
-1.58605 2.43635 0.166515 249 173 149
0.842568 2.46203 -0.307653 182 125 98
-0.387822 2.80318 -0.0494411 205 147 121
-0.734187 2.82709 -0.0177336 97 235 99
-0.419691 1.32575 -0.580686 203 68 102
-0.125642 1.03849 0.290718 120 183 124
-0.680376 2.40515 0.0450024 27 126 127
1.31223 1.38336 0.249747 90 68 193
-0.221107 1.80667 -0.505562 3 27 85
-0.654219 0.853544 0.0900186 96 144 80
-0.00820712 1.33918 -0.0691038 171 88 46
-0.785787 2.29842 -0.070925 203 12 167
-1.54869 2.28512 -0.0298629 128 154 98
-0.767645 1.83458 0.0684075 45 11 13
-0.31028 2.13363 -0.300253 142 196 8
0.602469 0.866781 0.482922 46 81 16
0.530536 0.955872 0.247877 76 5 2
0.959998 0.864133 -0.36304 139 172 107
-0.897205 2.20501 -0.208163 202 15 154
-0.926507 2.85482 -0.0490074 122 203 86
-0.294469 2.56693 -0.398805 179 43 71
0.353107 0.948501 0.124961 233 243 51
-0.839134 1.41961 0.330221 108 70 13
-0.397752 0.852651 0.38001 63 75 129
0.526122 1.8724 -0.130074 37 80 196
1.33163 1.58364 -0.0280723 21 108 79
-0.882045 2.34834 0.0527611 230 187 225
-0.494877 1.30716 0.185568 163 198 249
-0.243968 3.02773 -0.472253 109 152 167
0.290349 1.31726 -0.00519835 205 150 162
-1.53048 2.4613 0.0479018 134 29 156
-1.35818 1.10775 -0.419456 97 109 145
0.210835 1.38889 -0.239509 141 153 104
0.228995 1.33727 -0.173189 189 5 41
-0.990872 2.31387 -0.188058 221 164 244
-1.15044 2.76219 -0.363654 29 217 128
-1.55753 2.30701 0.32548 176 149 15
-1.45645 0.921517 -0.314395 251 119 41
-0.423104 0.927365 -0.655464 137 82 1
-0.953475 2.41773 0.123688 131 40 22
0.553478 1.36263 0.411232 12 252 228
0.249136 1.06667 0.0698293 147 15 39
1.04968 1.40676 0.314837 220 38 167
0.397203 1.50383 -0.0996498 246 27 189
-0.381752 1.66763 -0.0820622 40 227 103
0.584243 1.01724 -0.787744 238 135 231
1.3356 2.32717 -0.209576 174 139 223
-0.912395 2.45864 -0.00525693 197 249 3
1.17847 0.905757 -0.157041 192 124 64
-1.20096 1.01089 -0.612416 97 179 189
-0.392165 0.851877 -0.0210437 32 36 240
-0.405782 0.853006 0.0506019 96 245 5
0.139162 1.96022 -0.0337086 188 16 12
-0.72907 1.25708 0.485918 16 215 11
-0.8018 1.23036 0.509512 121 159 188
-0.164408 1.09701 -0.352138 185 114 74
-1.28767 2.22334 0.307298 178 5 234
0.898469 1.79504 -0.092035 37 173 25
-1.59533 2.77928 -0.0257371 58 25 95
-0.372928 1.06599 0.328187 254 191 44
-0.294677 1.30296 0.219101 149 86 48
1.12628 2.40584 -0.143424 51 78 199
-0.581958 2.24877 0.0318531 240 197 151
1.33514 1.3733 0.0689786 145 56 249
-0.690637 2.49677 -0.57225 107 236 201
-0.0661029 2.25341 -0.151724 95 25 94
-0.17427 2.34624 -0.320421 12 64 104
-1.09171 1.92597 -0.290525 210 51 36
0.495949 1.97154 -0.393816 196 62 251
-0.535274 2.32186 0.0099411 159 125 20
0.649221 1.16756 0.343698 70 129 47
-0.561678 2.08931 -0.447702 150 149 117
0.132688 1.03789 0.0633422 236 49 189
-1.01629 2.77242 0.0727059 142 67 130
0.493459 1.37382 0.320706 160 220 101
0.414502 1.37762 0.232262 236 221 139
-0.585645 1.86155 -0.300989 138 49 66
0.331755 2.33947 -0.564302 174 94 85
-0.545555 2.8095 -0.267907 204 160 160
-1.25084 1.25233 -0.324794 79 54 172
-0.984275 2.83403 -0.394219 112 88 0
-0.171603 1.15164 0.270597 106 214 59
0.712962 1.21406 0.00187933 42 82 218
-1.00379 1.99107 0.0361648 179 50 57
0.776347 1.30253 -0.451674 232 89 134
-1.39922 1.34447 0.0358664 51 161 126
-1.30432 2.55096 0.192914 76 137 58
0.925557 2.08891 -0.473555 71 227 113
0.772195 2.04915 -0.544773 83 174 100
0.838786 2.02555 -0.533491 45 172 204
0.526366 0.879176 0.0397061 130 154 231
1.15488 1.79222 0.0513694 185 248 52
0.170826 1.80573 -0.15003 31 108 8
-1.47899 2.37698 -0.00531502 134 95 156
-1.213 1.07492 -0.41509 31 179 9
0.953558 1.23317 0.037537 174 1 108
0.215467 2.42888 -0.476944 162 204 116
0.863186 1.2044 -0.0246027 40 1 122
0.541155 0.98863 -0.43553 74 39 215
-0.668114 1.05319 0.254741 156 131 253
-0.687472 2.85074 -0.117267 243 114 225
0.745224 0.846317 -0.218211 80 76 86
-1.43648 2.25395 0.363685 1 71 214
-1.41219 2.86774 0.0782162 183 91 20
-0.00669792 1.24822 -0.210706 212 8 145
0.0948059 0.89483 0.166854 121 149 120
0.129475 1.00667 0.185651 16 23 202
-0.251822 2.93446 -0.461539 138 71 149
-0.745334 1.48154 0.265536 212 147 225
-1.28194 2.77037 0.247075 108 52 119
-0.461814 2.71451 -0.28856 149 52 50
0.920182 2.18262 -0.136312 251 185 212
-0.723493 1.63862 -0.108556 215 165 26
-0.811573 0.969022 0.244837 197 123 82
0.423056 2.04675 -0.1569 237 48 77
0.562491 1.24405 0.4632 172 219 154
-0.828701 2.82008 -0.422832 183 111 3
0.734533 1.30886 -0.177408 146 84 18
-0.681781 2.66749 0.0574531 106 1 177
-1.15202 1.85347 0.0764294 83 1 167
0.523362 1.36603 -0.0191872 165 197 41
-0.365192 0.847706 0.159026 98 81 215
-0.154958 2.20666 -0.248541 158 207 155
0.276229 1.48479 -0.401064 96 199 7
1.20395 1.93362 -0.11733 217 13 104
-1.30525 1.67482 0.021659 92 45 107
-1.11269 0.865931 -0.0402378 221 100 138
-0.461446 2.43434 -0.47408 254 7 56
0.598571 0.892093 -0.126256 172 68 72
0.655208 0.894243 -0.12513 131 182 28
-1.03577 2.80986 -0.33871 110 188 182
0.648238 2.0655 -0.0325896 188 50 207
-1.03146 2.70438 0.102681 200 247 252
-0.965101 2.80974 0.108664 186 78 199
-0.768923 1.98635 -0.423986 234 42 140
-0.745202 2.2601 -0.430846 245 95 207
0.915856 1.71712 -0.410979 245 124 236
0.968824 1.92344 -0.424541 129 2 98
0.446746 1.03287 0.354534 242 123 25
0.486085 1.22111 0.382566 120 22 8
-1.15514 2.86094 -0.0995501 128 174 254
-0.735792 2.37094 -0.505136 131 246 161
-1.02919 1.02217 0.58597 155 122 5
-1.08578 0.962688 0.459496 107 29 194
-1.35061 0.942318 -0.312154 54 156 131
-0.425486 2.75046 -0.175685 72 10 220
0.963147 1.08416 -0.262534 30 103 172
-1.11124 2.29979 0.13203 86 18 62
-0.918149 2.54643 -0.276514 25 138 48
0.529526 1.74066 0.132091 78 123 7
0.766718 1.59769 0.38371 105 108 58
0.224739 2.3181 -0.0623368 40 82 179
-1.62509 2.37373 0.00745058 127 250 184
-0.787654 2.53346 -0.0180198 4 108 31
0.474693 1.10483 0.232557 249 197 44
0.453726 1.52226 -0.547992 139 200 209
0.274718 0.955672 0.101441 85 217 116
-0.761675 2.71789 -0.575061 126 194 252
-1.1938 1.70746 -0.313965 52 186 232
0.443435 1.25004 -0.681315 102 97 107
-1.47364 2.31778 0.267054 203 128 46
0.720358 1.15091 -0.600502 180 107 116
-0.520459 0.853659 -0.350491 101 92 139
-0.28101 1.77555 -0.462322 215 145 166
-0.819669 1.60582 -0.306586 52 138 185
0.794926 0.850693 0.286738 28 130 142
0.0414706 1.41647 -0.0946718 8 38 170
-1.50801 2.7192 -0.145926 159 78 193
0.190942 1.1467 -0.206405 237 59 185
0.167274 1.0289 0.410747 197 212 99
-0.871048 2.3136 -0.107387 194 142 251
-0.118009 1.09643 -0.270261 172 40 155
-0.96683 0.908667 0.571298 214 211 163
-0.81821 2.21638 -0.0553947 20 21 37
-0.717126 1.05675 0.370998 209 118 57
-1.17505 1.63867 0.17564 209 100 90
-0.641238 2.5205 0.0407746 74 203 163
-0.748547 0.939309 -0.033712 26 76 16
-1.17406 2.30728 0.231206 161 67 204
-0.636806 2.59984 -0.595509 102 203 122
-0.55017 2.32798 -0.502253 241 170 166
-1.06159 1.13591 -0.379632 153 164 164
0.243589 1.14565 -0.595586 65 52 140
0.442014 0.902278 0.160891 15 127 202
-1.17531 2.49699 -0.302942 79 232 9
1.09224 2.07051 -0.291042 207 103 4
0.622848 0.967928 -0.791971 218 23 132
-0.500968 0.850122 -0.468661 255 86 153
0.485091 0.993141 -0.703646 59 34 151
-0.604096 1.95635 -0.401198 149 79 234
-1.20466 1.89075 -0.177989 153 145 131
-0.645406 3.0903 -0.292549 215 82 253
-0.518166 0.887053 -0.0695187 243 218 213
1.23407 1.65267 0.167171 115 110 23
0.755603 2.37931 -0.131041 109 164 94
-0.307258 2.166 -0.366957 11 254 188
-1.66235 2.35258 0.123991 190 232 45
-0.776467 1.57114 0.110736 99 159 234
-1.56084 2.38499 0.300725 173 172 29
-0.181024 2.40507 -0.126962 184 235 51
0.284128 1.21462 0.137779 231 6 172
-1.04959 0.866568 0.483563 55 122 28
1.16629 1.61646 0.203914 238 185 91
-0.354432 2.51979 -0.0466814 77 82 188
-0.474064 1.70917 -0.222341 77 236 1
-0.403672 2.8739 -0.331037 24 14 183
-0.304176 2.958 -0.341664 208 190 100
0.534874 0.846438 -0.268992 168 14 249
-0.45481 2.2913 -0.11101 131 254 154
-0.357422 1.14887 0.226867 98 155 41
0.527171 1.66334 0.292933 165 200 234
-0.774784 1.64192 0.0541571 6 250 139
-0.168542 0.91841 0.359187 17 15 118
0.517478 1.93006 -0.183174 197 35 82
0.0189405 0.866984 0.180696 24 228 137
-0.0916235 1.33454 0.0481442 187 213 181
-1.39802 1.19616 -0.0797627 27 15 235
1.07553 2.19682 -0.277139 96 126 214
-0.689435 2.7787 -0.556941 48 127 224
0.49663 2.46792 -0.483629 27 23 191
0.635746 1.30555 0.21719 58 82 53
0.129125 2.00171 -0.553506 44 53 11
0.803493 1.00175 -0.520843 94 78 238
-1.44695 2.61445 -0.137377 106 246 98
0.015087 2.53805 -0.338005 119 163 7
-0.360446 1.8163 -0.200051 179 107 138
-1.23107 1.00837 -0.259962 120 70 246
1.05149 1.18066 0.00692037 198 12 115
-0.935333 2.48901 -0.2288 145 219 79
0.640467 1.13199 0.297946 15 197 53
0.405728 2.48285 -0.154975 129 31 194
0.79635 1.22349 -0.291662 246 190 58
-0.280861 1.03997 0.310213 206 43 189
-1.08368 1.05938 0.331334 212 243 96
-1.09318 1.2462 0.310224 66 115 102
-1.3648 2.792 0.154622 206 38 181
-1.33661 1.07179 -0.59147 227 224 33
0.0138492 2.26648 -0.0852818 233 150 248
-1.18987 2.79747 -0.299605 169 140 197
-0.687765 1.18075 0.46953 72 213 212
-1.48581 2.7192 -0.192272 161 12 240
-0.545861 1.98283 -0.109759 218 252 205
0.726661 1.15968 -0.0150019 59 96 67
0.248184 1.0504 -0.386379 218 63 84
0.281434 0.920856 -0.248123 126 196 194
-0.165272 2.07325 -0.0922814 175 159 151
-1.44296 2.31651 0.377578 179 25 172
-1.19809 1.21243 0.233531 126 241 164
-0.975394 0.845944 0.0180789 102 123 142
-0.636622 2.97064 -0.239275 11 101 227
-1.33608 2.55574 -0.181514 154 141 209
-0.673682 2.01058 -0.43925 171 8 215
0.454176 1.09264 -0.52793 190 149 189
-0.665946 1.32395 -0.439546 137 153 13
0.37537 2.13392 -0.0752661 97 169 211
0.380061 2.22941 -0.0480925 155 31 116
0.673566 1.61368 0.175419 213 140 0
-0.822995 2.56878 -0.0318826 85 200 187
-0.575445 1.16277 0.412282 171 169 65
0.584398 2.35584 -0.0571893 75 231 192
-0.879667 2.52285 -0.458469 148 117 173
1.29568 2.46029 -0.111236 237 27 242
-1.33109 1.06669 -0.305909 191 73 141
-1.24364 1.08901 -0.286414 173 151 149
-0.991912 1.27129 0.277883 114 142 69
-0.583235 1.13866 -0.465541 92 180 181
0.535083 1.02122 -0.730938 101 90 16
-0.644104 2.89446 -0.547267 63 50 187
-1.09317 2.70934 0.031757 81 234 83
1.00234 1.8893 -0.194368 221 239 175
-0.478598 1.53673 -0.05246 25 244 247
-0.428248 1.51193 0.0523174 230 15 157
-0.388589 2.23877 -0.403565 69 157 148
-1.6049 2.73349 -0.131329 84 13 69
0.0357914 2.03645 -0.0129229 236 249 41
-0.479421 0.840494 -0.307749 44 165 0
-1.14041 2.6841 0.25416 79 55 4
-1.13303 2.69077 0.193029 189 207 211
-0.681986 1.70654 -0.245899 234 16 2
-0.325672 1.4929 -0.511584 39 90 129
-1.33753 1.56161 -0.222938 101 66 127
1.06506 2.08376 -0.240973 113 170 139
1.31267 1.24316 0.237344 203 241 215
-1.03427 1.17837 0.597394 146 84 15
1.11636 1.66611 0.135155 9 92 159
0.493963 1.66752 -0.0840184 127 45 196
0.387962 1.62397 -0.160019 38 93 112
-0.155115 1.0406 -0.0267362 79 104 19
-1.29656 2.70195 -0.142765 180 218 186
-0.677162 1.11433 0.426232 13 83 167
0.584285 1.44518 -0.0531787 169 75 169
-0.877443 2.80949 0.0556138 2 111 135
-0.968286 0.89115 0.272958 200 50 212
-0.312272 2.67613 -0.184267 240 77 101
-1.07952 1.09272 0.461211 187 113 96
-1.18365 1.42303 -0.455814 218 30 72
-0.0329317 1.78571 -0.554915 224 119 203
0.460389 1.23203 -0.547147 145 146 85
0.635565 1.26281 -0.566446 244 63 36
0.938142 0.917736 0.348646 151 194 146
0.663379 1.44171 0.251613 98 86 196
0.605259 1.46109 0.18908 202 205 98
0.145606 0.966357 0.131107 120 195 240
-0.141573 2.62691 -0.141026 75 161 30
0.142173 1.61845 -0.310299 62 53 126
-0.421493 2.58106 -0.405918 207 28 195
-1.2678 2.40203 0.116807 105 46 113
0.209565 2.49398 -0.288336 43 112 19
0.477786 1.42597 0.212958 42 140 187
-0.0312339 1.58846 0.0250843 196 244 117
-0.405373 2.57752 -0.312101 2 105 148
-1.41684 2.69533 -0.0528283 81 107 75
-1.51585 2.67384 -0.040867 97 79 173
-1.27101 2.66205 -0.0371536 28 252 215
-1.15784 2.7348 -0.277899 63 173 153
-1.32226 1.72917 -0.021109 103 144 224
0.946773 1.32292 0.247362 90 216 248
-0.302854 0.866173 -0.121516 65 231 136
-0.962437 0.848842 -0.172685 25 103 100
-1.05041 2.0173 -0.0405811 91 112 221
-1.47565 0.922805 -0.448829 142 180 182
-0.960029 1.8856 0.115979 2 248 37
1.12233 1.77197 -0.243304 255 137 15
-0.615021 2.76651 -0.454939 97 130 163
0.695864 2.1789 -0.0302088 103 231 151
0.264382 1.09571 -0.0636906 168 67 226
0.505306 1.48636 -0.0542742 155 132 220
-1.05857 1.15601 -0.482048 27 9 150
-1.39276 2.61187 -0.266651 228 100 103
-0.148972 1.9276 -0.00739205 153 250 63
0.357514 2.42797 -0.094429 42 24 129
1.07695 1.7043 0.0357866 121 108 37
0.755973 1.43067 -0.249493 61 105 219
1.31234 2.08918 -0.166237 237 44 252
-0.872005 2.51048 -0.0837352 7 99 193
0.715973 1.40919 -0.138498 219 108 244
-0.696603 2.4103 -0.561814 91 11 206
-0.132185 1.11272 0.183506 50 216 109
-0.432307 2.3339 -0.0269837 246 210 233
0.674594 1.70018 0.331186 118 61 49
0.619638 1.82014 0.24604 163 63 8
0.343174 0.911301 -0.354574 94 209 131
1.2079 1.47692 0.294694 189 237 37
-1.40135 2.85077 -0.0883419 230 176 180
-0.227307 0.845115 0.17947 59 99 85
-0.326944 1.09798 0.288189 90 31 21
1.15263 0.853043 -0.075611 117 132 151
-0.369995 2.80102 -0.729387 157 189 122
0.980987 0.929523 -0.383562 59 7 144
0.645883 1.63371 0.453994 237 10 242
-1.14994 0.949456 -0.271035 123 105 189
-0.841005 2.87989 -0.0964093 129 40 113
0.33741 2.01904 -0.161568 229 21 72
-0.791139 1.76968 -0.37061 160 198 77
0.786971 1.47111 0.380464 164 25 98
-1.19716 2.42 -0.0982877 102 109 9
-0.427814 0.958306 -0.438098 229 253 210
-1.03355 1.43184 0.254632 128 150 219
-1.17847 1.24671 -0.356096 10 126 70
-1.095 1.99224 -0.213181 210 252 238
0.0893819 2.3917 -0.167021 176 123 44
0.852885 2.52213 -0.30864 155 229 236
1.36366 2.21394 -0.264307 141 158 149
-0.966661 1.19774 0.624022 16 15 189
0.987072 1.14667 -0.0829088 70 112 27
-1.06257 1.36684 -0.554181 195 225 245
-1.03188 1.9336 -0.334066 236 5 72
1.22214 1.58461 -0.134403 240 167 198
-1.30993 1.07105 -0.38368 185 138 248
-0.266299 1.6116 0.0456888 159 32 198
-0.80076 2.32971 -0.473848 101 113 65
0.26253 1.20968 -0.478603 249 93 82
-0.892381 1.03438 -0.591994 237 242 244
-1.38726 1.4909 -0.138684 72 81 77
-1.36514 2.43254 0.119629 55 235 205
1.13424 1.13981 0.409347 69 105 224
-1.04288 0.907742 0.156372 95 34 101
0.170411 0.941419 0.179957 97 130 74
-1.55707 2.1895 -0.12805 245 68 125
0.390661 1.71392 -0.270571 20 147 120
-1.40773 2.38613 -0.000471301 11 95 133
0.508803 1.28586 0.316304 106 143 87
0.789846 1.02628 0.378818 137 225 242
-0.933342 2.48859 0.0985682 208 240 85
-1.07024 2.37205 -0.325006 54 21 22
-1.06272 1.09826 -0.533686 124 223 2
-0.0392854 1.33573 -0.412888 97 31 4
-0.456891 2.51486 -0.0183158 138 67 150
-0.657634 1.00773 0.477674 99 32 36
-0.529066 2.688 -0.465635 52 143 178
-0.501771 2.68747 -0.523712 192 171 151
-1.68986 2.32443 -0.0105538 229 123 145
0.615426 1.69707 0.357922 34 94 139
1.35108 1.5737 0.0822742 175 104 15
-1.46116 2.81976 0.278811 168 184 106
-0.174976 2.14918 -0.363742 71 251 94
-0.146683 2.79277 -0.133499 4 182 152
-0.661083 0.904323 -0.195992 190 39 240
-0.519859 2.79605 -0.324512 196 248 18
-1.37528 2.646 0.198189 12 40 155
-0.481638 2.95434 -0.063181 149 110 85
1.47194 2.14299 -0.195656 9 175 25
0.350997 1.96603 -0.330637 190 154 245
-0.347798 2.81467 -0.693141 224 53 80
-1.19823 2.25995 -0.282566 6 70 100
-0.665117 0.933683 0.573008 112 70 154
1.01768 1.91016 -0.308163 81 238 26
0.270635 2.22426 -0.57061 12 204 224
-0.0182066 1.96122 -0.551875 186 84 117
0.997227 1.70539 -0.1682 55 98 174
0.182221 1.95186 -0.526266 98 14 140
0.0513427 1.71125 -0.520126 123 112 155
-1.17241 2.69163 -0.16737 193 251 51
-0.663034 2.08528 0.00658694 15 208 95
-0.519021 2.2936 -0.0705198 72 82 169
-0.0642173 2.47632 -0.33904 97 231 54
-0.406499 1.62928 -0.38099 29 179 133
-0.44708 1.51476 -0.432285 99 164 79
-1.20126 2.74381 0.0739029 147 214 66
0.898939 0.856166 0.272429 7 34 48
-1.13686 1.11781 -0.468939 226 248 22
-1.62675 2.36435 0.205211 151 40 19
0.371798 1.23216 -0.641662 160 127 205
-0.919654 2.75093 -0.43943 103 126 177
-0.39423 2.00352 -0.31681 122 31 131
-0.458949 2.05419 -0.243099 169 182 162
-0.480904 2.05979 -0.366661 150 2 31
-0.49775 1.86528 -0.257742 148 91 112
-0.285896 1.95443 -0.326579 177 47 251
-0.0515082 2.15251 -0.507846 100 99 22
-0.127011 2.11662 -0.46056 156 231 9
-0.912587 1.8984 -0.382266 34 248 136
-0.805043 1.163 0.528792 188 153 85
0.325808 0.999171 0.0105976 18 37 239
-1.20597 1.82915 -0.240603 45 184 51
0.49296 0.883739 -0.0740174 101 120 122
-0.034991 2.43301 -0.331259 18 92 212
-0.879269 2.1273 -0.0346486 11 84 162
0.382402 0.983736 0.348872 71 77 59
0.922403 2.30736 -0.24501 152 112 179
-0.928554 2.48166 -0.33611 53 119 7
1.2161 1.9175 -0.253074 128 212 231
-1.33588 0.944102 -0.501322 227 146 61
-1.30396 0.927034 -0.327469 236 144 203
-1.34473 2.8889 0.101323 189 95 40
0.640962 1.74288 -0.0278122 251 225 200
1.31218 1.50612 -0.0486501 26 162 192
-0.565261 2.80496 -0.365286 111 165 141
-1.21785 0.915706 -0.106618 232 37 91
-0.0691251 2.30389 -0.370342 251 72 199
-1.09706 0.872933 -0.156156 239 27 3
-1.20226 2.37528 0.192371 8 160 11
-0.334806 1.16209 -0.582848 186 96 28
-1.28434 1.6384 -0.268832 176 173 171
-1.11223 2.2707 0.0072883 230 225 107
-0.955474 2.90022 -0.121615 60 13 21
-1.3929 2.41858 0.00956765 236 162 18
-0.695246 0.847568 -0.598037 45 9 122
-0.85669 2.59 -0.509131 238 115 159
-0.840675 2.29222 -0.15831 37 152 70
0.555422 2.24088 -0.0367662 112 143 247
-0.322949 2.40381 -0.0946742 40 79 37
-1.50961 2.87022 0.0828522 10 226 180
1.01209 2.26422 -0.281323 101 20 59
-0.489688 2.69006 -0.0464893 196 109 190
-1.31184 2.4109 0.218544 70 252 18
0.262557 2.63286 -0.342781 212 172 23
-0.653709 1.40283 -0.352576 4 168 57
0.635629 1.43973 -0.523549 137 160 202
-1.3595 1.11779 -0.082852 116 158 172
0.556878 0.924245 -0.0226613 165 228 147
0.552176 0.899826 -0.0163213 180 61 83
0.533546 0.862814 -0.0579094 92 211 197
-0.970995 1.49639 -0.378856 144 111 90
0.654096 0.887669 0.100375 85 42 187
-0.85285 1.2337 0.428499 190 250 42
-0.897094 1.27954 0.321542 118 231 151
0.75825 2.00083 -0.0241347 22 4 134
-1.06267 0.873344 0.0778288 77 51 126
-0.300941 2.5153 -0.179355 214 122 198
-0.872541 0.989667 0.611832 211 228 10
-1.2008 2.58688 -0.162981 214 40 7
0.462568 0.920323 0.145341 153 163 45
0.383501 0.859408 -0.00312085 252 217 227
-0.641254 1.02504 0.351286 35 5 148
-0.207528 1.08807 0.0761498 194 114 242
1.07304 1.68667 -0.142543 97 13 16
-0.980696 2.58544 0.158936 61 134 62
-1.31735 1.03231 -0.0148902 90 143 224
0.682683 1.28308 -0.0843006 9 240 70
0.616701 1.26877 0.0410909 69 169 15
0.594555 1.19091 0.190474 44 30 12
1.30468 2.27954 -0.0933016 207 2 232
0.538142 0.995506 0.299126 192 205 217
1.01874 1.40882 0.0336738 52 36 126
-0.589859 1.86195 -0.18241 227 171 127
-1.36486 1.2794 -0.207294 8 92 108
0.086861 1.45677 -0.211696 80 165 64
-1.04239 1.01883 0.260128 61 190 195
-0.93889 0.932459 0.233152 233 201 219
0.201242 0.92825 0.292734 148 219 234
-0.554451 1.48772 0.0570752 160 255 229
-0.605186 1.39708 0.177034 8 80 200
-0.661309 2.96181 -0.363384 47 10 178
-0.754374 2.87984 -0.326544 218 201 60
-0.972578 2.42766 -0.232898 90 175 148
1.26077 1.13209 0.148906 38 23 18
-0.509616 1.15812 -0.623643 37 75 14
-0.954245 2.1247 -0.145674 123 220 32
1.06087 0.859142 -0.31141 201 113 141
-0.297829 1.76934 -0.044308 107 184 80
-1.09111 2.60674 0.0191754 247 25 7
-0.932931 1.61741 -0.34867 221 180 47
-0.815211 2.7516 -0.496736 207 199 171
0.799208 1.81128 -0.0333146 21 201 199
-0.463261 2.25416 -0.452675 2 129 228
1.54374 2.03733 -0.141943 43 74 64
-1.30472 2.23624 -0.132383 192 20 233
-1.46819 2.21579 -0.112386 99 8 183
0.47272 1.74192 -0.44817 124 132 227
0.500213 0.851864 -0.35855 49 79 83
0.25643 1.50786 -0.282869 52 182 21
0.309672 1.45692 -0.487642 63 150 221
-0.577213 1.56717 -0.19088 109 200 221
-0.540966 1.46397 -0.371384 210 237 108
-0.521581 1.37128 -0.45968 103 212 142
0.976202 2.20643 -0.355136 35 5 114
-0.16872 1.22072 0.0883266 203 149 82
-0.267997 1.30345 -0.506942 202 234 213
-1.17376 0.926571 0.0938595 73 105 114
0.692858 1.04539 -0.635346 201 226 72
0.536866 1.49339 0.291288 15 124 137
-1.34654 1.62763 -0.140482 167 117 169
1.05514 1.65626 -0.058031 146 246 120
-0.324854 1.3873 0.117759 214 76 33
0.73899 2.23454 -0.539254 243 2 75
0.441146 1.98125 -0.291971 47 178 93
-0.884482 2.6447 -0.479498 88 174 42
-0.395278 1.9485 -0.256048 250 193 25
-1.57977 2.85741 -0.0227616 93 142 245
-0.753774 1.54836 -0.215954 143 163 61
0.738219 0.951262 -0.338765 175 59 119
1.02173 1.64378 -0.102017 240 47 169
0.348227 1.20053 0.223464 156 144 25
0.188243 1.17708 -0.315234 29 46 165
0.787726 1.55473 0.317651 252 186 81
0.520675 1.40947 0.15633 142 85 3
0.73552 0.896674 0.0187394 184 227 49
1.02365 0.984715 -0.287736 145 241 102
0.561734 2.51488 -0.275112 104 56 99
0.491579 2.63722 -0.341011 118 4 212
0.0965427 1.05901 0.228395 9 180 83
-1.50894 2.47755 0.20516 100 33 223
-0.902045 1.51376 0.28816 126 83 13
-1.3173 2.90709 -0.0238389 34 10 97
0.348706 0.847843 -0.170205 12 229 20
0.584178 1.57956 -0.561816 84 171 167
-1.12838 2.44053 0.0349672 246 41 131
-1.18391 2.36936 0.109418 222 45 139
-1.16247 1.30784 -0.467814 28 221 212
0.23593 1.2557 0.00677198 138 130 184
0.985816 1.84651 -0.179704 176 157 87
-0.799398 2.12258 -0.416352 96 246 95
-0.65129 2.22749 -0.470651 78 55 138
-0.778011 2.34749 -0.0138324 163 99 139
-0.540078 2.76605 -0.027565 71 108 24
0.0773469 1.59212 -0.426728 220 129 150
-0.925075 2.59189 -0.189101 58 207 29
-0.654978 2.97368 -0.587539 121 3 164
-1.41207 0.925885 -0.573429 192 241 130
0.837117 1.21927 0.303 218 242 1
-0.377702 2.42723 -0.188483 216 166 131
0.407131 1.09357 -0.640947 243 71 138
-1.10054 2.83392 0.0124355 197 210 176
0.563117 1.18055 -0.577619 251 95 12
-1.23004 1.74168 0.0976698 103 183 154
-0.733205 1.77829 0.00665226 142 163 121
-0.73965 1.05704 0.269522 176 152 17
0.986294 2.16046 -0.228894 213 10 31
1.00374 1.01845 0.405312 65 24 141
1.38651 1.97328 -0.177648 98 128 172
1.23326 2.00181 -0.173504 115 103 60
-0.349602 1.15104 0.154625 248 136 216
-0.962658 2.0953 -0.260854 150 70 63
0.945587 1.57486 -0.171486 178 41 196
-0.093947 2.80976 -0.189661 125 135 172
1.18851 1.36474 -0.0203411 169 82 61
-0.308024 2.48054 -0.40087 166 150 21
-0.359306 2.39736 -0.29429 179 119 173
1.0045 0.850584 0.0243736 174 55 226
-1.00433 1.18051 0.35779 236 60 101
1.09305 1.33529 0.375198 152 32 127
-1.01957 2.33094 0.0942616 90 1 221
0.389462 1.33545 -0.551459 160 43 64
-0.839147 1.67826 0.13509 88 55 187
-1.59377 2.54266 0.181272 198 100 200
-0.447965 2.70531 -0.60715 111 79 36
0.18831 2.34554 -0.534715 112 234 174
-0.396066 2.21386 -0.21845 14 164 27
0.775638 1.2674 -0.0757958 165 131 249
-1.34609 1.39194 -0.258752 223 227 97
-1.31579 2.73213 0.264094 75 255 163
-0.691846 2.57294 0.0363584 94 201 172
0.718571 1.0092 -0.519403 175 110 145
-0.737616 0.932949 0.431962 199 30 43
-0.676789 2.79146 0.0288181 6 135 238
-1.44802 2.88619 0.200227 52 7 228
-0.626309 3.1261 -0.359224 56 201 182
0.0342845 2.29325 -0.493493 199 11 82
0.717678 1.41081 -0.441637 169 123 217
0.791581 1.51367 -0.414085 178 117 99
0.875339 1.73259 -0.475819 131 165 221
0.0267611 3.15512 -0.519893 245 212 90
0.765288 0.959822 0.361392 109 137 157
-0.792438 1.0858 -0.565582 61 152 38
-0.383797 1.09416 -0.645 57 36 125
-0.524272 2.68411 -0.0167237 82 35 175
-0.696974 2.71389 0.026917 140 58 2
0.861461 2.11021 -0.0613389 172 147 35
-0.805846 0.853469 0.487851 200 76 254
-0.781459 2.08741 0.0229195 220 216 233
0.306072 1.97438 -0.436144 153 202 244
-1.06376 1.49774 -0.490371 180 99 169
-1.21692 1.447 0.219474 130 171 165
-0.997654 1.14235 0.678562 151 169 123
0.567094 1.0928 0.275291 237 227 127
-0.355195 0.917917 0.0968003 143 55 18
-1.11354 2.85872 -0.175664 142 108 168
-0.452482 1.18129 -0.495936 68 113 190
-0.644376 2.95202 -0.605299 79 193 131
0.868032 0.868682 -0.139007 224 116 49
-0.57263 2.32091 -0.602174 121 91 202
-0.753925 2.82182 -0.421146 107 137 20
-0.311734 2.62578 -0.688498 212 146 168
0.250637 1.93864 -0.170328 11 206 231
0.582112 2.44666 -0.127304 155 27 254
-0.185867 0.906714 0.165837 69 174 24
-0.593946 1.47491 -0.235472 159 26 39
-1.35169 1.04358 -0.521 250 68 56
0.559195 1.50626 0.231006 152 13 227
-0.277987 1.1215 -0.46149 110 228 152
-1.11668 2.58786 -0.355576 237 82 195
0.885459 1.11294 -0.163941 181 230 226
0.294426 1.29988 -0.0754584 185 7 138
0.412003 1.34287 -0.0231384 61 16 159
0.47713 0.877624 -0.806608 9 131 7
0.596013 1.9424 0.0769261 86 188 142
-0.532578 0.884085 -0.226029 123 36 193
0.70743 1.16813 -0.512579 104 66 202
-0.35549 0.893862 -0.346768 219 235 109
-0.490763 2.9877 -0.0691875 195 75 226
0.320512 1.05636 0.146044 62 127 68
0.795869 2.29005 -0.0871597 217 129 25
0.562957 1.05184 -0.52209 132 34 176
-0.198314 0.95049 -0.0998688 165 84 209
-0.110003 3.00123 -0.45561 35 80 212
-0.261224 1.15595 0.350258 253 58 208
1.11627 2.07781 -0.175835 146 83 144
1.11748 1.00893 -0.174739 103 31 37
1.38486 2.21717 -0.106733 22 177 132
0.661941 1.09359 -0.624995 222 35 31
0.529018 2.38392 -0.547517 124 155 54
-0.263333 1.9827 -0.153554 178 89 192
-0.228933 2.21555 -0.31432 161 66 88
-0.291808 1.98325 -0.222552 142 98 66
-1.24882 2.80538 -0.0490421 63 158 126
0.476749 2.5149 -0.397698 38 215 38
-0.768685 0.902547 0.184621 121 255 22
-0.101133 2.59512 -0.184264 16 84 236
1.24024 1.30798 0.35007 40 123 162
-0.206 1.53377 0.0801904 241 13 135
0.856454 2.23939 -0.482011 234 99 36
0.726349 1.84768 -0.546022 131 165 24
0.620715 1.81525 -0.523955 144 78 196
-0.4214 2.62739 -0.212891 242 206 210
0.633224 2.58502 -0.33528 61 212 49
0.300934 1.00371 -0.731381 94 147 17
-0.69443 1.53367 -0.0947669 74 246 159
-0.0246248 2.13739 -0.0418613 211 85 58
-1.19956 2.66382 -0.26184 87 194 133
-0.407416 2.4161 -0.423626 133 45 36
0.847614 2.35586 -0.389253 230 114 29
1.01483 2.04634 -0.340755 221 72 214
-0.354038 2.38218 -0.710373 22 31 243
-0.0939499 1.42111 -0.496456 65 37 99
0.512675 2.13541 -0.532013 150 64 204
-1.0684 2.29395 -0.116993 115 139 157
-1.31699 1.36528 0.16623 242 138 35
-1.28642 1.16014 0.177827 253 58 31
-1.32248 1.13033 -0.228443 146 100 169
1.05675 1.88752 -0.0945723 73 69 158
0.23939 1.00916 0.00336422 59 22 200
-0.704838 1.26421 0.348325 0 106 205
1.16309 1.99245 -0.330437 215 171 165
-0.832155 1.47482 -0.312176 12 165 169
0.378315 1.00888 0.29309 144 36 53
1.11048 1.33432 0.0285582 73 213 81
0.133166 0.950344 0.277989 10 45 220
-1.2879 1.75035 -0.169398 89 110 183
-0.731238 2.89869 -0.210854 190 31 22
-1.01188 1.73389 -0.360915 175 24 53
-1.19832 2.64011 0.0836389 160 200 123
-0.999178 1.15848 0.524352 2 240 125
-1.37718 1.09651 -0.464427 236 77 56
0.545174 2.58667 -0.323182 123 239 148
-0.636816 1.57752 -0.167755 151 9 233
0.065055 2.16162 -0.553811 165 125 62
-0.661504 2.27462 -0.0251314 14 163 150
0.346909 2.52253 -0.28923 105 165 195
0.883818 1.19122 0.377598 142 3 59
-0.646198 0.894302 0.508002 47 30 99
0.687117 1.76781 0.202379 0 233 95
-0.979043 1.55452 0.217549 126 16 92
-1.16297 1.92085 -0.0268672 97 65 85
-1.1376 1.96907 -0.130239 165 49 76
-0.306234 2.79782 -0.112096 207 228 197
-1.21871 2.55666 -0.333358 171 126 105
-0.817632 0.853379 0.336 76 205 121
-1.29731 2.65056 -0.223766 244 222 243
0.225096 2.20034 -0.0369811 70 234 201
-0.872456 2.33307 -0.345494 73 38 47
-0.985237 2.71059 -0.43109 17 136 234
0.204614 2.42163 -0.129021 39 193 70
1.12083 1.94653 -0.0826523 140 228 217
-0.34676 2.64357 -0.717088 136 190 125
-0.612552 2.3019 -0.503416 183 74 143
0.0638525 0.873107 0.0237829 46 7 146
-0.38251 2.6945 -0.3724 163 73 24
0.419363 0.852648 -0.196968 208 3 160
-1.31872 2.27781 0.235576 97 120 198
-0.304304 0.881808 -0.255942 2 112 99
-0.69508 1.50513 0.0783034 152 49 154
-0.851856 1.56024 0.186778 18 229 162
-1.31036 2.67138 0.240821 194 146 60
0.881254 1.66461 -0.158219 196 157 39
-1.32138 1.48144 0.143277 48 192 211
-0.0485462 1.18673 -0.0651976 138 84 142
0.900238 1.6211 -0.258168 65 135 220
-0.497072 0.929568 0.185382 133 80 243
0.33579 2.10338 -0.53531 30 88 15
-0.698205 1.25134 -0.45327 183 118 175
-0.69557 1.13301 -0.57901 253 19 58
-1.24803 0.942326 -0.58601 25 124 255
1.16267 2.12949 -0.333291 236 239 57
-1.21203 2.61211 0.210166 142 40 4
-0.226216 1.21895 0.256282 193 222 221
0.624766 0.926962 -0.0789771 81 139 91
-0.842821 2.30398 0.143676 28 162 185
-0.691326 2.28845 0.064677 156 170 176
0.0743616 1.80294 -0.0249272 187 125 87
-0.0531824 1.80658 0.0245022 128 130 225
0.877312 0.876365 -0.372414 234 168 33
-1.11774 1.2301 0.259118 86 12 122
-0.603246 1.06296 -0.591093 214 53 86
-0.483523 2.90854 -0.423595 50 0 193
-0.839179 1.36119 -0.521245 31 17 200
-1.25203 2.36109 -0.0968056 77 54 55
-0.649546 0.892954 0.0278752 100 21 145
-0.192184 1.71392 -0.536928 242 135 50
-0.208101 1.54446 -0.535043 78 223 174
-0.625962 1.65786 -0.189621 195 40 54
-0.795256 2.43525 -0.47276 166 78 206
0.644045 1.40012 -0.569549 150 99 166
-1.3921 1.4782 -0.00679414 229 144 126
-1.39093 2.51747 -0.0982742 73 172 140
1.03529 0.843742 0.145844 116 135 18
0.745043 1.56232 0.240027 162 209 60
-0.447102 1.35491 -0.497654 107 78 173
-0.500421 2.77174 -0.181538 132 225 86
-1.2823 2.51221 -0.211525 73 59 217
-0.863654 2.48102 -0.472966 169 7 35
0.596926 1.99901 -0.0646098 151 60 162
-0.904883 2.26005 -0.433363 111 124 80
-0.359834 1.01679 0.393917 175 106 220
-1.3665 1.5832 -0.0470531 66 224 76
0.738136 1.32301 0.426112 21 154 34
1.13645 2.2684 -0.26241 17 73 62
-0.450966 1.59148 -0.172773 67 164 6
-0.493267 2.15488 -0.0864803 76 225 127
-1.01316 1.00946 -0.383099 170 207 147
0.728162 1.20459 -0.0460424 246 232 21
-1.46234 2.86989 0.00116318 83 244 227
0.0280059 0.884147 0.391957 75 106 217
0.17068 0.957 0.428086 136 160 107
0.290456 1.02351 0.190486 147 82 183
-1.12208 2.78072 -0.0325688 73 248 197
-0.547426 2.92354 0.0331814 144 15 236
-1.21949 1.8637 -0.0568069 159 232 236
0.897563 1.28996 0.0361646 43 149 236
-1.05533 1.01875 -0.531454 198 2 144
1.19409 2.2781 -0.112772 74 199 181
-0.526366 0.986669 -0.649642 81 45 241
0.589752 1.07657 0.263915 222 165 75
-0.757294 0.994147 0.54829 31 117 239
1.37532 2.06293 -0.21903 161 11 107
1.01537 1.42933 0.0591754 95 20 97
-1.03701 0.857507 0.389288 254 84 206
0.54901 1.89843 -0.462526 39 82 108
0.494794 1.89176 -0.309704 108 69 231
-0.576738 2.78624 -0.618014 55 248 129
0.568302 1.45652 0.44067 9 94 209
-0.288714 0.911059 0.0236232 11 48 58
-0.983454 2.33125 -0.293365 113 140 136
-1.29004 2.26469 -0.21249 144 164 188
0.228077 1.36624 -0.379269 17 33 111
-0.392795 1.75531 -0.283648 70 74 247
-1.77589 2.56214 0.21648 203 119 16
0.459099 0.880819 0.365309 54 75 88
-0.171939 1.72662 0.045024 23 205 183
1.59963 2.18341 -0.128978 238 89 39
0.913645 1.97443 -0.074347 164 89 88
1.19133 1.02126 0.00550906 182 70 62
-0.57561 2.66646 -0.678589 240 98 112
-0.391837 2.37075 -0.0550826 163 94 118
-0.592686 2.44475 0.00211848 96 189 179
-0.405754 2.33107 -0.150091 212 62 232
0.842179 1.18729 -0.403915 185 67 81
0.97748 1.12075 0.416197 114 28 245
0.259024 2.09536 -0.058807 177 18 31
0.738914 2.38611 -0.477896 6 19 123
-0.794746 2.74834 0.0516074 97 4 186
0.938157 2.42694 -0.309562 73 114 194
0.752898 2.44085 -0.253581 118 169 33
0.546915 0.91221 0.206918 127 203 216
0.828349 1.79766 -0.523725 161 123 135
-0.366976 0.970898 -0.579101 122 246 86
-1.03765 1.56221 -0.366587 244 164 213
-0.449397 2.9504 -0.103829 35 123 119
-0.595626 2.99978 -0.31729 134 194 31
-0.937272 2.89086 -0.236237 149 223 149
0.357502 0.898514 0.338734 35 133 177
0.540824 2.26912 -0.565362 74 30 16
-1.37672 1.25548 0.0395349 135 54 76
-1.4034 1.34261 -0.115228 223 95 185
-0.565384 1.07202 0.425686 220 209 236
-0.975085 1.2372 -0.578186 158 10 41
0.367629 1.0062 -0.462426 225 88 181
-0.571398 2.38718 -0.597387 213 63 156
-1.22298 1.42088 -0.361104 55 250 233
-0.563146 0.846654 -0.661232 235 115 46
0.483608 1.13184 -0.671053 24 185 137
-0.563635 2.49589 -0.651189 65 108 31
-1.08778 2.22109 -0.319832 36 22 100
-0.649934 1.37293 0.333344 141 75 157
-0.43973 2.49214 -0.555614 22 134 140
0.48811 0.840397 0.0845864 168 43 209
-0.279717 0.855248 0.415723 205 96 234
-1.32502 2.66821 0.146991 173 12 29
0.572016 1.98278 0.100922 14 223 241
0.642211 1.9697 0.124238 47 98 108
-0.871803 0.850435 0.108986 211 117 148
0.806165 1.42763 -0.148204 162 208 213
-1.57433 2.30958 -0.0741571 120 161 235
-1.4352 2.45805 0.250723 173 227 129
-1.18873 2.26582 0.224672 207 222 126
1.05006 1.81728 -0.243448 40 196 242
0.505979 1.28744 0.0333691 17 229 13
1.14733 1.00324 0.3436 27 11 189
1.1562 0.965682 0.190016 114 142 76
-0.394406 1.43716 0.107078 105 2 32
1.15711 1.13842 -0.0199818 69 78 79
1.07825 1.16984 -0.136263 192 88 215
-0.797933 2.54974 -0.47233 232 28 170
0.651562 2.03515 -0.547229 176 90 250
1.26479 1.86933 -0.132717 219 178 211
0.706976 2.48454 -0.369955 22 55 37
0.225336 0.994835 -0.212254 35 88 32
-1.16822 2.79054 -0.105276 6 152 94
-1.13136 2.66109 -0.270027 201 132 194
0.358022 2.58323 -0.344443 67 22 103
0.240738 2.51219 -0.378203 127 151 247
-0.764408 0.917582 -0.401149 135 91 90
-0.899014 0.867299 -0.309387 156 80 213
-1.31028 2.34493 -0.159562 157 192 192
-1.32664 2.24302 0.098389 163 239 18
0.959 1.08926 -0.104004 245 111 55
-1.48323 2.38822 -0.0845829 100 171 208
-0.45493 0.849522 0.264283 206 211 34
0.670078 1.48209 -0.0766222 91 154 86
0.208451 1.79502 -0.296029 196 53 23
-1.20992 1.01597 0.169314 251 101 11
0.612669 1.26348 0.374059 73 136 102
-0.760419 0.896938 -0.131828 50 99 199
0.0390622 2.41203 -0.273432 165 179 166
0.0598357 2.49846 -0.334501 123 11 217
-1.44751 2.74872 0.115754 92 180 167
3 797 643 795
3 406 609 1092
3 549 1225 1118
3 762 1223 749
3 98 79 255
3 207 733 1165
3 804 696 1237
3 1203 1204 587
3 611 1089 699
3 715 107 1007
3 805 438 529
3 492 88 73
3 549 331 1225
3 1176 909 799
3 1250 675 148
3 61 1 827
3 612 1149 947
3 317 1038 1221
3 769 9 11
3 31 773 1250
3 681 959 958
3 783 1050 659
3 1179 362 881
3 471 1021 1198
3 237 420 1113
3 563 1018 421
3 395 657 656
3 809 301 509
3 473 617 407
3 967 718 774
3 682 683 1135
3 859 1060 213
3 1041 284 740
3 365 626 625
3 877 1229 1182
3 236 410 1118
3 1214 924 393
3 1082 627 1017
3 245 1000 884
3 366 241 1199
3 446 400 931
3 437 766 1034
3 131 1011 1196
3 768 1018 120
3 1251 869 618
3 938 628 882
3 838 624 306
3 928 705 726
3 397 1119 963
3 337 993 666
3 1252 918 600
3 149 66 194
3 327 691 813
3 40 250 128
3 654 734 1073
3 143 181 46
3 524 973 628
3 130 33 862
3 928 726 827
3 1125 818 198
3 543 851 513
3 1200 1003 451
3 57 124 110
3 1109 1038 317
3 747 619 1221
3 627 1137 1010
3 835 1086 373
3 384 947 1149
3 318 190 358
3 837 1241 1255
3 655 462 702
3 1241 467 240
3 678 1255 1254
3 966 745 827
3 115 239 443
3 493 437 1034
3 1150 348 1242
3 83 1091 324
3 350 648 789
3 1121 1179 680
3 504 944 444
3 538 644 262
3 883 844 1197
3 279 1176 787
3 681 391 1098
3 65 1 61
3 1238 685 783
3 1055 899 1130
3 672 122 136
3 1176 534 787
3 109 461 49
3 147 683 682
3 482 989 1181
3 152 843 305
3 853 1216 1194
3 1165 951 265
3 150 1067 1231
3 679 902 1010
3 653 286 877
3 304 913 857
3 116 61 38
3 343 1154 1153
3 909 1035 219
3 970 860 861
3 1069 686 1158
3 500 1117 172
3 883 1197 1071
3 31 41 773
3 509 203 1066
3 612 969 1149
3 274 655 702
3 361 1016 214
3 499 141 806
3 652 1061 1028
3 859 355 840
3 1158 805 1069
3 705 599 50
3 697 1142 656
3 1175 893 742
3 919 1019 246
3 215 796 795
3 151 1221 619
3 79 98 110
3 1004 761 1215
3 771 976 319
3 1067 304 957
3 1141 755 1244
3 753 1163 984
3 1143 248 1091
3 1227 591 133
3 37 120 1018
3 325 827 401
3 760 231 761
3 627 154 1017
3 1122 974 593
3 24 122 99
3 366 620 312
3 222 1145 1106
3 1236 1052 1190
3 542 1020 426
3 1023 630 695
3 706 860 970
3 667 782 356
3 424 610 629
3 1014 336 404
3 221 1198 238
3 374 722 267
3 464 1247 175
3 1191 503 252
3 165 611 699
3 478 1125 212
3 205 223 1183
3 513 665 514
3 988 155 987
3 713 962 1040
3 1087 1233 555
3 479 266 873
3 1194 864 13
3 1172 658 856
3 109 806 842
3 102 107 73
3 143 250 441
3 345 607 1009
3 1158 1084 561
3 281 701 1090
3 574 850 1039
3 806 841 49
3 443 673 477
3 1232 224 1029
3 824 903 1069
3 1211 1031 206
3 519 346 121
3 1190 1052 1042
3 1106 546 311
3 957 174 1231
3 1006 630 565
3 966 923 745
3 1059 1058 1203
3 67 84 143
3 1247 1244 1174
3 1216 305 10
3 444 944 1156
3 732 1193 372
3 672 99 591
3 185 1144 1217
3 177 1029 246
3 74 56 113
3 35 1128 1253
3 833 910 429
3 307 770 1256
3 1127 599 876
3 1119 433 377
3 906 1042 459
3 334 138 520
3 1120 1121 680
3 429 235 329
3 792 569 371
3 1035 493 1034
3 988 758 155
3 548 1128 123
3 841 104 27
3 725 521 269
3 262 1152 538
3 610 803 187
3 478 212 1026
3 1083 283 546
3 122 24 197
3 865 150 466
3 1225 1119 1118
3 392 871 748
3 544 382 830
3 497 819 821
3 305 308 1252
3 824 529 337
3 1049 616 700
3 1110 291 300
3 1167 869 663
3 1108 703 981
3 1077 800 979
3 1205 855 394
3 183 378 653
3 1000 939 638
3 991 544 808
3 349 132 674
3 371 1177 193
3 1068 922 585
3 1023 810 565
3 1140 105 71
3 1040 746 249
3 969 796 215
3 169 777 556
3 81 197 34
3 740 881 256
3 203 509 510
3 991 808 454
3 1052 897 1042
3 1063 629 430
3 1133 347 669
3 460 1195 1043
3 327 408 739
3 848 502 816
3 1186 579 1149
3 281 831 630
3 1248 855 470
3 421 1128 563
3 602 455 980
3 968 448 778
3 816 661 1249
3 313 738 957
3 1110 781 592
3 764 434 396
3 1158 561 805
3 829 1212 435
3 1098 354 769
3 892 336 657
3 1054 1002 59
3 306 624 1111
3 865 913 304
3 628 519 705
3 480 972 647
3 975 948 545
3 149 671 672
3 415 881 596
3 411 486 201
3 389 879 544
3 144 751 1244
3 846 424 847
3 701 1093 522
3 730 199 954
3 575 1176 279
3 556 1064 169
3 587 867 840
3 114 757 937
3 122 51 99
3 518 1245 825
3 445 914 752
3 789 1156 1036
3 1030 263 863
3 1223 523 1247
3 261 725 53
3 797 798 447
3 781 782 592
3 1158 946 490
3 398 953 293
3 936 1198 771
3 1096 512 1002
3 1167 604 869
3 451 794 1092
3 571 914 446
3 95 133 136
3 20 443 1062
3 677 332 836
3 741 1132 512
3 1163 268 167
3 350 480 647
3 885 848 816
3 936 771 319
3 1145 496 903
3 99 136 118
3 167 45 26
3 431 905 293
3 986 1124 878
3 117 32 53
3 494 750 890
3 531 407 792
3 757 1011 1055
3 725 269 1146
3 950 1228 746
3 573 564 655
3 811 876 599
3 444 503 1191
3 858 1115 314
3 1180 208 772
3 22 120 1253
3 196 1186 942
3 700 1033 362
3 1250 64 41
3 492 124 88
3 307 1256 147
3 904 932 913
3 861 860 290
3 28 330 181
3 108 6 153
3 1224 617 331
3 1224 569 617
3 810 949 834
3 648 243 789
3 1162 986 409
3 335 649 535
3 479 1103 924
3 659 1238 783
3 1198 936 238
3 965 1083 1103
3 70 82 63
3 853 387 554
3 282 1116 708
3 984 156 1194
3 42 15 117
3 157 941 326
3 989 1023 695
3 1229 960 173
3 802 883 1071
3 11 449 769
3 1023 989 482
3 918 168 845
3 1095 550 163
3 287 872 641
3 127 280 60
3 867 450 1060
3 358 190 1136
3 12 904 1061
3 1068 585 476
3 790 536 1216
3 809 1154 343
3 230 543 990
3 1213 89 1173
3 330 157 861
3 705 519 599
3 867 1204 971
3 250 671 916
3 31 1250 992
3 1103 873 1102
3 1209 729 450
3 471 374 1021
3 1051 676 958
3 271 550 1212
3 750 1169 1168
3 1210 217 828
3 676 498 231
3 1004 316 1212
3 1034 799 385
3 1202 778 448
3 1040 962 1188
3 343 1153 871
3 233 719 593
3 591 68 39
3 717 419 224
3 101 99 94
3 97 1173 1091
3 1187 1019 347
3 830 1091 242
3 628 938 519
3 812 817 1064
3 441 117 15
3 776 990 1081
3 1055 1011 899
3 280 75 16
3 648 647 276
3 1215 1054 316
3 1193 1046 920
3 866 1131 135
3 994 1106 1058
3 1145 903 744
3 202 508 1195
3 891 472 578
3 254 874 978
3 121 105 44
3 534 1129 320
3 53 1146 117
3 713 247 564
3 276 647 858
3 882 1072 289
3 248 506 933
3 767 835 349
3 340 733 1114
3 321 282 1041
3 433 159 377
3 914 571 412
3 939 1000 272
3 818 576 769
3 243 276 252
3 193 1177 325
3 106 499 1151
3 133 29 33
3 537 463 1120
3 303 584 365
3 494 893 1175
3 168 790 845
3 779 778 592
3 841 453 613
3 1219 1220 1017
3 687 1166 865
3 19 563 1253
3 693 1226 1064
3 716 580 266
3 9 769 576
3 845 1216 10
3 672 1010 1137
3 265 1064 207
3 912 472 891
3 817 396 434
3 315 1242 200
3 346 555 631
3 477 476 585
3 199 730 690
3 196 942 850
3 630 1006 701
3 827 1 751
3 72 8 62
3 78 915 75
3 671 194 96
3 1031 557 416
3 541 405 1173
3 992 148 782
3 1164 776 759
3 234 898 586
3 924 220 393
3 932 70 12
3 471 1070 722
3 662 390 126
3 384 582 947
3 331 549 822
3 1079 921 1240
3 85 113 2
3 117 1146 261
3 244 1243 1242
3 1007 98 856
3 213 597 819
3 809 343 1201
3 1017 1220 1082
3 941 157 330
3 1195 982 839
3 592 667 779
3 530 793 668
3 457 1218 1072
3 489 988 276
3 197 94 118
3 111 136 133
3 373 238 936
3 987 155 574
3 363 14 277
3 422 1172 997
3 794 272 245
3 554 864 178
3 723 485 625
3 630 701 281
3 1151 613 106
3 733 772 1165
3 1012 1092 884
3 191 1028 952
3 921 1075 1037
3 198 694 1003
3 840 867 1060
3 1151 141 843
3 333 493 436
3 1137 1082 916
3 324 1091 103
3 1018 646 421
3 291 439 300
3 686 903 496
3 689 1243 533
3 893 1044 526
3 317 380 422
3 597 721 821
3 416 637 1031
3 968 979 467
3 559 1016 361
3 255 4 85
3 675 937 148
3 1094 359 495
3 1174 888 889
3 590 1190 1032
3 989 848 1181
3 834 1052 1192
3 277 868 363
3 1146 170 302
3 278 1002 1054
3 629 610 1205
3 1122 593 388
3 108 527 6
3 994 546 1106
3 492 102 715
3 45 330 268
3 254 620 1199
3 1010 672 146
3 975 1081 990
3 449 481 769
3 326 970 157
3 1132 435 707
3 78 75 280
3 1090 522 645
3 624 895 896
3 890 750 1168
3 119 31 64
3 829 1012 908
3 847 424 1063
3 1146 302 864
3 864 386 178
3 275 1207 623
3 27 1151 843
3 788 896 895
3 5 146 21
3 400 446 679
3 791 698 756
3 499 806 1099
3 1175 892 494
3 282 898 234
3 933 737 258
3 851 803 296
3 597 633 515
3 1134 1145 744
3 465 634 552
3 314 973 858
3 458 897 1053
3 796 798 795
3 637 416 1016
3 987 936 988
3 1137 671 146
3 803 610 424
3 264 108 153
3 169 1226 777
3 275 1024 974
3 964 137 668
3 1196 217 409
3 1105 706 1222
3 401 523 193
3 263 1030 176
3 811 288 1141
3 738 313 693
3 666 736 930
3 1159 468 970
3 489 858 129
3 120 563 1128
3 856 658 898
3 354 818 769
3 714 182 1152
3 808 199 690
3 1151 842 613
3 161 449 576
3 66 672 194
3 853 153 285
3 45 28 26
3 141 27 1117
3 677 211 822
3 323 210 1028
3 243 252 503
3 766 801 799
3 92 121 69
3 82 1061 652
3 971 450 867
3 629 1144 430
3 35 563 120
3 917 1227 1015
3 1173 1057 888
3 142 1161 632
3 1253 548 123
3 122 68 25
3 856 113 997
3 818 11 576
3 764 378 183
3 380 1221 1128
3 269 166 357
3 308 305 843
3 605 961 635
3 903 651 744
3 675 363 114
3 801 820 800
3 870 1251 747
3 679 446 902
3 108 285 392
3 983 1026 212
3 1065 306 844
3 531 792 383
3 298 127 91
3 912 1001 472
3 1015 1014 400
3 138 581 763
3 398 266 580
3 425 803 424
3 487 794 451
3 977 833 765
3 1216 854 926
3 149 146 917
3 8 72 918
3 835 936 987
3 172 613 453
3 47 519 71
3 209 655 274
3 36 1061 82
3 696 539 1237
3 1021 771 1198
3 1119 1078 433
3 1004 1095 967
3 353 375 823
3 402 1074 691
3 22 1018 80
3 773 1005 119
3 968 778 1077
3 980 455 1133
3 118 24 99
3 1122 912 974
3 588 949 652
3 904 274 702
3 1228 1136 1229
3 857 780 1226
3 142 632 340
3 294 185 583
3 199 879 954
3 346 631 288
3 1009 791 345
3 841 27 141
3 850 570 196
3 61 827 1247
3 859 840 1060
3 576 11 478
3 820 979 800
3 560 649 335
3 1151 55 842
3 864 302 386
3 87 1173 382
3 1145 222 496
3 516 956 664
3 712 926 615
3 595 1255 240
3 622 724 505
3 971 651 1209
3 7 18 21
3 32 117 725
3 723 907 485
3 1107 898 658
3 1045 942 959
3 817 174 738
3 407 427 473
3 939 272 794
3 588 556 897
3 719 388 593
3 269 357 1146
3 306 1111 1126
3 582 568 1048
3 964 526 927
3 1190 1042 906
3 261 181 117
3 16 75 403
3 406 1092 685
3 389 544 830
3 799 534 1176
3 821 721 1243
3 259 375 1138
3 39 68 130
3 1169 439 1168
3 83 1173 1143
3 130 181 167
3 170 486 302
3 961 846 635
3 1016 557 214
3 166 720 1171
3 1170 589 158
3 230 1164 851
3 541 397 405
3 403 915 78
3 48 113 3
3 400 679 1015
3 845 305 918
3 1077 778 779
3 933 506 934
3 512 1132 707
3 92 938 121
3 392 748 527
3 1067 957 1231
3 663 869 870
3 146 7 1137
3 886 643 442
3 502 365 1142
3 290 661 491
3 934 442 622
3 847 220 635
3 874 1199 241
3 1091 1173 103
3 103 1213 324
3 123 1221 151
3 972 1104 1115
3 719 919 880
3 558 727 244
3 382 1173 830
3 510 752 203
3 669 1019 668
3 1254 731 1093
3 758 1185 1184
3 1249 1105 428
3 796 866 798
3 143 197 250
3 476 871 1068
3 1123 994 618
3 1244 811 1141
3 112 92 47
3 184 943 1047
3 679 1010 917
3 62 500 72
3 864 554 387
3 816 697 661
3 258 954 248
3 723 1189 1005
3 596 909 1148
3 1020 646 533
3 1121 423 645
3 945 1031 1211
3 144 1244 310
3 990 572 1167
3 96 1010 671
3 956 767 664
3 444 1156 639
3 764 183 434
3 1127 1244 827
3 756 420 338
3 352 384 784
3 1074 402 791
3 857 693 313
3 87 830 541
3 620 1070 161
3 990 1167 1088
3 1172 422 688
3 872 642 641
3 893 494 890
3 1057 397 963
3 1130 356 1055
3 678 180 1079
3 209 687 413
3 998 1238 511
3 330 28 1163
3 569 923 371
3 586 537 1120
3 1063 430 1214
3 621 1135 594
3 397 935 1119
3 1250 463 868
3 832 758 1184
3 887 772 208
3 1179 740 284
3 320 1129 1130
3 676 391 958
3 591 111 133
3 420 1160 1113
3 250 34 118
3 165 538 611
3 1236 1046 732
3 93 33 29
3 1171 201 166
3 281 1090 626
3 1011 217 1196
3 320 650 788
3 43 84 197
3 366 1199 620
3 124 77 113
3 881 415 256
3 416 557 1016
3 611 659 1089
3 267 722 390
3 466 598 1246
3 8 500 318
3 412 931 298
3 290 706 1249
3 1103 1102 568
3 577 312 576
3 1183 163 550
3 173 717 1182
3 910 977 1152
3 821 819 597
3 769 481 1098
3 530 945 1211
3 549 189 410
3 131 823 899
3 634 597 1060
3 1088 870 484
3 41 992 773
3 1233 1132 631
3 1001 1122 880
3 275 974 912
3 635 728 1123
3 258 438 954
3 278 1208 59
3 1078 544 991
3 574 674 360
3 1200 1070 875
3 501 1092 609
3 822 211 836
3 675 868 14
3 1118 410 189
3 934 622 505
3 327 739 402
3 922 1068 309
3 1246 177 517
3 1085 730 438
3 6 527 853
3 591 862 111
3 364 1112 1206
3 1014 280 127
3 81 122 43
3 192 489 973
3 1064 1226 169
3 111 95 101
3 1139 516 1045
3 732 372 1236
3 897 834 588
3 158 638 1003
3 122 81 84
3 268 862 100
3 837 1240 1241
3 1059 1203 355
3 292 877 1182
3 1177 966 325
3 1249 661 290
3 288 69 44
3 1209 666 930
3 1037 590 369
3 624 999 1111
3 1053 897 556
3 470 948 1038
3 96 917 672
3 205 528 1170
3 1159 466 468
3 302 486 509
3 932 904 63
3 114 363 757
3 1066 809 509
3 842 152 109
3 253 1047 225
3 703 1108 488
3 643 566 795
3 1245 888 825
3 1137 7 149
3 52 76 705
3 660 975 545
3 510 486 411
3 973 524 547
3 950 984 670
3 395 584 295
3 201 1171 411
3 1051 368 566
3 29 167 268
3 916 521 725
3 461 845 10
3 709 299 579
3 189 549 1118
3 396 812 1235
3 330 1163 1080
3 225 1047 943
3 191 1161 323
3 71 852 121
3 35 19 1128
3 924 1103 1083
3 1069 805 824
3 41 119 1250
3 702 1061 904
3 943 184 1024
3 139 107 88
3 813 1009 607
3 470 1038 1109
3 745 677 928
3 133 268 1227
3 431 321 905
3 95 111 862
3 761 774 270
3 1116 452 708
3 975 660 759
3 519 1140 71
3 14 0 114
3 981 703 980
3 843 152 842
3 52 705 30
3 1014 404 280
3 1144 294 603
3 948 1088 484
3 888 204 889
3 959 969 215
3 1147 323 432
3 551 1002 278
3 414 1015 697
3 446 931 571
3 834 949 588
3 250 46 128
3 232 570 850
3 797 442 643
3 1237 539 915
3 692 991 454
3 1058 1134 456
3 117 181 143
3 980 488 140
3 482 1181 949
3 1108 955 1222
3 534 801 379
3 519 92 288
3 288 631 1141
3 794 245 1092
3 653 249 286
3 462 1094 702
3 804 412 696
3 270 694 761
3 112 938 92
3 908 528 205
3 763 342 1171
3 287 894 1048
3 29 268 93
3 287 1148 894
3 468 1013 970
3 363 426 757
3 1070 471 161
3 506 1143 741
3 179 925 714
3 474 606 815
3 390 662 267
3 301 1201 1178
3 220 728 635
3 262 644 910
3 786 333 807
3 392 153 6
3 1138 650 259
3 408 327 515
3 353 986 878
3 744 651 1204
3 667 592 782
3 367 1008 838
3 1224 836 332
3 1217 394 1248
3 854 804 1237
3 410 822 549
3 792 567 383
3 882 289 938
3 508 507 982
3 812 1064 265
3 958 959 368
3 952 495 1235
3 153 853 527
3 1194 387 853
3 1119 236 1118
3 428 1105 932
3 1241 1240 1037
3 685 1050 783
3 1123 605 635
3 435 316 1208
3 194 591 1227
3 188 309 1068
3 799 1034 766
3 0 14 868
3 369 448 968
3 407 531 427
3 1044 927 526
3 341 770 1104
3 1201 343 871
3 1139 221 238
3 59 1208 1054
3 1182 1229 173
3 842 106 104
3 1256 833 329
3 623 943 1024
3 288 112 121
3 846 425 424
3 649 447 1131
3 577 983 351
3 82 652 63
3 135 1131 447
3 535 911 1065
3 181 261 42
3 922 1155 328
3 737 438 258
3 760 694 818
3 274 904 1166
3 1022 1155 216
3 554 1201 392
3 316 435 1212
3 1051 498 676
3 335 535 724
3 695 831 502
3 626 1090 1189
3 1101 688 646
3 1216 806 461
3 566 368 215
3 58 121 44
3 815 179 474
3 885 1249 428
3 529 802 1071
3 569 1224 923
3 354 1098 676
3 999 353 878
3 559 1024 184
3 933 258 248
3 719 233 919
3 1061 70 932
3 87 382 97
3 511 1156 944
3 616 608 436
3 309 1066 922
3 1045 681 481
3 1184 1185 709
3 500 172 1151
3 220 847 393
3 300 992 1110
3 636 1112 1111
3 0 868 277
3 35 37 19
3 484 870 1038
3 862 133 100
3 114 0 675
3 943 297 553
3 47 938 105
3 586 898 1107
3 856 110 77
3 1193 1006 565
3 43 197 81
3 945 1019 532
3 46 40 143
3 577 1026 983
3 977 474 1152
3 694 198 818
3 647 972 1115
3 745 923 332
3 662 374 267
3 156 1163 387
3 1116 1027 452
3 918 843 62
3 1151 172 453
3 559 184 1047
3 1146 53 725
3 647 1115 858
3 452 376 708
3 47 71 121
3 1183 223 171
3 930 736 1206
3 1181 885 428
3 47 92 519
3 372 1192 1052
3 883 802 505
3 42 117 143
3 1184 579 1186
3 856 997 1172
3 946 1158 686
3 45 268 1163
3 572 513 514
3 418 524 705
3 399 1125 241
3 595 1254 1255
3 934 741 273
3 793 530 943
3 47 105 112
3 74 255 85
3 760 761 694
3 842 499 27
3 144 61 751
3 1001 260 960
3 661 697 491
3 52 30 1127
3 630 1023 565
3 967 171 718
3 280 86 298
3 949 1181 640
3 908 205 271
3 1044 1043 927
3 594 683 329
3 1211 225 943
3 1136 960 1229
3 729 1209 930
3 716 603 1027
3 984 1163 156
3 701 1006 601
3 167 181 45
3 403 78 16
3 247 378 764
3 950 1188 753
3 219 385 799
3 232 832 570
3 681 1045 959
3 1089 659 1050
3 900 747 1251
3 1067 150 865
3 685 1092 1239
3 1190 906 1032
3 76 52 599
3 1079 1075 921
3 682 1135 195
3 311 496 222
3 358 918 318
3 493 227 437
3 884 589 908
3 825 963 518
3 186 1076 1131
3 858 489 276
3 602 1013 517
3 772 887 1165
3 168 358 1136
3 995 513 296
3 937 782 148
3 354 231 760
3 1247 827 65
3 86 60 91
3 39 25 591
3 961 605 604
3 1013 602 160
3 944 126 390
3 86 280 23
3 182 659 611
3 573 713 564
3 200 1242 348
3 377 236 1119
3 995 654 513
3 708 376 1007
3 229 762 749
3 326 1159 970
3 115 264 153
3 532 1019 233
3 147 682 684
3 1037 1236 590
3 884 1000 589
3 810 1192 1193
3 1012 1087 1239
3 942 1186 969
3 1244 755 775
3 73 88 715
3 61 116 310
3 591 95 136
3 1155 228 328
3 1033 881 362
3 711 138 710
3 1185 440 299
3 182 611 538
3 364 1126 1112
3 478 9 818
3 6 853 392
3 82 640 36
3 445 446 914
3 40 128 143
3 640 70 652
3 977 765 972
3 215 795 566
3 967 1183 171
3 114 277 14
3 1099 926 578
3 5 18 7
3 715 1217 492
3 414 336 1014
3 1202 1110 778
3 514 665 604
3 36 63 652
3 30 50 726
3 329 235 594
3 15 42 261
3 954 242 248
3 938 47 121
3 355 1203 840
3 102 1007 17
3 846 1073 734
3 589 1000 158
3 244 533 1243
3 1232 598 1231
3 592 778 1110
3 1140 594 235
3 390 722 826
3 1200 451 501
3 1015 491 697
3 891 469 912
3 81 34 250
3 1250 1005 463
3 782 937 1055
3 671 1010 146
3 938 71 105
3 812 952 1235
3 752 914 525
3 1128 1221 123
3 886 1096 551
3 789 1036 925
3 246 1187 517
3 512 273 741
3 79 77 997
3 767 349 664
3 269 720 166
3 175 401 464
3 51 128 130
3 363 868 475
3 48 124 79
3 194 672 591
3 2 74 85
3 1170 774 718
3 775 1143 324
3 122 143 43
3 120 22 80
3 439 1169 907
3 1108 981 507
3 754 524 418
3 1162 409 1210
3 848 885 1181
3 1136 790 168
3 1254 595 807
3 711 1082 1220
3 813 607 940
3 1041 740 905
3 91 127 931
3 780 1105 955
3 668 1133 669
3 996 441 864
3 1170 171 223
3 1214 393 1063
3 472 960 190
3 662 126 504
3 288 811 519
3 132 349 835
3 1230 642 872
3 296 513 851
3 370 557 901
3 1106 311 222
3 581 334 1010
3 715 583 1217
3 487 638 939
3 479 924 1214
3 90 65 827
3 98 715 110
3 1093 731 608
3 344 689 533
3 179 714 1152
3 1169 303 907
3 365 485 303
3 1064 738 693
3 492 77 110
3 311 546 946
3 752 525 203
3 640 12 63
3 629 1205 1144
3 1131 866 186
3 568 1102 1048
3 666 993 736
3 615 614 712
3 721 597 814
3 689 619 821
3 441 40 46
3 477 922 328
3 220 924 728
3 419 1029 224
3 816 502 1142
3 1060 450 634
3 122 25 39
3 432 1161 142
3 177 735 1232
3 1181 428 640
3 1066 1155 922
3 266 1214 716
3 1040 653 378
3 469 1207 275
3 1253 120 19
3 936 976 988
3 440 1185 377
3 155 758 574
3 723 1005 773
3 44 105 288
3 443 264 115
3 1104 765 341
3 1066 188 540
3 1087 829 1233
3 18 672 21
3 403 1175 915
3 684 852 289
3 823 131 1196
3 666 1209 337
3 101 51 118
3 564 359 1094
3 873 266 398
3 94 54 34
3 842 27 843
3 1195 460 202
3 498 1208 278
3 1114 207 1064
3 118 122 672
3 232 574 758
3 797 795 798
3 779 667 1129
3 462 564 1094
3 328 228 477
3 634 633 597
3 642 415 641
3 38 751 1
3 257 176 218
3 1001 912 1122
3 137 1133 668
3 1251 859 900
3 739 791 402
3 807 595 240
3 698 985 743
3 359 764 1235
3 1234 1168 291
3 632 863 339
3 138 763 710
3 77 79 856
3 380 317 1221
3 69 519 112
3 663 1088 1167
3 673 443 1097
3 1165 265 207
3 460 1042 458
3 1151 104 55
3 634 739 633
3 116 38 65
3 908 271 829
3 1084 1158 490
3 326 941 687
3 1223 889 749
3 168 918 358
3 535 649 911
3 253 206 637
3 85 4 124
3 176 1180 218
3 962 573 413
3 191 704 863
3 675 277 937
3 894 575 1008
3 952 812 265
3 1132 1143 755
3 799 801 534
3 498 59 1002
3 1234 1043 1044
3 107 17 1007
3 621 594 1140
3 72 843 918
3 72 500 308
3 941 413 687
3 999 878 636
3 580 1116 953
3 32 1146 441
3 78 280 404
3 994 1058 1059
3 810 482 949
3 1002 1208 498
3 1042 897 458
3 984 1194 536
3 962 1080 1188
3 1170 158 270
3 842 49 461
3 282 708 898
3 943 553 793
3 535 844 883
3 1222 488 1108
3 950 753 984
3 191 323 1028
3 360 835 987
3 1146 357 170
3 582 483 947
3 644 235 429
3 18 149 672
3 436 493 1033
3 785 440 159
3 1163 181 996
3 944 504 126
3 1078 382 544
3 948 975 1088
3 995 803 425
3 1133 137 839
3 990 543 572
3 116 65 90
3 1154 540 1153
3 856 898 708
3 324 1143 89
3 707 1208 1002
3 777 1226 251
3 122 197 143
3 560 724 622
3 652 70 36
3 228 412 1062
3 838 895 624
3 442 560 622
3 1244 90 827
3 228 443 477
3 394 855 1248
3 1083 546 728
3 327 402 691
3 46 117 441
3 1140 346 105
3 389 242 954
3 121 112 105
3 285 854 853
3 160 140 970
3 650 1130 899
3 1104 457 1115
3 803 851 1164
3 1178 178 386
3 470 1109 1248
3 8 918 500
3 1163 996 13
3 293 953 431
3 721 814 1113
3 76 30 726
3 620 254 164
3 935 541 382
3 219 799 909
3 637 559 253
3 1093 180 1254
3 640 428 932
3 145 763 581
3 132 835 360
3 1173 888 1213
3 420 237 338
3 312 577 351
3 158 1000 638
3 122 130 68
3 944 390 826
3 71 938 852
3 675 1250 868
3 935 397 541
3 1096 886 442
3 311 946 496
3 963 825 1057
3 333 786 227
3 475 542 363
3 27 499 1117
3 67 94 122
3 149 194 671
3 946 546 283
3 1142 395 656
3 631 1132 1141
3 1207 469 891
3 455 602 1187
3 1102 872 287
3 554 392 853
3 975 990 1088
3 1109 492 1248
3 334 520 154
3 1210 1160 743
3 299 785 579
3 401 827 464
3 962 413 1080
3 236 754 410
3 1193 732 1046
3 1148 415 596
3 466 150 1231
3 568 965 1103
3 164 978 562
3 1032 1202 448
3 209 1166 687
3 869 604 1123
3 56 2 113
3 146 672 917
3 115 20 239
3 481 681 1098
3 1164 990 776
3 618 994 1059
3 225 206 253
3 775 1213 1174
3 788 650 1138
3 1086 238 373
3 651 903 824
3 770 307 1218
3 213 1060 597
3 248 1143 506
3 632 417 340
3 696 280 539
3 149 917 1010
3 439 907 300
3 452 1027 322
3 1138 999 624
3 432 142 340
3 1105 1222 955
3 1076 1048 894
3 54 67 128
3 1172 1025 658
3 323 1147 210
3 974 901 593
3 1072 307 684
3 345 756 338
3 1180 176 1030
3 568 582 965
3 916 671 1137
3 614 742 1207
3 849 900 497
3 83 1143 1091
3 1084 454 690
3 174 1182 1231
3 221 1139 161
3 208 704 887
3 632 1161 863
3 1100 1225 427
3 1110 992 781
3 931 1014 91
3 840 1203 587
3 271 1212 829
3 1011 426 1020
3 286 1228 1229
3 32 441 53
3 369 1032 448
3 124 2 56
3 550 271 1183
3 900 849 747
3 505 802 933
3 619 747 849
3 471 221 161
3 1202 906 1234
3 265 951 952
3 471 722 374
3 264 285 108
3 678 1240 837
3 788 1138 896
3 841 843 104
3 107 715 98
3 91 1014 23
3 733 1180 772
3 985 1162 743
3 107 98 57
3 122 84 67
3 773 907 723
3 1215 278 1054
3 79 997 48
3 2 124 4
3 572 514 1167
3 1013 1246 517
3 916 1082 521
3 125 461 806
3 227 766 437
3 298 23 1014
3 465 791 739
3 880 1122 388
3 625 485 365
3 784 991 352
3 1193 1192 372
3 627 334 154
3 1136 1228 226
3 375 259 823
3 606 977 972
3 1003 694 158
3 118 51 122
3 24 51 130
3 1045 850 942
3 1170 223 205
3 247 1040 378
3 1045 664 1039
3 1203 456 1204
3 1238 609 685
3 156 13 996
3 691 1074 813
3 949 640 652
3 193 325 401
3 695 848 989
3 556 588 1114
3 1241 369 467
3 890 1044 893
3 830 242 389
3 653 877 434
3 194 1227 917
3 228 1155 412
3 842 806 49
3 1205 610 660
3 644 538 165
3 284 1041 680
3 639 503 444
3 601 180 701
3 608 731 436
3 499 104 141
3 614 1237 915
3 285 153 392
3 280 298 60
3 101 118 136
3 1106 1134 1058
3 1143 1132 741
3 436 731 333
3 656 657 414
3 674 1039 664
3 294 1144 185
3 900 859 819
3 564 247 359
3 942 969 959
3 798 135 447
3 1011 131 899
3 1245 1100 383
3 555 346 1140
3 1213 888 1174
3 1178 1201 554
3 882 628 314
3 1152 474 179
3 1218 1104 770
3 277 114 937
3 897 1052 834
3 1232 1029 177
3 997 317 422
3 279 788 895
3 1157 1021 374
3 1235 764 396
3 330 861 862
3 817 738 1064
3 500 578 318
3 986 353 1196
3 346 69 58
3 96 149 1010
3 686 1069 903
3 219 1035 385
3 246 1019 1187
3 993 364 736
3 454 1084 490
3 814 327 813
3 427 1225 331
3 905 740 1230
3 260 1001 880
3 911 894 367
3 89 83 324
3 620 161 312
3 491 861 290
3 18 1137 149
3 1246 1013 468
3 961 1073 846
3 257 218 733
3 1125 198 874
3 937 757 1055
3 403 892 1175
3 1066 525 216
3 1111 1112 1126
3 833 341 765
3 64 992 41
3 1151 453 841
3 1246 735 177
3 522 1090 701
3 856 255 110
3 1105 1249 706
3 763 720 710
3 81 94 67
3 106 1117 499
3 264 1062 412
3 739 634 465
3 242 1091 248
3 461 841 842
3 130 93 133
3 1102 287 1048
3 851 543 230
3 728 546 994
3 999 636 1111
3 1127 30 76
3 983 212 399
3 107 139 73
3 515 327 814
3 675 0 277
3 69 121 58
3 894 1148 575
3 910 833 977
3 768 120 80
3 940 237 1113
3 413 573 655
3 521 710 720
3 144 310 116
3 367 894 1008
3 1049 700 1121
3 712 1207 891
3 578 190 318
3 274 1166 209
3 255 79 57
3 411 752 510
3 283 692 454
3 52 50 599
3 893 964 742
3 520 1017 154
3 735 598 1232
3 811 599 519
3 1041 282 234
3 655 209 413
3 632 339 417
3 329 683 1256
3 373 936 835
3 857 313 304
3 13 387 1194
3 28 181 26
3 736 364 1206
3 247 713 1040
3 542 1101 1020
3 517 177 246
3 39 136 122
3 159 433 1078
3 403 75 539
3 133 33 130
3 107 57 110
3 1039 674 574
3 532 233 593
3 285 264 804
3 81 54 84
3 298 86 696
3 38 90 751
3 1225 1100 518
3 446 445 902
3 688 421 646
3 1132 755 1141
3 1077 779 800
3 709 579 1184
3 299 440 785
3 1061 63 12
3 1250 148 992
3 427 331 617
3 102 492 139
3 225 1211 206
3 351 399 241
3 848 695 502
3 956 516 1086
3 414 1014 1015
3 1056 1110 1202
3 934 505 933
3 855 948 470
3 384 352 965
3 831 626 365
3 724 560 335
3 677 745 332
3 190 578 472
3 381 586 1107
3 458 202 460
3 90 1244 751
3 234 680 1041
3 1038 870 747
3 557 1031 901
3 286 1229 877
3 798 866 135
3 501 609 998
3 1096 442 934
3 235 644 165
3 899 823 650
3 138 711 520
3 931 60 23
3 514 604 1167
3 295 584 1169
3 699 1089 1087
3 363 542 426
3 637 206 1031
3 1161 191 863
3 481 1139 1045
3 227 820 766
3 966 1177 923
3 53 441 261
3 943 623 297
3 774 1170 270
3 228 1062 443
3 707 1002 512
3 162 781 992
3 59 551 278
3 1150 1242 1243
3 250 84 54
3 539 75 915
3 1008 279 895
3 1007 102 139
3 826 722 1200
3 24 94 51
3 357 166 201
3 1004 1215 316
3 742 297 1207
3 1253 563 35
3 1204 867 587
3 1129 667 356
3 370 214 557
3 966 827 325
3 425 846 734
3 1100 1245 518
3 1104 1218 457
3 483 1076 186
3 489 192 758
3 1160 348 1150
3 722 1070 1200
3 48 997 113
3 1086 835 767
3 357 201 486
3 863 263 339
3 426 1011 757
3 758 192 1185
3 815 350 789
3 1252 308 918
3 1188 950 746
3 244 1242 315
3 1029 419 880
3 250 40 441
3 929 418 928
3 121 852 1140
3 259 650 823
3 205 1183 271
3 129 858 973
3 91 23 696
3 87 1091 830
3 20 527 264
3 759 776 1081
3 576 1026 577
3 1065 367 306
3 965 692 1083
3 924 1083 728
3 435 1233 829
3 1123 604 605
3 958 368 1051
3 37 1253 80
3 586 381 537
3 139 255 1007
3 375 353 999
3 1193 920 1006
3 461 10 152
3 660 855 1205
3 61 144 38
3 1139 1086 516
3 1110 1056 291
3 98 255 856
3 383 889 204
3 270 158 694
3 720 763 1171
3 575 909 1176
3 1093 701 180
3 195 621 852
3 128 34 197
3 970 1013 160
3 822 1224 331
3 649 1076 911
3 1140 699 1087
3 1028 210 652
3 321 1116 282
3 477 673 748
3 594 1135 683
3 3 124 48
3 895 838 1008
3 210 588 652
3 101 94 128
3 500 918 308
3 944 826 511
3 432 323 1161
3 749 567 229
3 684 195 852
3 807 820 786
3 1095 163 967
3 1241 240 1255
3 843 841 806
3 874 241 1125
3 657 395 295
3 1140 852 621
3 614 1207 712
3 38 1 65
3 1219 711 1220
3 1247 1174 1223
3 613 172 1117
3 955 251 780
3 779 1129 800
3 875 198 1003
3 1185 299 709
3 881 1033 596
3 484 1038 948
3 37 1018 22
3 690 1085 1084
3 1134 744 1204
3 1107 658 1025
3 423 1120 1005
3 1092 245 884
3 777 508 1053
3 445 411 1171
3 417 339 263
3 508 202 1053
3 522 1093 608
3 591 136 68
3 649 1131 1076
3 525 1066 203
3 1234 1056 1202
3 147 1256 683
3 132 360 674
3 936 319 976
3 1061 932 63
3 1187 602 517
3 761 231 1215
3 51 101 128
3 447 649 560
3 466 1231 598
3 107 102 255
3 301 809 1201
3 115 153 527
3 379 801 800
3 982 981 839
3 688 422 421
3 756 1160 420
3 754 418 929
3 941 1080 413
3 425 734 995
3 581 902 145
3 295 750 657
3 714 925 659
3 928 827 745
3 567 792 371
3 62 843 500
3 1217 1144 1205
3 1175 742 915
3 762 371 523
3 641 415 1148
3 660 545 855
3 1136 190 960
3 875 562 978
3 1103 479 873
3 927 1195 839
3 167 26 1163
3 338 237 940
3 618 1059 1251
3 1228 950 670
3 901 532 593
3 697 656 414
3 1191 504 444
3 804 264 412
3 756 743 1160
3 690 730 1085
3 292 1182 174
3 700 362 1121
3 1046 1037 1075
3 49 125 109
3 717 260 880
3 902 581 1010
3 63 904 70
3 710 1082 711
3 262 910 1152
3 591 25 130
3 1043 1195 927
3 1089 1050 1087
3 859 1251 355
3 981 980 839
3 743 1162 1210
3 891 578 926
3 822 929 677
3 350 647 648
3 676 1098 391
3 1035 909 596
3 826 1200 998
3 81 67 54
3 1148 909 575
3 1163 26 181
3 1205 394 1217
3 124 102 17
3 88 124 139
3 704 191 952
3 847 635 846
3 334 627 1010
3 542 1025 1101
3 491 1015 1227
3 95 862 1227
3 885 816 1249
3 1042 460 459
3 553 297 793
3 1085 438 561
3 17 139 124
3 478 818 1125
3 1137 5 21
3 255 57 1007
3 832 1184 1186
3 90 144 116
3 968 1077 979
3 77 492 113
3 986 1196 409
3 970 140 488
3 10 109 152
3 1191 374 662
3 329 833 429
3 1216 926 1099
3 680 234 586
3 707 435 1208
3 1170 718 171
3 643 1051 566
3 9 449 818
3 957 738 174
3 1075 920 1046
3 1033 616 436
3 461 109 305
3 77 3 997
3 827 726 1127
3 143 128 67
3 1150 1113 1160
3 55 613 1117
3 255 56 4
3 841 613 842
3 1128 421 380
3 751 61 1247
3 1230 873 398
3 1178 386 301
3 398 293 905
3 680 586 1120
3 164 562 620
3 21 149 7
3 438 805 561
3 814 813 1113
3 934 273 1096
3 458 1053 202
3 992 907 773
3 1018 344 646
3 384 965 582
3 312 351 366
3 1207 297 623
3 181 330 45
3 991 784 1078
3 64 773 119
3 9 576 449
3 535 1065 844
3 1150 721 1113
3 584 1142 365
3 725 250 916
3 731 1254 333
3 279 787 788
3 167 29 862
3 576 478 1026
3 633 739 408
3 73 715 102
3 596 1033 1035
3 442 797 560
3 1212 1095 1004
3 79 110 113
3 1024 275 623
3 41 31 119
3 740 256 1230
3 283 454 490
3 765 1104 972
3 94 81 250
3 400 1014 931
3 686 496 946
3 315 200 828
3 714 659 182
3 547 236 1185
3 794 487 939
3 1139 481 449
3 181 42 441
3 933 802 737
3 383 1100 531
3 498 278 1215
3 151 619 689
3 139 492 73
3 908 589 528
3 645 1049 1121
3 464 751 1247
3 619 849 821
3 938 289 852
3 653 1040 249
3 974 1024 361
3 185 1217 583
3 992 782 162
3 646 344 533
3 1062 527 239
3 569 792 407
3 509 486 510
3 69 288 92
3 684 682 195
3 1049 608 616
3 929 822 754
3 1000 245 272
3 1194 156 996
3 696 86 91
3 20 1062 239
3 376 294 583
3 476 477 748
3 292 434 877
3 89 103 83
3 519 69 346
3 255 139 17
3 20 264 443
3 333 1254 807
3 729 634 450
3 352 991 692
3 37 80 563
3 528 589 1170
3 892 750 494
3 125 49 841
3 395 1142 584
3 239 1097 443
3 140 602 980
3 269 521 720
3 603 716 430
3 347 1019 669
3 108 392 527
3 305 600 918
3 1151 499 500
3 11 818 449
3 1019 919 233
3 32 725 261
3 675 14 363
3 967 163 1183
3 1127 50 52
3 1076 894 911
3 525 914 1022
3 951 704 952
3 180 678 1254
3 1201 871 392
3 861 1227 862
3 906 459 1234
3 1117 842 55
3 862 268 330
3 820 240 979
3 113 856 79
3 351 983 399
3 508 982 1195
3 802 529 737
3 522 608 1049
3 1112 1124 985
3 756 698 743
3 1003 487 451
3 113 110 255
3 489 758 988
3 926 712 891
3 503 789 243
3 1191 252 988
3 370 901 974
3 551 59 498
3 174 817 292
3 460 1043 459
3 18 5 1137
3 165 699 1140
3 1219 520 711
3 529 1071 337
3 1173 89 1143
3 1135 621 195
3 1182 717 224
3 1050 1239 1087
3 1129 356 1130
3 1008 575 279
3 1236 1190 590
3 759 660 187
3 824 337 1209
3 1224 332 923
3 815 925 179
3 21 146 149
3 143 84 43
3 1238 1036 1156
3 117 46 250
3 200 1160 828
3 467 369 968
3 5 7 146
3 1185 236 377
3 107 110 88
3 1071 1197 337
3 662 504 1191
3 183 653 434
3 136 130 25
3 1025 688 1101
3 1215 231 498
3 685 609 406
3 875 978 874
3 843 806 1117
3 941 330 1080
3 483 582 1048
3 893 526 964
3 336 403 404
3 844 306 1197
3 1138 624 896
3 913 865 1166
3 256 415 642
3 981 982 507
3 316 1054 1208
3 1078 784 785
3 74 113 255
3 37 22 1253
3 42 143 441
3 417 263 257
3 445 342 902
3 1139 238 1086
3 404 16 78
3 457 1072 1115
3 1217 1248 492
3 423 1005 1189
3 187 803 1164
3 1179 1121 362
3 1107 1025 475
3 370 974 361
3 889 383 749
3 695 630 831
3 89 1213 103
3 960 260 173
3 298 696 412
3 1059 355 1251
3 926 1237 615
3 431 953 1116
3 1206 985 698
3 36 70 1061
3 806 109 125
3 1196 353 823
3 584 303 1169
3 386 302 301
3 535 883 724
3 754 236 547
3 13 156 387
3 678 1079 1240
3 1007 583 715
3 811 1244 876
3 1156 511 1238
3 727 558 217
3 250 672 671
3 1023 482 810
3 692 965 352
3 1083 692 283
3 536 1194 1216
3 777 251 507
3 160 602 140
3 543 513 572
3 1006 920 601
3 869 1123 618
3 1188 1080 753
3 1094 1028 1061
3 276 243 648
3 564 462 655
3 752 411 445
3 830 97 541
3 544 879 808
3 1070 620 562
3 1239 1050 685
3 1204 651 971
3 1090 423 1189
3 889 1223 1174
3 1082 1137 627
3 850 574 232
3 1116 580 1027
3 113 85 124
3 91 60 298
3 1120 463 1005
3 224 1232 1231
3 890 1168 1044
3 696 23 280
3 157 970 861
3 1030 863 704
3 1075 1079 920
3 367 838 306
3 759 187 1164
3 283 490 946
3 1040 1188 746
3 1021 1157 771
3 725 117 250
3 1057 1173 405
3 498 1051 886
3 958 391 681
3 677 929 928
3 253 559 1047
3 761 967 774
3 728 994 1123
3 567 762 229
3 678 837 1255
3 430 1144 603
3 212 1125 399
3 1095 1212 134
3 563 80 1018
3 790 226 536
3 1146 864 441
3 188 1153 540
3 1087 1012 829
3 558 244 315
3 239 673 1097
3 3 77 124
3 255 17 107
3 788 787 320
3 16 539 280
3 1173 83 103
3 908 1012 884
3 834 1192 810
3 875 1003 1200
3 69 112 44
3 449 161 1139
3 710 521 1082
3 101 136 111
3 314 1115 882
3 1080 1163 753
3 679 917 1015
3 337 1197 993
3 188 1066 309
3 347 1133 455
3 1108 251 955
3 558 315 828
3 1058 456 1203
3 118 94 24
3 250 54 94
3 868 381 475
3 12 70 904
3 342 445 1171
3 959 215 368
3 996 864 1194
3 780 857 913
3 768 689 344
3 1064 556 1114
3 58 288 105
3 300 907 992
3 489 129 973
3 854 1237 926
3 980 1133 839
3 654 1073 513
3 570 832 1186
3 1094 1061 702
3 571 931 412
3 918 62 318
3 1236 372 1052
3 533 244 727
3 750 295 1169
3 2 4 74
3 194 917 96
3 704 951 1165
3 550 1095 134
3 1253 151 689
3 1113 813 940
3 910 644 429
3 15 261 441
3 440 377 159
3 322 376 452
3 1045 1039 850
3 962 713 573
3 822 836 1224
3 463 537 868
3 995 734 654
3 4 56 74
3 459 1043 1234
3 221 471 1198
3 919 246 1029
3 1076 483 1048
3 345 791 756
3 1225 518 963
3 1109 997 492
3 997 1109 317
3 495 359 1235
3 777 1053 556
3 919 1029 880
3 813 1074 1009
3 558 828 217
3 698 729 930
3 421 422 380
3 906 1202 1032
3 498 886 551
3 749 383 567
3 639 1156 789
3 940 607 338
3 359 247 764
3 50 30 705
3 935 382 1078
3 922 477 585
3 733 207 1114
3 310 1244 1247
3 1072 684 289
3 806 1216 1099
3 93 862 33
3 1240 921 1037
3 875 874 198
3 55 104 106
3 354 676 231
3 547 524 754
3 197 118 128
3 297 742 964
3 1067 865 304
3 320 1130 650
3 404 539 16
3 548 1253 1128
3 590 1032 369
3 365 502 831
3 21 672 1137
3 927 137 964
3 1101 646 1020
3 1094 952 1028
3 291 1056 1234
3 121 346 288
3 1117 806 141
3 192 547 1185
3 800 1129 379
3 456 1134 1204
3 257 263 176
3 607 345 338
3 670 984 536
3 196 570 1186
3 727 217 1011
3 628 705 524
3 706 290 860
3 674 664 349
3 200 348 1160
3 925 1036 659
3 230 990 1164
3 855 545 948
3 13 864 1163
3 562 875 1070
3 927 839 137
3 698 930 1206
3 887 704 1165
3 99 101 591
3 10 305 109
3 357 486 170
3 1011 1020 727
3 149 96 66
3 1068 871 1153
3 588 210 1147
3 1055 356 782
3 651 824 1209
3 1019 945 668
3 336 892 403
3 102 124 255
3 721 1150 1243
3 175 1247 523
3 923 1177 371
3 1062 264 527
3 672 250 118
3 525 1022 216
3 670 536 226
3 512 1096 273
3 987 574 360
3 748 871 476
3 500 843 1117
3 261 1146 32
3 763 145 342
3 775 755 1143
3 347 455 1187
3 555 1233 631
3 961 604 665
3 1197 1126 993
3 1014 127 298
3 664 1045 516
3 1127 726 50
3 1086 767 956
3 626 1189 625
3 726 705 76
3 232 758 832
3 361 1024 559
3 56 255 124
3 1209 450 971
3 307 1072 1218
3 249 746 1228
3 717 880 419
3 1151 841 141
3 1157 976 771
3 408 515 633
3 136 25 68
3 57 98 1007
3 1163 28 45
3 1243 689 821
3 276 988 252
3 128 46 181
3 423 1121 1120
3 831 281 626
3 165 1140 235
3 614 915 742
3 1033 493 1035
3 130 197 24
3 513 1073 665
3 1112 985 1206
3 534 379 1129
3 797 447 560
3 1020 533 727
3 579 785 1149
3 532 1031 945
3 127 60 931
3 1088 663 870
3 523 371 193
3 748 673 527
3 466 1246 468
3 97 382 541
3 673 239 527
3 780 251 1226
3 812 396 817
3 250 197 84
3 1166 904 913
3 791 1009 1074
3 495 952 1094
3 1159 326 687
3 93 167 862
3 554 178 1178
3 1159 687 865
3 478 11 9
3 87 541 1173
3 1222 706 970
3 1239 1092 1012
3 1244 775 1174
3 322 603 294
3 501 451 1092
3 1025 1172 688
3 1038 747 1221
3 768 1253 689
3 367 1065 911
3 538 1152 182
3 1132 1233 435
3 1180 1030 208
3 766 820 801
3 637 1016 559
3 1230 872 873
3 1134 1106 1145
3 1227 861 491
3 307 147 684
3 972 480 606
3 531 1100 427
3 1027 603 322
3 1159 865 466
3 467 979 240
3 1036 1238 659
3 488 1222 970
3 912 469 275
3 836 211 677
3 1140 1087 555
3 547 192 973
3 412 1022 914
3 404 403 539
3 1147 340 1114
3 412 1155 1022
3 1245 204 888
3 888 1057 825
3 1138 375 999
3 180 601 1079
3 527 20 115
3 717 173 260
3 601 920 1079
3 130 136 39
3 976 1191 988
3 826 998 511
3 1244 1127 876
3 506 741 934
3 226 1228 670
3 1225 963 1119
3 381 1107 475
3 1216 853 854
3 86 23 60
3 821 849 497
3 807 240 820
3 638 487 1003
3 500 499 578
3 501 998 1200
3 303 485 907
3 854 285 804
3 552 698 791
3 181 441 996
3 947 483 186
3 986 1162 1124
3 427 617 473
3 878 1124 636
3 1066 540 809
3 703 488 980
3 57 79 124
3 565 810 1193
3 815 606 350
3 985 1124 1162
3 552 634 729
3 393 847 1063
3 175 523 401
3 136 99 672
3 461 152 1216
3 227 786 820
3 366 351 241
3 537 381 868
3 1160 1210 828
3 830 1173 97
3 251 1108 507
3 997 3 492
3 819 859 213
3 824 805 529
3 768 80 1253
3 873 872 1102
3 398 580 953
3 409 217 1210
3 857 1226 693
3 227 493 333
3 314 628 973
3 341 1256 770
3 417 257 733
3 197 130 94
3 583 1007 376
3 254 1199 874
3 672 66 96
3 1116 321 431
3 1051 643 886
3 1231 1182 224
3 609 1238 998
3 761 1004 967
3 95 591 101
3 925 815 789
3 61 310 65
3 902 342 145
3 785 159 1078
3 65 310 1247
3 1197 306 1126
3 123 151 1253
3 308 843 72
3 497 900 819
3 879 389 954
3 130 122 94
3 301 302 509
3 130 128 181
3 133 862 29
3 1115 1072 882
3 976 1157 374
3 617 569 407
3 932 1105 780
3 76 599 1127
3 856 708 1007
3 1147 1114 588
3 124 492 110
3 612 866 796
3 1027 580 716
3 1252 600 305
3 733 218 1180
3 507 508 777
3 340 417 733
3 503 639 789
3 34 54 118
3 152 305 1216
3 1117 106 842
3 947 186 866
3 1091 87 97
3 808 879 199
3 816 1142 697
3 931 23 298
3 657 336 414
3 125 841 461
3 668 945 530
3 954 438 730
3 1191 976 374
3 615 1237 614
3 424 629 1063
3 1149 784 384
3 773 64 1250
3 645 522 1049
3 1241 1037 369
3 312 161 576
3 1245 383 204
3 121 1140 519
3 768 344 1018
3 88 110 715
3 35 120 37
3 698 552 729
3 960 472 1001
3 640 82 70
3 561 1084 1085
3 814 597 515
3 104 843 141
3 1228 286 249
3 520 1219 1017
3 883 505 724
3 680 1179 284
3 1168 439 291
3 1189 723 625
3 354 760 818
3 809 540 1154
3 1168 1234 1044
3 320 787 534
3 1096 1002 551
3 318 62 8
3 1246 598 735
3 100 95 1227
3 58 44 112
3 475 1025 542
3 341 833 1256
3 881 740 1179
3 208 1030 704
3 133 93 268
3 610 187 660
3 361 214 370
3 34 128 94
3 19 120 1128
3 340 1147 432
3 817 434 292
3 1136 226 790
3 19 37 563
3 128 118 54
3 304 313 957
3 943 530 1211
3 668 793 297
3 775 324 1213
3 1149 785 784
3 977 606 474
3 869 1251 870
3 55 106 613
3 808 690 454
3 716 1214 430
3 1214 266 479
3 27 104 1151
3 993 1126 364
3 188 1068 1153
3 995 296 803
3 1163 864 387
3 759 1081 975
3 100 1227 268
3 932 780 913
3 550 134 1212
3 519 938 112
3 58 105 346
3 438 737 529
3 350 606 480
3 969 612 796
3 523 1223 762
3 287 641 1148
3 1031 532 901
3 36 640 63
3 791 465 552
3 700 616 1033
3 822 410 754
3 133 95 100
3 932 12 640
3 371 762 567
3 827 751 464
3 297 964 668
3 376 322 294
3 93 130 167
3 880 388 719
3 657 750 892
3 591 130 862
3 216 1155 1066
3 254 978 164
3 398 905 1230
3 305 845 461
3 113 492 3
3 499 842 104
3 119 1005 1250
3 790 1216 845
3 51 94 99
3 1090 645 423
3 90 38 144
3 928 418 705
3 1112 636 1124
3 1119 935 1078
3 1057 405 397
3 992 64 31
3 256 642 1230
3 334 581 138
3 1073 961 665
3 905 321 1041
3 1046 1236 1037
3 58 112 288
3 162 782 781
3 612 947 866
3 1034 385 1035
3 1149 969 1186
3 499 1099 578
