ply
format ascii 1.0
comment Created by Open3D
element vertex 623
property double x
property double y
property double z
property uchar red
property uchar green
property uchar blue
element face 1148
property list uchar uint vertex_indices
end_header
0.195981 -0.04896 1.45803 36 167 80
0.204035 -0.01406 1.504 32 113 130
0.151956 -0.03852 1.49476 119 111 69
0.143902 -0.07343 1.44879 63 197 143
0.187927 -0.08387 1.41207 193 178 31
0.240006 -0.05941 1.42131 30 195 151
0.24806 -0.0245 1.46727 47 74 161
0.258521 -0.15137 1.62448 186 109 145
0.212986 -0.17867 1.62063 29 188 203
0.209703 -0.22047 1.58783 228 167 25
0.251955 -0.23497 1.55888 28 228 129
0.29749 -0.20767 1.56273 144 36 24
0.300773 -0.16587 1.59553 158 198 131
0.311962 -0.2453 1.76343 199 155 104
0.273554 -0.27224 1.76465 32 152 200
0.274133 -0.31483 1.74495 86 135 168
0.313119 -0.33048 1.72403 251 1 211
0.351527 -0.30354 1.72282 34 193 216
0.350948 -0.26095 1.74251 24 225 42
0.361009 -0.29935 1.90736 187 89 163
0.329752 -0.3235 1.91238 205 254 127
0.332897 -0.36221 1.90363 9 191 12
0.3673 -0.37678 1.88987 146 60 24
0.398558 -0.35263 1.88485 91 236 190
0.395413 -0.31392 1.8936 41 228 1
0.40367 -0.31996 2.04602 179 209 98
0.379233 -0.33983 2.05314 84 148 207
0.383615 -0.37181 2.05215 234 57 147
0.412433 -0.38391 2.04404 135 137 182
0.43687 -0.36404 2.03692 69 192 88
0.432488 -0.33206 2.03791 147 77 164
0.439085 -0.31495 2.1724 17 63 120
0.420942 -0.32996 2.17995 250 197 196
0.425431 -0.35403 2.18337 105 129 41
0.448065 -0.36309 2.17925 148 180 69
0.466209 -0.34808 2.1717 202 219 53
0.461719 -0.32401 2.16828 42 204 28
0.467263 -0.29239 2.28243 199 80 103
0.454776 -0.30264 2.289 170 73 146
0.458561 -0.31893 2.29393 115 96 13
0.474833 -0.32498 2.29228 245 25 86
0.48732 -0.31474 2.2857 248 123 111
0.483534 -0.29844 2.28078 49 89 7
0.493529 -0.26398 2.38876 124 155 184
-0.195981 -0.04896 1.45803 67 106 154
-0.204035 -0.01406 1.504 61 207 21
-0.151956 -0.03852 1.49476 97 108 188
-0.143902 -0.07343 1.44879 248 211 37
-0.187927 -0.08387 1.41207 167 138 166
-0.240006 -0.05941 1.42131 124 41 62
-0.24806 -0.0245 1.46727 192 6 161
-0.258521 -0.15137 1.62448 142 80 138
-0.212986 -0.17867 1.62063 0 60 237
-0.209703 -0.22047 1.58783 162 185 89
-0.251955 -0.23497 1.55888 173 216 71
-0.29749 -0.20767 1.56273 214 239 173
-0.300773 -0.16587 1.59553 79 123 55
-0.311962 -0.2453 1.76343 73 29 20
-0.273554 -0.27224 1.76465 120 33 225
-0.274133 -0.31483 1.74495 170 142 31
-0.313119 -0.33048 1.72403 230 37 189
-0.351527 -0.30354 1.72282 9 255 34
-0.350948 -0.26095 1.74251 165 53 252
-0.361009 -0.29935 1.90736 184 25 243
-0.329752 -0.3235 1.91238 137 33 56
-0.332897 -0.36221 1.90363 196 15 224
-0.3673 -0.37678 1.88987 122 63 30
-0.398558 -0.35263 1.88485 155 98 198
-0.395413 -0.31392 1.8936 146 32 65
-0.40367 -0.31996 2.04602 158 145 210
-0.379233 -0.33983 2.05314 209 44 172
-0.383615 -0.37181 2.05215 103 210 230
-0.412433 -0.38391 2.04404 86 92 124
-0.43687 -0.36404 2.03692 60 210 195
-0.432488 -0.33206 2.03791 79 92 25
-0.439085 -0.31495 2.1724 32 110 56
-0.420942 -0.32996 2.17995 205 65 44
-0.425431 -0.35403 2.18337 21 224 185
-0.448065 -0.36309 2.17925 23 106 96
-0.466209 -0.34808 2.1717 210 247 193
-0.461719 -0.32401 2.16828 102 197 100
-0.467263 -0.29239 2.28243 106 199 105
-0.454776 -0.30264 2.289 95 181 64
-0.458561 -0.31893 2.29393 65 248 166
-0.474833 -0.32498 2.29228 133 81 242
-0.48732 -0.31474 2.2857 70 65 210
-0.483534 -0.29844 2.28078 92 204 242
-0.493529 -0.26398 2.38876 216 254 66
0 0.74677 0.480141 240 74 62
0 0.69594 0.0716602 178 26 69
0 0.76605 -0.382622 134 150 57
0 0.75637 -0.697115 158 216 106
0 0.70596 -0.844987 219 104 174
0 0.56436 -1.02432 125 189 143
0 -0.47871 -1.18456 242 203 70
0 -0.557681 -1.11883 206 154 175
0 -0.21245 -1.27189 82 75 159
0 0.00559 -1.24229 219 223 147
0 0.04725 -1.25053 38 106 142
0 0.32539 -1.21639 228 119 136
0 0.22699 -1.33154 219 203 53
0 0.12471 -1.38415 75 192 184
0 0.06835 -1.39103 206 231 124
0 -0.12595 -1.38708 2 84 158
0 -0.09934 -1.33279 198 200 131
0 0.06071 -1.29556 214 87 184
0 0.06633 -1.2851 1 219 90
0 -0.16584 0.773691 79 244 179
0 -0.34432 0.68694 27 136 8
0 -0.41691 0.595735 222 89 124
0 -0.45502 0.392716 33 2 27
0 -0.45159 0.458722 164 232 117
0 -0.4371 0.531551 112 193 79
0 -0.601301 -0.198258 44 110 230
0 -0.560052 -0.0200948 37 195 162
0 -0.50833 0.170269 129 187 30
0 -0.632826 -0.760349 1 218 77
0 -0.30754 -1.39093 168 20 12
0 -0.3053 -1.35556 6 188 107
0 -0.43257 -1.38813 45 96 85
0 -0.43198 -1.35928 252 203 228
0 -0.61862 -1.34184 66 84 141
0 -0.618698 -1.36624 170 18 6
0 -0.757944 -1.31333 172 222 233
0 -0.764947 -1.34009 148 153 34
0 -0.851951 -1.31674 44 185 243
0 -0.847836 -1.29784 55 216 143
0 0.46697 1.52199 116 211 224
0 0.63122 1.43131 132 86 100
0 0.764 1.15971 89 58 203
0 0.72583 0.635064 213 252 162
0 0.67257 0.777421 50 1 225
0 0.67051 0.84568 102 74 116
0 0.76494 1.09674 164 253 52
0 -0.07421 1.07616 13 172 147
0 -0.16767 1.51433 37 86 169
0 -0.14797 0.855273 244 125 112
0 -0.09615 0.898727 204 23 156
0 0.7097 0.950789 191 146 148
0 -0.86201 -1.30937 217 106 1
0 -0.860162 -1.29777 72 156 90
0 -0.865549 -1.30386 125 6 64
0 -0.13397 1.26491 12 35 144
0 -0.28255 1.42091 218 158 10
0 -0.21973 1.38027 33 193 106
0.0116531 -0.29255 1.44956 110 139 202
0 -0.29883 1.45697 173 101 217
0 -0.30738 1.44511 198 32 125
0 -0.30444 1.43656 34 158 75
0 -0.30406 1.45401 197 199 98
0 -0.25836 1.40935 203 58 41
0 -0.13972 1.44609 234 191 54
0.0951094 0.76716 0.508721 237 245 253
0.296863 0.55558 0.0266537 44 235 226
0.321096 0.60084 -0.751139 116 72 153
0.388358 0.37796 0.629787 2 107 99
0.450392 0.15958 -0.682928 244 0 40
0.340607 -0.23865 0.160094 87 118 190
0.228555 -0.942519 -1.05651 188 149 7
0.320832 0.19154 -1.15461 222 130 61
0.105512 0.1382 -1.29828 234 86 33
0.0350953 -0.0008 -1.37253 248 27 147
0.0494194 0.06795 -1.30759 61 103 22
0.0325365 0.07246 -1.28599 216 27 6
0.388018 -0.906685 0.514553 180 206 127
0.339005 -0.923253 0.376743 29 43 215
0.183518 0.03751 0.761113 45 152 69
0.0972274 -0.11441 0.77315 181 13 117
0.180235 -0.36299 0.682262 215 227 163
0.0760984 -0.42263 0.561324 115 77 174
0.282678 -0.601626 -0.642663 169 134 5
0.157589 -0.831358 -1.02248 20 177 57
0.0994983 -0.632932 -1.05324 52 44 68
0.0696259 -0.646782 -0.813443 103 94 127
0.207005 -0.97984 -0.843285 226 180 169
0.207005 -0.910634 0.578889 6 198 251
0.189687 -0.934668 0.404975 2 87 233
0.14472 -0.46509 0.192716 25 43 18
0.278272 -1.49063 0.291663 54 120 7
0.398157 -1.32085 0.510644 191 165 213
0.40235 -1.40802 0.630159 68 144 169
0.441801 -1.39172 0.57394 243 91 15
0.334134 -1.31003 0.561522 250 249 3
0.116624 -1.48802 0.381664 24 124 98
0.16554 -1.32789 0.539726 140 57 169
0.163103 -1.45467 0.641538 231 74 131
0.268843 -1.41356 0.680714 222 119 222
0.420879 -1.49063 0.34005 12 47 157
0.430749 -1.49063 0.61145 187 162 53
0.268714 -1.49063 0.689782 36 206 223
0.364121 -1.49063 0.671464 142 96 202
0.181488 -1.49063 0.656094 114 209 25
0.12642 -1.49063 0.520383 54 238 165
0.464535 -1.49063 0.487168 50 242 168
0.0120918 -0.3058 -1.36218 87 219 90
0.192334 -0.0765 1.62045 10 174 201
0.220798 -0.00119 1.53411 241 241 177
0.241195 0.03235 1.48803 30 154 186
0.157875 0.65655 0.919393 228 18 204
0.122224 0.34003 1.55909 111 155 100
0.276944 0.03971 0.940783 28 169 110
0.325657 0.32636 1.42509 101 5 108
0.240403 0.28962 1.50256 133 185 95
0.227683 -0.08041 1.03287 123 208 82
0.259502 0.13632 1.3023 213 183 43
0.25652 0.22197 1.3884 58 13 116
0.317597 0.21732 1.30624 134 14 195
0.350359 0.23387 1.22494 129 171 21
0.292151 0.24338 1.33085 64 215 106
0.280501 0.24621 1.35285 57 27 207
0.282283 -0.0641 1.5373 49 102 11
0.192391 -0.12133 1.63381 23 102 79
0.248029 0.04068 1.29137 114 21 14
0.279599 -0.03508 1.46953 54 140 222
0.185618 -0.14424 1.63316 97 225 207
0.160887 -0.19585 1.60579 122 14 245
0.132392 -0.18429 1.60287 189 248 197
0.339419 0.24669 0.963865 141 16 80
0.27367 0.47904 0.791301 138 211 28
0.23877 0.73481 1.23847 20 252 4
0.398756 0.60083 1.045 72 68 52
0.32771 0.38347 1.02797 219 185 39
0.264911 0.69005 1.06503 80 215 104
0.325686 0.7053 1.23062 122 178 123
0.349919 0.65181 1.22402 170 179 0
0.392916 0.61046 1.1992 187 61 195
0.263143 0.71907 1.25433 54 224 6
0.414419 -0.501625 0.287792 179 184 123
0.311578 -0.542796 0.230907 86 1 78
0.262112 -0.928274 0.320789 208 126 73
0.291948 0.21661 1.34563 193 170 106
0.473277 0.12235 0.252287 206 185 169
0.181071 -0.20817 1.47975 41 123 109
0.285332 -0.13736 1.59742 135 219 168
0.249962 -0.17956 1.47899 91 179 192
0.239975 -0.15706 1.61888 71 118 173
0.18373 -0.2139 1.56931 69 205 79
0.307564 0.49294 1.19292 238 88 4
0.291339 -0.14611 1.54479 23 178 188
0.273186 -0.14782 1.58199 248 211 155
0.283033 -0.1599 1.51527 137 229 136
0.247619 -0.17747 1.49731 212 215 107
0.210105 -0.19777 1.51123 58 29 71
0.240277 -0.16106 1.59717 110 163 39
0.214192 -0.18665 1.58889 205 241 231
0.201018 -0.20471 1.55261 214 88 243
0.00501075 -0.857409 -1.30438 182 245 144
0.0894768 -0.17043 1.42327 162 102 226
0.0262431 -0.25098 1.43182 158 245 99
0 0.23072 1.66942 216 126 160
0.217888 0.07093 1.5096 145 150 47
0.198778 0.1216 1.56194 113 2 210
0.163512 0.17624 1.61614 241 42 144
0 -0.18649 1.57651 230 81 82
0 -0.595297 -0.425111 60 110 79
0 -0.581651 -0.59975 141 104 111
0 -0.602152 -0.67881 55 247 183
0 -0.636629 -0.812785 218 104 18
0 -0.623327 -0.942456 4 150 190
0 -0.601147 -1.05803 224 157 177
0.364597 -1.32262 0.371393 174 53 118
0.281654 -1.33099 0.316264 22 32 163
0.168228 -1.33216 0.379695 250 242 35
0.448066 -0.27223 0.591183 178 55 161
0.339131 -1.31482 -0.887625 234 53 244
0.328957 -1.49063 -1.07067 39 155 93
0.30557 -1.32262 -1.03933 201 20 155
0.275108 -1.31003 -0.813371 129 211 57
0.30609 -0.95126 -0.889676 170 32 115
0.303156 -0.947542 -1.01314 66 26 71
0.173812 -1.32649 -1.09446 89 87 46
0.219246 -1.49063 -1.11906 57 87 209
0.382775 -1.39172 -0.836785 103 77 203
0.405509 -1.49063 -0.923557 252 228 84
0.371723 -1.49063 -0.799275 67 91 27
0.343324 -1.40802 -0.780566 117 124 226
0.305095 -1.49063 -0.739261 246 144 93
0.209817 -1.41356 -0.730011 111 11 201
0.0673938 -1.49063 -0.890342 176 43 14
0.106514 -1.32789 -0.844437 83 127 139
0.0887601 -1.49063 -1.02906 241 249 192
0.104077 -1.45467 -0.769187 146 72 154
0.122461 -1.49063 -0.754631 153 131 44
0.209687 -1.49063 -0.720943 32 46 73
0.106689 -1.32608 -1.03103 220 135 225
0.41986 -0.26234 -0.531828 135 94 225
0.463972 -0.28731 -0.934459 23 48 114
0.431219 -0.30862 -0.720432 162 76 117
0.594604 0.23603 -0.417288 215 81 233
0.16897 -0.23558 -1.23161 139 194 63
0.419909 0.13612 -0.995888 151 212 97
0.0855806 -1.21495 -1.02676 122 189 21
0.132455 0.74411 1.10297 20 173 243
0.25757 0.42516 1.46337 121 127 7
0 -0.20366 1.61868 39 170 73
0.177148 -0.10946 1.67952 222 34 186
0 -0.3981 1.90214 164 55 168
0 -0.18116 1.87066 212 120 12
0 -0.00694 1.81019 172 121 60
0 -0.43066 1.6853 52 51 133
0 -0.27929 1.64278 194 44 72
0 -0.23265 1.6239 91 222 239
0 -0.610081 1.90672 68 228 78
0 -0.618762 1.71347 37 77 247
0 -0.795548 1.88749 161 44 7
0 -0.787241 1.71652 45 195 71
0 -0.956083 1.85299 51 246 178
0 -0.937628 1.70397 69 152 180
0 -1.08893 1.81116 242 20 203
0 -1.07088 1.679 198 143 197
0 -1.20439 1.76402 36 17 16
0 -1.18363 1.64534 207 48 183
0 -1.29876 1.70558 86 91 242
0 -1.24437 1.61403 87 178 235
0 -1.35034 1.61682 208 26 231
0 -1.27466 1.56551 149 63 212
0 -1.36287 1.53375 8 133 8
0 -1.28012 1.51968 194 55 0
0 -1.34632 1.46126 156 11 220
0 -1.27384 1.48805 241 249 45
0 -1.331 1.41787 64 106 7
0 -1.26318 1.46495 247 105 112
0 -1.32321 1.4074 166 204 251
0 -1.26354 1.45334 97 9 201
0 -1.31519 1.41256 225 4 21
0 -1.26843 1.45345 10 211 128
0.13426 -0.424 1.71275 125 146 150
0.149553 -0.2532 1.69021 101 149 56
0.119756 -0.40073 1.82186 102 249 77
0.130757 -0.20188 1.79769 15 124 34
0.130942 -0.04747 1.75197 210 69 217
0.14178 -0.23496 1.61563 8 19 89
0.118794 -0.28663 1.63475 46 11 108
0.107924 -0.4323 1.67545 37 69 36
0.10366 -0.624827 1.7201 165 199 171
0.103632 -0.609568 1.83469 155 100 254
0.0869276 -0.793462 1.72127 47 129 99
0.0873053 -0.784945 1.82352 92 228 62
0.0718812 -0.945004 1.70835 99 149 67
0.0724464 -0.950509 1.79946 185 137 71
0.0593133 -1.07266 1.68294 180 61 199
0.0600393 -1.0767 1.7655 43 200 125
0.0495671 -1.18324 1.64704 207 38 101
0.0503538 -1.19317 1.72127 234 101 234
0.0456921 -1.24488 1.61416 213 143 243
0.0464913 -1.27582 1.67311 46 30 139
0.041637 -1.27434 1.56502 100 213 112
0.0424446 -1.32004 1.59996 165 128 165
0.0389093 -1.27916 1.5191 1 149 44
0.039724 -1.33061 1.53105 37 36 121
0.0374226 -1.27012 1.4862 148 171 13
0.038237 -1.31876 1.47419 45 169 41
0.0384018 -1.26043 1.46432 148 159 209
0.03919 -1.30992 1.45152 230 89 245
0.0358204 -1.26114 1.45502 222 140 145
0.0366633 -1.30591 1.44353 99 152 133
0.0301012 -1.26692 1.45559 131 60 172
0.0318309 -1.30357 1.44721 105 25 232
0.375891 -0.26406 -1.18485 146 106 18
-0.0116531 -0.29255 1.44956 225 252 176
-0.0951094 0.76716 0.508721 70 215 136
-0.296863 0.55558 0.0266537 101 248 146
-0.321096 0.60084 -0.751139 252 28 212
-0.388358 0.37796 0.629787 69 53 52
-0.450392 0.15958 -0.682928 174 23 100
-0.340607 -0.23865 0.160094 183 7 140
-0.228555 -0.942519 -1.05651 10 185 105
-0.320832 0.19154 -1.15461 220 18 5
-0.105512 0.1382 -1.29828 229 10 185
-0.0350953 -0.0008 -1.37253 249 205 19
-0.0494194 0.06795 -1.30759 177 110 16
-0.0325365 0.07246 -1.28599 105 132 129
-0.388018 -0.906685 0.514553 92 12 199
-0.339005 -0.923253 0.376743 243 135 8
-0.183518 0.03751 0.761113 38 190 133
-0.0972274 -0.11441 0.77315 5 60 46
-0.180235 -0.36299 0.682262 59 141 22
-0.0760984 -0.42263 0.561324 92 86 11
-0.282678 -0.601626 -0.642663 127 190 75
-0.157589 -0.831358 -1.02248 47 209 145
-0.0994983 -0.632932 -1.05324 64 252 159
-0.0696259 -0.646782 -0.813443 1 138 184
-0.207005 -0.97984 -0.843285 26 206 42
-0.207005 -0.910634 0.578889 87 230 15
-0.189687 -0.934668 0.404975 6 77 183
-0.14472 -0.46509 0.192716 137 37 112
-0.278272 -1.49063 0.291663 102 62 94
-0.398157 -1.32085 0.510644 176 57 48
-0.40235 -1.40802 0.630159 251 174 173
-0.441801 -1.39172 0.57394 108 127 49
-0.334134 -1.31003 0.561522 90 18 77
-0.116624 -1.48802 0.381664 185 197 162
-0.16554 -1.32789 0.539726 52 169 79
-0.163103 -1.45467 0.641538 154 83 69
-0.268843 -1.41356 0.680714 176 71 182
-0.420879 -1.49063 0.34005 194 168 35
-0.430749 -1.49063 0.61145 75 194 41
-0.268714 -1.49063 0.689782 182 185 119
-0.364121 -1.49063 0.671464 168 77 245
-0.181488 -1.49063 0.656094 167 104 63
-0.12642 -1.49063 0.520383 113 200 183
-0.464535 -1.49063 0.487168 181 205 4
-0.0120918 -0.3058 -1.36218 205 89 211
-0.192334 -0.0765 1.62045 55 183 199
-0.220798 -0.00119 1.53411 190 103 25
-0.241195 0.03235 1.48803 242 57 105
-0.157875 0.65655 0.919393 148 239 137
-0.122224 0.34003 1.55909 216 55 51
-0.276944 0.03971 0.940783 86 245 204
-0.325656 0.32636 1.42509 195 137 107
-0.240403 0.28962 1.50256 36 54 98
-0.227683 -0.08041 1.03287 54 76 185
-0.259502 0.13632 1.3023 83 158 234
-0.25652 0.22197 1.3884 178 170 221
-0.317597 0.21732 1.30624 127 65 189
-0.350359 0.23387 1.22494 103 67 4
-0.292151 0.24338 1.33085 81 217 224
-0.280501 0.24621 1.35285 135 228 220
-0.282283 -0.0641 1.5373 223 241 109
-0.192391 -0.12133 1.63381 176 161 179
-0.248029 0.04068 1.29137 60 176 19
-0.279599 -0.03508 1.46953 186 30 189
-0.185618 -0.14424 1.63316 235 161 217
-0.160887 -0.19585 1.60579 103 22 68
-0.132392 -0.18429 1.60287 73 68 42
-0.339419 0.24669 0.963865 10 149 147
-0.27367 0.47904 0.791301 242 108 51
-0.23877 0.73481 1.23847 147 54 121
-0.398756 0.60083 1.045 52 67 102
-0.32771 0.38347 1.02797 253 137 154
-0.264911 0.69005 1.06503 8 255 194
-0.325686 0.7053 1.23062 17 209 172
-0.349919 0.65181 1.22402 47 196 158
-0.392916 0.61046 1.1992 241 33 32
-0.263143 0.71907 1.25433 135 130 27
-0.414419 -0.501625 0.287792 149 35 141
-0.311578 -0.542796 0.230907 186 20 184
-0.262112 -0.928274 0.320789 189 139 209
-0.291948 0.21661 1.34563 96 146 75
-0.473277 0.12235 0.252287 43 127 243
-0.181071 -0.20817 1.47975 246 69 99
-0.285332 -0.13736 1.59742 107 112 207
-0.249962 -0.17956 1.47899 16 122 131
-0.239975 -0.15706 1.61888 1 37 196
-0.18373 -0.2139 1.56931 104 81 180
-0.307564 0.49294 1.19292 21 116 180
-0.291339 -0.14611 1.54479 153 239 28
-0.273186 -0.14782 1.58199 159 103 67
-0.283033 -0.1599 1.51527 127 227 236
-0.247619 -0.17747 1.49731 164 239 132
-0.210105 -0.19777 1.51123 77 253 16
-0.240277 -0.16106 1.59717 91 253 98
-0.214192 -0.18665 1.58889 120 254 248
-0.201018 -0.20471 1.55261 48 152 101
-0.00501075 -0.857409 -1.30438 80 85 58
-0.0894768 -0.17043 1.42327 163 27 93
-0.0262431 -0.25098 1.43182 164 192 133
-0.217888 0.07093 1.5096 186 53 198
-0.198778 0.1216 1.56194 23 176 241
-0.163512 0.17624 1.61614 156 180 236
-0.364596 -1.32262 0.371393 252 238 116
-0.281654 -1.33099 0.316264 243 152 228
-0.168228 -1.33216 0.379695 68 151 176
-0.448066 -0.27223 0.591183 24 106 203
-0.339131 -1.31482 -0.887625 133 30 199
-0.328957 -1.49063 -1.07067 58 220 190
-0.30557 -1.32262 -1.03933 242 29 109
-0.275108 -1.31003 -0.813371 233 120 68
-0.30609 -0.95126 -0.889676 171 183 70
-0.303156 -0.947542 -1.01314 198 2 106
-0.173812 -1.32649 -1.09446 147 216 14
-0.219246 -1.49063 -1.11906 76 100 250
-0.382775 -1.39172 -0.836785 73 29 144
-0.405509 -1.49063 -0.923557 24 35 180
-0.371723 -1.49063 -0.799275 146 240 52
-0.343324 -1.40802 -0.780566 2 3 29
-0.305095 -1.49063 -0.739261 186 32 55
-0.209817 -1.41356 -0.730011 51 249 204
-0.0673938 -1.49063 -0.890342 29 215 162
-0.106514 -1.32789 -0.844437 253 35 30
-0.0887601 -1.49063 -1.02906 16 98 241
-0.104077 -1.45467 -0.769187 19 51 12
-0.122461 -1.49063 -0.754631 136 182 30
-0.209687 -1.49063 -0.720943 190 149 118
-0.106689 -1.32608 -1.03103 76 14 7
-0.41986 -0.26234 -0.531828 142 204 171
-0.463972 -0.28731 -0.934459 5 38 184
-0.431219 -0.30862 -0.720432 6 240 11
-0.594604 0.23603 -0.417288 122 44 194
-0.16897 -0.23558 -1.23161 67 58 172
-0.419909 0.13612 -0.995888 102 148 220
-0.0855806 -1.21495 -1.02676 227 223 65
-0.132455 0.74411 1.10297 114 98 144
-0.25757 0.42516 1.46337 241 199 6
-0.177148 -0.10946 1.67952 10 226 237
-0.13426 -0.424 1.71275 10 12 31
-0.149553 -0.2532 1.69021 183 57 213
-0.119756 -0.40073 1.82186 15 196 143
-0.130757 -0.20188 1.79769 137 113 27
-0.130942 -0.04747 1.75197 3 146 30
-0.14178 -0.23496 1.61563 58 245 171
-0.118794 -0.28663 1.63475 30 53 98
-0.107924 -0.4323 1.67545 2 96 40
-0.10366 -0.624827 1.7201 124 209 74
-0.103632 -0.609568 1.83469 225 131 143
-0.0869276 -0.793462 1.72127 41 18 193
-0.0873053 -0.784945 1.82352 171 207 54
-0.0718812 -0.945004 1.70835 43 8 206
-0.0724464 -0.950509 1.79946 2 129 104
-0.0593133 -1.07266 1.68294 71 12 69
-0.0600393 -1.0767 1.7655 31 178 58
-0.0495671 -1.18324 1.64704 93 91 11
-0.0503538 -1.19317 1.72127 71 19 24
-0.0456921 -1.24488 1.61416 253 220 246
-0.0464913 -1.27582 1.67311 50 29 205
-0.041637 -1.27434 1.56502 158 99 167
-0.0424446 -1.32004 1.59996 15 232 192
-0.0389093 -1.27916 1.5191 137 11 128
-0.039724 -1.33061 1.53105 81 237 231
-0.0374226 -1.27012 1.4862 247 142 180
-0.038237 -1.31876 1.47419 70 23 79
-0.0384018 -1.26043 1.46432 180 126 107
-0.03919 -1.30992 1.45152 74 235 26
-0.0358204 -1.26114 1.45502 7 253 190
-0.0366633 -1.30591 1.44353 78 41 150
-0.0301012 -1.26692 1.45559 2 222 61
-0.0318309 -1.30357 1.44721 9 26 214
-0.375891 -0.26406 -1.18485 94 217 163
0.276944 0.03971 0.940783 202 76 67
0.325686 0.7053 1.23062 1 238 81
0.263143 0.71907 1.25433 86 188 154
0.23877 0.73481 1.23847 241 98 94
0.287631 0.79282 1.16887 254 47 133
0.236569 0.75852 1.21247 157 112 83
0.299585 0.49067 1.05335 71 67 162
0.32771 0.38347 1.02797 163 84 55
0.339419 0.24669 0.963865 137 29 183
0.745073 0.55533 0.841255 128 151 100
0.878384 0.50984 0.3704 225 12 37
0.835335 0.38476 0.391649 95 180 44
0.833013 0.80703 0.769755 239 194 251
0.398756 0.5819 1.07243 224 154 207
0.349919 0.65181 1.22402 174 105 27
0.516101 0.69306 1.10726 207 168 144
0.667157 0.82557 0.984453 146 98 25
0.765682 0.84104 0.849862 86 255 89
0.582106 0.87952 1.00241 46 82 223
0.415574 0.79936 1.11816 59 120 111
0.392406 0.82049 1.09846 86 113 4
0.317524 0.0237 0.917759 10 237 63
0.322952 -0.01873 0.898656 101 174 22
0.782389 0.30537 0.408911 75 255 201
0.313482 -0.07464 0.881971 98 23 125
0.33625 -0.16309 0.808994 180 40 143
0.45414 -0.00757 0.834185 6 131 139
0.549493 0.26089 0.824832 162 9 28
0.705898 0.24303 0.439463 254 241 175
0.392916 0.61046 1.1992 106 235 81
0.910367 0.67463 0.441573 59 168 59
0.888892 0.59311 0.394995 135 246 172
0.820123 0.82823 0.736881 72 36 243
0.694605 0.86475 0.86772 169 77 122
0.603395 0.8728 0.907167 108 98 114
0.539979 0.87044 0.941422 83 75 158
0.496769 0.86876 0.98817 124 119 156
0.442449 0.84109 1.0303 101 207 103
0.330099 -0.2514 0.7673 133 119 58
0.421749 -0.21963 0.733283 135 211 125
0.480256 -0.18328 0.691646 133 250 93
0.577376 -0.00647 0.579267 68 130 58
0.634547 0.04651 0.558685 216 61 134
0.647695 0.12651 0.504201 185 189 248
-0.276944 0.03971 0.940783 65 46 227
-0.325686 0.7053 1.23062 60 215 44
-0.263143 0.71907 1.25433 122 131 20
-0.23877 0.73481 1.23847 51 47 182
-0.287631 0.79282 1.16887 130 58 244
-0.236569 0.75852 1.21247 184 139 70
-0.299585 0.49067 1.05335 51 165 2
-0.32771 0.38347 1.02797 102 244 88
-0.339419 0.24669 0.963865 130 222 28
-0.745073 0.55533 0.841255 7 17 86
-0.878384 0.50984 0.3704 146 123 153
-0.835335 0.38476 0.391649 50 94 216
-0.833013 0.80703 0.769755 62 44 40
-0.398756 0.5819 1.07243 120 125 102
-0.349919 0.65181 1.22402 124 211 124
-0.516101 0.69306 1.10726 160 164 169
-0.667157 0.82557 0.984453 138 12 9
-0.765682 0.84104 0.849862 218 191 204
-0.582106 0.87952 1.00241 175 41 16
-0.415574 0.79936 1.11816 171 103 42
-0.392406 0.82049 1.09846 193 56 74
-0.317524 0.0237 0.917759 226 102 66
-0.322952 -0.01873 0.898656 31 193 12
-0.782389 0.30537 0.408911 204 108 8
-0.313482 -0.07464 0.881971 235 76 238
-0.33625 -0.16309 0.808994 24 80 234
-0.45414 -0.00757 0.834185 187 195 48
-0.549493 0.26089 0.824832 184 227 118
-0.705898 0.24303 0.439463 239 71 78
-0.392916 0.61046 1.1992 224 241 56
-0.910367 0.67463 0.441573 112 173 123
-0.888892 0.59311 0.394995 70 61 101
-0.820123 0.82823 0.736881 153 183 37
-0.694605 0.86475 0.86772 104 168 253
-0.603395 0.8728 0.907167 147 15 57
-0.539979 0.87044 0.941422 140 27 142
-0.496769 0.86876 0.98817 217 29 190
-0.442449 0.84109 1.0303 3 244 199
-0.330099 -0.2514 0.7673 170 136 73
-0.421749 -0.21963 0.733283 166 70 42
-0.480256 -0.18328 0.691646 54 34 108
-0.577376 -0.00647 0.579267 147 156 166
-0.634547 0.04651 0.558685 33 78 59
-0.647695 0.12651 0.504201 41 142 61
0 -1.31783 1.49308 216 135 193
0.476122 -0.06103 0.179635 98 233 96
0.473724 -0.05557 -0.628203 48 214 199
0.573172 -0.06545 -0.366452 112 83 249
-0.476122 -0.06103 0.179635 181 104 62
-0.573172 -0.06545 -0.366452 181 100 150
-0.479403 -0.06703 -0.614792 15 225 48
3 0 2 1
3 0 3 2
3 0 4 3
3 0 5 4
3 0 6 5
3 0 1 6
3 1 8 7
3 1 2 8
3 2 9 8
3 2 3 9
3 3 10 9
3 3 4 10
3 4 11 10
3 4 5 11
3 5 12 11
3 5 6 12
3 6 7 12
3 6 1 7
3 7 14 13
3 7 8 14
3 8 15 14
3 8 9 15
3 9 16 15
3 9 10 16
3 10 17 16
3 10 11 17
3 11 18 17
3 11 12 18
3 12 13 18
3 12 7 13
3 13 20 19
3 13 14 20
3 14 21 20
3 14 15 21
3 15 22 21
3 15 16 22
3 16 23 22
3 16 17 23
3 17 24 23
3 17 18 24
3 18 19 24
3 18 13 19
3 19 26 25
3 19 20 26
3 20 27 26
3 20 21 27
3 21 28 27
3 21 22 28
3 22 29 28
3 22 23 29
3 23 30 29
3 23 24 30
3 24 25 30
3 24 19 25
3 25 32 31
3 25 26 32
3 26 33 32
3 26 27 33
3 27 34 33
3 27 28 34
3 28 35 34
3 28 29 35
3 29 36 35
3 29 30 36
3 30 31 36
3 30 25 31
3 31 38 37
3 31 32 38
3 32 39 38
3 32 33 39
3 33 40 39
3 33 34 40
3 34 41 40
3 34 35 41
3 35 42 41
3 35 36 42
3 36 37 42
3 36 31 37
3 43 37 38
3 43 38 39
3 43 39 40
3 43 40 41
3 43 41 42
3 43 42 37
3 46 44 45
3 47 44 46
3 48 44 47
3 49 44 48
3 50 44 49
3 45 44 50
3 52 45 51
3 46 45 52
3 53 46 52
3 47 46 53
3 54 47 53
3 48 47 54
3 55 48 54
3 49 48 55
3 56 49 55
3 50 49 56
3 51 50 56
3 45 50 51
3 58 51 57
3 52 51 58
3 59 52 58
3 53 52 59
3 60 53 59
3 54 53 60
3 61 54 60
3 55 54 61
3 62 55 61
3 56 55 62
3 57 56 62
3 51 56 57
3 64 57 63
3 58 57 64
3 65 58 64
3 59 58 65
3 66 59 65
3 60 59 66
3 67 60 66
3 61 60 67
3 68 61 67
3 62 61 68
3 63 62 68
3 57 62 63
3 70 63 69
3 64 63 70
3 71 64 70
3 65 64 71
3 72 65 71
3 66 65 72
3 73 66 72
3 67 66 73
3 74 67 73
3 68 67 74
3 69 68 74
3 63 68 69
3 76 69 75
3 70 69 76
3 77 70 76
3 71 70 77
3 78 71 77
3 72 71 78
3 79 72 78
3 73 72 79
3 80 73 79
3 74 73 80
3 75 74 80
3 69 74 75
3 82 75 81
3 76 75 82
3 83 76 82
3 77 76 83
3 84 77 83
3 78 77 84
3 85 78 84
3 79 78 85
3 86 79 85
3 80 79 86
3 81 80 86
3 75 80 81
3 81 87 82
3 82 87 83
3 83 87 84
3 84 87 85
3 85 87 86
3 86 87 81
3 148 145 147
3 145 149 147
3 145 146 149
3 148 143 145
3 150 248 143
3 153 89 152
3 89 153 90
3 154 92 91
3 154 93 92
3 231 153 155
3 88 152 89
3 90 153 154
3 154 91 90
3 154 159 93
3 164 227 263
3 285 157 170
3 288 153 231
3 288 156 154
3 170 174 268
3 154 290 159
3 358 286 269
3 285 170 287
3 97 159 96
3 358 158 289
3 159 358 289
3 289 171 172
3 160 97 163
3 97 160 159
3 100 99 160
3 101 161 102
3 161 103 102
3 99 159 160
3 159 99 93
3 100 161 101
3 160 161 100
3 103 161 194
3 117 103 194
3 162 194 161
3 163 162 160
3 161 160 162
3 194 162 104
3 105 104 162
3 106 105 163
3 162 163 105
3 106 163 98
3 227 164 165
3 179 187 260
3 228 227 229
3 227 228 617
3 177 157 228
3 107 168 167
3 168 107 108
3 169 168 109
3 108 109 168
3 175 164 168
3 110 177 176
3 111 176 175
3 169 112 111
3 254 255 170
3 170 113 254
3 170 114 113
3 109 112 169
3 115 177 110
3 114 177 115
3 170 177 114
3 256 170 255
3 173 171 174
3 172 171 173
3 170 173 174
3 173 256 116
3 257 173 116
3 258 173 257
3 172 173 258
3 172 258 259
3 172 259 95
3 170 256 173
3 175 182 164
3 176 177 229
3 165 260 261
3 110 176 111
3 175 169 111
3 178 261 260
3 177 228 229
3 169 175 168
3 167 168 166
3 97 98 163
3 178 260 187
3 179 181 193
3 188 193 181
3 182 180 181
3 180 190 188
3 180 188 181
3 180 182 186
3 192 184 183
3 186 184 185
3 191 185 192
3 186 182 184
3 189 186 185
3 185 191 189
3 192 185 184
3 180 186 190
3 190 186 189
3 188 190 193
3 189 191 192
3 192 190 189
3 193 190 192
3 183 178 187
3 192 183 187
3 192 187 193
3 179 193 187
3 181 179 182
3 164 179 260
3 182 179 164
3 261 178 183
3 262 183 184
3 183 262 261
3 184 182 175
3 117 194 120
3 194 104 118
3 120 119 117
3 194 118 120
3 120 122 119
3 121 122 120
3 122 121 123
3 123 124 122
3 124 123 246
3 246 125 124
3 126 246 123
3 166 168 263
3 218 166 155
3 230 205 251
3 293 127 199
3 88 130 152
3 131 152 130
3 218 132 198
3 132 138 198
3 249 199 127
3 202 199 252
3 201 199 202
3 212 203 200
3 202 205 201
3 204 207 206
3 201 209 208
3 205 230 209
3 206 208 230
3 210 213 196
3 210 233 238
3 213 197 196
3 212 197 213
3 195 210 196
3 204 197 212
3 212 213 234
3 210 195 233
3 235 233 195
3 214 235 211
3 195 211 235
3 203 137 200
3 137 203 134
3 253 135 216
3 132 218 131
3 200 218 217
3 218 200 166
3 167 166 200
3 200 137 167
3 167 137 136
3 136 107 167
3 152 218 155
3 218 152 131
3 263 168 164
3 128 219 129
3 198 138 292
3 218 220 221
3 221 217 218
3 219 223 222
3 223 224 222
3 198 292 222
3 292 219 222
3 292 129 219
3 220 224 225
3 220 198 222
3 198 220 218
3 293 224 128
3 223 226 128
3 226 219 128
3 293 201 225
3 231 227 617
3 227 165 229
3 251 205 202
3 230 204 206
3 230 251 250
3 209 201 205
3 227 231 263
3 170 157 177
3 216 135 236
3 232 236 151
3 236 215 216
3 214 215 235
3 236 244 215
3 235 215 244
3 221 220 237
3 237 207 221
3 217 221 207
3 207 237 201
3 217 207 200
3 200 207 204
3 225 201 237
3 237 220 225
3 293 225 224
3 224 223 128
3 207 201 208
3 208 206 207
3 239 238 233
3 238 240 210
3 240 213 210
3 240 241 213
3 234 213 241
3 232 234 241
3 241 242 232
3 233 235 243
3 243 239 233
3 242 245 232
3 236 232 245
3 244 236 245
3 235 244 243
3 246 139 125
3 246 126 140
3 139 246 141
3 246 140 141
3 155 153 152
3 288 617 619
3 203 212 247
3 134 203 142
3 203 247 142
3 142 247 144
3 145 248 247
3 144 247 248
3 145 247 151
3 248 145 143
3 248 150 144
3 135 151 236
3 232 212 234
3 247 212 232
3 208 209 230
3 212 200 204
3 95 289 172
3 289 95 94
3 250 197 204
3 230 250 204
3 251 202 252
3 199 249 252
3 247 232 151
3 260 165 164
3 165 261 229
3 229 261 262
3 175 262 184
3 262 176 229
3 262 175 176
3 155 263 231
3 166 263 155
3 264 265 266
3 174 267 268
3 269 266 270
3 271 270 266
3 271 266 265
3 264 272 273
3 274 273 272
3 267 275 272
3 275 276 274
3 275 274 272
3 275 267 277
3 278 279 280
3 277 279 281
3 282 281 278
3 277 267 279
3 283 277 281
3 281 282 283
3 278 281 279
3 275 277 276
3 276 277 283
3 274 276 273
3 283 282 278
3 278 276 283
3 273 276 278
3 280 271 265
3 278 280 265
3 278 265 273
3 264 273 265
3 272 264 267
3 269 268 264
3 267 264 268
3 270 271 280
3 284 280 279
3 280 284 270
3 279 267 174
3 264 266 269
3 269 270 158
3 270 284 291
3 279 291 284
3 291 158 270
3 291 279 174
3 220 222 224
3 219 226 223
3 286 287 268
3 268 269 286
3 287 170 268
3 288 231 617
3 269 158 358
3 286 358 290
3 618 286 290
3 285 287 618
3 154 153 288
3 619 618 156
3 159 289 96
3 94 96 289
3 156 290 154
3 287 286 618
3 158 291 171
3 291 174 171
3 133 292 138
3 129 292 133
3 201 293 199
3 128 127 293
3 211 295 214
3 195 295 211
3 253 216 294
3 215 294 216
3 251 295 195
3 195 196 251
3 250 251 196
3 196 197 250
3 329 328 327
3 326 327 328
3 295 330 329
3 329 327 295
3 295 327 214
3 252 330 251
3 295 251 330
3 328 329 296
3 297 296 329
3 297 330 298
3 330 297 329
3 330 252 298
3 249 298 252
3 332 331 327
3 214 327 331
3 326 332 327
3 333 332 326
3 300 332 299
3 333 299 332
3 301 331 300
3 332 300 331
3 214 331 215
3 294 215 301
3 215 331 301
3 326 328 335
3 335 334 326
3 328 296 302
3 302 335 328
3 333 326 334
3 299 333 334
3 334 303 299
3 334 335 337
3 337 336 334
3 335 302 304
3 304 337 335
3 303 334 336
3 336 305 303
3 336 337 339
3 339 338 336
3 337 304 306
3 306 339 337
3 305 336 338
3 338 307 305
3 338 339 341
3 341 340 338
3 339 306 308
3 308 341 339
3 307 338 340
3 340 309 307
3 340 341 343
3 343 342 340
3 341 308 310
3 310 343 341
3 309 340 342
3 342 311 309
3 342 343 345
3 345 344 342
3 343 310 312
3 312 345 343
3 311 342 344
3 344 313 311
3 344 345 347
3 347 346 344
3 345 312 314
3 314 347 345
3 313 344 346
3 346 315 313
3 346 347 349
3 349 348 346
3 347 314 316
3 316 349 347
3 315 346 348
3 348 317 315
3 348 349 351
3 351 350 348
3 349 316 318
3 318 351 349
3 317 348 350
3 350 319 317
3 350 351 353
3 353 352 350
3 351 318 320
3 320 353 351
3 319 350 352
3 352 321 319
3 352 353 355
3 355 354 352
3 353 320 322
3 322 355 353
3 321 352 354
3 354 323 321
3 354 355 357
3 357 356 354
3 324 357 355
3 355 322 324
3 323 354 356
3 356 325 323
3 146 145 151
3 171 289 158
3 159 290 358
3 359 148 147
3 149 359 147
3 146 359 149
3 143 148 359
3 456 150 143
3 89 361 360
3 361 89 90
3 92 362 91
3 93 362 92
3 361 439 363
3 360 88 89
3 361 90 362
3 91 362 90
3 367 362 93
3 435 372 463
3 365 485 378
3 361 488 439
3 364 488 362
3 382 378 468
3 490 362 367
3 486 527 469
3 378 485 487
3 367 97 96
3 366 527 489
3 527 367 489
3 379 489 380
3 97 368 371
3 368 97 367
3 99 100 368
3 369 101 102
3 103 369 102
3 367 99 368
3 99 367 93
3 369 100 101
3 369 368 100
3 369 103 402
3 103 117 402
3 402 370 369
3 370 371 368
3 368 369 370
3 370 402 104
3 104 105 370
3 105 106 371
3 371 370 105
3 371 106 98
3 372 435 373
3 395 387 460
3 435 436 437
3 436 435 620
3 365 385 436
3 376 107 375
3 107 376 108
3 376 377 109
3 109 108 376
3 372 383 376
3 385 110 384
3 384 111 383
3 112 377 111
3 255 254 378
3 113 378 254
3 114 378 113
3 112 109 377
3 385 115 110
3 385 114 115
3 385 378 114
3 378 256 255
3 379 381 382
3 379 380 381
3 381 378 382
3 256 381 116
3 381 257 116
3 381 258 257
3 381 380 258
3 258 380 259
3 259 380 95
3 256 378 381
3 390 383 372
3 385 384 437
3 460 373 461
3 384 110 111
3 377 383 111
3 461 386 460
3 436 385 437
3 383 377 376
3 376 375 374
3 98 97 371
3 460 386 395
3 389 387 401
3 401 396 389
3 388 390 389
3 398 388 396
3 396 388 389
3 390 388 394
3 392 400 391
3 392 394 393
3 393 399 400
3 390 394 392
3 394 397 393
3 399 393 397
3 393 400 392
3 394 388 398
3 394 398 397
3 398 396 401
3 399 397 400
3 398 400 397
3 398 401 400
3 386 391 395
3 391 400 395
3 395 400 401
3 401 387 395
3 387 389 390
3 387 372 460
3 387 390 372
3 386 461 391
3 391 462 392
3 462 391 461
3 390 392 383
3 402 117 120
3 104 402 118
3 119 120 117
3 118 402 120
3 122 120 119
3 122 121 120
3 121 122 123
3 124 123 122
3 123 124 454
3 125 454 124
3 454 126 123
3 376 374 463
3 374 426 363
3 413 438 458
3 127 493 407
3 130 88 360
3 360 131 130
3 132 426 406
3 138 132 406
3 407 249 127
3 407 410 459
3 407 409 410
3 411 420 408
3 413 410 409
3 415 412 414
3 417 409 416
3 438 413 417
3 416 414 438
3 421 418 404
3 441 418 446
3 405 421 404
3 405 420 421
3 418 403 404
3 405 412 420
3 421 420 442
3 403 418 441
3 441 443 403
3 443 422 419
3 419 403 443
3 137 411 408
3 411 137 134
3 135 253 424
3 426 132 131
3 426 408 425
3 408 426 374
3 374 375 408
3 137 408 375
3 137 375 136
3 107 136 375
3 426 360 363
3 360 426 131
3 376 463 372
3 427 128 129
3 138 406 492
3 428 426 429
3 425 429 426
3 431 427 430
3 432 431 430
3 492 406 430
3 427 492 430
3 129 492 427
3 432 428 433
3 406 428 430
3 428 406 426
3 432 493 128
3 434 431 128
3 427 434 128
3 409 493 433
3 435 439 620
3 373 435 437
3 413 458 410
3 412 438 414
3 458 438 457
3 409 417 413
3 439 435 463
3 365 378 385
3 135 424 444
3 444 440 151
3 423 444 424
3 423 422 443
3 452 444 423
3 423 443 452
3 428 429 445
3 415 445 429
3 429 425 415
3 445 415 409
3 415 425 408
3 415 408 412
3 409 433 445
3 428 445 433
3 433 493 432
3 431 432 128
3 409 415 416
3 414 416 415
3 446 447 441
3 448 446 418
3 421 448 418
3 449 448 421
3 421 442 449
3 442 440 449
3 450 449 440
3 443 441 451
3 447 451 441
3 453 450 440
3 440 444 453
3 444 452 453
3 452 443 451
3 139 454 125
3 126 454 140
3 454 139 141
3 140 454 141
3 361 363 360
3 620 488 621
3 420 411 455
3 411 134 142
3 455 411 142
3 455 142 144
3 456 359 455
3 455 144 456
3 455 359 151
3 359 456 143
3 150 456 144
3 151 135 444
3 420 440 442
3 420 455 440
3 417 416 438
3 408 420 412
3 489 95 380
3 95 489 94
3 405 457 412
3 457 438 412
3 410 458 459
3 249 407 459
3 440 455 151
3 373 460 372
3 461 373 437
3 461 437 462
3 462 383 392
3 384 462 437
3 383 462 384
3 463 363 439
3 463 374 363
3 465 464 466
3 467 382 468
3 466 469 470
3 470 471 466
3 466 471 465
3 472 464 473
3 473 474 472
3 475 467 472
3 476 475 474
3 474 475 472
3 467 475 477
3 479 478 480
3 479 477 481
3 481 482 478
3 467 477 479
3 477 483 481
3 482 481 483
3 481 478 479
3 477 475 476
3 477 476 483
3 476 474 473
3 482 483 478
3 476 478 483
3 476 473 478
3 471 480 465
3 480 478 465
3 465 478 473
3 473 464 465
3 464 472 467
3 468 469 464
3 464 467 468
3 471 470 480
3 480 484 479
3 484 480 470
3 467 479 382
3 466 464 469
3 470 469 366
3 484 470 491
3 491 479 484
3 366 491 470
3 479 491 382
3 430 428 432
3 434 427 431
3 487 486 468
3 469 468 486
3 378 487 468
3 439 488 620
3 366 469 527
3 527 486 490
3 486 622 490
3 621 622 485
3 361 362 488
3 621 488 364
3 489 367 96
3 96 94 489
3 490 364 362
3 622 486 487
3 491 366 379
3 382 491 379
3 492 133 138
3 492 129 133
3 493 409 407
3 127 128 493
3 494 419 422
3 494 403 419
3 424 253 294
3 294 423 424
3 494 458 403
3 404 403 458
3 458 457 404
3 405 404 457
3 497 498 496
3 496 495 497
3 499 494 498
3 496 498 494
3 496 494 422
3 499 459 458
3 458 494 499
3 498 497 296
3 296 297 498
3 499 297 298
3 297 499 498
3 459 499 298
3 298 249 459
3 500 501 496
3 496 422 500
3 501 495 496
3 501 502 495
3 501 300 299
3 299 502 501
3 500 301 300
3 300 501 500
3 500 422 423
3 423 294 301
3 500 423 301
3 497 495 504
3 503 504 495
3 296 497 302
3 504 302 497
3 495 502 503
3 502 299 503
3 303 503 299
3 504 503 506
3 505 506 503
3 302 504 304
3 506 304 504
3 503 303 505
3 305 505 303
3 506 505 508
3 507 508 505
3 304 506 306
3 508 306 506
3 505 305 507
3 307 507 305
3 508 507 510
3 509 510 507
3 306 508 308
3 510 308 508
3 507 307 509
3 309 509 307
3 510 509 512
3 511 512 509
3 308 510 310
3 512 310 510
3 509 309 511
3 311 511 309
3 512 511 514
3 513 514 511
3 310 512 312
3 514 312 512
3 511 311 513
3 313 513 311
3 514 513 516
3 515 516 513
3 312 514 314
3 516 314 514
3 513 313 515
3 315 515 313
3 516 515 518
3 517 518 515
3 314 516 316
3 518 316 516
3 515 315 517
3 317 517 315
3 518 517 520
3 519 520 517
3 316 518 318
3 520 318 518
3 517 317 519
3 319 519 317
3 520 519 522
3 521 522 519
3 318 520 320
3 522 320 520
3 519 319 521
3 321 521 319
3 522 521 524
3 523 524 521
3 320 522 322
3 524 322 522
3 521 321 523
3 323 523 321
3 524 523 526
3 525 526 523
3 526 324 524
3 322 524 324
3 523 323 525
3 325 525 323
3 359 146 151
3 489 379 366
3 490 367 527
3 532 533 530
3 531 530 533
3 548 532 530
3 539 538 537
3 540 559 558
3 559 540 538
3 537 538 540
3 560 540 558
3 534 535 541
3 535 544 541
3 544 535 537
3 545 544 540
3 537 540 544
3 560 545 540
3 546 544 545
3 545 561 546
3 562 546 561
3 563 546 562
3 544 547 543
3 547 542 557
3 542 547 529
3 543 547 557
3 544 546 547
3 564 546 563
3 564 565 546
3 547 546 565
3 548 547 565
3 548 530 547
3 547 530 529
3 536 528 549
3 537 551 539
3 567 553 566
3 567 554 553
3 552 553 554
3 554 567 568
3 536 555 535
3 549 554 536
3 552 554 550
3 549 550 554
3 554 568 569
3 536 554 555
3 570 555 569
3 555 554 569
3 537 556 551
3 555 556 537
3 535 555 537
3 571 556 555
3 570 571 555
3 543 541 544
3 557 541 543
3 561 545 560
3 577 576 574
3 574 575 577
3 576 592 574
3 582 583 581
3 603 584 602
3 584 603 582
3 582 581 584
3 584 604 602
3 579 578 585
3 588 579 585
3 579 588 581
3 588 589 584
3 584 581 588
3 589 604 584
3 588 590 589
3 605 589 590
3 590 606 605
3 590 607 606
3 591 588 587
3 586 591 601
3 591 586 573
3 591 587 601
3 590 588 591
3 590 608 607
3 609 608 590
3 590 591 609
3 591 592 609
3 574 592 591
3 574 591 573
3 572 580 593
3 595 581 583
3 597 611 610
3 598 611 597
3 597 596 598
3 611 598 612
3 599 580 579
3 598 593 580
3 598 596 594
3 594 593 598
3 612 598 613
3 598 580 599
3 599 614 613
3 598 599 613
3 600 581 595
3 600 599 581
3 599 579 581
3 600 615 599
3 615 614 599
3 585 587 588
3 585 601 587
3 589 605 604
3 356 357 616
3 357 324 616
3 325 356 616
3 526 525 616
3 324 526 616
3 525 325 616
3 157 617 228
3 617 157 619
3 156 618 290
3 619 156 288
3 619 157 285
3 618 619 285
3 620 365 436
3 365 620 621
3 365 621 485
3 487 485 622
3 490 622 364
3 622 621 364
